<?xml version="1.0" encoding="UTF-8" standalone="no"?>
<!DOCTYPE svg PUBLIC "-//W3C//DTD SVG 1.1//EN"
 "http://www.w3.org/Graphics/SVG/1.1/DTD/svg11.dtd">
<!-- Generated by graphviz version 2.43.0 (0)
 -->
<!-- Title: std_types.h Pages: 1 -->
<svg width="3135pt" height="252pt"
 viewBox="0.00 0.00 3135.00 252.00" xmlns="http://www.w3.org/2000/svg" xmlns:xlink="http://www.w3.org/1999/xlink">
<g id="graph0" class="graph" transform="scale(1 1) rotate(0) translate(4 248)">
<title>std_types.h</title>
<polygon fill="white" stroke="transparent" points="-4,4 -4,-248 3131,-248 3131,4 -4,4"/>
<!-- Node1 -->
<g id="node1" class="node">
<title>Node1</title>
<g id="a_node1"><a xlink:title=" ">
<polygon fill="#bfbfbf" stroke="black" points="1654,-224.5 1654,-243.5 1727,-243.5 1727,-224.5 1654,-224.5"/>
<text text-anchor="middle" x="1690.5" y="-231.5" font-family="Helvetica,sans-Serif" font-size="10.00">std_types.h</text>
</a>
</g>
</g>
<!-- Node2 -->
<g id="node2" class="node">
<title>Node2</title>
<g id="a_node2"><a xlink:href="api_2abi-default_2atomic_8h.html" target="_top" xlink:title=" ">
<polygon fill="white" stroke="red" points="192,-168.5 192,-187.5 251,-187.5 251,-168.5 192,-168.5"/>
<text text-anchor="middle" x="221.5" y="-175.5" font-family="Helvetica,sans-Serif" font-size="10.00">atomic.h</text>
</a>
</g>
</g>
<!-- Node1&#45;&gt;Node2 -->
<g id="edge1" class="edge">
<title>Node1&#45;&gt;Node2</title>
<path fill="none" stroke="midnightblue" d="M1643.64,-232.79C1428.74,-231.65 536.18,-224.74 259.5,-188 256.81,-187.64 254.04,-187.18 251.27,-186.65"/>
<polygon fill="midnightblue" stroke="midnightblue" points="1643.92,-236.29 1653.93,-232.85 1643.95,-229.29 1643.92,-236.29"/>
</g>
<!-- Node11 -->
<g id="node9" class="node">
<title>Node11</title>
<g id="a_node9"><a xlink:href="api_2abi-default_2barrier_8h.html" target="_top" xlink:title=" ">
<polygon fill="white" stroke="red" points="269,-168.5 269,-187.5 326,-187.5 326,-168.5 269,-168.5"/>
<text text-anchor="middle" x="297.5" y="-175.5" font-family="Helvetica,sans-Serif" font-size="10.00">barrier.h</text>
</a>
</g>
</g>
<!-- Node1&#45;&gt;Node11 -->
<g id="edge8" class="edge">
<title>Node1&#45;&gt;Node11</title>
<path fill="none" stroke="midnightblue" d="M1643.45,-232.7C1435.33,-231.16 596.34,-222.87 335.5,-188 332.41,-187.59 329.2,-187.03 326.02,-186.4"/>
<polygon fill="midnightblue" stroke="midnightblue" points="1643.7,-236.2 1653.73,-232.77 1643.75,-229.2 1643.7,-236.2"/>
</g>
<!-- Node49 -->
<g id="node10" class="node">
<title>Node49</title>
<g id="a_node10"><a xlink:href="api_2abi-default_2byteorder_8h.html" target="_top" xlink:title=" ">
<polygon fill="white" stroke="red" points="344.5,-168.5 344.5,-187.5 416.5,-187.5 416.5,-168.5 344.5,-168.5"/>
<text text-anchor="middle" x="380.5" y="-175.5" font-family="Helvetica,sans-Serif" font-size="10.00">byteorder.h</text>
</a>
</g>
</g>
<!-- Node1&#45;&gt;Node49 -->
<g id="edge9" class="edge">
<title>Node1&#45;&gt;Node49</title>
<path fill="none" stroke="midnightblue" d="M1643.71,-232.35C1444.77,-229.43 668.34,-216.41 425.5,-188 422.65,-187.67 419.71,-187.25 416.77,-186.78"/>
<polygon fill="midnightblue" stroke="midnightblue" points="1643.78,-235.85 1653.82,-232.5 1643.88,-228.85 1643.78,-235.85"/>
</g>
<!-- Node58 -->
<g id="node11" class="node">
<title>Node58</title>
<g id="a_node11"><a xlink:href="api_2abi-default_2cpumask_8h.html" target="_top" xlink:title=" ">
<polygon fill="white" stroke="red" points="434.5,-168.5 434.5,-187.5 504.5,-187.5 504.5,-168.5 434.5,-168.5"/>
<text text-anchor="middle" x="469.5" y="-175.5" font-family="Helvetica,sans-Serif" font-size="10.00">cpumask.h</text>
</a>
</g>
</g>
<!-- Node1&#45;&gt;Node58 -->
<g id="edge10" class="edge">
<title>Node1&#45;&gt;Node58</title>
<path fill="none" stroke="midnightblue" d="M1643.59,-232.23C1453.26,-228.96 738.03,-215.07 513.5,-188 510.71,-187.66 507.84,-187.24 504.96,-186.77"/>
<polygon fill="midnightblue" stroke="midnightblue" points="1643.76,-235.74 1653.82,-232.41 1643.88,-228.74 1643.76,-235.74"/>
</g>
<!-- Node82 -->
<g id="node12" class="node">
<title>Node82</title>
<g id="a_node12"><a xlink:href="api_2abi-default_2init_8h.html" target="_top" xlink:title=" ">
<polygon fill="white" stroke="red" points="523,-168.5 523,-187.5 564,-187.5 564,-168.5 523,-168.5"/>
<text text-anchor="middle" x="543.5" y="-175.5" font-family="Helvetica,sans-Serif" font-size="10.00">init.h</text>
</a>
</g>
</g>
<!-- Node1&#45;&gt;Node82 -->
<g id="edge11" class="edge">
<title>Node1&#45;&gt;Node82</title>
<path fill="none" stroke="midnightblue" d="M1643.76,-232.74C1459.53,-231.46 783.41,-224.33 572.5,-188 569.8,-187.53 567,-186.89 564.25,-186.15"/>
<polygon fill="midnightblue" stroke="midnightblue" points="1643.9,-236.24 1653.93,-232.81 1643.95,-229.24 1643.9,-236.24"/>
</g>
<!-- Node90 -->
<g id="node13" class="node">
<title>Node90</title>
<g id="a_node13"><a xlink:href="api_2abi-default_2ipsec_8h.html" target="_top" xlink:title=" ">
<polygon fill="white" stroke="red" points="582,-168.5 582,-187.5 633,-187.5 633,-168.5 582,-168.5"/>
<text text-anchor="middle" x="607.5" y="-175.5" font-family="Helvetica,sans-Serif" font-size="10.00">ipsec.h</text>
</a>
</g>
</g>
<!-- Node1&#45;&gt;Node90 -->
<g id="edge12" class="edge">
<title>Node1&#45;&gt;Node90</title>
<path fill="none" stroke="midnightblue" d="M1643.84,-232.29C1467.24,-229.41 839.87,-217.29 642.5,-188 639.52,-187.56 636.43,-186.97 633.37,-186.29"/>
<polygon fill="midnightblue" stroke="midnightblue" points="1643.79,-235.79 1653.85,-232.45 1643.91,-228.79 1643.79,-235.79"/>
</g>
<!-- Node99 -->
<g id="node14" class="node">
<title>Node99</title>
<g id="a_node14"><a xlink:href="api_2abi-default_2packet__io_8h.html" target="_top" xlink:title=" ">
<polygon fill="white" stroke="red" points="651.5,-168.5 651.5,-187.5 723.5,-187.5 723.5,-168.5 651.5,-168.5"/>
<text text-anchor="middle" x="687.5" y="-175.5" font-family="Helvetica,sans-Serif" font-size="10.00">packet_io.h</text>
</a>
</g>
</g>
<!-- Node1&#45;&gt;Node99 -->
<g id="edge13" class="edge">
<title>Node1&#45;&gt;Node99</title>
<path fill="none" stroke="midnightblue" d="M1643.47,-233.29C1503.95,-233.61 1080.4,-230.71 732.5,-188 729.65,-187.65 726.72,-187.22 723.77,-186.74"/>
<polygon fill="midnightblue" stroke="midnightblue" points="1643.8,-236.79 1653.79,-233.26 1643.78,-229.79 1643.8,-236.79"/>
</g>
<!-- Node31 -->
<g id="node15" class="node">
<title>Node31</title>
<g id="a_node15"><a xlink:href="api_2abi-default_2rwlock__recursive_8h.html" target="_top" xlink:title=" ">
<polygon fill="white" stroke="red" points="741.5,-168.5 741.5,-187.5 849.5,-187.5 849.5,-168.5 741.5,-168.5"/>
<text text-anchor="middle" x="795.5" y="-175.5" font-family="Helvetica,sans-Serif" font-size="10.00">rwlock_recursive.h</text>
</a>
</g>
</g>
<!-- Node1&#45;&gt;Node31 -->
<g id="edge14" class="edge">
<title>Node1&#45;&gt;Node31</title>
<path fill="none" stroke="midnightblue" d="M1643.8,-231.91C1517.17,-228.65 1156.75,-217.31 858.5,-188 855.64,-187.72 852.71,-187.4 849.76,-187.06"/>
<polygon fill="midnightblue" stroke="midnightblue" points="1643.83,-235.41 1653.92,-232.17 1644.01,-228.42 1643.83,-235.41"/>
</g>
<!-- Node127 -->
<g id="node16" class="node">
<title>Node127</title>
<g id="a_node16"><a xlink:href="api_2abi-default_2schedule_8h.html" target="_top" xlink:title=" ">
<polygon fill="white" stroke="red" points="868,-168.5 868,-187.5 937,-187.5 937,-168.5 868,-168.5"/>
<text text-anchor="middle" x="902.5" y="-175.5" font-family="Helvetica,sans-Serif" font-size="10.00">schedule.h</text>
</a>
</g>
</g>
<!-- Node1&#45;&gt;Node127 -->
<g id="edge15" class="edge">
<title>Node1&#45;&gt;Node127</title>
<path fill="none" stroke="midnightblue" d="M1643.85,-232.46C1526.3,-230.62 1208.64,-222.56 946.5,-188 943.41,-187.59 940.21,-187.09 937.01,-186.54"/>
<polygon fill="midnightblue" stroke="midnightblue" points="1643.89,-235.97 1653.94,-232.61 1643.99,-228.97 1643.89,-235.97"/>
</g>
<!-- Node135 -->
<g id="node17" class="node">
<title>Node135</title>
<g id="a_node17"><a xlink:href="api_2abi-default_2spinlock__recursive_8h.html" target="_top" xlink:title=" ">
<polygon fill="white" stroke="red" points="955.5,-168.5 955.5,-187.5 1071.5,-187.5 1071.5,-168.5 955.5,-168.5"/>
<text text-anchor="middle" x="1013.5" y="-175.5" font-family="Helvetica,sans-Serif" font-size="10.00">spinlock_recursive.h</text>
</a>
</g>
</g>
<!-- Node1&#45;&gt;Node135 -->
<g id="edge16" class="edge">
<title>Node1&#45;&gt;Node135</title>
<path fill="none" stroke="midnightblue" d="M1644.01,-230.52C1541.88,-224.87 1290.35,-209.81 1080.5,-188 1077.58,-187.7 1074.59,-187.37 1071.58,-187.02"/>
<polygon fill="midnightblue" stroke="midnightblue" points="1643.81,-234.02 1653.99,-231.07 1644.2,-227.03 1643.81,-234.02"/>
</g>
<!-- Node144 -->
<g id="node18" class="node">
<title>Node144</title>
<g id="a_node18"><a xlink:href="api_2abi-default_2traffic__mngr_8h.html" target="_top" xlink:title=" ">
<polygon fill="white" stroke="red" points="1089.5,-168.5 1089.5,-187.5 1173.5,-187.5 1173.5,-168.5 1089.5,-168.5"/>
<text text-anchor="middle" x="1131.5" y="-175.5" font-family="Helvetica,sans-Serif" font-size="10.00">traffic_mngr.h</text>
</a>
</g>
</g>
<!-- Node1&#45;&gt;Node144 -->
<g id="edge17" class="edge">
<title>Node1&#45;&gt;Node144</title>
<path fill="none" stroke="midnightblue" d="M1643.76,-229.92C1554.75,-223.81 1354.87,-208.91 1187.5,-188 1183.01,-187.44 1178.32,-186.79 1173.65,-186.1"/>
<polygon fill="midnightblue" stroke="midnightblue" points="1643.59,-233.41 1653.8,-230.6 1644.06,-226.43 1643.59,-233.41"/>
</g>
<!-- Node19 -->
<g id="node19" class="node">
<title>Node19</title>
<g id="a_node19"><a xlink:href="api_2barrier_8h.html" target="_top" xlink:title=" ">
<polygon fill="white" stroke="black" points="2079,-56.5 2079,-75.5 2136,-75.5 2136,-56.5 2079,-56.5"/>
<text text-anchor="middle" x="2107.5" y="-63.5" font-family="Helvetica,sans-Serif" font-size="10.00">barrier.h</text>
</a>
</g>
</g>
<!-- Node1&#45;&gt;Node19 -->
<g id="edge18" class="edge">
<title>Node1&#45;&gt;Node19</title>
<path fill="none" stroke="midnightblue" d="M1737.47,-231.68C1845.53,-228.16 2104.51,-216.78 2130.5,-188 2159.88,-155.47 2127.46,-97.45 2113.37,-75.62"/>
<polygon fill="midnightblue" stroke="midnightblue" points="1737.07,-228.19 1727.19,-232.01 1737.3,-235.19 1737.07,-228.19"/>
</g>
<!-- Node20 -->
<g id="node20" class="node">
<title>Node20</title>
<g id="a_node20"><a xlink:href="odp__api_8h.html" target="_top" xlink:title=" ">
<polygon fill="white" stroke="red" points="1761.5,-0.5 1761.5,-19.5 1825.5,-19.5 1825.5,-0.5 1761.5,-0.5"/>
<text text-anchor="middle" x="1793.5" y="-7.5" font-family="Helvetica,sans-Serif" font-size="10.00">odp_api.h</text>
</a>
</g>
</g>
<!-- Node1&#45;&gt;Node20 -->
<g id="edge71" class="edge">
<title>Node1&#45;&gt;Node20</title>
<path fill="none" stroke="midnightblue" d="M1737.35,-233.2C1966.45,-233.94 2959.61,-234.45 3004.5,-188 3176.42,-10.09 2033.46,-9.39 1825.57,-10.72"/>
<polygon fill="midnightblue" stroke="midnightblue" points="1737.35,-229.7 1727.34,-233.16 1737.32,-236.7 1737.35,-229.7"/>
</g>
<!-- Node152 -->
<g id="node21" class="node">
<title>Node152</title>
<g id="a_node21"><a xlink:href="api_2buffer_8h.html" target="_top" xlink:title=" ">
<polygon fill="white" stroke="black" points="3074,-56.5 3074,-75.5 3127,-75.5 3127,-56.5 3074,-56.5"/>
<text text-anchor="middle" x="3100.5" y="-63.5" font-family="Helvetica,sans-Serif" font-size="10.00">buffer.h</text>
</a>
</g>
</g>
<!-- Node1&#45;&gt;Node152 -->
<g id="edge20" class="edge">
<title>Node1&#45;&gt;Node152</title>
<path fill="none" stroke="midnightblue" d="M1737.48,-232.95C1971.84,-232.49 3005.34,-228.19 3059.5,-188 3096.37,-160.64 3100.42,-98.41 3100.62,-75.59"/>
<polygon fill="midnightblue" stroke="midnightblue" points="1737.24,-229.45 1727.25,-232.96 1737.26,-236.45 1737.24,-229.45"/>
</g>
<!-- Node107 -->
<g id="node22" class="node">
<title>Node107</title>
<g id="a_node22"><a xlink:href="api_2classification_8h.html" target="_top" xlink:title=" ">
<polygon fill="white" stroke="black" points="1116,-56.5 1116,-75.5 1205,-75.5 1205,-56.5 1116,-56.5"/>
<text text-anchor="middle" x="1160.5" y="-63.5" font-family="Helvetica,sans-Serif" font-size="10.00">classification.h</text>
</a>
</g>
</g>
<!-- Node1&#45;&gt;Node107 -->
<g id="edge22" class="edge">
<title>Node1&#45;&gt;Node107</title>
<path fill="none" stroke="midnightblue" d="M1643.51,-233.94C1562.2,-234.31 1390.79,-229.5 1253.5,-188 1235.23,-182.48 1233.07,-175.46 1215.5,-168 1168.54,-148.05 1136.39,-173.35 1106.5,-132 1091.2,-110.84 1123.28,-87.68 1144.25,-75.53"/>
<polygon fill="midnightblue" stroke="midnightblue" points="1643.93,-237.44 1653.9,-233.86 1643.88,-230.44 1643.93,-237.44"/>
</g>
<!-- Node108 -->
<g id="node23" class="node">
<title>Node108</title>
<g id="a_node23"><a xlink:href="api_2spec_2ipsec_8h.html" target="_top" xlink:title=" ">
<polygon fill="white" stroke="red" points="1172,-0.5 1172,-19.5 1223,-19.5 1223,-0.5 1172,-0.5"/>
<text text-anchor="middle" x="1197.5" y="-7.5" font-family="Helvetica,sans-Serif" font-size="10.00">ipsec.h</text>
</a>
</g>
</g>
<!-- Node1&#45;&gt;Node108 -->
<g id="edge51" class="edge">
<title>Node1&#45;&gt;Node108</title>
<path fill="none" stroke="midnightblue" d="M1643.74,-231.23C1540.13,-226.87 1294.19,-214.05 1215.5,-188 1199.22,-182.61 1197.74,-175.87 1182.5,-168 1146.78,-149.54 1121.56,-165.62 1099.5,-132 1090.16,-117.77 1090.59,-78.39 1106.5,-56 1121.92,-34.31 1150.81,-22.55 1171.91,-16.55"/>
<polygon fill="midnightblue" stroke="midnightblue" points="1643.76,-234.73 1653.9,-231.65 1644.05,-227.74 1643.76,-234.73"/>
</g>
<!-- Node113 -->
<g id="node24" class="node">
<title>Node113</title>
<g id="a_node24"><a xlink:href="api_2crypto_8h.html" target="_top" xlink:title=" ">
<polygon fill="white" stroke="black" points="1411.5,-56.5 1411.5,-75.5 1467.5,-75.5 1467.5,-56.5 1411.5,-56.5"/>
<text text-anchor="middle" x="1439.5" y="-63.5" font-family="Helvetica,sans-Serif" font-size="10.00">crypto.h</text>
</a>
</g>
</g>
<!-- Node1&#45;&gt;Node113 -->
<g id="edge25" class="edge">
<title>Node1&#45;&gt;Node113</title>
<path fill="none" stroke="midnightblue" d="M1643.84,-225.84C1607.04,-219.11 1555,-207.15 1512.5,-188 1472.26,-169.87 1451.11,-171.03 1430.5,-132 1420.82,-113.66 1429.45,-88.55 1435.25,-75.56"/>
<polygon fill="midnightblue" stroke="midnightblue" points="1643.34,-229.31 1653.8,-227.6 1644.56,-222.41 1643.34,-229.31"/>
</g>
<!-- Node109 -->
<g id="node25" class="node">
<title>Node109</title>
<g id="a_node25"><a xlink:href="api_2packet_8h.html" target="_top" xlink:title=" ">
<polygon fill="white" stroke="red" points="1566.5,-168.5 1566.5,-187.5 1624.5,-187.5 1624.5,-168.5 1566.5,-168.5"/>
<text text-anchor="middle" x="1595.5" y="-175.5" font-family="Helvetica,sans-Serif" font-size="10.00">packet.h</text>
</a>
</g>
</g>
<!-- Node1&#45;&gt;Node109 -->
<g id="edge28" class="edge">
<title>Node1&#45;&gt;Node109</title>
<path fill="none" stroke="midnightblue" d="M1666.18,-219.18C1648.7,-209.24 1625.67,-196.15 1610.73,-187.65"/>
<polygon fill="midnightblue" stroke="midnightblue" points="1664.81,-222.43 1675.24,-224.32 1668.27,-216.34 1664.81,-222.43"/>
</g>
<!-- Node110 -->
<g id="node26" class="node">
<title>Node110</title>
<g id="a_node26"><a xlink:href="api_2spec_2comp_8h.html" target="_top" xlink:title=" ">
<polygon fill="white" stroke="red" points="1514,-112.5 1514,-131.5 1567,-131.5 1567,-112.5 1514,-112.5"/>
<text text-anchor="middle" x="1540.5" y="-119.5" font-family="Helvetica,sans-Serif" font-size="10.00">comp.h</text>
</a>
</g>
</g>
<!-- Node1&#45;&gt;Node110 -->
<g id="edge46" class="edge">
<title>Node1&#45;&gt;Node110</title>
<path fill="none" stroke="midnightblue" d="M1643.58,-228.31C1614.95,-223.04 1579.7,-211.82 1557.5,-188 1542.87,-172.3 1540.49,-145.59 1540.31,-131.81"/>
<polygon fill="midnightblue" stroke="midnightblue" points="1643.36,-231.82 1653.8,-230 1644.5,-224.92 1643.36,-231.82"/>
</g>
<!-- Node112 -->
<g id="node27" class="node">
<title>Node112</title>
<g id="a_node27"><a xlink:href="api_2spec_2crypto_8h.html" target="_top" xlink:title=" ">
<polygon fill="white" stroke="black" points="1439.5,-112.5 1439.5,-131.5 1495.5,-131.5 1495.5,-112.5 1439.5,-112.5"/>
<text text-anchor="middle" x="1467.5" y="-119.5" font-family="Helvetica,sans-Serif" font-size="10.00">crypto.h</text>
</a>
</g>
</g>
<!-- Node1&#45;&gt;Node112 -->
<g id="edge48" class="edge">
<title>Node1&#45;&gt;Node112</title>
<path fill="none" stroke="midnightblue" d="M1644.03,-223.93C1614.1,-216.87 1575.03,-205.32 1543.5,-188 1515.5,-172.62 1488.49,-145.77 1475.51,-131.88"/>
<polygon fill="midnightblue" stroke="midnightblue" points="1643.28,-227.35 1653.81,-226.16 1644.84,-220.53 1643.28,-227.35"/>
</g>
<!-- Node125 -->
<g id="node28" class="node">
<title>Node125</title>
<g id="a_node28"><a xlink:href="api_2spec_2packet__flags_8h.html" target="_top" xlink:title=" ">
<polygon fill="white" stroke="red" points="1623.5,-112.5 1623.5,-131.5 1709.5,-131.5 1709.5,-112.5 1623.5,-112.5"/>
<text text-anchor="middle" x="1666.5" y="-119.5" font-family="Helvetica,sans-Serif" font-size="10.00">packet_flags.h</text>
</a>
</g>
</g>
<!-- Node1&#45;&gt;Node125 -->
<g id="edge52" class="edge">
<title>Node1&#45;&gt;Node125</title>
<path fill="none" stroke="midnightblue" d="M1684.2,-214.92C1681.53,-206.77 1678.58,-196.98 1676.5,-188 1671.92,-168.2 1668.88,-144.51 1667.44,-131.91"/>
<polygon fill="midnightblue" stroke="midnightblue" points="1680.91,-216.13 1687.43,-224.48 1687.54,-213.88 1680.91,-216.13"/>
</g>
<!-- Node121 -->
<g id="node29" class="node">
<title>Node121</title>
<g id="a_node29"><a xlink:href="api_2packet__io_8h.html" target="_top" xlink:title=" ">
<polygon fill="white" stroke="black" points="1305.5,-168.5 1305.5,-187.5 1377.5,-187.5 1377.5,-168.5 1305.5,-168.5"/>
<text text-anchor="middle" x="1341.5" y="-175.5" font-family="Helvetica,sans-Serif" font-size="10.00">packet_io.h</text>
</a>
</g>
</g>
<!-- Node1&#45;&gt;Node121 -->
<g id="edge34" class="edge">
<title>Node1&#45;&gt;Node121</title>
<path fill="none" stroke="midnightblue" d="M1643.51,-226.35C1584.56,-217.92 1480.42,-202.69 1391.5,-188 1386.97,-187.25 1382.23,-186.44 1377.53,-185.61"/>
<polygon fill="midnightblue" stroke="midnightblue" points="1643.23,-229.85 1653.62,-227.8 1644.22,-222.92 1643.23,-229.85"/>
</g>
<!-- Node122 -->
<g id="node30" class="node">
<title>Node122</title>
<g id="a_node30"><a xlink:href="api_2spec_2classification_8h.html" target="_top" xlink:title=" ">
<polygon fill="white" stroke="black" points="1116,-112.5 1116,-131.5 1205,-131.5 1205,-112.5 1116,-112.5"/>
<text text-anchor="middle" x="1160.5" y="-119.5" font-family="Helvetica,sans-Serif" font-size="10.00">classification.h</text>
</a>
</g>
</g>
<!-- Node1&#45;&gt;Node122 -->
<g id="edge45" class="edge">
<title>Node1&#45;&gt;Node122</title>
<path fill="none" stroke="midnightblue" d="M1643.83,-232.63C1569.07,-230.95 1418.47,-223.04 1296.5,-188 1293.4,-187.11 1214.54,-149.1 1178.35,-131.62"/>
<polygon fill="midnightblue" stroke="midnightblue" points="1643.8,-236.13 1653.86,-232.83 1643.93,-229.14 1643.8,-236.13"/>
</g>
<!-- Node123 -->
<g id="node31" class="node">
<title>Node123</title>
<g id="a_node31"><a xlink:href="api_2spec_2traffic__mngr_8h.html" target="_top" xlink:title=" ">
<polygon fill="white" stroke="red" points="1299.5,-112.5 1299.5,-131.5 1383.5,-131.5 1383.5,-112.5 1299.5,-112.5"/>
<text text-anchor="middle" x="1341.5" y="-119.5" font-family="Helvetica,sans-Serif" font-size="10.00">traffic_mngr.h</text>
</a>
</g>
</g>
<!-- Node1&#45;&gt;Node123 -->
<g id="edge64" class="edge">
<title>Node1&#45;&gt;Node123</title>
<path fill="none" stroke="midnightblue" d="M1643.74,-231.42C1590.04,-228.15 1500.27,-218.21 1429.5,-188 1397.01,-174.13 1365.28,-146.1 1350.35,-131.81"/>
<polygon fill="midnightblue" stroke="midnightblue" points="1643.8,-234.93 1653.98,-231.98 1644.19,-227.94 1643.8,-234.93"/>
</g>
<!-- Node153 -->
<g id="node32" class="node">
<title>Node153</title>
<g id="a_node32"><a xlink:href="api_2proto__stats_8h.html" target="_top" xlink:title=" ">
<polygon fill="white" stroke="black" points="1623.5,-56.5 1623.5,-75.5 1703.5,-75.5 1703.5,-56.5 1623.5,-56.5"/>
<text text-anchor="middle" x="1663.5" y="-63.5" font-family="Helvetica,sans-Serif" font-size="10.00">proto_stats.h</text>
</a>
</g>
</g>
<!-- Node1&#45;&gt;Node153 -->
<g id="edge40" class="edge">
<title>Node1&#45;&gt;Node153</title>
<path fill="none" stroke="midnightblue" d="M1697.54,-214.94C1708.39,-185.87 1727.09,-130.13 1718.5,-112 1710.73,-95.61 1693.75,-83.21 1680.7,-75.61"/>
<polygon fill="midnightblue" stroke="midnightblue" points="1694.25,-213.73 1693.96,-224.32 1700.79,-216.22 1694.25,-213.73"/>
</g>
<!-- Node117 -->
<g id="node33" class="node">
<title>Node117</title>
<g id="a_node33"><a xlink:href="api_2queue_8h.html" target="_top" xlink:title=" ">
<polygon fill="white" stroke="red" points="1721.5,-56.5 1721.5,-75.5 1777.5,-75.5 1777.5,-56.5 1721.5,-56.5"/>
<text text-anchor="middle" x="1749.5" y="-63.5" font-family="Helvetica,sans-Serif" font-size="10.00">queue.h</text>
</a>
</g>
</g>
<!-- Node1&#45;&gt;Node117 -->
<g id="edge42" class="edge">
<title>Node1&#45;&gt;Node117</title>
<path fill="none" stroke="midnightblue" d="M1700.72,-215.29C1705.23,-207.12 1710.43,-197.21 1714.5,-188 1725.19,-163.83 1727.07,-157.36 1734.5,-132 1740.29,-112.22 1745.28,-88.52 1747.78,-75.92"/>
<polygon fill="midnightblue" stroke="midnightblue" points="1697.54,-213.8 1695.68,-224.23 1703.64,-217.24 1697.54,-213.8"/>
</g>
<!-- Node154 -->
<g id="node34" class="node">
<title>Node154</title>
<g id="a_node34"><a xlink:href="spec_2chksum_8h.html" target="_top" xlink:title=" ">
<polygon fill="white" stroke="red" points="1870.5,-168.5 1870.5,-187.5 1934.5,-187.5 1934.5,-168.5 1870.5,-168.5"/>
<text text-anchor="middle" x="1902.5" y="-175.5" font-family="Helvetica,sans-Serif" font-size="10.00">chksum.h</text>
</a>
</g>
</g>
<!-- Node1&#45;&gt;Node154 -->
<g id="edge44" class="edge">
<title>Node1&#45;&gt;Node154</title>
<path fill="none" stroke="midnightblue" d="M1733.97,-221.93C1774.52,-211.6 1834.07,-196.43 1870.45,-187.16"/>
<polygon fill="midnightblue" stroke="midnightblue" points="1732.92,-218.58 1724.09,-224.44 1734.65,-225.37 1732.92,-218.58"/>
</g>
<!-- Node156 -->
<g id="node35" class="node">
<title>Node156</title>
<g id="a_node35"><a xlink:href="api_2spec_2cpu_8h.html" target="_top" xlink:title=" ">
<polygon fill="white" stroke="red" points="1953,-168.5 1953,-187.5 1996,-187.5 1996,-168.5 1953,-168.5"/>
<text text-anchor="middle" x="1974.5" y="-175.5" font-family="Helvetica,sans-Serif" font-size="10.00">cpu.h</text>
</a>
</g>
</g>
<!-- Node1&#45;&gt;Node156 -->
<g id="edge47" class="edge">
<title>Node1&#45;&gt;Node156</title>
<path fill="none" stroke="midnightblue" d="M1737.26,-226.21C1788.26,-218.45 1872.17,-204.65 1943.5,-188 1946.56,-187.29 1949.76,-186.45 1952.9,-185.59"/>
<polygon fill="midnightblue" stroke="midnightblue" points="1736.57,-222.78 1727.2,-227.73 1737.61,-229.7 1736.57,-222.78"/>
</g>
<!-- Node158 -->
<g id="node36" class="node">
<title>Node158</title>
<g id="a_node36"><a xlink:href="api_2spec_2hash_8h.html" target="_top" xlink:title=" ">
<polygon fill="white" stroke="red" points="2014,-168.5 2014,-187.5 2063,-187.5 2063,-168.5 2014,-168.5"/>
<text text-anchor="middle" x="2038.5" y="-175.5" font-family="Helvetica,sans-Serif" font-size="10.00">hash.h</text>
</a>
</g>
</g>
<!-- Node1&#45;&gt;Node158 -->
<g id="edge49" class="edge">
<title>Node1&#45;&gt;Node158</title>
<path fill="none" stroke="midnightblue" d="M1737.67,-227.97C1799.36,-221.01 1910.63,-207.08 2004.5,-188 2007.49,-187.39 2010.61,-186.68 2013.7,-185.92"/>
<polygon fill="midnightblue" stroke="midnightblue" points="1737.03,-224.53 1727.48,-229.11 1737.8,-231.48 1737.03,-224.53"/>
</g>
<!-- Node78 -->
<g id="node37" class="node">
<title>Node78</title>
<g id="a_node37"><a xlink:href="api_2spec_2init_8h.html" target="_top" xlink:title=" ">
<polygon fill="white" stroke="red" points="2081,-168.5 2081,-187.5 2122,-187.5 2122,-168.5 2081,-168.5"/>
<text text-anchor="middle" x="2101.5" y="-175.5" font-family="Helvetica,sans-Serif" font-size="10.00">init.h</text>
</a>
</g>
</g>
<!-- Node1&#45;&gt;Node78 -->
<g id="edge50" class="edge">
<title>Node1&#45;&gt;Node78</title>
<path fill="none" stroke="midnightblue" d="M1737.22,-230.11C1809.49,-225.05 1952.46,-212.69 2071.5,-188 2074.59,-187.36 2077.82,-186.55 2080.96,-185.67"/>
<polygon fill="midnightblue" stroke="midnightblue" points="1736.82,-226.63 1727.09,-230.8 1737.3,-233.61 1736.82,-226.63"/>
</g>
<!-- Node160 -->
<g id="node38" class="node">
<title>Node160</title>
<g id="a_node38"><a xlink:href="api_2spec_2pool_8h.html" target="_top" xlink:title=" ">
<polygon fill="white" stroke="red" points="2582,-112.5 2582,-131.5 2629,-131.5 2629,-112.5 2582,-112.5"/>
<text text-anchor="middle" x="2605.5" y="-119.5" font-family="Helvetica,sans-Serif" font-size="10.00">pool.h</text>
</a>
</g>
</g>
<!-- Node1&#45;&gt;Node160 -->
<g id="edge53" class="edge">
<title>Node1&#45;&gt;Node160</title>
<path fill="none" stroke="midnightblue" d="M1737.49,-233.18C1965.14,-233.81 2944.21,-233.85 2988.5,-188 3040.04,-134.64 2720.14,-124.99 2629.15,-123.33"/>
<polygon fill="midnightblue" stroke="midnightblue" points="1737.23,-229.68 1727.22,-233.15 1737.21,-236.68 1737.23,-229.68"/>
</g>
<!-- Node162 -->
<g id="node39" class="node">
<title>Node162</title>
<g id="a_node39"><a xlink:href="pool__types_8h.html" target="_top" xlink:title=" ">
<polygon fill="white" stroke="black" points="2179,-168.5 2179,-187.5 2258,-187.5 2258,-168.5 2179,-168.5"/>
<text text-anchor="middle" x="2218.5" y="-175.5" font-family="Helvetica,sans-Serif" font-size="10.00">pool_types.h</text>
</a>
</g>
</g>
<!-- Node1&#45;&gt;Node162 -->
<g id="edge54" class="edge">
<title>Node1&#45;&gt;Node162</title>
<path fill="none" stroke="midnightblue" d="M1737.3,-229.66C1822.49,-223.33 2008.51,-208.38 2164.5,-188 2169.12,-187.4 2173.95,-186.69 2178.74,-185.95"/>
<polygon fill="midnightblue" stroke="midnightblue" points="1736.89,-226.18 1727.17,-230.4 1737.4,-233.16 1736.89,-226.18"/>
</g>
<!-- Node163 -->
<g id="node40" class="node">
<title>Node163</title>
<g id="a_node40"><a xlink:href="api_2spec_2proto__stats__types_8h.html" target="_top" xlink:title=" ">
<polygon fill="white" stroke="red" points="2276,-168.5 2276,-187.5 2389,-187.5 2389,-168.5 2276,-168.5"/>
<text text-anchor="middle" x="2332.5" y="-175.5" font-family="Helvetica,sans-Serif" font-size="10.00">proto_stats_types.h</text>
</a>
</g>
</g>
<!-- Node1&#45;&gt;Node163 -->
<g id="edge56" class="edge">
<title>Node1&#45;&gt;Node163</title>
<path fill="none" stroke="midnightblue" d="M1737.49,-230.25C1835.83,-224.29 2070.44,-209.01 2266.5,-188 2269.49,-187.68 2272.55,-187.33 2275.64,-186.96"/>
<polygon fill="midnightblue" stroke="midnightblue" points="1737.07,-226.77 1727.29,-230.86 1737.49,-233.76 1737.07,-226.77"/>
</g>
<!-- Node169 -->
<g id="node41" class="node">
<title>Node169</title>
<g id="a_node41"><a xlink:href="spec_2random_8h.html" target="_top" xlink:title=" ">
<polygon fill="white" stroke="red" points="2407,-168.5 2407,-187.5 2470,-187.5 2470,-168.5 2407,-168.5"/>
<text text-anchor="middle" x="2438.5" y="-175.5" font-family="Helvetica,sans-Serif" font-size="10.00">random.h</text>
</a>
</g>
</g>
<!-- Node1&#45;&gt;Node169 -->
<g id="edge57" class="edge">
<title>Node1&#45;&gt;Node169</title>
<path fill="none" stroke="midnightblue" d="M1737.29,-232.57C1851.08,-230.98 2151.11,-223.47 2398.5,-188 2401.18,-187.62 2403.94,-187.15 2406.71,-186.63"/>
<polygon fill="midnightblue" stroke="midnightblue" points="1737.14,-229.07 1727.19,-232.71 1737.23,-236.07 1737.14,-229.07"/>
</g>
<!-- Node76 -->
<g id="node42" class="node">
<title>Node76</title>
<g id="a_node42"><a xlink:href="api_2spec_2schedule_8h.html" target="_top" xlink:title=" ">
<polygon fill="white" stroke="red" points="2488,-168.5 2488,-187.5 2557,-187.5 2557,-168.5 2488,-168.5"/>
<text text-anchor="middle" x="2522.5" y="-175.5" font-family="Helvetica,sans-Serif" font-size="10.00">schedule.h</text>
</a>
</g>
</g>
<!-- Node1&#45;&gt;Node76 -->
<g id="edge58" class="edge">
<title>Node1&#45;&gt;Node76</title>
<path fill="none" stroke="midnightblue" d="M1737.41,-232.76C1859.97,-231.62 2199.65,-225.06 2479.5,-188 2482.22,-187.64 2485.03,-187.2 2487.84,-186.72"/>
<polygon fill="midnightblue" stroke="midnightblue" points="1737.23,-229.26 1727.26,-232.85 1737.29,-236.26 1737.23,-229.26"/>
</g>
<!-- Node171 -->
<g id="node43" class="node">
<title>Node171</title>
<g id="a_node43"><a xlink:href="api_2spec_2schedule__types_8h.html" target="_top" xlink:title=" ">
<polygon fill="white" stroke="red" points="2575,-168.5 2575,-187.5 2676,-187.5 2676,-168.5 2575,-168.5"/>
<text text-anchor="middle" x="2625.5" y="-175.5" font-family="Helvetica,sans-Serif" font-size="10.00">schedule_types.h</text>
</a>
</g>
</g>
<!-- Node1&#45;&gt;Node171 -->
<g id="edge59" class="edge">
<title>Node1&#45;&gt;Node171</title>
<path fill="none" stroke="midnightblue" d="M1737.43,-232.24C1868.72,-229.76 2250.83,-220.1 2566.5,-188 2569.18,-187.73 2571.92,-187.42 2574.69,-187.08"/>
<polygon fill="midnightblue" stroke="midnightblue" points="1737.25,-228.74 1727.32,-232.43 1737.38,-235.74 1737.25,-228.74"/>
</g>
<!-- Node175 -->
<g id="node44" class="node">
<title>Node175</title>
<g id="a_node44"><a xlink:href="api_2spec_2stash_8h.html" target="_top" xlink:title=" ">
<polygon fill="white" stroke="red" points="2694.5,-168.5 2694.5,-187.5 2746.5,-187.5 2746.5,-168.5 2694.5,-168.5"/>
<text text-anchor="middle" x="2720.5" y="-175.5" font-family="Helvetica,sans-Serif" font-size="10.00">stash.h</text>
</a>
</g>
</g>
<!-- Node1&#45;&gt;Node175 -->
<g id="edge60" class="edge">
<title>Node1&#45;&gt;Node175</title>
<path fill="none" stroke="midnightblue" d="M1737.3,-232.17C1908.3,-228.91 2499.04,-215.88 2685.5,-188 2688.35,-187.57 2691.31,-187.01 2694.25,-186.37"/>
<polygon fill="midnightblue" stroke="midnightblue" points="1737.05,-228.67 1727.12,-232.36 1737.18,-235.67 1737.05,-228.67"/>
</g>
<!-- Node177 -->
<g id="node45" class="node">
<title>Node177</title>
<g id="a_node45"><a xlink:href="api_2spec_2std_8h.html" target="_top" xlink:title=" ">
<polygon fill="white" stroke="red" points="2765,-168.5 2765,-187.5 2806,-187.5 2806,-168.5 2765,-168.5"/>
<text text-anchor="middle" x="2785.5" y="-175.5" font-family="Helvetica,sans-Serif" font-size="10.00">std.h</text>
</a>
</g>
</g>
<!-- Node1&#45;&gt;Node177 -->
<g id="edge61" class="edge">
<title>Node1&#45;&gt;Node177</title>
<path fill="none" stroke="midnightblue" d="M1737.35,-232.57C1916.13,-230.69 2555.33,-221.71 2755.5,-188 2758.5,-187.49 2761.63,-186.78 2764.68,-185.97"/>
<polygon fill="midnightblue" stroke="midnightblue" points="1737.19,-229.07 1727.23,-232.67 1737.26,-236.07 1737.19,-229.07"/>
</g>
<!-- Node179 -->
<g id="node46" class="node">
<title>Node179</title>
<g id="a_node46"><a xlink:href="spec_2threshold_8h.html" target="_top" xlink:title=" ">
<polygon fill="white" stroke="red" points="2824,-168.5 2824,-187.5 2895,-187.5 2895,-168.5 2824,-168.5"/>
<text text-anchor="middle" x="2859.5" y="-175.5" font-family="Helvetica,sans-Serif" font-size="10.00">threshold.h</text>
</a>
</g>
</g>
<!-- Node1&#45;&gt;Node179 -->
<g id="edge62" class="edge">
<title>Node1&#45;&gt;Node179</title>
<path fill="none" stroke="midnightblue" d="M1737.44,-232.14C1922.49,-228.57 2601.72,-213.97 2815.5,-188 2818.13,-187.68 2820.84,-187.29 2823.56,-186.84"/>
<polygon fill="midnightblue" stroke="midnightblue" points="1737.16,-228.64 1727.23,-232.33 1737.3,-235.64 1737.16,-228.64"/>
</g>
<!-- Node181 -->
<g id="node47" class="node">
<title>Node181</title>
<g id="a_node47"><a xlink:href="api_2spec_2thrmask_8h.html" target="_top" xlink:title=" ">
<polygon fill="white" stroke="red" points="2913.5,-168.5 2913.5,-187.5 2979.5,-187.5 2979.5,-168.5 2913.5,-168.5"/>
<text text-anchor="middle" x="2946.5" y="-175.5" font-family="Helvetica,sans-Serif" font-size="10.00">thrmask.h</text>
</a>
</g>
</g>
<!-- Node1&#45;&gt;Node181 -->
<g id="edge63" class="edge">
<title>Node1&#45;&gt;Node181</title>
<path fill="none" stroke="midnightblue" d="M1737.3,-232.35C1931.22,-229.51 2672.41,-216.94 2904.5,-188 2907.31,-187.65 2910.21,-187.2 2913.12,-186.7"/>
<polygon fill="midnightblue" stroke="midnightblue" points="1737.11,-228.86 1727.16,-232.5 1737.21,-235.86 1737.11,-228.86"/>
</g>
<!-- Node182 -->
<g id="node48" class="node">
<title>Node182</title>
<g id="a_node48"><a xlink:href="system__info_8h.html" target="_top" xlink:title=" ">
<polygon fill="white" stroke="black" points="1795.5,-56.5 1795.5,-75.5 1881.5,-75.5 1881.5,-56.5 1795.5,-56.5"/>
<text text-anchor="middle" x="1838.5" y="-63.5" font-family="Helvetica,sans-Serif" font-size="10.00">system_info.h</text>
</a>
</g>
</g>
<!-- Node1&#45;&gt;Node182 -->
<g id="edge65" class="edge">
<title>Node1&#45;&gt;Node182</title>
<path fill="none" stroke="midnightblue" d="M1706.06,-217.09C1714.31,-208.56 1724.57,-197.81 1733.5,-188 1771.14,-146.67 1814.4,-95.65 1831.26,-75.63"/>
<polygon fill="midnightblue" stroke="midnightblue" points="1703.33,-214.88 1698.87,-224.49 1708.35,-219.76 1703.33,-214.88"/>
</g>
<!-- Node183 -->
<g id="node49" class="node">
<title>Node183</title>
<g id="a_node49"><a xlink:href="api_2time_8h.html" target="_top" xlink:title=" ">
<polygon fill="white" stroke="red" points="1899.5,-56.5 1899.5,-75.5 1947.5,-75.5 1947.5,-56.5 1899.5,-56.5"/>
<text text-anchor="middle" x="1923.5" y="-63.5" font-family="Helvetica,sans-Serif" font-size="10.00">time.h</text>
</a>
</g>
</g>
<!-- Node1&#45;&gt;Node183 -->
<g id="edge67" class="edge">
<title>Node1&#45;&gt;Node183</title>
<path fill="none" stroke="midnightblue" d="M1711.52,-218.89C1724.54,-210.1 1741.57,-198.5 1756.5,-188 1815.37,-146.61 1884.75,-95.62 1911.84,-75.62"/>
<polygon fill="midnightblue" stroke="midnightblue" points="1709.56,-215.99 1703.23,-224.48 1713.48,-221.79 1709.56,-215.99"/>
</g>
<!-- Node184 -->
<g id="node50" class="node">
<title>Node184</title>
<g id="a_node50"><a xlink:href="api_2timer_8h.html" target="_top" xlink:title=" ">
<polygon fill="white" stroke="black" points="1966,-56.5 1966,-75.5 2017,-75.5 2017,-56.5 1966,-56.5"/>
<text text-anchor="middle" x="1991.5" y="-63.5" font-family="Helvetica,sans-Serif" font-size="10.00">timer.h</text>
</a>
</g>
</g>
<!-- Node1&#45;&gt;Node184 -->
<g id="edge69" class="edge">
<title>Node1&#45;&gt;Node184</title>
<path fill="none" stroke="midnightblue" d="M1718.67,-220.26C1737.5,-211.55 1762.72,-199.55 1784.5,-188 1858.78,-148.6 1944.72,-96.04 1977.67,-75.62"/>
<polygon fill="midnightblue" stroke="midnightblue" points="1717.08,-217.13 1709.45,-224.48 1720,-223.49 1717.08,-217.13"/>
</g>
<!-- Node3 -->
<g id="node3" class="node">
<title>Node3</title>
<g id="a_node3"><a xlink:href="arch_2arm32-linux_2odp_2api_2abi_2atomic_8h_source.html" target="_top" xlink:title=" ">
<polygon fill="white" stroke="black" points="154,-112.5 154,-131.5 213,-131.5 213,-112.5 154,-112.5"/>
<text text-anchor="middle" x="183.5" y="-119.5" font-family="Helvetica,sans-Serif" font-size="10.00">atomic.h</text>
</a>
</g>
</g>
<!-- Node2&#45;&gt;Node3 -->
<g id="edge2" class="edge">
<title>Node2&#45;&gt;Node3</title>
<path fill="none" stroke="midnightblue" d="M209.44,-159.86C202.86,-150.5 194.99,-139.33 189.66,-131.75"/>
<polygon fill="midnightblue" stroke="midnightblue" points="206.61,-161.92 215.23,-168.08 212.33,-157.89 206.61,-161.92"/>
</g>
<!-- Node4 -->
<g id="node4" class="node">
<title>Node4</title>
<g id="a_node4"><a xlink:href="arch_2arm64-linux_2odp_2api_2abi_2atomic_8h_source.html" target="_top" xlink:title=" ">
<polygon fill="white" stroke="black" points="231,-112.5 231,-131.5 290,-131.5 290,-112.5 231,-112.5"/>
<text text-anchor="middle" x="260.5" y="-119.5" font-family="Helvetica,sans-Serif" font-size="10.00">atomic.h</text>
</a>
</g>
</g>
<!-- Node2&#45;&gt;Node4 -->
<g id="edge3" class="edge">
<title>Node2&#45;&gt;Node4</title>
<path fill="none" stroke="midnightblue" d="M233.88,-159.86C240.64,-150.5 248.71,-139.33 254.18,-131.75"/>
<polygon fill="midnightblue" stroke="midnightblue" points="230.96,-157.93 227.94,-168.08 236.63,-162.03 230.96,-157.93"/>
</g>
<!-- Node5 -->
<g id="node5" class="node">
<title>Node5</title>
<g id="a_node5"><a xlink:href="arch_2default-linux_2odp_2api_2abi_2atomic_8h_source.html" target="_top" xlink:title=" ">
<polygon fill="white" stroke="black" points="308,-112.5 308,-131.5 367,-131.5 367,-112.5 308,-112.5"/>
<text text-anchor="middle" x="337.5" y="-119.5" font-family="Helvetica,sans-Serif" font-size="10.00">atomic.h</text>
</a>
</g>
</g>
<!-- Node2&#45;&gt;Node5 -->
<g id="edge4" class="edge">
<title>Node2&#45;&gt;Node5</title>
<path fill="none" stroke="midnightblue" d="M249.22,-164.1C270.89,-154.01 300.4,-140.27 319.21,-131.52"/>
<polygon fill="midnightblue" stroke="midnightblue" points="247.47,-161.05 239.88,-168.44 250.42,-167.4 247.47,-161.05"/>
</g>
<!-- Node6 -->
<g id="node6" class="node">
<title>Node6</title>
<g id="a_node6"><a xlink:href="arch_2mips64-linux_2odp_2api_2abi_2atomic_8h_source.html" target="_top" xlink:title=" ">
<polygon fill="white" stroke="black" points="385,-112.5 385,-131.5 444,-131.5 444,-112.5 385,-112.5"/>
<text text-anchor="middle" x="414.5" y="-119.5" font-family="Helvetica,sans-Serif" font-size="10.00">atomic.h</text>
</a>
</g>
</g>
<!-- Node2&#45;&gt;Node6 -->
<g id="edge5" class="edge">
<title>Node2&#45;&gt;Node6</title>
<path fill="none" stroke="midnightblue" d="M261.1,-165.92C297.79,-155.65 351.57,-140.61 384.73,-131.33"/>
<polygon fill="midnightblue" stroke="midnightblue" points="259.92,-162.62 251.23,-168.68 261.81,-169.36 259.92,-162.62"/>
</g>
<!-- Node7 -->
<g id="node7" class="node">
<title>Node7</title>
<g id="a_node7"><a xlink:href="arch_2power64-linux_2odp_2api_2abi_2atomic_8h_source.html" target="_top" xlink:title=" ">
<polygon fill="white" stroke="black" points="0,-112.5 0,-131.5 59,-131.5 59,-112.5 0,-112.5"/>
<text text-anchor="middle" x="29.5" y="-119.5" font-family="Helvetica,sans-Serif" font-size="10.00">atomic.h</text>
</a>
</g>
</g>
<!-- Node2&#45;&gt;Node7 -->
<g id="edge6" class="edge">
<title>Node2&#45;&gt;Node7</title>
<path fill="none" stroke="midnightblue" d="M182.11,-165.92C145.6,-155.65 92.11,-140.61 59.11,-131.33"/>
<polygon fill="midnightblue" stroke="midnightblue" points="181.35,-169.34 191.92,-168.68 183.24,-162.6 181.35,-169.34"/>
</g>
<!-- Node8 -->
<g id="node8" class="node">
<title>Node8</title>
<g id="a_node8"><a xlink:href="arch_2x86__32-linux_2odp_2api_2abi_2atomic_8h_source.html" target="_top" xlink:title=" ">
<polygon fill="white" stroke="black" points="77,-112.5 77,-131.5 136,-131.5 136,-112.5 77,-112.5"/>
<text text-anchor="middle" x="106.5" y="-119.5" font-family="Helvetica,sans-Serif" font-size="10.00">atomic.h</text>
</a>
</g>
</g>
<!-- Node2&#45;&gt;Node8 -->
<g id="edge7" class="edge">
<title>Node2&#45;&gt;Node8</title>
<path fill="none" stroke="midnightblue" d="M194.02,-164.1C172.53,-154.01 143.28,-140.27 124.64,-131.52"/>
<polygon fill="midnightblue" stroke="midnightblue" points="192.74,-167.36 203.28,-168.44 195.71,-161.02 192.74,-167.36"/>
</g>
<!-- Node19&#45;&gt;Node20 -->
<g id="edge19" class="edge">
<title>Node19&#45;&gt;Node20</title>
<path fill="none" stroke="midnightblue" d="M2068.93,-58.37C2006.38,-47.61 1883.95,-26.56 1825.74,-16.54"/>
<polygon fill="midnightblue" stroke="midnightblue" points="2068.35,-61.82 2078.8,-60.06 2069.54,-54.92 2068.35,-61.82"/>
</g>
<!-- Node152&#45;&gt;Node20 -->
<g id="edge21" class="edge">
<title>Node152&#45;&gt;Node20</title>
<path fill="none" stroke="midnightblue" d="M3063.45,-56.55C3062.12,-56.35 3060.8,-56.16 3059.5,-56 2810.22,-24.47 1997.33,-13.38 1825.56,-11.35"/>
<polygon fill="midnightblue" stroke="midnightblue" points="3063.25,-60.07 3073.71,-58.39 3064.49,-53.18 3063.25,-60.07"/>
</g>
<!-- Node107&#45;&gt;Node20 -->
<g id="edge24" class="edge">
<title>Node107&#45;&gt;Node20</title>
<path fill="none" stroke="midnightblue" d="M1215.64,-59.8C1229.32,-58.53 1243.94,-57.2 1257.5,-56 1448.66,-39.11 1678.31,-20.34 1761.47,-13.59"/>
<polygon fill="midnightblue" stroke="midnightblue" points="1215.04,-56.34 1205.4,-60.75 1215.69,-63.31 1215.04,-56.34"/>
</g>
<!-- Node107&#45;&gt;Node108 -->
<g id="edge23" class="edge">
<title>Node107&#45;&gt;Node108</title>
<path fill="none" stroke="midnightblue" d="M1172.45,-47.57C1178.81,-38.27 1186.37,-27.25 1191.5,-19.75"/>
<polygon fill="midnightblue" stroke="midnightblue" points="1169.37,-45.86 1166.61,-56.08 1175.15,-49.81 1169.37,-45.86"/>
</g>
<!-- Node113&#45;&gt;Node20 -->
<g id="edge27" class="edge">
<title>Node113&#45;&gt;Node20</title>
<path fill="none" stroke="midnightblue" d="M1477.74,-59.17C1547.92,-48.46 1696.05,-25.87 1761.38,-15.9"/>
<polygon fill="midnightblue" stroke="midnightblue" points="1476.93,-55.75 1467.57,-60.72 1477.99,-62.67 1476.93,-55.75"/>
</g>
<!-- Node113&#45;&gt;Node108 -->
<g id="edge26" class="edge">
<title>Node113&#45;&gt;Node108</title>
<path fill="none" stroke="midnightblue" d="M1401.23,-56.46C1351.51,-45.37 1266.05,-26.3 1223.35,-16.77"/>
<polygon fill="midnightblue" stroke="midnightblue" points="1400.74,-59.94 1411.27,-58.7 1402.27,-53.11 1400.74,-59.94"/>
</g>
<!-- Node109&#45;&gt;Node20 -->
<g id="edge33" class="edge">
<title>Node109&#45;&gt;Node20</title>
<path fill="none" stroke="midnightblue" d="M1592.64,-158.18C1589.76,-131.84 1588.89,-84.04 1614.5,-56 1634.06,-34.59 1715.44,-20.96 1761.45,-14.81"/>
<polygon fill="midnightblue" stroke="midnightblue" points="1589.2,-158.88 1593.96,-168.34 1596.14,-157.97 1589.2,-158.88"/>
</g>
<!-- Node109&#45;&gt;Node110 -->
<g id="edge29" class="edge">
<title>Node109&#45;&gt;Node110</title>
<path fill="none" stroke="midnightblue" d="M1579.21,-161C1569.46,-151.43 1557.45,-139.64 1549.41,-131.75"/>
<polygon fill="midnightblue" stroke="midnightblue" points="1576.83,-163.57 1586.42,-168.08 1581.73,-158.58 1576.83,-163.57"/>
</g>
<!-- Node109&#45;&gt;Node112 -->
<g id="edge30" class="edge">
<title>Node109&#45;&gt;Node112</title>
<path fill="none" stroke="midnightblue" d="M1565.88,-164.5C1541.88,-154.38 1508.72,-140.39 1487.69,-131.52"/>
<polygon fill="midnightblue" stroke="midnightblue" points="1564.64,-167.78 1575.22,-168.44 1567.36,-161.33 1564.64,-167.78"/>
</g>
<!-- Node109&#45;&gt;Node125 -->
<g id="edge32" class="edge">
<title>Node109&#45;&gt;Node125</title>
<path fill="none" stroke="midnightblue" d="M1615.09,-162.1C1627.87,-152.38 1644.11,-140.03 1654.89,-131.83"/>
<polygon fill="midnightblue" stroke="midnightblue" points="1612.75,-159.48 1606.91,-168.32 1616.99,-165.06 1612.75,-159.48"/>
</g>
<!-- Node112&#45;&gt;Node113 -->
<g id="edge31" class="edge">
<title>Node112&#45;&gt;Node113</title>
<path fill="none" stroke="midnightblue" d="M1458.16,-102.98C1453.41,-93.82 1447.84,-83.09 1444.04,-75.75"/>
<polygon fill="midnightblue" stroke="midnightblue" points="1455.17,-104.82 1462.88,-112.08 1461.38,-101.59 1455.17,-104.82"/>
</g>
<!-- Node121&#45;&gt;Node20 -->
<g id="edge39" class="edge">
<title>Node121&#45;&gt;Node20</title>
<path fill="none" stroke="midnightblue" d="M1317.45,-162.74C1299.2,-150.01 1279.03,-130.56 1290.5,-112 1319.76,-64.66 1349.16,-71.87 1402.5,-56 1531.52,-17.62 1693.51,-11.66 1761.33,-10.95"/>
<polygon fill="midnightblue" stroke="midnightblue" points="1315.83,-165.87 1326.11,-168.42 1319.67,-160.01 1315.83,-165.87"/>
</g>
<!-- Node121&#45;&gt;Node108 -->
<g id="edge37" class="edge">
<title>Node121&#45;&gt;Node108</title>
<path fill="none" stroke="midnightblue" d="M1307.07,-164.38C1290.49,-156.95 1271.26,-146.2 1257.5,-132 1240.37,-114.32 1210.97,-44.22 1200.96,-19.6"/>
<polygon fill="midnightblue" stroke="midnightblue" points="1305.9,-167.68 1316.47,-168.37 1308.63,-161.24 1305.9,-167.68"/>
</g>
<!-- Node121&#45;&gt;Node122 -->
<g id="edge35" class="edge">
<title>Node121&#45;&gt;Node122</title>
<path fill="none" stroke="midnightblue" d="M1303.18,-165.57C1269.04,-155.38 1219.84,-140.7 1189.05,-131.52"/>
<polygon fill="midnightblue" stroke="midnightblue" points="1302.24,-168.94 1312.82,-168.44 1304.24,-162.23 1302.24,-168.94"/>
</g>
<!-- Node121&#45;&gt;Node123 -->
<g id="edge38" class="edge">
<title>Node121&#45;&gt;Node123</title>
<path fill="none" stroke="midnightblue" d="M1341.5,-157.8C1341.5,-148.91 1341.5,-138.78 1341.5,-131.75"/>
<polygon fill="midnightblue" stroke="midnightblue" points="1338,-158.08 1341.5,-168.08 1345,-158.08 1338,-158.08"/>
</g>
<!-- Node122&#45;&gt;Node107 -->
<g id="edge36" class="edge">
<title>Node122&#45;&gt;Node107</title>
<path fill="none" stroke="midnightblue" d="M1160.5,-101.8C1160.5,-92.91 1160.5,-82.78 1160.5,-75.75"/>
<polygon fill="midnightblue" stroke="midnightblue" points="1157,-102.08 1160.5,-112.08 1164,-102.08 1157,-102.08"/>
</g>
<!-- Node153&#45;&gt;Node20 -->
<g id="edge41" class="edge">
<title>Node153&#45;&gt;Node20</title>
<path fill="none" stroke="midnightblue" d="M1693.59,-52.5C1717.96,-42.38 1751.64,-28.39 1773,-19.52"/>
<polygon fill="midnightblue" stroke="midnightblue" points="1691.99,-49.38 1684.1,-56.44 1694.68,-55.84 1691.99,-49.38"/>
</g>
<!-- Node117&#45;&gt;Node20 -->
<g id="edge43" class="edge">
<title>Node117&#45;&gt;Node20</title>
<path fill="none" stroke="midnightblue" d="M1763.23,-48.14C1770.9,-38.74 1780.13,-27.4 1786.37,-19.75"/>
<polygon fill="midnightblue" stroke="midnightblue" points="1760.37,-46.12 1756.77,-56.08 1765.8,-50.54 1760.37,-46.12"/>
</g>
<!-- Node162&#45;&gt;Node160 -->
<g id="edge55" class="edge">
<title>Node162&#45;&gt;Node160</title>
<path fill="none" stroke="midnightblue" d="M2268.12,-167.97C2392.42,-148.5 2527.82,-132.09 2581.67,-125.76"/>
<polygon fill="midnightblue" stroke="midnightblue" points="2267.38,-164.55 2258.05,-169.56 2268.47,-171.46 2267.38,-164.55"/>
</g>
<!-- Node182&#45;&gt;Node20 -->
<g id="edge66" class="edge">
<title>Node182&#45;&gt;Node20</title>
<path fill="none" stroke="midnightblue" d="M1824.45,-48.14C1816.61,-38.74 1807.17,-27.4 1800.79,-19.75"/>
<polygon fill="midnightblue" stroke="midnightblue" points="1821.98,-50.64 1831.07,-56.08 1827.36,-46.16 1821.98,-50.64"/>
</g>
<!-- Node183&#45;&gt;Node20 -->
<g id="edge68" class="edge">
<title>Node183&#45;&gt;Node20</title>
<path fill="none" stroke="midnightblue" d="M1893.41,-52.5C1869.04,-42.38 1835.36,-28.39 1814,-19.52"/>
<polygon fill="midnightblue" stroke="midnightblue" points="1892.32,-55.84 1902.9,-56.44 1895.01,-49.38 1892.32,-55.84"/>
</g>
<!-- Node184&#45;&gt;Node20 -->
<g id="edge70" class="edge">
<title>Node184&#45;&gt;Node20</title>
<path fill="none" stroke="midnightblue" d="M1955.68,-55.23C1918.38,-45.06 1860.53,-29.28 1824.95,-19.58"/>
<polygon fill="midnightblue" stroke="midnightblue" points="1955.05,-58.69 1965.61,-57.94 1956.89,-51.93 1955.05,-58.69"/>
</g>
</g>
</svg>
