<?xml version="1.0" encoding="UTF-8" standalone="no"?>
<!DOCTYPE svg PUBLIC "-//W3C//DTD SVG 1.1//EN"
 "http://www.w3.org/Graphics/SVG/1.1/DTD/svg11.dtd">
<!-- Generated by graphviz version 2.43.0 (0)
 -->
<!-- Title: std_types.h Pages: 1 -->
<svg width="3097pt" height="308pt"
 viewBox="0.00 0.00 3097.00 308.00" xmlns="http://www.w3.org/2000/svg" xmlns:xlink="http://www.w3.org/1999/xlink">
<g id="graph0" class="graph" transform="scale(1 1) rotate(0) translate(4 304)">
<title>std_types.h</title>
<polygon fill="white" stroke="transparent" points="-4,4 -4,-304 3093,-304 3093,4 -4,4"/>
<!-- Node1 -->
<g id="node1" class="node">
<title>Node1</title>
<g id="a_node1"><a xlink:title=" ">
<polygon fill="#bfbfbf" stroke="black" points="1616,-280.5 1616,-299.5 1689,-299.5 1689,-280.5 1616,-280.5"/>
<text text-anchor="middle" x="1652.5" y="-287.5" font-family="Helvetica,sans-Serif" font-size="10.00">std_types.h</text>
</a>
</g>
</g>
<!-- Node2 -->
<g id="node2" class="node">
<title>Node2</title>
<g id="a_node2"><a xlink:href="api_2std__types_8h.html" target="_top" xlink:title=" ">
<polygon fill="white" stroke="black" points="1616,-224.5 1616,-243.5 1689,-243.5 1689,-224.5 1616,-224.5"/>
<text text-anchor="middle" x="1652.5" y="-231.5" font-family="Helvetica,sans-Serif" font-size="10.00">std_types.h</text>
</a>
</g>
</g>
<!-- Node1&#45;&gt;Node2 -->
<g id="edge1" class="edge">
<title>Node1&#45;&gt;Node2</title>
<path fill="none" stroke="midnightblue" d="M1652.5,-269.8C1652.5,-260.91 1652.5,-250.78 1652.5,-243.75"/>
<polygon fill="midnightblue" stroke="midnightblue" points="1649,-270.08 1652.5,-280.08 1656,-270.08 1649,-270.08"/>
</g>
<!-- Node3 -->
<g id="node3" class="node">
<title>Node3</title>
<g id="a_node3"><a xlink:href="api_2abi-default_2atomic_8h.html" target="_top" xlink:title=" ">
<polygon fill="white" stroke="red" points="154,-168.5 154,-187.5 213,-187.5 213,-168.5 154,-168.5"/>
<text text-anchor="middle" x="183.5" y="-175.5" font-family="Helvetica,sans-Serif" font-size="10.00">atomic.h</text>
</a>
</g>
</g>
<!-- Node2&#45;&gt;Node3 -->
<g id="edge2" class="edge">
<title>Node2&#45;&gt;Node3</title>
<path fill="none" stroke="midnightblue" d="M1605.64,-232.79C1390.74,-231.65 498.18,-224.74 221.5,-188 218.81,-187.64 216.04,-187.18 213.27,-186.65"/>
<polygon fill="midnightblue" stroke="midnightblue" points="1605.92,-236.29 1615.93,-232.85 1605.95,-229.29 1605.92,-236.29"/>
</g>
<!-- Node12 -->
<g id="node9" class="node">
<title>Node12</title>
<g id="a_node9"><a xlink:href="api_2abi-default_2barrier_8h.html" target="_top" xlink:title=" ">
<polygon fill="white" stroke="red" points="231,-168.5 231,-187.5 288,-187.5 288,-168.5 231,-168.5"/>
<text text-anchor="middle" x="259.5" y="-175.5" font-family="Helvetica,sans-Serif" font-size="10.00">barrier.h</text>
</a>
</g>
</g>
<!-- Node2&#45;&gt;Node12 -->
<g id="edge8" class="edge">
<title>Node2&#45;&gt;Node12</title>
<path fill="none" stroke="midnightblue" d="M1605.45,-232.7C1397.33,-231.16 558.34,-222.87 297.5,-188 294.41,-187.59 291.2,-187.03 288.02,-186.4"/>
<polygon fill="midnightblue" stroke="midnightblue" points="1605.7,-236.2 1615.73,-232.77 1605.75,-229.2 1605.7,-236.2"/>
</g>
<!-- Node50 -->
<g id="node10" class="node">
<title>Node50</title>
<g id="a_node10"><a xlink:href="api_2abi-default_2byteorder_8h.html" target="_top" xlink:title=" ">
<polygon fill="white" stroke="red" points="306.5,-168.5 306.5,-187.5 378.5,-187.5 378.5,-168.5 306.5,-168.5"/>
<text text-anchor="middle" x="342.5" y="-175.5" font-family="Helvetica,sans-Serif" font-size="10.00">byteorder.h</text>
</a>
</g>
</g>
<!-- Node2&#45;&gt;Node50 -->
<g id="edge9" class="edge">
<title>Node2&#45;&gt;Node50</title>
<path fill="none" stroke="midnightblue" d="M1605.71,-232.35C1406.77,-229.43 630.34,-216.41 387.5,-188 384.65,-187.67 381.71,-187.25 378.77,-186.78"/>
<polygon fill="midnightblue" stroke="midnightblue" points="1605.78,-235.85 1615.82,-232.5 1605.88,-228.85 1605.78,-235.85"/>
</g>
<!-- Node59 -->
<g id="node11" class="node">
<title>Node59</title>
<g id="a_node11"><a xlink:href="api_2abi-default_2cpumask_8h.html" target="_top" xlink:title=" ">
<polygon fill="white" stroke="red" points="396.5,-168.5 396.5,-187.5 466.5,-187.5 466.5,-168.5 396.5,-168.5"/>
<text text-anchor="middle" x="431.5" y="-175.5" font-family="Helvetica,sans-Serif" font-size="10.00">cpumask.h</text>
</a>
</g>
</g>
<!-- Node2&#45;&gt;Node59 -->
<g id="edge10" class="edge">
<title>Node2&#45;&gt;Node59</title>
<path fill="none" stroke="midnightblue" d="M1605.59,-232.23C1415.26,-228.96 700.03,-215.07 475.5,-188 472.71,-187.66 469.84,-187.24 466.96,-186.77"/>
<polygon fill="midnightblue" stroke="midnightblue" points="1605.76,-235.74 1615.82,-232.41 1605.88,-228.74 1605.76,-235.74"/>
</g>
<!-- Node83 -->
<g id="node12" class="node">
<title>Node83</title>
<g id="a_node12"><a xlink:href="api_2abi-default_2init_8h.html" target="_top" xlink:title=" ">
<polygon fill="white" stroke="red" points="485,-168.5 485,-187.5 526,-187.5 526,-168.5 485,-168.5"/>
<text text-anchor="middle" x="505.5" y="-175.5" font-family="Helvetica,sans-Serif" font-size="10.00">init.h</text>
</a>
</g>
</g>
<!-- Node2&#45;&gt;Node83 -->
<g id="edge11" class="edge">
<title>Node2&#45;&gt;Node83</title>
<path fill="none" stroke="midnightblue" d="M1605.76,-232.74C1421.53,-231.46 745.41,-224.33 534.5,-188 531.8,-187.53 529,-186.89 526.25,-186.15"/>
<polygon fill="midnightblue" stroke="midnightblue" points="1605.9,-236.24 1615.93,-232.81 1605.95,-229.24 1605.9,-236.24"/>
</g>
<!-- Node91 -->
<g id="node13" class="node">
<title>Node91</title>
<g id="a_node13"><a xlink:href="api_2abi-default_2ipsec_8h.html" target="_top" xlink:title=" ">
<polygon fill="white" stroke="red" points="544,-168.5 544,-187.5 595,-187.5 595,-168.5 544,-168.5"/>
<text text-anchor="middle" x="569.5" y="-175.5" font-family="Helvetica,sans-Serif" font-size="10.00">ipsec.h</text>
</a>
</g>
</g>
<!-- Node2&#45;&gt;Node91 -->
<g id="edge12" class="edge">
<title>Node2&#45;&gt;Node91</title>
<path fill="none" stroke="midnightblue" d="M1605.84,-232.29C1429.24,-229.41 801.87,-217.29 604.5,-188 601.52,-187.56 598.43,-186.97 595.37,-186.29"/>
<polygon fill="midnightblue" stroke="midnightblue" points="1605.79,-235.79 1615.85,-232.45 1605.91,-228.79 1605.79,-235.79"/>
</g>
<!-- Node100 -->
<g id="node14" class="node">
<title>Node100</title>
<g id="a_node14"><a xlink:href="api_2abi-default_2packet__io_8h.html" target="_top" xlink:title=" ">
<polygon fill="white" stroke="red" points="613.5,-168.5 613.5,-187.5 685.5,-187.5 685.5,-168.5 613.5,-168.5"/>
<text text-anchor="middle" x="649.5" y="-175.5" font-family="Helvetica,sans-Serif" font-size="10.00">packet_io.h</text>
</a>
</g>
</g>
<!-- Node2&#45;&gt;Node100 -->
<g id="edge13" class="edge">
<title>Node2&#45;&gt;Node100</title>
<path fill="none" stroke="midnightblue" d="M1605.47,-233.29C1465.95,-233.61 1042.4,-230.71 694.5,-188 691.65,-187.65 688.72,-187.22 685.77,-186.74"/>
<polygon fill="midnightblue" stroke="midnightblue" points="1605.8,-236.79 1615.79,-233.26 1605.78,-229.79 1605.8,-236.79"/>
</g>
<!-- Node32 -->
<g id="node15" class="node">
<title>Node32</title>
<g id="a_node15"><a xlink:href="api_2abi-default_2rwlock__recursive_8h.html" target="_top" xlink:title=" ">
<polygon fill="white" stroke="red" points="703.5,-168.5 703.5,-187.5 811.5,-187.5 811.5,-168.5 703.5,-168.5"/>
<text text-anchor="middle" x="757.5" y="-175.5" font-family="Helvetica,sans-Serif" font-size="10.00">rwlock_recursive.h</text>
</a>
</g>
</g>
<!-- Node2&#45;&gt;Node32 -->
<g id="edge14" class="edge">
<title>Node2&#45;&gt;Node32</title>
<path fill="none" stroke="midnightblue" d="M1605.8,-231.91C1479.17,-228.65 1118.75,-217.31 820.5,-188 817.64,-187.72 814.71,-187.4 811.76,-187.06"/>
<polygon fill="midnightblue" stroke="midnightblue" points="1605.83,-235.41 1615.92,-232.17 1606.01,-228.42 1605.83,-235.41"/>
</g>
<!-- Node128 -->
<g id="node16" class="node">
<title>Node128</title>
<g id="a_node16"><a xlink:href="api_2abi-default_2schedule_8h.html" target="_top" xlink:title=" ">
<polygon fill="white" stroke="red" points="830,-168.5 830,-187.5 899,-187.5 899,-168.5 830,-168.5"/>
<text text-anchor="middle" x="864.5" y="-175.5" font-family="Helvetica,sans-Serif" font-size="10.00">schedule.h</text>
</a>
</g>
</g>
<!-- Node2&#45;&gt;Node128 -->
<g id="edge15" class="edge">
<title>Node2&#45;&gt;Node128</title>
<path fill="none" stroke="midnightblue" d="M1605.85,-232.46C1488.3,-230.62 1170.64,-222.56 908.5,-188 905.41,-187.59 902.21,-187.09 899.01,-186.54"/>
<polygon fill="midnightblue" stroke="midnightblue" points="1605.89,-235.97 1615.94,-232.61 1605.99,-228.97 1605.89,-235.97"/>
</g>
<!-- Node136 -->
<g id="node17" class="node">
<title>Node136</title>
<g id="a_node17"><a xlink:href="api_2abi-default_2spinlock__recursive_8h.html" target="_top" xlink:title=" ">
<polygon fill="white" stroke="red" points="917.5,-168.5 917.5,-187.5 1033.5,-187.5 1033.5,-168.5 917.5,-168.5"/>
<text text-anchor="middle" x="975.5" y="-175.5" font-family="Helvetica,sans-Serif" font-size="10.00">spinlock_recursive.h</text>
</a>
</g>
</g>
<!-- Node2&#45;&gt;Node136 -->
<g id="edge16" class="edge">
<title>Node2&#45;&gt;Node136</title>
<path fill="none" stroke="midnightblue" d="M1606.01,-230.52C1503.88,-224.87 1252.35,-209.81 1042.5,-188 1039.58,-187.7 1036.59,-187.37 1033.58,-187.02"/>
<polygon fill="midnightblue" stroke="midnightblue" points="1605.81,-234.02 1615.99,-231.07 1606.2,-227.03 1605.81,-234.02"/>
</g>
<!-- Node145 -->
<g id="node18" class="node">
<title>Node145</title>
<g id="a_node18"><a xlink:href="api_2abi-default_2traffic__mngr_8h.html" target="_top" xlink:title=" ">
<polygon fill="white" stroke="red" points="1051.5,-168.5 1051.5,-187.5 1135.5,-187.5 1135.5,-168.5 1051.5,-168.5"/>
<text text-anchor="middle" x="1093.5" y="-175.5" font-family="Helvetica,sans-Serif" font-size="10.00">traffic_mngr.h</text>
</a>
</g>
</g>
<!-- Node2&#45;&gt;Node145 -->
<g id="edge17" class="edge">
<title>Node2&#45;&gt;Node145</title>
<path fill="none" stroke="midnightblue" d="M1605.76,-229.92C1516.75,-223.81 1316.87,-208.91 1149.5,-188 1145.01,-187.44 1140.32,-186.79 1135.65,-186.1"/>
<polygon fill="midnightblue" stroke="midnightblue" points="1605.59,-233.41 1615.8,-230.6 1606.06,-226.43 1605.59,-233.41"/>
</g>
<!-- Node20 -->
<g id="node19" class="node">
<title>Node20</title>
<g id="a_node19"><a xlink:href="api_2barrier_8h.html" target="_top" xlink:title=" ">
<polygon fill="white" stroke="black" points="2041,-56.5 2041,-75.5 2098,-75.5 2098,-56.5 2041,-56.5"/>
<text text-anchor="middle" x="2069.5" y="-63.5" font-family="Helvetica,sans-Serif" font-size="10.00">barrier.h</text>
</a>
</g>
</g>
<!-- Node2&#45;&gt;Node20 -->
<g id="edge18" class="edge">
<title>Node2&#45;&gt;Node20</title>
<path fill="none" stroke="midnightblue" d="M1699.47,-231.68C1807.53,-228.16 2066.51,-216.78 2092.5,-188 2121.88,-155.47 2089.46,-97.45 2075.37,-75.62"/>
<polygon fill="midnightblue" stroke="midnightblue" points="1699.07,-228.19 1689.19,-232.01 1699.3,-235.19 1699.07,-228.19"/>
</g>
<!-- Node21 -->
<g id="node20" class="node">
<title>Node21</title>
<g id="a_node20"><a xlink:href="odp__api_8h.html" target="_top" xlink:title=" ">
<polygon fill="white" stroke="red" points="1723.5,-0.5 1723.5,-19.5 1787.5,-19.5 1787.5,-0.5 1723.5,-0.5"/>
<text text-anchor="middle" x="1755.5" y="-7.5" font-family="Helvetica,sans-Serif" font-size="10.00">odp_api.h</text>
</a>
</g>
</g>
<!-- Node2&#45;&gt;Node21 -->
<g id="edge71" class="edge">
<title>Node2&#45;&gt;Node21</title>
<path fill="none" stroke="midnightblue" d="M1699.35,-233.2C1928.45,-233.94 2921.61,-234.45 2966.5,-188 3138.42,-10.09 1995.46,-9.39 1787.57,-10.72"/>
<polygon fill="midnightblue" stroke="midnightblue" points="1699.35,-229.7 1689.34,-233.16 1699.32,-236.7 1699.35,-229.7"/>
</g>
<!-- Node153 -->
<g id="node21" class="node">
<title>Node153</title>
<g id="a_node21"><a xlink:href="api_2buffer_8h.html" target="_top" xlink:title=" ">
<polygon fill="white" stroke="black" points="3036,-56.5 3036,-75.5 3089,-75.5 3089,-56.5 3036,-56.5"/>
<text text-anchor="middle" x="3062.5" y="-63.5" font-family="Helvetica,sans-Serif" font-size="10.00">buffer.h</text>
</a>
</g>
</g>
<!-- Node2&#45;&gt;Node153 -->
<g id="edge20" class="edge">
<title>Node2&#45;&gt;Node153</title>
<path fill="none" stroke="midnightblue" d="M1699.48,-232.95C1933.84,-232.49 2967.34,-228.19 3021.5,-188 3058.37,-160.64 3062.42,-98.41 3062.62,-75.59"/>
<polygon fill="midnightblue" stroke="midnightblue" points="1699.24,-229.45 1689.25,-232.96 1699.26,-236.45 1699.24,-229.45"/>
</g>
<!-- Node108 -->
<g id="node22" class="node">
<title>Node108</title>
<g id="a_node22"><a xlink:href="api_2classification_8h.html" target="_top" xlink:title=" ">
<polygon fill="white" stroke="black" points="1078,-56.5 1078,-75.5 1167,-75.5 1167,-56.5 1078,-56.5"/>
<text text-anchor="middle" x="1122.5" y="-63.5" font-family="Helvetica,sans-Serif" font-size="10.00">classification.h</text>
</a>
</g>
</g>
<!-- Node2&#45;&gt;Node108 -->
<g id="edge22" class="edge">
<title>Node2&#45;&gt;Node108</title>
<path fill="none" stroke="midnightblue" d="M1605.51,-233.94C1524.2,-234.31 1352.79,-229.5 1215.5,-188 1197.23,-182.48 1195.07,-175.46 1177.5,-168 1130.54,-148.05 1098.39,-173.35 1068.5,-132 1053.2,-110.84 1085.28,-87.68 1106.25,-75.53"/>
<polygon fill="midnightblue" stroke="midnightblue" points="1605.93,-237.44 1615.9,-233.86 1605.88,-230.44 1605.93,-237.44"/>
</g>
<!-- Node109 -->
<g id="node23" class="node">
<title>Node109</title>
<g id="a_node23"><a xlink:href="api_2spec_2ipsec_8h.html" target="_top" xlink:title=" ">
<polygon fill="white" stroke="red" points="1134,-0.5 1134,-19.5 1185,-19.5 1185,-0.5 1134,-0.5"/>
<text text-anchor="middle" x="1159.5" y="-7.5" font-family="Helvetica,sans-Serif" font-size="10.00">ipsec.h</text>
</a>
</g>
</g>
<!-- Node2&#45;&gt;Node109 -->
<g id="edge51" class="edge">
<title>Node2&#45;&gt;Node109</title>
<path fill="none" stroke="midnightblue" d="M1605.74,-231.23C1502.13,-226.87 1256.19,-214.05 1177.5,-188 1161.22,-182.61 1159.74,-175.87 1144.5,-168 1108.78,-149.54 1083.56,-165.62 1061.5,-132 1052.16,-117.77 1052.59,-78.39 1068.5,-56 1083.92,-34.31 1112.81,-22.55 1133.91,-16.55"/>
<polygon fill="midnightblue" stroke="midnightblue" points="1605.76,-234.73 1615.9,-231.65 1606.05,-227.74 1605.76,-234.73"/>
</g>
<!-- Node114 -->
<g id="node24" class="node">
<title>Node114</title>
<g id="a_node24"><a xlink:href="api_2crypto_8h.html" target="_top" xlink:title=" ">
<polygon fill="white" stroke="black" points="1373.5,-56.5 1373.5,-75.5 1429.5,-75.5 1429.5,-56.5 1373.5,-56.5"/>
<text text-anchor="middle" x="1401.5" y="-63.5" font-family="Helvetica,sans-Serif" font-size="10.00">crypto.h</text>
</a>
</g>
</g>
<!-- Node2&#45;&gt;Node114 -->
<g id="edge25" class="edge">
<title>Node2&#45;&gt;Node114</title>
<path fill="none" stroke="midnightblue" d="M1605.84,-225.84C1569.04,-219.11 1517,-207.15 1474.5,-188 1434.26,-169.87 1413.11,-171.03 1392.5,-132 1382.82,-113.66 1391.45,-88.55 1397.25,-75.56"/>
<polygon fill="midnightblue" stroke="midnightblue" points="1605.34,-229.31 1615.8,-227.6 1606.56,-222.41 1605.34,-229.31"/>
</g>
<!-- Node110 -->
<g id="node25" class="node">
<title>Node110</title>
<g id="a_node25"><a xlink:href="api_2packet_8h.html" target="_top" xlink:title=" ">
<polygon fill="white" stroke="red" points="1528.5,-168.5 1528.5,-187.5 1586.5,-187.5 1586.5,-168.5 1528.5,-168.5"/>
<text text-anchor="middle" x="1557.5" y="-175.5" font-family="Helvetica,sans-Serif" font-size="10.00">packet.h</text>
</a>
</g>
</g>
<!-- Node2&#45;&gt;Node110 -->
<g id="edge28" class="edge">
<title>Node2&#45;&gt;Node110</title>
<path fill="none" stroke="midnightblue" d="M1628.18,-219.18C1610.7,-209.24 1587.67,-196.15 1572.73,-187.65"/>
<polygon fill="midnightblue" stroke="midnightblue" points="1626.81,-222.43 1637.24,-224.32 1630.27,-216.34 1626.81,-222.43"/>
</g>
<!-- Node111 -->
<g id="node26" class="node">
<title>Node111</title>
<g id="a_node26"><a xlink:href="api_2spec_2comp_8h.html" target="_top" xlink:title=" ">
<polygon fill="white" stroke="red" points="1476,-112.5 1476,-131.5 1529,-131.5 1529,-112.5 1476,-112.5"/>
<text text-anchor="middle" x="1502.5" y="-119.5" font-family="Helvetica,sans-Serif" font-size="10.00">comp.h</text>
</a>
</g>
</g>
<!-- Node2&#45;&gt;Node111 -->
<g id="edge46" class="edge">
<title>Node2&#45;&gt;Node111</title>
<path fill="none" stroke="midnightblue" d="M1605.58,-228.31C1576.95,-223.04 1541.7,-211.82 1519.5,-188 1504.87,-172.3 1502.49,-145.59 1502.31,-131.81"/>
<polygon fill="midnightblue" stroke="midnightblue" points="1605.36,-231.82 1615.8,-230 1606.5,-224.92 1605.36,-231.82"/>
</g>
<!-- Node113 -->
<g id="node27" class="node">
<title>Node113</title>
<g id="a_node27"><a xlink:href="api_2spec_2crypto_8h.html" target="_top" xlink:title=" ">
<polygon fill="white" stroke="black" points="1401.5,-112.5 1401.5,-131.5 1457.5,-131.5 1457.5,-112.5 1401.5,-112.5"/>
<text text-anchor="middle" x="1429.5" y="-119.5" font-family="Helvetica,sans-Serif" font-size="10.00">crypto.h</text>
</a>
</g>
</g>
<!-- Node2&#45;&gt;Node113 -->
<g id="edge48" class="edge">
<title>Node2&#45;&gt;Node113</title>
<path fill="none" stroke="midnightblue" d="M1606.03,-223.93C1576.1,-216.87 1537.03,-205.32 1505.5,-188 1477.5,-172.62 1450.49,-145.77 1437.51,-131.88"/>
<polygon fill="midnightblue" stroke="midnightblue" points="1605.28,-227.35 1615.81,-226.16 1606.84,-220.53 1605.28,-227.35"/>
</g>
<!-- Node126 -->
<g id="node28" class="node">
<title>Node126</title>
<g id="a_node28"><a xlink:href="api_2spec_2packet__flags_8h.html" target="_top" xlink:title=" ">
<polygon fill="white" stroke="red" points="1585.5,-112.5 1585.5,-131.5 1671.5,-131.5 1671.5,-112.5 1585.5,-112.5"/>
<text text-anchor="middle" x="1628.5" y="-119.5" font-family="Helvetica,sans-Serif" font-size="10.00">packet_flags.h</text>
</a>
</g>
</g>
<!-- Node2&#45;&gt;Node126 -->
<g id="edge52" class="edge">
<title>Node2&#45;&gt;Node126</title>
<path fill="none" stroke="midnightblue" d="M1646.2,-214.92C1643.53,-206.77 1640.58,-196.98 1638.5,-188 1633.92,-168.2 1630.88,-144.51 1629.44,-131.91"/>
<polygon fill="midnightblue" stroke="midnightblue" points="1642.91,-216.13 1649.43,-224.48 1649.54,-213.88 1642.91,-216.13"/>
</g>
<!-- Node122 -->
<g id="node29" class="node">
<title>Node122</title>
<g id="a_node29"><a xlink:href="api_2packet__io_8h.html" target="_top" xlink:title=" ">
<polygon fill="white" stroke="black" points="1267.5,-168.5 1267.5,-187.5 1339.5,-187.5 1339.5,-168.5 1267.5,-168.5"/>
<text text-anchor="middle" x="1303.5" y="-175.5" font-family="Helvetica,sans-Serif" font-size="10.00">packet_io.h</text>
</a>
</g>
</g>
<!-- Node2&#45;&gt;Node122 -->
<g id="edge34" class="edge">
<title>Node2&#45;&gt;Node122</title>
<path fill="none" stroke="midnightblue" d="M1605.51,-226.35C1546.56,-217.92 1442.42,-202.69 1353.5,-188 1348.97,-187.25 1344.23,-186.44 1339.53,-185.61"/>
<polygon fill="midnightblue" stroke="midnightblue" points="1605.23,-229.85 1615.62,-227.8 1606.22,-222.92 1605.23,-229.85"/>
</g>
<!-- Node123 -->
<g id="node30" class="node">
<title>Node123</title>
<g id="a_node30"><a xlink:href="api_2spec_2classification_8h.html" target="_top" xlink:title=" ">
<polygon fill="white" stroke="black" points="1078,-112.5 1078,-131.5 1167,-131.5 1167,-112.5 1078,-112.5"/>
<text text-anchor="middle" x="1122.5" y="-119.5" font-family="Helvetica,sans-Serif" font-size="10.00">classification.h</text>
</a>
</g>
</g>
<!-- Node2&#45;&gt;Node123 -->
<g id="edge45" class="edge">
<title>Node2&#45;&gt;Node123</title>
<path fill="none" stroke="midnightblue" d="M1605.83,-232.63C1531.07,-230.95 1380.47,-223.04 1258.5,-188 1255.4,-187.11 1176.54,-149.1 1140.35,-131.62"/>
<polygon fill="midnightblue" stroke="midnightblue" points="1605.8,-236.13 1615.86,-232.83 1605.93,-229.14 1605.8,-236.13"/>
</g>
<!-- Node124 -->
<g id="node31" class="node">
<title>Node124</title>
<g id="a_node31"><a xlink:href="api_2spec_2traffic__mngr_8h.html" target="_top" xlink:title=" ">
<polygon fill="white" stroke="red" points="1261.5,-112.5 1261.5,-131.5 1345.5,-131.5 1345.5,-112.5 1261.5,-112.5"/>
<text text-anchor="middle" x="1303.5" y="-119.5" font-family="Helvetica,sans-Serif" font-size="10.00">traffic_mngr.h</text>
</a>
</g>
</g>
<!-- Node2&#45;&gt;Node124 -->
<g id="edge64" class="edge">
<title>Node2&#45;&gt;Node124</title>
<path fill="none" stroke="midnightblue" d="M1605.74,-231.42C1552.04,-228.15 1462.27,-218.21 1391.5,-188 1359.01,-174.13 1327.28,-146.1 1312.35,-131.81"/>
<polygon fill="midnightblue" stroke="midnightblue" points="1605.8,-234.93 1615.98,-231.98 1606.19,-227.94 1605.8,-234.93"/>
</g>
<!-- Node154 -->
<g id="node32" class="node">
<title>Node154</title>
<g id="a_node32"><a xlink:href="api_2proto__stats_8h.html" target="_top" xlink:title=" ">
<polygon fill="white" stroke="black" points="1585.5,-56.5 1585.5,-75.5 1665.5,-75.5 1665.5,-56.5 1585.5,-56.5"/>
<text text-anchor="middle" x="1625.5" y="-63.5" font-family="Helvetica,sans-Serif" font-size="10.00">proto_stats.h</text>
</a>
</g>
</g>
<!-- Node2&#45;&gt;Node154 -->
<g id="edge40" class="edge">
<title>Node2&#45;&gt;Node154</title>
<path fill="none" stroke="midnightblue" d="M1659.54,-214.94C1670.39,-185.87 1689.09,-130.13 1680.5,-112 1672.73,-95.61 1655.75,-83.21 1642.7,-75.61"/>
<polygon fill="midnightblue" stroke="midnightblue" points="1656.25,-213.73 1655.96,-224.32 1662.79,-216.22 1656.25,-213.73"/>
</g>
<!-- Node118 -->
<g id="node33" class="node">
<title>Node118</title>
<g id="a_node33"><a xlink:href="api_2queue_8h.html" target="_top" xlink:title=" ">
<polygon fill="white" stroke="red" points="1683.5,-56.5 1683.5,-75.5 1739.5,-75.5 1739.5,-56.5 1683.5,-56.5"/>
<text text-anchor="middle" x="1711.5" y="-63.5" font-family="Helvetica,sans-Serif" font-size="10.00">queue.h</text>
</a>
</g>
</g>
<!-- Node2&#45;&gt;Node118 -->
<g id="edge42" class="edge">
<title>Node2&#45;&gt;Node118</title>
<path fill="none" stroke="midnightblue" d="M1662.72,-215.29C1667.23,-207.12 1672.43,-197.21 1676.5,-188 1687.19,-163.83 1689.07,-157.36 1696.5,-132 1702.29,-112.22 1707.28,-88.52 1709.78,-75.92"/>
<polygon fill="midnightblue" stroke="midnightblue" points="1659.54,-213.8 1657.68,-224.23 1665.64,-217.24 1659.54,-213.8"/>
</g>
<!-- Node155 -->
<g id="node34" class="node">
<title>Node155</title>
<g id="a_node34"><a xlink:href="spec_2chksum_8h.html" target="_top" xlink:title=" ">
<polygon fill="white" stroke="red" points="1832.5,-168.5 1832.5,-187.5 1896.5,-187.5 1896.5,-168.5 1832.5,-168.5"/>
<text text-anchor="middle" x="1864.5" y="-175.5" font-family="Helvetica,sans-Serif" font-size="10.00">chksum.h</text>
</a>
</g>
</g>
<!-- Node2&#45;&gt;Node155 -->
<g id="edge44" class="edge">
<title>Node2&#45;&gt;Node155</title>
<path fill="none" stroke="midnightblue" d="M1695.97,-221.93C1736.52,-211.6 1796.07,-196.43 1832.45,-187.16"/>
<polygon fill="midnightblue" stroke="midnightblue" points="1694.92,-218.58 1686.09,-224.44 1696.65,-225.37 1694.92,-218.58"/>
</g>
<!-- Node157 -->
<g id="node35" class="node">
<title>Node157</title>
<g id="a_node35"><a xlink:href="api_2spec_2cpu_8h.html" target="_top" xlink:title=" ">
<polygon fill="white" stroke="red" points="1915,-168.5 1915,-187.5 1958,-187.5 1958,-168.5 1915,-168.5"/>
<text text-anchor="middle" x="1936.5" y="-175.5" font-family="Helvetica,sans-Serif" font-size="10.00">cpu.h</text>
</a>
</g>
</g>
<!-- Node2&#45;&gt;Node157 -->
<g id="edge47" class="edge">
<title>Node2&#45;&gt;Node157</title>
<path fill="none" stroke="midnightblue" d="M1699.26,-226.21C1750.26,-218.45 1834.17,-204.65 1905.5,-188 1908.56,-187.29 1911.76,-186.45 1914.9,-185.59"/>
<polygon fill="midnightblue" stroke="midnightblue" points="1698.57,-222.78 1689.2,-227.73 1699.61,-229.7 1698.57,-222.78"/>
</g>
<!-- Node159 -->
<g id="node36" class="node">
<title>Node159</title>
<g id="a_node36"><a xlink:href="api_2spec_2hash_8h.html" target="_top" xlink:title=" ">
<polygon fill="white" stroke="red" points="1976,-168.5 1976,-187.5 2025,-187.5 2025,-168.5 1976,-168.5"/>
<text text-anchor="middle" x="2000.5" y="-175.5" font-family="Helvetica,sans-Serif" font-size="10.00">hash.h</text>
</a>
</g>
</g>
<!-- Node2&#45;&gt;Node159 -->
<g id="edge49" class="edge">
<title>Node2&#45;&gt;Node159</title>
<path fill="none" stroke="midnightblue" d="M1699.67,-227.97C1761.36,-221.01 1872.63,-207.08 1966.5,-188 1969.49,-187.39 1972.61,-186.68 1975.7,-185.92"/>
<polygon fill="midnightblue" stroke="midnightblue" points="1699.03,-224.53 1689.48,-229.11 1699.8,-231.48 1699.03,-224.53"/>
</g>
<!-- Node79 -->
<g id="node37" class="node">
<title>Node79</title>
<g id="a_node37"><a xlink:href="api_2spec_2init_8h.html" target="_top" xlink:title=" ">
<polygon fill="white" stroke="red" points="2043,-168.5 2043,-187.5 2084,-187.5 2084,-168.5 2043,-168.5"/>
<text text-anchor="middle" x="2063.5" y="-175.5" font-family="Helvetica,sans-Serif" font-size="10.00">init.h</text>
</a>
</g>
</g>
<!-- Node2&#45;&gt;Node79 -->
<g id="edge50" class="edge">
<title>Node2&#45;&gt;Node79</title>
<path fill="none" stroke="midnightblue" d="M1699.22,-230.11C1771.49,-225.05 1914.46,-212.69 2033.5,-188 2036.59,-187.36 2039.82,-186.55 2042.96,-185.67"/>
<polygon fill="midnightblue" stroke="midnightblue" points="1698.82,-226.63 1689.09,-230.8 1699.3,-233.61 1698.82,-226.63"/>
</g>
<!-- Node161 -->
<g id="node38" class="node">
<title>Node161</title>
<g id="a_node38"><a xlink:href="api_2spec_2pool_8h.html" target="_top" xlink:title=" ">
<polygon fill="white" stroke="red" points="2544,-112.5 2544,-131.5 2591,-131.5 2591,-112.5 2544,-112.5"/>
<text text-anchor="middle" x="2567.5" y="-119.5" font-family="Helvetica,sans-Serif" font-size="10.00">pool.h</text>
</a>
</g>
</g>
<!-- Node2&#45;&gt;Node161 -->
<g id="edge53" class="edge">
<title>Node2&#45;&gt;Node161</title>
<path fill="none" stroke="midnightblue" d="M1699.49,-233.18C1927.14,-233.81 2906.21,-233.85 2950.5,-188 3002.04,-134.64 2682.14,-124.99 2591.15,-123.33"/>
<polygon fill="midnightblue" stroke="midnightblue" points="1699.23,-229.68 1689.22,-233.15 1699.21,-236.68 1699.23,-229.68"/>
</g>
<!-- Node163 -->
<g id="node39" class="node">
<title>Node163</title>
<g id="a_node39"><a xlink:href="pool__types_8h.html" target="_top" xlink:title=" ">
<polygon fill="white" stroke="black" points="2141,-168.5 2141,-187.5 2220,-187.5 2220,-168.5 2141,-168.5"/>
<text text-anchor="middle" x="2180.5" y="-175.5" font-family="Helvetica,sans-Serif" font-size="10.00">pool_types.h</text>
</a>
</g>
</g>
<!-- Node2&#45;&gt;Node163 -->
<g id="edge54" class="edge">
<title>Node2&#45;&gt;Node163</title>
<path fill="none" stroke="midnightblue" d="M1699.3,-229.66C1784.49,-223.33 1970.51,-208.38 2126.5,-188 2131.12,-187.4 2135.95,-186.69 2140.74,-185.95"/>
<polygon fill="midnightblue" stroke="midnightblue" points="1698.89,-226.18 1689.17,-230.4 1699.4,-233.16 1698.89,-226.18"/>
</g>
<!-- Node164 -->
<g id="node40" class="node">
<title>Node164</title>
<g id="a_node40"><a xlink:href="api_2spec_2proto__stats__types_8h.html" target="_top" xlink:title=" ">
<polygon fill="white" stroke="red" points="2238,-168.5 2238,-187.5 2351,-187.5 2351,-168.5 2238,-168.5"/>
<text text-anchor="middle" x="2294.5" y="-175.5" font-family="Helvetica,sans-Serif" font-size="10.00">proto_stats_types.h</text>
</a>
</g>
</g>
<!-- Node2&#45;&gt;Node164 -->
<g id="edge56" class="edge">
<title>Node2&#45;&gt;Node164</title>
<path fill="none" stroke="midnightblue" d="M1699.49,-230.25C1797.83,-224.29 2032.44,-209.01 2228.5,-188 2231.49,-187.68 2234.55,-187.33 2237.64,-186.96"/>
<polygon fill="midnightblue" stroke="midnightblue" points="1699.07,-226.77 1689.29,-230.86 1699.49,-233.76 1699.07,-226.77"/>
</g>
<!-- Node170 -->
<g id="node41" class="node">
<title>Node170</title>
<g id="a_node41"><a xlink:href="spec_2random_8h.html" target="_top" xlink:title=" ">
<polygon fill="white" stroke="red" points="2369,-168.5 2369,-187.5 2432,-187.5 2432,-168.5 2369,-168.5"/>
<text text-anchor="middle" x="2400.5" y="-175.5" font-family="Helvetica,sans-Serif" font-size="10.00">random.h</text>
</a>
</g>
</g>
<!-- Node2&#45;&gt;Node170 -->
<g id="edge57" class="edge">
<title>Node2&#45;&gt;Node170</title>
<path fill="none" stroke="midnightblue" d="M1699.29,-232.57C1813.08,-230.98 2113.11,-223.47 2360.5,-188 2363.18,-187.62 2365.94,-187.15 2368.71,-186.63"/>
<polygon fill="midnightblue" stroke="midnightblue" points="1699.14,-229.07 1689.19,-232.71 1699.23,-236.07 1699.14,-229.07"/>
</g>
<!-- Node77 -->
<g id="node42" class="node">
<title>Node77</title>
<g id="a_node42"><a xlink:href="api_2spec_2schedule_8h.html" target="_top" xlink:title=" ">
<polygon fill="white" stroke="red" points="2450,-168.5 2450,-187.5 2519,-187.5 2519,-168.5 2450,-168.5"/>
<text text-anchor="middle" x="2484.5" y="-175.5" font-family="Helvetica,sans-Serif" font-size="10.00">schedule.h</text>
</a>
</g>
</g>
<!-- Node2&#45;&gt;Node77 -->
<g id="edge58" class="edge">
<title>Node2&#45;&gt;Node77</title>
<path fill="none" stroke="midnightblue" d="M1699.41,-232.76C1821.97,-231.62 2161.65,-225.06 2441.5,-188 2444.22,-187.64 2447.03,-187.2 2449.84,-186.72"/>
<polygon fill="midnightblue" stroke="midnightblue" points="1699.23,-229.26 1689.26,-232.85 1699.29,-236.26 1699.23,-229.26"/>
</g>
<!-- Node172 -->
<g id="node43" class="node">
<title>Node172</title>
<g id="a_node43"><a xlink:href="api_2spec_2schedule__types_8h.html" target="_top" xlink:title=" ">
<polygon fill="white" stroke="red" points="2537,-168.5 2537,-187.5 2638,-187.5 2638,-168.5 2537,-168.5"/>
<text text-anchor="middle" x="2587.5" y="-175.5" font-family="Helvetica,sans-Serif" font-size="10.00">schedule_types.h</text>
</a>
</g>
</g>
<!-- Node2&#45;&gt;Node172 -->
<g id="edge59" class="edge">
<title>Node2&#45;&gt;Node172</title>
<path fill="none" stroke="midnightblue" d="M1699.43,-232.24C1830.72,-229.76 2212.83,-220.1 2528.5,-188 2531.18,-187.73 2533.92,-187.42 2536.69,-187.08"/>
<polygon fill="midnightblue" stroke="midnightblue" points="1699.25,-228.74 1689.32,-232.43 1699.38,-235.74 1699.25,-228.74"/>
</g>
<!-- Node176 -->
<g id="node44" class="node">
<title>Node176</title>
<g id="a_node44"><a xlink:href="api_2spec_2stash_8h.html" target="_top" xlink:title=" ">
<polygon fill="white" stroke="red" points="2656.5,-168.5 2656.5,-187.5 2708.5,-187.5 2708.5,-168.5 2656.5,-168.5"/>
<text text-anchor="middle" x="2682.5" y="-175.5" font-family="Helvetica,sans-Serif" font-size="10.00">stash.h</text>
</a>
</g>
</g>
<!-- Node2&#45;&gt;Node176 -->
<g id="edge60" class="edge">
<title>Node2&#45;&gt;Node176</title>
<path fill="none" stroke="midnightblue" d="M1699.3,-232.17C1870.3,-228.91 2461.04,-215.88 2647.5,-188 2650.35,-187.57 2653.31,-187.01 2656.25,-186.37"/>
<polygon fill="midnightblue" stroke="midnightblue" points="1699.05,-228.67 1689.12,-232.36 1699.18,-235.67 1699.05,-228.67"/>
</g>
<!-- Node178 -->
<g id="node45" class="node">
<title>Node178</title>
<g id="a_node45"><a xlink:href="api_2spec_2std_8h.html" target="_top" xlink:title=" ">
<polygon fill="white" stroke="red" points="2727,-168.5 2727,-187.5 2768,-187.5 2768,-168.5 2727,-168.5"/>
<text text-anchor="middle" x="2747.5" y="-175.5" font-family="Helvetica,sans-Serif" font-size="10.00">std.h</text>
</a>
</g>
</g>
<!-- Node2&#45;&gt;Node178 -->
<g id="edge61" class="edge">
<title>Node2&#45;&gt;Node178</title>
<path fill="none" stroke="midnightblue" d="M1699.35,-232.57C1878.13,-230.69 2517.33,-221.71 2717.5,-188 2720.5,-187.49 2723.63,-186.78 2726.68,-185.97"/>
<polygon fill="midnightblue" stroke="midnightblue" points="1699.19,-229.07 1689.23,-232.67 1699.26,-236.07 1699.19,-229.07"/>
</g>
<!-- Node180 -->
<g id="node46" class="node">
<title>Node180</title>
<g id="a_node46"><a xlink:href="spec_2threshold_8h.html" target="_top" xlink:title=" ">
<polygon fill="white" stroke="red" points="2786,-168.5 2786,-187.5 2857,-187.5 2857,-168.5 2786,-168.5"/>
<text text-anchor="middle" x="2821.5" y="-175.5" font-family="Helvetica,sans-Serif" font-size="10.00">threshold.h</text>
</a>
</g>
</g>
<!-- Node2&#45;&gt;Node180 -->
<g id="edge62" class="edge">
<title>Node2&#45;&gt;Node180</title>
<path fill="none" stroke="midnightblue" d="M1699.44,-232.14C1884.49,-228.57 2563.72,-213.97 2777.5,-188 2780.13,-187.68 2782.84,-187.29 2785.56,-186.84"/>
<polygon fill="midnightblue" stroke="midnightblue" points="1699.16,-228.64 1689.23,-232.33 1699.3,-235.64 1699.16,-228.64"/>
</g>
<!-- Node182 -->
<g id="node47" class="node">
<title>Node182</title>
<g id="a_node47"><a xlink:href="api_2spec_2thrmask_8h.html" target="_top" xlink:title=" ">
<polygon fill="white" stroke="red" points="2875.5,-168.5 2875.5,-187.5 2941.5,-187.5 2941.5,-168.5 2875.5,-168.5"/>
<text text-anchor="middle" x="2908.5" y="-175.5" font-family="Helvetica,sans-Serif" font-size="10.00">thrmask.h</text>
</a>
</g>
</g>
<!-- Node2&#45;&gt;Node182 -->
<g id="edge63" class="edge">
<title>Node2&#45;&gt;Node182</title>
<path fill="none" stroke="midnightblue" d="M1699.3,-232.35C1893.22,-229.51 2634.41,-216.94 2866.5,-188 2869.31,-187.65 2872.21,-187.2 2875.12,-186.7"/>
<polygon fill="midnightblue" stroke="midnightblue" points="1699.11,-228.86 1689.16,-232.5 1699.21,-235.86 1699.11,-228.86"/>
</g>
<!-- Node183 -->
<g id="node48" class="node">
<title>Node183</title>
<g id="a_node48"><a xlink:href="system__info_8h.html" target="_top" xlink:title=" ">
<polygon fill="white" stroke="black" points="1757.5,-56.5 1757.5,-75.5 1843.5,-75.5 1843.5,-56.5 1757.5,-56.5"/>
<text text-anchor="middle" x="1800.5" y="-63.5" font-family="Helvetica,sans-Serif" font-size="10.00">system_info.h</text>
</a>
</g>
</g>
<!-- Node2&#45;&gt;Node183 -->
<g id="edge65" class="edge">
<title>Node2&#45;&gt;Node183</title>
<path fill="none" stroke="midnightblue" d="M1668.06,-217.09C1676.31,-208.56 1686.57,-197.81 1695.5,-188 1733.14,-146.67 1776.4,-95.65 1793.26,-75.63"/>
<polygon fill="midnightblue" stroke="midnightblue" points="1665.33,-214.88 1660.87,-224.49 1670.35,-219.76 1665.33,-214.88"/>
</g>
<!-- Node184 -->
<g id="node49" class="node">
<title>Node184</title>
<g id="a_node49"><a xlink:href="api_2time_8h.html" target="_top" xlink:title=" ">
<polygon fill="white" stroke="red" points="1861.5,-56.5 1861.5,-75.5 1909.5,-75.5 1909.5,-56.5 1861.5,-56.5"/>
<text text-anchor="middle" x="1885.5" y="-63.5" font-family="Helvetica,sans-Serif" font-size="10.00">time.h</text>
</a>
</g>
</g>
<!-- Node2&#45;&gt;Node184 -->
<g id="edge67" class="edge">
<title>Node2&#45;&gt;Node184</title>
<path fill="none" stroke="midnightblue" d="M1673.52,-218.89C1686.54,-210.1 1703.57,-198.5 1718.5,-188 1777.37,-146.61 1846.75,-95.62 1873.84,-75.62"/>
<polygon fill="midnightblue" stroke="midnightblue" points="1671.56,-215.99 1665.23,-224.48 1675.48,-221.79 1671.56,-215.99"/>
</g>
<!-- Node185 -->
<g id="node50" class="node">
<title>Node185</title>
<g id="a_node50"><a xlink:href="api_2timer_8h.html" target="_top" xlink:title=" ">
<polygon fill="white" stroke="black" points="1928,-56.5 1928,-75.5 1979,-75.5 1979,-56.5 1928,-56.5"/>
<text text-anchor="middle" x="1953.5" y="-63.5" font-family="Helvetica,sans-Serif" font-size="10.00">timer.h</text>
</a>
</g>
</g>
<!-- Node2&#45;&gt;Node185 -->
<g id="edge69" class="edge">
<title>Node2&#45;&gt;Node185</title>
<path fill="none" stroke="midnightblue" d="M1680.67,-220.26C1699.5,-211.55 1724.72,-199.55 1746.5,-188 1820.78,-148.6 1906.72,-96.04 1939.67,-75.62"/>
<polygon fill="midnightblue" stroke="midnightblue" points="1679.08,-217.13 1671.45,-224.48 1682,-223.49 1679.08,-217.13"/>
</g>
<!-- Node4 -->
<g id="node4" class="node">
<title>Node4</title>
<g id="a_node4"><a xlink:href="arch_2arm32-linux_2odp_2api_2abi_2atomic_8h_source.html" target="_top" xlink:title=" ">
<polygon fill="white" stroke="black" points="0,-112.5 0,-131.5 59,-131.5 59,-112.5 0,-112.5"/>
<text text-anchor="middle" x="29.5" y="-119.5" font-family="Helvetica,sans-Serif" font-size="10.00">atomic.h</text>
</a>
</g>
</g>
<!-- Node3&#45;&gt;Node4 -->
<g id="edge3" class="edge">
<title>Node3&#45;&gt;Node4</title>
<path fill="none" stroke="midnightblue" d="M149.39,-165.04C120.41,-154.88 79.54,-140.55 53.79,-131.52"/>
<polygon fill="midnightblue" stroke="midnightblue" points="148.5,-168.44 159.1,-168.44 150.82,-161.83 148.5,-168.44"/>
</g>
<!-- Node5 -->
<g id="node5" class="node">
<title>Node5</title>
<g id="a_node5"><a xlink:href="arch_2arm64-linux_2odp_2api_2abi_2atomic_8h_source.html" target="_top" xlink:title=" ">
<polygon fill="white" stroke="black" points="77,-112.5 77,-131.5 136,-131.5 136,-112.5 77,-112.5"/>
<text text-anchor="middle" x="106.5" y="-119.5" font-family="Helvetica,sans-Serif" font-size="10.00">atomic.h</text>
</a>
</g>
</g>
<!-- Node3&#45;&gt;Node5 -->
<g id="edge4" class="edge">
<title>Node3&#45;&gt;Node5</title>
<path fill="none" stroke="midnightblue" d="M162.6,-162.34C148.59,-152.52 130.62,-139.91 118.84,-131.65"/>
<polygon fill="midnightblue" stroke="midnightblue" points="160.93,-165.45 171.13,-168.32 164.95,-159.72 160.93,-165.45"/>
</g>
<!-- Node6 -->
<g id="node6" class="node">
<title>Node6</title>
<g id="a_node6"><a xlink:href="arch_2default-linux_2odp_2api_2abi_2atomic_8h_source.html" target="_top" xlink:title=" ">
<polygon fill="white" stroke="black" points="154,-112.5 154,-131.5 213,-131.5 213,-112.5 154,-112.5"/>
<text text-anchor="middle" x="183.5" y="-119.5" font-family="Helvetica,sans-Serif" font-size="10.00">atomic.h</text>
</a>
</g>
</g>
<!-- Node3&#45;&gt;Node6 -->
<g id="edge5" class="edge">
<title>Node3&#45;&gt;Node6</title>
<path fill="none" stroke="midnightblue" d="M183.5,-157.8C183.5,-148.91 183.5,-138.78 183.5,-131.75"/>
<polygon fill="midnightblue" stroke="midnightblue" points="180,-158.08 183.5,-168.08 187,-158.08 180,-158.08"/>
</g>
<!-- Node7 -->
<g id="node7" class="node">
<title>Node7</title>
<g id="a_node7"><a xlink:href="arch_2mips64-linux_2odp_2api_2abi_2atomic_8h_source.html" target="_top" xlink:title=" ">
<polygon fill="white" stroke="black" points="231,-112.5 231,-131.5 290,-131.5 290,-112.5 231,-112.5"/>
<text text-anchor="middle" x="260.5" y="-119.5" font-family="Helvetica,sans-Serif" font-size="10.00">atomic.h</text>
</a>
</g>
</g>
<!-- Node3&#45;&gt;Node7 -->
<g id="edge6" class="edge">
<title>Node3&#45;&gt;Node7</title>
<path fill="none" stroke="midnightblue" d="M204.4,-162.34C218.41,-152.52 236.38,-139.91 248.16,-131.65"/>
<polygon fill="midnightblue" stroke="midnightblue" points="202.05,-159.72 195.87,-168.32 206.07,-165.45 202.05,-159.72"/>
</g>
<!-- Node8 -->
<g id="node8" class="node">
<title>Node8</title>
<g id="a_node8"><a xlink:href="arch_2power64-linux_2odp_2api_2abi_2atomic_8h_source.html" target="_top" xlink:title=" ">
<polygon fill="white" stroke="black" points="308,-112.5 308,-131.5 367,-131.5 367,-112.5 308,-112.5"/>
<text text-anchor="middle" x="337.5" y="-119.5" font-family="Helvetica,sans-Serif" font-size="10.00">atomic.h</text>
</a>
</g>
</g>
<!-- Node3&#45;&gt;Node8 -->
<g id="edge7" class="edge">
<title>Node3&#45;&gt;Node8</title>
<path fill="none" stroke="midnightblue" d="M217.61,-165.04C246.59,-154.88 287.46,-140.55 313.21,-131.52"/>
<polygon fill="midnightblue" stroke="midnightblue" points="216.18,-161.83 207.9,-168.44 218.5,-168.44 216.18,-161.83"/>
</g>
<!-- Node20&#45;&gt;Node21 -->
<g id="edge19" class="edge">
<title>Node20&#45;&gt;Node21</title>
<path fill="none" stroke="midnightblue" d="M2030.93,-58.37C1968.38,-47.61 1845.95,-26.56 1787.74,-16.54"/>
<polygon fill="midnightblue" stroke="midnightblue" points="2030.35,-61.82 2040.8,-60.06 2031.54,-54.92 2030.35,-61.82"/>
</g>
<!-- Node153&#45;&gt;Node21 -->
<g id="edge21" class="edge">
<title>Node153&#45;&gt;Node21</title>
<path fill="none" stroke="midnightblue" d="M3025.45,-56.55C3024.12,-56.35 3022.8,-56.16 3021.5,-56 2772.22,-24.47 1959.33,-13.38 1787.56,-11.35"/>
<polygon fill="midnightblue" stroke="midnightblue" points="3025.25,-60.07 3035.71,-58.39 3026.49,-53.18 3025.25,-60.07"/>
</g>
<!-- Node108&#45;&gt;Node21 -->
<g id="edge24" class="edge">
<title>Node108&#45;&gt;Node21</title>
<path fill="none" stroke="midnightblue" d="M1177.64,-59.8C1191.32,-58.53 1205.94,-57.2 1219.5,-56 1410.66,-39.11 1640.31,-20.34 1723.47,-13.59"/>
<polygon fill="midnightblue" stroke="midnightblue" points="1177.04,-56.34 1167.4,-60.75 1177.69,-63.31 1177.04,-56.34"/>
</g>
<!-- Node108&#45;&gt;Node109 -->
<g id="edge23" class="edge">
<title>Node108&#45;&gt;Node109</title>
<path fill="none" stroke="midnightblue" d="M1134.45,-47.57C1140.81,-38.27 1148.37,-27.25 1153.5,-19.75"/>
<polygon fill="midnightblue" stroke="midnightblue" points="1131.37,-45.86 1128.61,-56.08 1137.15,-49.81 1131.37,-45.86"/>
</g>
<!-- Node114&#45;&gt;Node21 -->
<g id="edge27" class="edge">
<title>Node114&#45;&gt;Node21</title>
<path fill="none" stroke="midnightblue" d="M1439.74,-59.17C1509.92,-48.46 1658.05,-25.87 1723.38,-15.9"/>
<polygon fill="midnightblue" stroke="midnightblue" points="1438.93,-55.75 1429.57,-60.72 1439.99,-62.67 1438.93,-55.75"/>
</g>
<!-- Node114&#45;&gt;Node109 -->
<g id="edge26" class="edge">
<title>Node114&#45;&gt;Node109</title>
<path fill="none" stroke="midnightblue" d="M1363.23,-56.46C1313.51,-45.37 1228.05,-26.3 1185.35,-16.77"/>
<polygon fill="midnightblue" stroke="midnightblue" points="1362.74,-59.94 1373.27,-58.7 1364.27,-53.11 1362.74,-59.94"/>
</g>
<!-- Node110&#45;&gt;Node21 -->
<g id="edge33" class="edge">
<title>Node110&#45;&gt;Node21</title>
<path fill="none" stroke="midnightblue" d="M1554.64,-158.18C1551.76,-131.84 1550.89,-84.04 1576.5,-56 1596.06,-34.59 1677.44,-20.96 1723.45,-14.81"/>
<polygon fill="midnightblue" stroke="midnightblue" points="1551.2,-158.88 1555.96,-168.34 1558.14,-157.97 1551.2,-158.88"/>
</g>
<!-- Node110&#45;&gt;Node111 -->
<g id="edge29" class="edge">
<title>Node110&#45;&gt;Node111</title>
<path fill="none" stroke="midnightblue" d="M1541.21,-161C1531.46,-151.43 1519.45,-139.64 1511.41,-131.75"/>
<polygon fill="midnightblue" stroke="midnightblue" points="1538.83,-163.57 1548.42,-168.08 1543.73,-158.58 1538.83,-163.57"/>
</g>
<!-- Node110&#45;&gt;Node113 -->
<g id="edge30" class="edge">
<title>Node110&#45;&gt;Node113</title>
<path fill="none" stroke="midnightblue" d="M1527.88,-164.5C1503.88,-154.38 1470.72,-140.39 1449.69,-131.52"/>
<polygon fill="midnightblue" stroke="midnightblue" points="1526.64,-167.78 1537.22,-168.44 1529.36,-161.33 1526.64,-167.78"/>
</g>
<!-- Node110&#45;&gt;Node126 -->
<g id="edge32" class="edge">
<title>Node110&#45;&gt;Node126</title>
<path fill="none" stroke="midnightblue" d="M1577.09,-162.1C1589.87,-152.38 1606.11,-140.03 1616.89,-131.83"/>
<polygon fill="midnightblue" stroke="midnightblue" points="1574.75,-159.48 1568.91,-168.32 1578.99,-165.06 1574.75,-159.48"/>
</g>
<!-- Node113&#45;&gt;Node114 -->
<g id="edge31" class="edge">
<title>Node113&#45;&gt;Node114</title>
<path fill="none" stroke="midnightblue" d="M1420.16,-102.98C1415.41,-93.82 1409.84,-83.09 1406.04,-75.75"/>
<polygon fill="midnightblue" stroke="midnightblue" points="1417.17,-104.82 1424.88,-112.08 1423.38,-101.59 1417.17,-104.82"/>
</g>
<!-- Node122&#45;&gt;Node21 -->
<g id="edge39" class="edge">
<title>Node122&#45;&gt;Node21</title>
<path fill="none" stroke="midnightblue" d="M1279.45,-162.74C1261.2,-150.01 1241.03,-130.56 1252.5,-112 1281.76,-64.66 1311.16,-71.87 1364.5,-56 1493.52,-17.62 1655.51,-11.66 1723.33,-10.95"/>
<polygon fill="midnightblue" stroke="midnightblue" points="1277.83,-165.87 1288.11,-168.42 1281.67,-160.01 1277.83,-165.87"/>
</g>
<!-- Node122&#45;&gt;Node109 -->
<g id="edge37" class="edge">
<title>Node122&#45;&gt;Node109</title>
<path fill="none" stroke="midnightblue" d="M1269.07,-164.38C1252.49,-156.95 1233.26,-146.2 1219.5,-132 1202.37,-114.32 1172.97,-44.22 1162.96,-19.6"/>
<polygon fill="midnightblue" stroke="midnightblue" points="1267.9,-167.68 1278.47,-168.37 1270.63,-161.24 1267.9,-167.68"/>
</g>
<!-- Node122&#45;&gt;Node123 -->
<g id="edge35" class="edge">
<title>Node122&#45;&gt;Node123</title>
<path fill="none" stroke="midnightblue" d="M1265.18,-165.57C1231.04,-155.38 1181.84,-140.7 1151.05,-131.52"/>
<polygon fill="midnightblue" stroke="midnightblue" points="1264.24,-168.94 1274.82,-168.44 1266.24,-162.23 1264.24,-168.94"/>
</g>
<!-- Node122&#45;&gt;Node124 -->
<g id="edge38" class="edge">
<title>Node122&#45;&gt;Node124</title>
<path fill="none" stroke="midnightblue" d="M1303.5,-157.8C1303.5,-148.91 1303.5,-138.78 1303.5,-131.75"/>
<polygon fill="midnightblue" stroke="midnightblue" points="1300,-158.08 1303.5,-168.08 1307,-158.08 1300,-158.08"/>
</g>
<!-- Node123&#45;&gt;Node108 -->
<g id="edge36" class="edge">
<title>Node123&#45;&gt;Node108</title>
<path fill="none" stroke="midnightblue" d="M1122.5,-101.8C1122.5,-92.91 1122.5,-82.78 1122.5,-75.75"/>
<polygon fill="midnightblue" stroke="midnightblue" points="1119,-102.08 1122.5,-112.08 1126,-102.08 1119,-102.08"/>
</g>
<!-- Node154&#45;&gt;Node21 -->
<g id="edge41" class="edge">
<title>Node154&#45;&gt;Node21</title>
<path fill="none" stroke="midnightblue" d="M1655.59,-52.5C1679.96,-42.38 1713.64,-28.39 1735,-19.52"/>
<polygon fill="midnightblue" stroke="midnightblue" points="1653.99,-49.38 1646.1,-56.44 1656.68,-55.84 1653.99,-49.38"/>
</g>
<!-- Node118&#45;&gt;Node21 -->
<g id="edge43" class="edge">
<title>Node118&#45;&gt;Node21</title>
<path fill="none" stroke="midnightblue" d="M1725.23,-48.14C1732.9,-38.74 1742.13,-27.4 1748.37,-19.75"/>
<polygon fill="midnightblue" stroke="midnightblue" points="1722.37,-46.12 1718.77,-56.08 1727.8,-50.54 1722.37,-46.12"/>
</g>
<!-- Node163&#45;&gt;Node161 -->
<g id="edge55" class="edge">
<title>Node163&#45;&gt;Node161</title>
<path fill="none" stroke="midnightblue" d="M2230.12,-167.97C2354.42,-148.5 2489.82,-132.09 2543.67,-125.76"/>
<polygon fill="midnightblue" stroke="midnightblue" points="2229.38,-164.55 2220.05,-169.56 2230.47,-171.46 2229.38,-164.55"/>
</g>
<!-- Node183&#45;&gt;Node21 -->
<g id="edge66" class="edge">
<title>Node183&#45;&gt;Node21</title>
<path fill="none" stroke="midnightblue" d="M1786.45,-48.14C1778.61,-38.74 1769.17,-27.4 1762.79,-19.75"/>
<polygon fill="midnightblue" stroke="midnightblue" points="1783.98,-50.64 1793.07,-56.08 1789.36,-46.16 1783.98,-50.64"/>
</g>
<!-- Node184&#45;&gt;Node21 -->
<g id="edge68" class="edge">
<title>Node184&#45;&gt;Node21</title>
<path fill="none" stroke="midnightblue" d="M1855.41,-52.5C1831.04,-42.38 1797.36,-28.39 1776,-19.52"/>
<polygon fill="midnightblue" stroke="midnightblue" points="1854.32,-55.84 1864.9,-56.44 1857.01,-49.38 1854.32,-55.84"/>
</g>
<!-- Node185&#45;&gt;Node21 -->
<g id="edge70" class="edge">
<title>Node185&#45;&gt;Node21</title>
<path fill="none" stroke="midnightblue" d="M1917.68,-55.23C1880.38,-45.06 1822.53,-29.28 1786.95,-19.58"/>
<polygon fill="midnightblue" stroke="midnightblue" points="1917.05,-58.69 1927.61,-57.94 1918.89,-51.93 1917.05,-58.69"/>
</g>
</g>
</svg>
