<?xml version="1.0" encoding="UTF-8" standalone="no"?>
<!DOCTYPE svg PUBLIC "-//W3C//DTD SVG 1.1//EN"
 "http://www.w3.org/Graphics/SVG/1.1/DTD/svg11.dtd">
<!-- Generated by graphviz version 2.43.0 (0)
 -->
<!-- Title: align.h Pages: 1 -->
<svg width="3201pt" height="476pt"
 viewBox="0.00 0.00 3200.50 476.00" xmlns="http://www.w3.org/2000/svg" xmlns:xlink="http://www.w3.org/1999/xlink">
<g id="graph0" class="graph" transform="scale(1 1) rotate(0) translate(4 472)">
<title>align.h</title>
<polygon fill="white" stroke="transparent" points="-4,4 -4,-472 3196.5,-472 3196.5,4 -4,4"/>
<!-- Node1 -->
<g id="node1" class="node">
<title>Node1</title>
<g id="a_node1"><a xlink:title=" ">
<polygon fill="#bfbfbf" stroke="black" points="119.5,-448.5 119.5,-467.5 169.5,-467.5 169.5,-448.5 119.5,-448.5"/>
<text text-anchor="middle" x="144.5" y="-455.5" font-family="Helvetica,sans-Serif" font-size="10.00">align.h</text>
</a>
</g>
</g>
<!-- Node2 -->
<g id="node2" class="node">
<title>Node2</title>
<g id="a_node2"><a xlink:href="abi-default_2atomic_8h.html" target="_top" xlink:title=" ">
<polygon fill="white" stroke="black" points="0,-280.5 0,-299.5 59,-299.5 59,-280.5 0,-280.5"/>
<text text-anchor="middle" x="29.5" y="-287.5" font-family="Helvetica,sans-Serif" font-size="10.00">atomic.h</text>
</a>
</g>
</g>
<!-- Node1&#45;&gt;Node2 -->
<g id="edge1" class="edge">
<title>Node1&#45;&gt;Node2</title>
<path fill="none" stroke="midnightblue" d="M132.56,-439.76C108.19,-404.59 53.52,-325.68 35.44,-299.57"/>
<polygon fill="midnightblue" stroke="midnightblue" points="129.75,-441.85 138.32,-448.08 135.5,-437.86 129.75,-441.85"/>
</g>
<!-- Node3 -->
<g id="node3" class="node">
<title>Node3</title>
<g id="a_node3"><a xlink:href="abi-default_2cpumask_8h.html" target="_top" xlink:title=" ">
<polygon fill="white" stroke="black" points="77.5,-280.5 77.5,-299.5 147.5,-299.5 147.5,-280.5 77.5,-280.5"/>
<text text-anchor="middle" x="112.5" y="-287.5" font-family="Helvetica,sans-Serif" font-size="10.00">cpumask.h</text>
</a>
</g>
</g>
<!-- Node1&#45;&gt;Node3 -->
<g id="edge2" class="edge">
<title>Node1&#45;&gt;Node3</title>
<path fill="none" stroke="midnightblue" d="M138.7,-438.88C136.24,-430.73 133.49,-420.94 131.5,-412 122.24,-370.27 115.81,-319.48 113.47,-299.58"/>
<polygon fill="midnightblue" stroke="midnightblue" points="135.37,-439.95 141.68,-448.46 142.05,-437.87 135.37,-439.95"/>
</g>
<!-- Node4 -->
<g id="node4" class="node">
<title>Node4</title>
<g id="a_node4"><a xlink:href="spec_2std__types_8h.html" target="_top" xlink:title=" ">
<polygon fill="white" stroke="black" points="141,-392.5 141,-411.5 214,-411.5 214,-392.5 141,-392.5"/>
<text text-anchor="middle" x="177.5" y="-399.5" font-family="Helvetica,sans-Serif" font-size="10.00">std_types.h</text>
</a>
</g>
</g>
<!-- Node1&#45;&gt;Node4 -->
<g id="edge3" class="edge">
<title>Node1&#45;&gt;Node4</title>
<path fill="none" stroke="midnightblue" d="M155.33,-439.27C160.97,-430.05 167.62,-419.17 172.15,-411.75"/>
<polygon fill="midnightblue" stroke="midnightblue" points="152.18,-437.73 149.95,-448.08 158.15,-441.38 152.18,-437.73"/>
</g>
<!-- Node83 -->
<g id="node50" class="node">
<title>Node83</title>
<g id="a_node50"><a xlink:href="time__inlines_8h_source.html" target="_top" xlink:title=" ">
<polygon fill="white" stroke="black" points="232.5,-392.5 232.5,-411.5 318.5,-411.5 318.5,-392.5 232.5,-392.5"/>
<text text-anchor="middle" x="275.5" y="-399.5" font-family="Helvetica,sans-Serif" font-size="10.00">time_inlines.h</text>
</a>
</g>
</g>
<!-- Node1&#45;&gt;Node83 -->
<g id="edge64" class="edge">
<title>Node1&#45;&gt;Node83</title>
<path fill="none" stroke="midnightblue" d="M174.82,-444.5C199.38,-434.38 233.32,-420.39 254.84,-411.52"/>
<polygon fill="midnightblue" stroke="midnightblue" points="173.17,-441.4 165.26,-448.44 175.84,-447.87 173.17,-441.4"/>
</g>
<!-- Node5 -->
<g id="node5" class="node">
<title>Node5</title>
<g id="a_node5"><a xlink:href="std__types_8h.html" target="_top" xlink:title=" ">
<polygon fill="white" stroke="black" points="1233,-336.5 1233,-355.5 1306,-355.5 1306,-336.5 1233,-336.5"/>
<text text-anchor="middle" x="1269.5" y="-343.5" font-family="Helvetica,sans-Serif" font-size="10.00">std_types.h</text>
</a>
</g>
</g>
<!-- Node4&#45;&gt;Node5 -->
<g id="edge4" class="edge">
<title>Node4&#45;&gt;Node5</title>
<path fill="none" stroke="midnightblue" d="M224.12,-392.14C624.5,-345.37 1098.85,-345.52 1232.75,-346.59"/>
<polygon fill="midnightblue" stroke="midnightblue" points="223.6,-388.68 214.08,-393.33 224.42,-395.63 223.6,-388.68"/>
</g>
<!-- Node5&#45;&gt;Node2 -->
<g id="edge5" class="edge">
<title>Node5&#45;&gt;Node2</title>
<path fill="none" stroke="midnightblue" d="M1222.87,-344.43C1030.48,-341.91 297.75,-330.47 68.5,-300 65.47,-299.6 62.33,-299.07 59.2,-298.47"/>
<polygon fill="midnightblue" stroke="midnightblue" points="1222.89,-347.93 1232.93,-344.56 1222.98,-340.93 1222.89,-347.93"/>
</g>
<!-- Node5&#45;&gt;Node3 -->
<g id="edge8" class="edge">
<title>Node5&#45;&gt;Node3</title>
<path fill="none" stroke="midnightblue" d="M1222.75,-344.12C1039.24,-340.49 367.88,-325.72 156.5,-300 153.71,-299.66 150.84,-299.24 147.96,-298.76"/>
<polygon fill="midnightblue" stroke="midnightblue" points="1222.81,-347.62 1232.88,-344.31 1222.95,-340.62 1222.81,-347.62"/>
</g>
<!-- Node6 -->
<g id="node6" class="node">
<title>Node6</title>
<g id="a_node6"><a xlink:href="abi-default_2barrier_8h.html" target="_top" xlink:title=" ">
<polygon fill="white" stroke="black" points="2478,-280.5 2478,-299.5 2535,-299.5 2535,-280.5 2478,-280.5"/>
<text text-anchor="middle" x="2506.5" y="-287.5" font-family="Helvetica,sans-Serif" font-size="10.00">barrier.h</text>
</a>
</g>
</g>
<!-- Node5&#45;&gt;Node6 -->
<g id="edge6" class="edge">
<title>Node5&#45;&gt;Node6</title>
<path fill="none" stroke="midnightblue" d="M1316.1,-344.5C1508.37,-342.27 2240.63,-331.8 2469.5,-300 2472.25,-299.62 2475.09,-299.12 2477.93,-298.55"/>
<polygon fill="midnightblue" stroke="midnightblue" points="1316,-341.01 1306.04,-344.62 1316.08,-348.01 1316,-341.01"/>
</g>
<!-- Node7 -->
<g id="node7" class="node">
<title>Node7</title>
<g id="a_node7"><a xlink:href="abi-default_2byteorder_8h.html" target="_top" xlink:title=" ">
<polygon fill="white" stroke="black" points="2553.5,-280.5 2553.5,-299.5 2625.5,-299.5 2625.5,-280.5 2553.5,-280.5"/>
<text text-anchor="middle" x="2589.5" y="-287.5" font-family="Helvetica,sans-Serif" font-size="10.00">byteorder.h</text>
</a>
</g>
</g>
<!-- Node5&#45;&gt;Node7 -->
<g id="edge7" class="edge">
<title>Node5&#45;&gt;Node7</title>
<path fill="none" stroke="midnightblue" d="M1316.33,-344.36C1516.31,-341.5 2299.6,-328.62 2544.5,-300 2547.35,-299.67 2550.29,-299.25 2553.23,-298.78"/>
<polygon fill="midnightblue" stroke="midnightblue" points="1316.11,-340.87 1306.16,-344.51 1316.21,-347.87 1316.11,-340.87"/>
</g>
<!-- Node8 -->
<g id="node8" class="node">
<title>Node8</title>
<g id="a_node8"><a xlink:href="abi-default_2init_8h.html" target="_top" xlink:title=" ">
<polygon fill="white" stroke="black" points="2644,-280.5 2644,-299.5 2685,-299.5 2685,-280.5 2644,-280.5"/>
<text text-anchor="middle" x="2664.5" y="-287.5" font-family="Helvetica,sans-Serif" font-size="10.00">init.h</text>
</a>
</g>
</g>
<!-- Node5&#45;&gt;Node8 -->
<g id="edge9" class="edge">
<title>Node5&#45;&gt;Node8</title>
<path fill="none" stroke="midnightblue" d="M1316.3,-345.08C1525.07,-345.17 2372.61,-342.86 2634.5,-300 2637.51,-299.51 2640.63,-298.8 2643.68,-298"/>
<polygon fill="midnightblue" stroke="midnightblue" points="1316.28,-341.58 1306.28,-345.07 1316.27,-348.58 1316.28,-341.58"/>
</g>
<!-- Node9 -->
<g id="node9" class="node">
<title>Node9</title>
<g id="a_node9"><a xlink:href="abi-default_2ipsec_8h.html" target="_top" xlink:title=" ">
<polygon fill="white" stroke="black" points="2703,-280.5 2703,-299.5 2754,-299.5 2754,-280.5 2703,-280.5"/>
<text text-anchor="middle" x="2728.5" y="-287.5" font-family="Helvetica,sans-Serif" font-size="10.00">ipsec.h</text>
</a>
</g>
</g>
<!-- Node5&#45;&gt;Node9 -->
<g id="edge10" class="edge">
<title>Node5&#45;&gt;Node9</title>
<path fill="none" stroke="midnightblue" d="M1316.54,-344.95C1531.26,-344.5 2419.63,-340.19 2694.5,-300 2697.16,-299.61 2699.91,-299.09 2702.64,-298.49"/>
<polygon fill="midnightblue" stroke="midnightblue" points="1316.24,-341.45 1306.25,-344.97 1316.26,-348.45 1316.24,-341.45"/>
</g>
<!-- Node10 -->
<g id="node10" class="node">
<title>Node10</title>
<g id="a_node10"><a xlink:href="abi-default_2packet__io_8h.html" target="_top" xlink:title=" ">
<polygon fill="white" stroke="black" points="2772.5,-280.5 2772.5,-299.5 2844.5,-299.5 2844.5,-280.5 2772.5,-280.5"/>
<text text-anchor="middle" x="2808.5" y="-287.5" font-family="Helvetica,sans-Serif" font-size="10.00">packet_io.h</text>
</a>
</g>
</g>
<!-- Node5&#45;&gt;Node10 -->
<g id="edge11" class="edge">
<title>Node5&#45;&gt;Node10</title>
<path fill="none" stroke="midnightblue" d="M1316.61,-344.64C1537.62,-342.8 2473.22,-333.16 2763.5,-300 2766.35,-299.67 2769.29,-299.26 2772.23,-298.79"/>
<polygon fill="midnightblue" stroke="midnightblue" points="1316.3,-341.14 1306.33,-344.73 1316.36,-348.14 1316.3,-341.14"/>
</g>
<!-- Node11 -->
<g id="node11" class="node">
<title>Node11</title>
<g id="a_node11"><a xlink:href="abi-default_2rwlock__recursive_8h.html" target="_top" xlink:title=" ">
<polygon fill="white" stroke="black" points="2862.5,-280.5 2862.5,-299.5 2970.5,-299.5 2970.5,-280.5 2862.5,-280.5"/>
<text text-anchor="middle" x="2916.5" y="-287.5" font-family="Helvetica,sans-Serif" font-size="10.00">rwlock_recursive.h</text>
</a>
</g>
</g>
<!-- Node5&#45;&gt;Node11 -->
<g id="edge12" class="edge">
<title>Node5&#45;&gt;Node11</title>
<path fill="none" stroke="midnightblue" d="M1316.41,-344.39C1544.99,-341.29 2543.53,-326.46 2853.5,-300 2856.36,-299.76 2859.29,-299.47 2862.25,-299.15"/>
<polygon fill="midnightblue" stroke="midnightblue" points="1316.07,-340.89 1306.12,-344.53 1316.16,-347.89 1316.07,-340.89"/>
</g>
<!-- Node12 -->
<g id="node12" class="node">
<title>Node12</title>
<g id="a_node12"><a xlink:href="abi-default_2schedule_8h.html" target="_top" xlink:title=" ">
<polygon fill="white" stroke="black" points="2989,-280.5 2989,-299.5 3058,-299.5 3058,-280.5 2989,-280.5"/>
<text text-anchor="middle" x="3023.5" y="-287.5" font-family="Helvetica,sans-Serif" font-size="10.00">schedule.h</text>
</a>
</g>
</g>
<!-- Node5&#45;&gt;Node12 -->
<g id="edge13" class="edge">
<title>Node5&#45;&gt;Node12</title>
<path fill="none" stroke="midnightblue" d="M1316.29,-344.88C1555.57,-344.09 2644.07,-338.42 2979.5,-300 2982.44,-299.66 2985.48,-299.23 2988.52,-298.73"/>
<polygon fill="midnightblue" stroke="midnightblue" points="1316.18,-341.38 1306.19,-344.91 1316.2,-348.38 1316.18,-341.38"/>
</g>
<!-- Node13 -->
<g id="node13" class="node">
<title>Node13</title>
<g id="a_node13"><a xlink:href="abi-default_2spinlock__recursive_8h.html" target="_top" xlink:title=" ">
<polygon fill="white" stroke="black" points="3076.5,-280.5 3076.5,-299.5 3192.5,-299.5 3192.5,-280.5 3076.5,-280.5"/>
<text text-anchor="middle" x="3134.5" y="-287.5" font-family="Helvetica,sans-Serif" font-size="10.00">spinlock_recursive.h</text>
</a>
</g>
</g>
<!-- Node5&#45;&gt;Node13 -->
<g id="edge14" class="edge">
<title>Node5&#45;&gt;Node13</title>
<path fill="none" stroke="midnightblue" d="M1316.27,-344.52C1562.69,-341.87 2712.5,-328.2 3067.5,-300 3070.42,-299.77 3073.42,-299.49 3076.44,-299.19"/>
<polygon fill="midnightblue" stroke="midnightblue" points="1316.18,-341.02 1306.21,-344.63 1316.25,-348.02 1316.18,-341.02"/>
</g>
<!-- Node14 -->
<g id="node14" class="node">
<title>Node14</title>
<g id="a_node14"><a xlink:href="abi-default_2traffic__mngr_8h.html" target="_top" xlink:title=" ">
<polygon fill="white" stroke="black" points="165.5,-280.5 165.5,-299.5 249.5,-299.5 249.5,-280.5 165.5,-280.5"/>
<text text-anchor="middle" x="207.5" y="-287.5" font-family="Helvetica,sans-Serif" font-size="10.00">traffic_mngr.h</text>
</a>
</g>
</g>
<!-- Node5&#45;&gt;Node14 -->
<g id="edge15" class="edge">
<title>Node5&#45;&gt;Node14</title>
<path fill="none" stroke="midnightblue" d="M1222.37,-345.08C1077.84,-344.85 628.22,-340.68 258.5,-300 255.64,-299.69 252.7,-299.31 249.74,-298.89"/>
<polygon fill="midnightblue" stroke="midnightblue" points="1222.64,-348.58 1232.64,-345.09 1222.65,-341.58 1222.64,-348.58"/>
</g>
<!-- Node15 -->
<g id="node15" class="node">
<title>Node15</title>
<g id="a_node15"><a xlink:href="barrier_8h.html" target="_top" xlink:title=" ">
<polygon fill="white" stroke="black" points="268,-280.5 268,-299.5 325,-299.5 325,-280.5 268,-280.5"/>
<text text-anchor="middle" x="296.5" y="-287.5" font-family="Helvetica,sans-Serif" font-size="10.00">barrier.h</text>
</a>
</g>
</g>
<!-- Node5&#45;&gt;Node15 -->
<g id="edge16" class="edge">
<title>Node5&#45;&gt;Node15</title>
<path fill="none" stroke="midnightblue" d="M1222.53,-343.93C1057.95,-339.98 508,-325.18 333.5,-300 330.75,-299.6 327.91,-299.09 325.08,-298.52"/>
<polygon fill="midnightblue" stroke="midnightblue" points="1222.72,-347.43 1232.8,-344.17 1222.89,-340.43 1222.72,-347.43"/>
</g>
<!-- Node16 -->
<g id="node16" class="node">
<title>Node16</title>
<g id="a_node16"><a xlink:href="buffer_8h.html" target="_top" xlink:title=" ">
<polygon fill="white" stroke="black" points="343,-280.5 343,-299.5 396,-299.5 396,-280.5 343,-280.5"/>
<text text-anchor="middle" x="369.5" y="-287.5" font-family="Helvetica,sans-Serif" font-size="10.00">buffer.h</text>
</a>
</g>
</g>
<!-- Node5&#45;&gt;Node16 -->
<g id="edge17" class="edge">
<title>Node5&#45;&gt;Node16</title>
<path fill="none" stroke="midnightblue" d="M1222.52,-345.23C1092.67,-345.29 718.19,-341.54 410.5,-300 405.88,-299.38 401,-298.5 396.29,-297.54"/>
<polygon fill="midnightblue" stroke="midnightblue" points="1222.88,-348.73 1232.88,-345.22 1222.88,-341.73 1222.88,-348.73"/>
</g>
<!-- Node17 -->
<g id="node17" class="node">
<title>Node17</title>
<g id="a_node17"><a xlink:href="classification_8h.html" target="_top" xlink:title=" ">
<polygon fill="white" stroke="black" points="491,-56.5 491,-75.5 580,-75.5 580,-56.5 491,-56.5"/>
<text text-anchor="middle" x="535.5" y="-63.5" font-family="Helvetica,sans-Serif" font-size="10.00">classification.h</text>
</a>
</g>
</g>
<!-- Node5&#45;&gt;Node17 -->
<g id="edge18" class="edge">
<title>Node5&#45;&gt;Node17</title>
<path fill="none" stroke="midnightblue" d="M1222.61,-343.74C1071.98,-339.46 606.54,-324.39 543.5,-300 500.45,-283.35 462.5,-281.16 462.5,-235 462.5,-235 462.5,-235 462.5,-177 462.5,-146.9 465,-137.17 481.5,-112 491.67,-96.49 508.8,-83.53 521.04,-75.56"/>
<polygon fill="midnightblue" stroke="midnightblue" points="1222.81,-347.25 1232.9,-344.03 1223.01,-340.25 1222.81,-347.25"/>
</g>
<!-- Node18 -->
<g id="node18" class="node">
<title>Node18</title>
<g id="a_node18"><a xlink:href="spec_2ipsec_8h.html" target="_top" xlink:title=" ">
<polygon fill="white" stroke="red" points="597,-0.5 597,-19.5 648,-19.5 648,-0.5 597,-0.5"/>
<text text-anchor="middle" x="622.5" y="-7.5" font-family="Helvetica,sans-Serif" font-size="10.00">ipsec.h</text>
</a>
</g>
</g>
<!-- Node5&#45;&gt;Node18 -->
<g id="edge45" class="edge">
<title>Node5&#45;&gt;Node18</title>
<path fill="none" stroke="midnightblue" d="M1222.62,-344.28C1064.1,-341.57 554.21,-330.53 487.5,-300 450.92,-283.26 424.5,-275.23 424.5,-235 424.5,-235 424.5,-235 424.5,-121 424.5,-43.14 542.94,-19.92 596.61,-13.39"/>
<polygon fill="midnightblue" stroke="midnightblue" points="1222.93,-347.78 1232.98,-344.45 1223.04,-340.78 1222.93,-347.78"/>
</g>
<!-- Node20 -->
<g id="node19" class="node">
<title>Node20</title>
<g id="a_node19"><a xlink:href="crypto_8h.html" target="_top" xlink:title=" ">
<polygon fill="white" stroke="black" points="719.5,-168.5 719.5,-187.5 775.5,-187.5 775.5,-168.5 719.5,-168.5"/>
<text text-anchor="middle" x="747.5" y="-175.5" font-family="Helvetica,sans-Serif" font-size="10.00">crypto.h</text>
</a>
</g>
</g>
<!-- Node5&#45;&gt;Node20 -->
<g id="edge20" class="edge">
<title>Node5&#45;&gt;Node20</title>
<path fill="none" stroke="midnightblue" d="M1222.88,-342.89C1126.27,-338.03 911.32,-324.56 889.5,-300 848.31,-253.65 1046.42,-271.45 1006.5,-224 977.27,-189.25 836.98,-181.33 775.95,-179.53"/>
<polygon fill="midnightblue" stroke="midnightblue" points="1222.8,-346.39 1232.96,-343.38 1223.14,-339.4 1222.8,-346.39"/>
</g>
<!-- Node21 -->
<g id="node20" class="node">
<title>Node21</title>
<g id="a_node20"><a xlink:href="packet_8h.html" target="_top" xlink:title=" ">
<polygon fill="white" stroke="black" points="708.5,-280.5 708.5,-299.5 766.5,-299.5 766.5,-280.5 708.5,-280.5"/>
<text text-anchor="middle" x="737.5" y="-287.5" font-family="Helvetica,sans-Serif" font-size="10.00">packet.h</text>
</a>
</g>
</g>
<!-- Node5&#45;&gt;Node21 -->
<g id="edge22" class="edge">
<title>Node5&#45;&gt;Node21</title>
<path fill="none" stroke="midnightblue" d="M1222.72,-342.48C1135.42,-337.39 941.92,-324.24 780.5,-300 775.97,-299.32 771.21,-298.47 766.56,-297.55"/>
<polygon fill="midnightblue" stroke="midnightblue" points="1222.64,-345.99 1232.83,-343.07 1223.05,-339 1222.64,-345.99"/>
</g>
<!-- Node22 -->
<g id="node21" class="node">
<title>Node22</title>
<g id="a_node21"><a xlink:href="spec_2comp_8h.html" target="_top" xlink:title=" ">
<polygon fill="white" stroke="red" points="840,-224.5 840,-243.5 893,-243.5 893,-224.5 840,-224.5"/>
<text text-anchor="middle" x="866.5" y="-231.5" font-family="Helvetica,sans-Serif" font-size="10.00">comp.h</text>
</a>
</g>
</g>
<!-- Node5&#45;&gt;Node22 -->
<g id="edge40" class="edge">
<title>Node5&#45;&gt;Node22</title>
<path fill="none" stroke="midnightblue" d="M1222.63,-343.47C1117.92,-339.55 872.23,-327.51 847.5,-300 833.04,-283.91 849.18,-257.37 859.4,-243.72"/>
<polygon fill="midnightblue" stroke="midnightblue" points="1222.78,-346.97 1232.9,-343.84 1223.04,-339.98 1222.78,-346.97"/>
</g>
<!-- Node24 -->
<g id="node22" class="node">
<title>Node24</title>
<g id="a_node22"><a xlink:href="spec_2crypto_8h.html" target="_top" xlink:title=" ">
<polygon fill="white" stroke="black" points="694.5,-224.5 694.5,-243.5 750.5,-243.5 750.5,-224.5 694.5,-224.5"/>
<text text-anchor="middle" x="722.5" y="-231.5" font-family="Helvetica,sans-Serif" font-size="10.00">crypto.h</text>
</a>
</g>
</g>
<!-- Node5&#45;&gt;Node24 -->
<g id="edge42" class="edge">
<title>Node5&#45;&gt;Node24</title>
<path fill="none" stroke="midnightblue" d="M1222.64,-344.86C1092.64,-343.98 734.72,-338.11 699.5,-300 684.55,-283.82 702.97,-257.32 714.52,-243.69"/>
<polygon fill="midnightblue" stroke="midnightblue" points="1222.67,-348.36 1232.69,-344.92 1222.71,-341.36 1222.67,-348.36"/>
</g>
<!-- Node38 -->
<g id="node24" class="node">
<title>Node38</title>
<g id="a_node24"><a xlink:href="spec_2packet__flags_8h.html" target="_top" xlink:title=" ">
<polygon fill="white" stroke="red" points="911.5,-224.5 911.5,-243.5 997.5,-243.5 997.5,-224.5 911.5,-224.5"/>
<text text-anchor="middle" x="954.5" y="-231.5" font-family="Helvetica,sans-Serif" font-size="10.00">packet_flags.h</text>
</a>
</g>
</g>
<!-- Node5&#45;&gt;Node38 -->
<g id="edge46" class="edge">
<title>Node5&#45;&gt;Node38</title>
<path fill="none" stroke="midnightblue" d="M1222.88,-343.36C1119.99,-339.26 880.62,-326.9 856.5,-300 833.46,-274.32 883.55,-254.21 920.26,-243.52"/>
<polygon fill="midnightblue" stroke="midnightblue" points="1222.86,-346.86 1232.99,-343.75 1223.13,-339.87 1222.86,-346.86"/>
</g>
<!-- Node32 -->
<g id="node26" class="node">
<title>Node32</title>
<g id="a_node26"><a xlink:href="packet__io_8h.html" target="_top" xlink:title=" ">
<polygon fill="white" stroke="black" points="603.5,-168.5 603.5,-187.5 675.5,-187.5 675.5,-168.5 603.5,-168.5"/>
<text text-anchor="middle" x="639.5" y="-175.5" font-family="Helvetica,sans-Serif" font-size="10.00">packet_io.h</text>
</a>
</g>
</g>
<!-- Node5&#45;&gt;Node32 -->
<g id="edge34" class="edge">
<title>Node5&#45;&gt;Node32</title>
<path fill="none" stroke="midnightblue" d="M1222.29,-345.48C1076.1,-346.47 638.15,-345.59 595.5,-300 572.42,-275.33 582.75,-255.28 595.5,-224 601.77,-208.62 616.11,-195.64 626.72,-187.63"/>
<polygon fill="midnightblue" stroke="midnightblue" points="1222.73,-348.98 1232.71,-345.4 1222.68,-341.98 1222.73,-348.98"/>
</g>
<!-- Node33 -->
<g id="node27" class="node">
<title>Node33</title>
<g id="a_node27"><a xlink:href="spec_2classification_8h.html" target="_top" xlink:title=" ">
<polygon fill="white" stroke="black" points="491,-112.5 491,-131.5 580,-131.5 580,-112.5 491,-112.5"/>
<text text-anchor="middle" x="535.5" y="-119.5" font-family="Helvetica,sans-Serif" font-size="10.00">classification.h</text>
</a>
</g>
</g>
<!-- Node5&#45;&gt;Node33 -->
<g id="edge39" class="edge">
<title>Node5&#45;&gt;Node33</title>
<path fill="none" stroke="midnightblue" d="M1222.73,-345.37C1072.63,-346.09 610,-344.66 561.5,-300 512.38,-254.77 527.43,-160.67 533.51,-131.69"/>
<polygon fill="midnightblue" stroke="midnightblue" points="1223.01,-348.87 1232.99,-345.31 1222.97,-341.87 1223.01,-348.87"/>
</g>
<!-- Node34 -->
<g id="node28" class="node">
<title>Node34</title>
<g id="a_node28"><a xlink:href="spec_2traffic__mngr_8h.html" target="_top" xlink:title=" ">
<polygon fill="white" stroke="red" points="597.5,-112.5 597.5,-131.5 681.5,-131.5 681.5,-112.5 597.5,-112.5"/>
<text text-anchor="middle" x="639.5" y="-119.5" font-family="Helvetica,sans-Serif" font-size="10.00">traffic_mngr.h</text>
</a>
</g>
</g>
<!-- Node5&#45;&gt;Node34 -->
<g id="edge58" class="edge">
<title>Node5&#45;&gt;Node34</title>
<path fill="none" stroke="midnightblue" d="M1222.64,-345.56C1074.48,-346.82 623.33,-346.79 579.5,-300 539.13,-256.91 567.18,-220.34 594.5,-168 602.37,-152.92 617.06,-139.7 627.51,-131.56"/>
<polygon fill="midnightblue" stroke="midnightblue" points="1222.81,-349.05 1232.78,-345.46 1222.74,-342.05 1222.81,-349.05"/>
</g>
<!-- Node40 -->
<g id="node29" class="node">
<title>Node40</title>
<g id="a_node29"><a xlink:href="proto__stats_8h.html" target="_top" xlink:title=" ">
<polygon fill="white" stroke="black" points="898.5,-280.5 898.5,-299.5 978.5,-299.5 978.5,-280.5 898.5,-280.5"/>
<text text-anchor="middle" x="938.5" y="-287.5" font-family="Helvetica,sans-Serif" font-size="10.00">proto_stats.h</text>
</a>
</g>
</g>
<!-- Node5&#45;&gt;Node40 -->
<g id="edge35" class="edge">
<title>Node5&#45;&gt;Node40</title>
<path fill="none" stroke="midnightblue" d="M1222.99,-337.92C1167.04,-329.32 1070.3,-314.21 987.5,-300 984.6,-299.5 981.61,-298.98 978.6,-298.44"/>
<polygon fill="midnightblue" stroke="midnightblue" points="1222.54,-341.39 1232.95,-339.45 1223.6,-334.47 1222.54,-341.39"/>
</g>
<!-- Node28 -->
<g id="node30" class="node">
<title>Node28</title>
<g id="a_node30"><a xlink:href="queue_8h.html" target="_top" xlink:title=" ">
<polygon fill="white" stroke="black" points="996.5,-280.5 996.5,-299.5 1052.5,-299.5 1052.5,-280.5 996.5,-280.5"/>
<text text-anchor="middle" x="1024.5" y="-287.5" font-family="Helvetica,sans-Serif" font-size="10.00">queue.h</text>
</a>
</g>
</g>
<!-- Node5&#45;&gt;Node28 -->
<g id="edge36" class="edge">
<title>Node5&#45;&gt;Node28</title>
<path fill="none" stroke="midnightblue" d="M1223.01,-335.3C1180.81,-326.4 1116.89,-312.73 1061.5,-300 1058.67,-299.35 1055.71,-298.66 1052.76,-297.95"/>
<polygon fill="midnightblue" stroke="midnightblue" points="1222.48,-338.76 1232.99,-337.4 1223.93,-331.91 1222.48,-338.76"/>
</g>
<!-- Node41 -->
<g id="node32" class="node">
<title>Node41</title>
<g id="a_node32"><a xlink:href="spec_2chksum_8h.html" target="_top" xlink:title=" ">
<polygon fill="white" stroke="red" points="1070.5,-280.5 1070.5,-299.5 1134.5,-299.5 1134.5,-280.5 1070.5,-280.5"/>
<text text-anchor="middle" x="1102.5" y="-287.5" font-family="Helvetica,sans-Serif" font-size="10.00">chksum.h</text>
</a>
</g>
</g>
<!-- Node5&#45;&gt;Node41 -->
<g id="edge38" class="edge">
<title>Node5&#45;&gt;Node41</title>
<path fill="none" stroke="midnightblue" d="M1233.33,-333.3C1201.86,-323.13 1157.01,-308.62 1128.84,-299.52"/>
<polygon fill="midnightblue" stroke="midnightblue" points="1232.45,-336.7 1243.04,-336.44 1234.6,-330.04 1232.45,-336.7"/>
</g>
<!-- Node43 -->
<g id="node33" class="node">
<title>Node43</title>
<g id="a_node33"><a xlink:href="spec_2cpu_8h.html" target="_top" xlink:title=" ">
<polygon fill="white" stroke="red" points="1153,-280.5 1153,-299.5 1196,-299.5 1196,-280.5 1153,-280.5"/>
<text text-anchor="middle" x="1174.5" y="-287.5" font-family="Helvetica,sans-Serif" font-size="10.00">cpu.h</text>
</a>
</g>
</g>
<!-- Node5&#45;&gt;Node43 -->
<g id="edge41" class="edge">
<title>Node5&#45;&gt;Node43</title>
<path fill="none" stroke="midnightblue" d="M1245.18,-331.18C1227.7,-321.24 1204.67,-308.15 1189.73,-299.65"/>
<polygon fill="midnightblue" stroke="midnightblue" points="1243.81,-334.43 1254.24,-336.32 1247.27,-328.34 1243.81,-334.43"/>
</g>
<!-- Node46 -->
<g id="node34" class="node">
<title>Node46</title>
<g id="a_node34"><a xlink:href="spec_2hash_8h.html" target="_top" xlink:title=" ">
<polygon fill="white" stroke="red" points="1214,-280.5 1214,-299.5 1263,-299.5 1263,-280.5 1214,-280.5"/>
<text text-anchor="middle" x="1238.5" y="-287.5" font-family="Helvetica,sans-Serif" font-size="10.00">hash.h</text>
</a>
</g>
</g>
<!-- Node5&#45;&gt;Node46 -->
<g id="edge43" class="edge">
<title>Node5&#45;&gt;Node46</title>
<path fill="none" stroke="midnightblue" d="M1259.32,-327.27C1254.03,-318.05 1247.78,-307.17 1243.52,-299.75"/>
<polygon fill="midnightblue" stroke="midnightblue" points="1256.37,-329.15 1264.38,-336.08 1262.44,-325.67 1256.37,-329.15"/>
</g>
<!-- Node48 -->
<g id="node35" class="node">
<title>Node48</title>
<g id="a_node35"><a xlink:href="spec_2init_8h.html" target="_top" xlink:title=" ">
<polygon fill="white" stroke="red" points="1281,-280.5 1281,-299.5 1322,-299.5 1322,-280.5 1281,-280.5"/>
<text text-anchor="middle" x="1301.5" y="-287.5" font-family="Helvetica,sans-Serif" font-size="10.00">init.h</text>
</a>
</g>
</g>
<!-- Node5&#45;&gt;Node48 -->
<g id="edge44" class="edge">
<title>Node5&#45;&gt;Node48</title>
<path fill="none" stroke="midnightblue" d="M1280,-327.27C1285.47,-318.05 1291.92,-307.17 1296.31,-299.75"/>
<polygon fill="midnightblue" stroke="midnightblue" points="1276.87,-325.7 1274.78,-336.08 1282.89,-329.26 1276.87,-325.7"/>
</g>
<!-- Node53 -->
<g id="node36" class="node">
<title>Node53</title>
<g id="a_node36"><a xlink:href="spec_2pool_8h.html" target="_top" xlink:title=" ">
<polygon fill="white" stroke="red" points="1361,-224.5 1361,-243.5 1408,-243.5 1408,-224.5 1361,-224.5"/>
<text text-anchor="middle" x="1384.5" y="-231.5" font-family="Helvetica,sans-Serif" font-size="10.00">pool.h</text>
</a>
</g>
</g>
<!-- Node5&#45;&gt;Node53 -->
<g id="edge47" class="edge">
<title>Node5&#45;&gt;Node53</title>
<path fill="none" stroke="midnightblue" d="M1291.71,-330.94C1304.03,-322.65 1319.29,-311.54 1331.5,-300 1350.76,-281.8 1369.42,-256.62 1378.6,-243.59"/>
<polygon fill="midnightblue" stroke="midnightblue" points="1289.77,-328.03 1283.34,-336.45 1293.61,-333.88 1289.77,-328.03"/>
</g>
<!-- Node56 -->
<g id="node37" class="node">
<title>Node56</title>
<g id="a_node37"><a xlink:href="pool__types_8h.html" target="_top" xlink:title=" ">
<polygon fill="white" stroke="black" points="1379,-280.5 1379,-299.5 1458,-299.5 1458,-280.5 1379,-280.5"/>
<text text-anchor="middle" x="1418.5" y="-287.5" font-family="Helvetica,sans-Serif" font-size="10.00">pool_types.h</text>
</a>
</g>
</g>
<!-- Node5&#45;&gt;Node56 -->
<g id="edge48" class="edge">
<title>Node5&#45;&gt;Node56</title>
<path fill="none" stroke="midnightblue" d="M1302.87,-332.91C1330.88,-322.75 1370.2,-308.51 1395,-299.52"/>
<polygon fill="midnightblue" stroke="midnightblue" points="1301.32,-329.75 1293.11,-336.44 1303.7,-336.33 1301.32,-329.75"/>
</g>
<!-- Node57 -->
<g id="node38" class="node">
<title>Node57</title>
<g id="a_node38"><a xlink:href="spec_2proto__stats__types_8h.html" target="_top" xlink:title=" ">
<polygon fill="white" stroke="red" points="1476,-280.5 1476,-299.5 1589,-299.5 1589,-280.5 1476,-280.5"/>
<text text-anchor="middle" x="1532.5" y="-287.5" font-family="Helvetica,sans-Serif" font-size="10.00">proto_stats_types.h</text>
</a>
</g>
</g>
<!-- Node5&#45;&gt;Node57 -->
<g id="edge50" class="edge">
<title>Node5&#45;&gt;Node57</title>
<path fill="none" stroke="midnightblue" d="M1315.9,-335.47C1365.5,-325.29 1443.43,-309.29 1491.04,-299.51"/>
<polygon fill="midnightblue" stroke="midnightblue" points="1315.16,-332.05 1306.07,-337.49 1316.57,-338.91 1315.16,-332.05"/>
</g>
<!-- Node63 -->
<g id="node39" class="node">
<title>Node63</title>
<g id="a_node39"><a xlink:href="spec_2random_8h.html" target="_top" xlink:title=" ">
<polygon fill="white" stroke="red" points="1607,-280.5 1607,-299.5 1670,-299.5 1670,-280.5 1607,-280.5"/>
<text text-anchor="middle" x="1638.5" y="-287.5" font-family="Helvetica,sans-Serif" font-size="10.00">random.h</text>
</a>
</g>
</g>
<!-- Node5&#45;&gt;Node63 -->
<g id="edge51" class="edge">
<title>Node5&#45;&gt;Node63</title>
<path fill="none" stroke="midnightblue" d="M1316.34,-339.87C1380.33,-332.57 1498.54,-318.05 1598.5,-300 1601.16,-299.52 1603.91,-298.98 1606.67,-298.42"/>
<polygon fill="midnightblue" stroke="midnightblue" points="1315.72,-336.42 1306.17,-341.02 1316.5,-343.37 1315.72,-336.42"/>
</g>
<!-- Node36 -->
<g id="node40" class="node">
<title>Node36</title>
<g id="a_node40"><a xlink:href="spec_2schedule_8h.html" target="_top" xlink:title=" ">
<polygon fill="white" stroke="red" points="1688,-280.5 1688,-299.5 1757,-299.5 1757,-280.5 1688,-280.5"/>
<text text-anchor="middle" x="1722.5" y="-287.5" font-family="Helvetica,sans-Serif" font-size="10.00">schedule.h</text>
</a>
</g>
</g>
<!-- Node5&#45;&gt;Node36 -->
<g id="edge52" class="edge">
<title>Node5&#45;&gt;Node36</title>
<path fill="none" stroke="midnightblue" d="M1316.37,-341.35C1392.74,-335.06 1548.64,-320.83 1679.5,-300 1682.21,-299.57 1685.01,-299.08 1687.82,-298.56"/>
<polygon fill="midnightblue" stroke="midnightblue" points="1315.82,-337.88 1306.13,-342.18 1316.38,-344.86 1315.82,-337.88"/>
</g>
<!-- Node65 -->
<g id="node41" class="node">
<title>Node65</title>
<g id="a_node41"><a xlink:href="spec_2schedule__types_8h.html" target="_top" xlink:title=" ">
<polygon fill="white" stroke="red" points="1775,-280.5 1775,-299.5 1876,-299.5 1876,-280.5 1775,-280.5"/>
<text text-anchor="middle" x="1825.5" y="-287.5" font-family="Helvetica,sans-Serif" font-size="10.00">schedule_types.h</text>
</a>
</g>
</g>
<!-- Node5&#45;&gt;Node65 -->
<g id="edge53" class="edge">
<title>Node5&#45;&gt;Node65</title>
<path fill="none" stroke="midnightblue" d="M1316.27,-341.72C1404.48,-335.33 1601.41,-320.05 1766.5,-300 1769.28,-299.66 1772.12,-299.3 1775,-298.91"/>
<polygon fill="midnightblue" stroke="midnightblue" points="1315.78,-338.25 1306.06,-342.46 1316.28,-345.23 1315.78,-338.25"/>
</g>
<!-- Node71 -->
<g id="node42" class="node">
<title>Node71</title>
<g id="a_node42"><a xlink:href="spec_2stash_8h.html" target="_top" xlink:title=" ">
<polygon fill="white" stroke="red" points="1894.5,-280.5 1894.5,-299.5 1946.5,-299.5 1946.5,-280.5 1894.5,-280.5"/>
<text text-anchor="middle" x="1920.5" y="-287.5" font-family="Helvetica,sans-Serif" font-size="10.00">stash.h</text>
</a>
</g>
</g>
<!-- Node5&#45;&gt;Node71 -->
<g id="edge54" class="edge">
<title>Node5&#45;&gt;Node71</title>
<path fill="none" stroke="midnightblue" d="M1316.32,-344.43C1419.71,-342.54 1675,-334.47 1885.5,-300 1888.35,-299.53 1891.3,-298.94 1894.23,-298.29"/>
<polygon fill="midnightblue" stroke="midnightblue" points="1316.16,-340.93 1306.22,-344.6 1316.28,-347.93 1316.16,-340.93"/>
</g>
<!-- Node73 -->
<g id="node43" class="node">
<title>Node73</title>
<g id="a_node43"><a xlink:href="spec_2std_8h.html" target="_top" xlink:title=" ">
<polygon fill="white" stroke="red" points="1965,-280.5 1965,-299.5 2006,-299.5 2006,-280.5 1965,-280.5"/>
<text text-anchor="middle" x="1985.5" y="-287.5" font-family="Helvetica,sans-Serif" font-size="10.00">std.h</text>
</a>
</g>
</g>
<!-- Node5&#45;&gt;Node73 -->
<g id="edge55" class="edge">
<title>Node5&#45;&gt;Node73</title>
<path fill="none" stroke="midnightblue" d="M1316.55,-345.55C1428.33,-346.07 1718.25,-342.8 1955.5,-300 1958.6,-299.44 1961.84,-298.67 1964.99,-297.82"/>
<polygon fill="midnightblue" stroke="midnightblue" points="1316.31,-342.05 1306.29,-345.49 1316.27,-349.05 1316.31,-342.05"/>
</g>
<!-- Node75 -->
<g id="node44" class="node">
<title>Node75</title>
<g id="a_node44"><a xlink:href="spec_2threshold_8h.html" target="_top" xlink:title=" ">
<polygon fill="white" stroke="red" points="2024,-280.5 2024,-299.5 2095,-299.5 2095,-280.5 2024,-280.5"/>
<text text-anchor="middle" x="2059.5" y="-287.5" font-family="Helvetica,sans-Serif" font-size="10.00">threshold.h</text>
</a>
</g>
</g>
<!-- Node5&#45;&gt;Node75 -->
<g id="edge56" class="edge">
<title>Node5&#45;&gt;Node75</title>
<path fill="none" stroke="midnightblue" d="M1316.28,-344.47C1434.14,-342.65 1752.65,-334.63 2015.5,-300 2018.13,-299.65 2020.83,-299.24 2023.55,-298.78"/>
<polygon fill="midnightblue" stroke="midnightblue" points="1316.11,-340.98 1306.16,-344.62 1316.21,-347.97 1316.11,-340.98"/>
</g>
<!-- Node77 -->
<g id="node45" class="node">
<title>Node77</title>
<g id="a_node45"><a xlink:href="spec_2thrmask_8h.html" target="_top" xlink:title=" ">
<polygon fill="white" stroke="red" points="2113.5,-280.5 2113.5,-299.5 2179.5,-299.5 2179.5,-280.5 2113.5,-280.5"/>
<text text-anchor="middle" x="2146.5" y="-287.5" font-family="Helvetica,sans-Serif" font-size="10.00">thrmask.h</text>
</a>
</g>
</g>
<!-- Node5&#45;&gt;Node77 -->
<g id="edge57" class="edge">
<title>Node5&#45;&gt;Node77</title>
<path fill="none" stroke="midnightblue" d="M1316.5,-345.05C1443.91,-344.62 1806.37,-339.73 2104.5,-300 2107.31,-299.63 2110.21,-299.16 2113.11,-298.65"/>
<polygon fill="midnightblue" stroke="midnightblue" points="1316.31,-341.55 1306.32,-345.07 1316.33,-348.55 1316.31,-341.55"/>
</g>
<!-- Node79 -->
<g id="node46" class="node">
<title>Node79</title>
<g id="a_node46"><a xlink:href="system__info_8h.html" target="_top" xlink:title=" ">
<polygon fill="white" stroke="black" points="2197.5,-280.5 2197.5,-299.5 2283.5,-299.5 2283.5,-280.5 2197.5,-280.5"/>
<text text-anchor="middle" x="2240.5" y="-287.5" font-family="Helvetica,sans-Serif" font-size="10.00">system_info.h</text>
</a>
</g>
</g>
<!-- Node5&#45;&gt;Node79 -->
<g id="edge59" class="edge">
<title>Node5&#45;&gt;Node79</title>
<path fill="none" stroke="midnightblue" d="M1316.44,-344.73C1452.04,-343.5 1855.81,-336.8 2188.5,-300 2191.41,-299.68 2194.41,-299.3 2197.43,-298.87"/>
<polygon fill="midnightblue" stroke="midnightblue" points="1316.37,-341.23 1306.4,-344.81 1316.43,-348.23 1316.37,-341.23"/>
</g>
<!-- Node80 -->
<g id="node47" class="node">
<title>Node80</title>
<g id="a_node47"><a xlink:href="time_8h.html" target="_top" xlink:title=" ">
<polygon fill="white" stroke="red" points="604.5,-280.5 604.5,-299.5 652.5,-299.5 652.5,-280.5 604.5,-280.5"/>
<text text-anchor="middle" x="628.5" y="-287.5" font-family="Helvetica,sans-Serif" font-size="10.00">time.h</text>
</a>
</g>
</g>
<!-- Node5&#45;&gt;Node80 -->
<g id="edge60" class="edge">
<title>Node5&#45;&gt;Node80</title>
<path fill="none" stroke="midnightblue" d="M1222.66,-344.02C1120.88,-341.34 872.16,-331.82 666.5,-300 661.94,-299.3 657.13,-298.33 652.51,-297.29"/>
<polygon fill="midnightblue" stroke="midnightblue" points="1222.82,-347.53 1232.91,-344.28 1223,-340.53 1222.82,-347.53"/>
</g>
<!-- Node81 -->
<g id="node48" class="node">
<title>Node81</title>
<g id="a_node48"><a xlink:href="timer_8h.html" target="_top" xlink:title=" ">
<polygon fill="white" stroke="black" points="2302,-280.5 2302,-299.5 2353,-299.5 2353,-280.5 2302,-280.5"/>
<text text-anchor="middle" x="2327.5" y="-287.5" font-family="Helvetica,sans-Serif" font-size="10.00">timer.h</text>
</a>
</g>
</g>
<!-- Node5&#45;&gt;Node81 -->
<g id="edge62" class="edge">
<title>Node5&#45;&gt;Node81</title>
<path fill="none" stroke="midnightblue" d="M1316.18,-344.23C1490.09,-341.18 2100.26,-328.63 2292.5,-300 2295.48,-299.56 2298.57,-298.96 2301.63,-298.29"/>
<polygon fill="midnightblue" stroke="midnightblue" points="1316.01,-340.74 1306.07,-344.41 1316.13,-347.74 1316.01,-340.74"/>
</g>
<!-- Node82 -->
<g id="node49" class="node">
<title>Node82</title>
<g id="a_node49"><a xlink:href="strong__types_8h.html" target="_top" xlink:title=" ">
<polygon fill="white" stroke="black" points="2371,-280.5 2371,-299.5 2460,-299.5 2460,-280.5 2371,-280.5"/>
<text text-anchor="middle" x="2415.5" y="-287.5" font-family="Helvetica,sans-Serif" font-size="10.00">strong_types.h</text>
</a>
</g>
</g>
<!-- Node5&#45;&gt;Node82 -->
<g id="edge63" class="edge">
<title>Node5&#45;&gt;Node82</title>
<path fill="none" stroke="midnightblue" d="M1316.79,-345.19C1468.95,-345.36 1959.47,-342.34 2362.5,-300 2365.19,-299.72 2367.95,-299.38 2370.74,-299.01"/>
<polygon fill="midnightblue" stroke="midnightblue" points="1316.43,-341.69 1306.42,-345.18 1316.42,-348.69 1316.43,-341.69"/>
</g>
<!-- Node17&#45;&gt;Node18 -->
<g id="edge19" class="edge">
<title>Node17&#45;&gt;Node18</title>
<path fill="none" stroke="midnightblue" d="M558.22,-50.9C574.17,-41 595,-28.07 608.56,-19.65"/>
<polygon fill="midnightblue" stroke="midnightblue" points="556.13,-48.08 549.48,-56.32 559.82,-54.02 556.13,-48.08"/>
</g>
<!-- Node20&#45;&gt;Node18 -->
<g id="edge21" class="edge">
<title>Node20&#45;&gt;Node18</title>
<path fill="none" stroke="midnightblue" d="M740.72,-158.95C730.7,-133.92 710.11,-88.12 682.5,-56 669.51,-40.89 650.62,-27.77 637.52,-19.66"/>
<polygon fill="midnightblue" stroke="midnightblue" points="737.47,-160.26 744.35,-168.31 743.99,-157.72 737.47,-160.26"/>
</g>
<!-- Node21&#45;&gt;Node22 -->
<g id="edge23" class="edge">
<title>Node21&#45;&gt;Node22</title>
<path fill="none" stroke="midnightblue" d="M767.35,-276.5C791.54,-266.38 824.96,-252.39 846.16,-243.52"/>
<polygon fill="midnightblue" stroke="midnightblue" points="765.81,-273.35 757.94,-280.44 768.52,-279.81 765.81,-273.35"/>
</g>
<!-- Node21&#45;&gt;Node24 -->
<g id="edge24" class="edge">
<title>Node21&#45;&gt;Node24</title>
<path fill="none" stroke="midnightblue" d="M732.33,-270.4C729.82,-261.36 726.93,-250.94 724.93,-243.75"/>
<polygon fill="midnightblue" stroke="midnightblue" points="728.97,-271.38 735.02,-280.08 735.72,-269.51 728.97,-271.38"/>
</g>
<!-- Node25 -->
<g id="node23" class="node">
<title>Node25</title>
<g id="a_node23"><a xlink:href="spec_2event_8h.html" target="_top" xlink:title=" ">
<polygon fill="white" stroke="red" points="769,-224.5 769,-243.5 822,-243.5 822,-224.5 769,-224.5"/>
<text text-anchor="middle" x="795.5" y="-231.5" font-family="Helvetica,sans-Serif" font-size="10.00">event.h</text>
</a>
</g>
</g>
<!-- Node21&#45;&gt;Node25 -->
<g id="edge26" class="edge">
<title>Node21&#45;&gt;Node25</title>
<path fill="none" stroke="midnightblue" d="M754.41,-273.25C764.7,-263.67 777.47,-251.79 786.01,-243.83"/>
<polygon fill="midnightblue" stroke="midnightblue" points="751.75,-270.95 746.82,-280.32 756.52,-276.07 751.75,-270.95"/>
</g>
<!-- Node21&#45;&gt;Node38 -->
<g id="edge27" class="edge">
<title>Node21&#45;&gt;Node38</title>
<path fill="none" stroke="midnightblue" d="M776.64,-279.26C817.49,-269.09 880.94,-253.31 919.98,-243.59"/>
<polygon fill="midnightblue" stroke="midnightblue" points="775.62,-275.91 766.77,-281.72 777.31,-282.7 775.62,-275.91"/>
</g>
<!-- Node31 -->
<g id="node25" class="node">
<title>Node31</title>
<g id="a_node25"><a xlink:href="spec_2packet__io_8h.html" target="_top" xlink:title=" ">
<polygon fill="white" stroke="black" points="604.5,-224.5 604.5,-243.5 676.5,-243.5 676.5,-224.5 604.5,-224.5"/>
<text text-anchor="middle" x="640.5" y="-231.5" font-family="Helvetica,sans-Serif" font-size="10.00">packet_io.h</text>
</a>
</g>
</g>
<!-- Node21&#45;&gt;Node31 -->
<g id="edge28" class="edge">
<title>Node21&#45;&gt;Node31</title>
<path fill="none" stroke="midnightblue" d="M713.16,-275.45C695.26,-265.48 671.45,-252.23 656.05,-243.65"/>
<polygon fill="midnightblue" stroke="midnightblue" points="711.48,-278.52 721.92,-280.32 714.88,-272.4 711.48,-278.52"/>
</g>
<!-- Node24&#45;&gt;Node20 -->
<g id="edge25" class="edge">
<title>Node24&#45;&gt;Node20</title>
<path fill="none" stroke="midnightblue" d="M730.84,-214.98C735.08,-205.82 740.05,-195.09 743.45,-187.75"/>
<polygon fill="midnightblue" stroke="midnightblue" points="727.65,-213.54 726.63,-224.08 734.01,-216.48 727.65,-213.54"/>
</g>
<!-- Node31&#45;&gt;Node32 -->
<g id="edge29" class="edge">
<title>Node31&#45;&gt;Node32</title>
<path fill="none" stroke="midnightblue" d="M640.14,-213.8C639.98,-204.91 639.79,-194.78 639.66,-187.75"/>
<polygon fill="midnightblue" stroke="midnightblue" points="636.65,-214.15 640.33,-224.08 643.65,-214.02 636.65,-214.15"/>
</g>
<!-- Node32&#45;&gt;Node18 -->
<g id="edge32" class="edge">
<title>Node32&#45;&gt;Node18</title>
<path fill="none" stroke="midnightblue" d="M663.62,-162.47C673.94,-154.83 684.88,-144.44 690.5,-132 694.16,-123.9 693.1,-120.5 690.5,-112 678.65,-73.18 646.33,-35.78 630.9,-19.5"/>
<polygon fill="midnightblue" stroke="midnightblue" points="661.49,-159.69 655.23,-168.24 665.46,-165.46 661.49,-159.69"/>
</g>
<!-- Node32&#45;&gt;Node33 -->
<g id="edge30" class="edge">
<title>Node32&#45;&gt;Node33</title>
<path fill="none" stroke="midnightblue" d="M613.67,-163.59C594.44,-153.61 568.76,-140.27 552.17,-131.65"/>
<polygon fill="midnightblue" stroke="midnightblue" points="612.3,-166.82 622.79,-168.32 615.53,-160.61 612.3,-166.82"/>
</g>
<!-- Node32&#45;&gt;Node34 -->
<g id="edge33" class="edge">
<title>Node32&#45;&gt;Node34</title>
<path fill="none" stroke="midnightblue" d="M639.5,-157.8C639.5,-148.91 639.5,-138.78 639.5,-131.75"/>
<polygon fill="midnightblue" stroke="midnightblue" points="636,-158.08 639.5,-168.08 643,-158.08 636,-158.08"/>
</g>
<!-- Node33&#45;&gt;Node17 -->
<g id="edge31" class="edge">
<title>Node33&#45;&gt;Node17</title>
<path fill="none" stroke="midnightblue" d="M535.5,-101.8C535.5,-92.91 535.5,-82.78 535.5,-75.75"/>
<polygon fill="midnightblue" stroke="midnightblue" points="532,-102.08 535.5,-112.08 539,-102.08 532,-102.08"/>
</g>
<!-- Node29 -->
<g id="node31" class="node">
<title>Node29</title>
<g id="a_node31"><a xlink:href="spec_2packet__io__stats_8h.html" target="_top" xlink:title=" ">
<polygon fill="white" stroke="red" points="1054,-224.5 1054,-243.5 1155,-243.5 1155,-224.5 1054,-224.5"/>
<text text-anchor="middle" x="1104.5" y="-231.5" font-family="Helvetica,sans-Serif" font-size="10.00">packet_io_stats.h</text>
</a>
</g>
</g>
<!-- Node28&#45;&gt;Node29 -->
<g id="edge37" class="edge">
<title>Node28&#45;&gt;Node29</title>
<path fill="none" stroke="midnightblue" d="M1045.8,-274.62C1060.42,-264.76 1079.33,-251.99 1091.68,-243.65"/>
<polygon fill="midnightblue" stroke="midnightblue" points="1043.68,-271.83 1037.35,-280.32 1047.6,-277.63 1043.68,-271.83"/>
</g>
<!-- Node56&#45;&gt;Node53 -->
<g id="edge49" class="edge">
<title>Node56&#45;&gt;Node53</title>
<path fill="none" stroke="midnightblue" d="M1407.52,-271.57C1401.67,-262.27 1394.73,-251.25 1390.01,-243.75"/>
<polygon fill="midnightblue" stroke="midnightblue" points="1404.6,-273.49 1412.89,-280.08 1410.52,-269.76 1404.6,-273.49"/>
</g>
<!-- Node80&#45;&gt;Node31 -->
<g id="edge61" class="edge">
<title>Node80&#45;&gt;Node31</title>
<path fill="none" stroke="midnightblue" d="M632.7,-270.1C634.69,-261.14 636.98,-250.86 638.56,-243.75"/>
<polygon fill="midnightblue" stroke="midnightblue" points="629.23,-269.56 630.48,-280.08 636.07,-271.08 629.23,-269.56"/>
</g>
</g>
</svg>
