<?xml version="1.0" encoding="UTF-8" standalone="no"?>
<!DOCTYPE svg PUBLIC "-//W3C//DTD SVG 1.1//EN"
 "http://www.w3.org/Graphics/SVG/1.1/DTD/svg11.dtd">
<!-- Generated by graphviz version 2.43.0 (0)
 -->
<!-- Title: std_types.h Pages: 1 -->
<svg width="3200pt" height="420pt"
 viewBox="0.00 0.00 3200.00 420.00" xmlns="http://www.w3.org/2000/svg" xmlns:xlink="http://www.w3.org/1999/xlink">
<g id="graph0" class="graph" transform="scale(1 1) rotate(0) translate(4 416)">
<title>std_types.h</title>
<polygon fill="white" stroke="transparent" points="-4,4 -4,-416 3196,-416 3196,4 -4,4"/>
<!-- Node1 -->
<g id="node1" class="node">
<title>Node1</title>
<g id="a_node1"><a xlink:title=" ">
<polygon fill="#bfbfbf" stroke="black" points="1490,-392.5 1490,-411.5 1563,-411.5 1563,-392.5 1490,-392.5"/>
<text text-anchor="middle" x="1526.5" y="-399.5" font-family="Helvetica,sans-Serif" font-size="10.00">std_types.h</text>
</a>
</g>
</g>
<!-- Node2 -->
<g id="node2" class="node">
<title>Node2</title>
<g id="a_node2"><a xlink:href="std__types_8h.html" target="_top" xlink:title=" ">
<polygon fill="white" stroke="black" points="1490,-336.5 1490,-355.5 1563,-355.5 1563,-336.5 1490,-336.5"/>
<text text-anchor="middle" x="1526.5" y="-343.5" font-family="Helvetica,sans-Serif" font-size="10.00">std_types.h</text>
</a>
</g>
</g>
<!-- Node1&#45;&gt;Node2 -->
<g id="edge1" class="edge">
<title>Node1&#45;&gt;Node2</title>
<path fill="none" stroke="midnightblue" d="M1526.5,-381.8C1526.5,-372.91 1526.5,-362.78 1526.5,-355.75"/>
<polygon fill="midnightblue" stroke="midnightblue" points="1523,-382.08 1526.5,-392.08 1530,-382.08 1523,-382.08"/>
</g>
<!-- Node3 -->
<g id="node3" class="node">
<title>Node3</title>
<g id="a_node3"><a xlink:href="abi-default_2atomic_8h.html" target="_top" xlink:title=" ">
<polygon fill="white" stroke="black" points="0,-280.5 0,-299.5 59,-299.5 59,-280.5 0,-280.5"/>
<text text-anchor="middle" x="29.5" y="-287.5" font-family="Helvetica,sans-Serif" font-size="10.00">atomic.h</text>
</a>
</g>
</g>
<!-- Node2&#45;&gt;Node3 -->
<g id="edge2" class="edge">
<title>Node2&#45;&gt;Node3</title>
<path fill="none" stroke="midnightblue" d="M1479.76,-344.83C1262.51,-343.82 350.05,-337.43 67.5,-300 64.81,-299.64 62.04,-299.18 59.26,-298.65"/>
<polygon fill="midnightblue" stroke="midnightblue" points="1479.85,-348.33 1489.87,-344.87 1479.89,-341.33 1479.85,-348.33"/>
</g>
<!-- Node4 -->
<g id="node4" class="node">
<title>Node4</title>
<g id="a_node4"><a xlink:href="abi-default_2barrier_8h.html" target="_top" xlink:title=" ">
<polygon fill="white" stroke="black" points="77,-280.5 77,-299.5 134,-299.5 134,-280.5 77,-280.5"/>
<text text-anchor="middle" x="105.5" y="-287.5" font-family="Helvetica,sans-Serif" font-size="10.00">barrier.h</text>
</a>
</g>
</g>
<!-- Node2&#45;&gt;Node4 -->
<g id="edge3" class="edge">
<title>Node2&#45;&gt;Node4</title>
<path fill="none" stroke="midnightblue" d="M1479.83,-344.73C1269.74,-343.35 410.31,-335.57 143.5,-300 140.41,-299.59 137.2,-299.03 134.02,-298.4"/>
<polygon fill="midnightblue" stroke="midnightblue" points="1479.89,-348.24 1489.91,-344.8 1479.94,-341.24 1479.89,-348.24"/>
</g>
<!-- Node5 -->
<g id="node5" class="node">
<title>Node5</title>
<g id="a_node5"><a xlink:href="abi-default_2byteorder_8h.html" target="_top" xlink:title=" ">
<polygon fill="white" stroke="black" points="152.5,-280.5 152.5,-299.5 224.5,-299.5 224.5,-280.5 152.5,-280.5"/>
<text text-anchor="middle" x="188.5" y="-287.5" font-family="Helvetica,sans-Serif" font-size="10.00">byteorder.h</text>
</a>
</g>
</g>
<!-- Node2&#45;&gt;Node5 -->
<g id="edge4" class="edge">
<title>Node2&#45;&gt;Node5</title>
<path fill="none" stroke="midnightblue" d="M1479.68,-344.39C1277.96,-341.61 482.13,-328.99 233.5,-300 230.65,-299.67 227.71,-299.25 224.77,-298.78"/>
<polygon fill="midnightblue" stroke="midnightblue" points="1479.88,-347.89 1489.93,-344.53 1479.98,-340.9 1479.88,-347.89"/>
</g>
<!-- Node6 -->
<g id="node6" class="node">
<title>Node6</title>
<g id="a_node6"><a xlink:href="abi-default_2cpumask_8h.html" target="_top" xlink:title=" ">
<polygon fill="white" stroke="black" points="242.5,-280.5 242.5,-299.5 312.5,-299.5 312.5,-280.5 242.5,-280.5"/>
<text text-anchor="middle" x="277.5" y="-287.5" font-family="Helvetica,sans-Serif" font-size="10.00">cpumask.h</text>
</a>
</g>
</g>
<!-- Node2&#45;&gt;Node6 -->
<g id="edge5" class="edge">
<title>Node2&#45;&gt;Node6</title>
<path fill="none" stroke="midnightblue" d="M1479.74,-344.28C1286.78,-341.16 551.88,-327.67 321.5,-300 318.71,-299.67 315.84,-299.25 312.96,-298.77"/>
<polygon fill="midnightblue" stroke="midnightblue" points="1479.77,-347.78 1489.83,-344.44 1479.89,-340.78 1479.77,-347.78"/>
</g>
<!-- Node7 -->
<g id="node7" class="node">
<title>Node7</title>
<g id="a_node7"><a xlink:href="abi-default_2init_8h.html" target="_top" xlink:title=" ">
<polygon fill="white" stroke="black" points="331,-280.5 331,-299.5 372,-299.5 372,-280.5 331,-280.5"/>
<text text-anchor="middle" x="351.5" y="-287.5" font-family="Helvetica,sans-Serif" font-size="10.00">init.h</text>
</a>
</g>
</g>
<!-- Node2&#45;&gt;Node7 -->
<g id="edge6" class="edge">
<title>Node2&#45;&gt;Node7</title>
<path fill="none" stroke="midnightblue" d="M1479.81,-344.79C1292.75,-343.71 597.17,-337.21 380.5,-300 377.8,-299.54 375,-298.89 372.25,-298.15"/>
<polygon fill="midnightblue" stroke="midnightblue" points="1479.85,-348.29 1489.87,-344.85 1479.89,-341.29 1479.85,-348.29"/>
</g>
<!-- Node8 -->
<g id="node8" class="node">
<title>Node8</title>
<g id="a_node8"><a xlink:href="abi-default_2ipsec_8h.html" target="_top" xlink:title=" ">
<polygon fill="white" stroke="black" points="390,-280.5 390,-299.5 441,-299.5 441,-280.5 390,-280.5"/>
<text text-anchor="middle" x="415.5" y="-287.5" font-family="Helvetica,sans-Serif" font-size="10.00">ipsec.h</text>
</a>
</g>
</g>
<!-- Node2&#45;&gt;Node8 -->
<g id="edge7" class="edge">
<title>Node2&#45;&gt;Node8</title>
<path fill="none" stroke="midnightblue" d="M1479.8,-344.35C1300.17,-341.65 653.61,-330.02 450.5,-300 447.52,-299.56 444.43,-298.97 441.37,-298.3"/>
<polygon fill="midnightblue" stroke="midnightblue" points="1479.93,-347.85 1489.98,-344.5 1480.03,-340.85 1479.93,-347.85"/>
</g>
<!-- Node9 -->
<g id="node9" class="node">
<title>Node9</title>
<g id="a_node9"><a xlink:href="abi-default_2packet__io_8h.html" target="_top" xlink:title=" ">
<polygon fill="white" stroke="black" points="459.5,-280.5 459.5,-299.5 531.5,-299.5 531.5,-280.5 459.5,-280.5"/>
<text text-anchor="middle" x="495.5" y="-287.5" font-family="Helvetica,sans-Serif" font-size="10.00">packet_io.h</text>
</a>
</g>
</g>
<!-- Node2&#45;&gt;Node9 -->
<g id="edge8" class="edge">
<title>Node2&#45;&gt;Node9</title>
<path fill="none" stroke="midnightblue" d="M1479.51,-345.38C1337.39,-345.98 899.77,-343.87 540.5,-300 537.65,-299.65 534.72,-299.22 531.77,-298.75"/>
<polygon fill="midnightblue" stroke="midnightblue" points="1479.64,-348.88 1489.62,-345.33 1479.61,-341.88 1479.64,-348.88"/>
</g>
<!-- Node10 -->
<g id="node10" class="node">
<title>Node10</title>
<g id="a_node10"><a xlink:href="abi-default_2rwlock__recursive_8h.html" target="_top" xlink:title=" ">
<polygon fill="white" stroke="black" points="549.5,-280.5 549.5,-299.5 657.5,-299.5 657.5,-280.5 549.5,-280.5"/>
<text text-anchor="middle" x="603.5" y="-287.5" font-family="Helvetica,sans-Serif" font-size="10.00">rwlock_recursive.h</text>
</a>
</g>
</g>
<!-- Node2&#45;&gt;Node10 -->
<g id="edge9" class="edge">
<title>Node2&#45;&gt;Node10</title>
<path fill="none" stroke="midnightblue" d="M1479.6,-344.02C1349.96,-341 975.87,-330.13 666.5,-300 663.64,-299.72 660.71,-299.41 657.76,-299.07"/>
<polygon fill="midnightblue" stroke="midnightblue" points="1479.87,-347.53 1489.95,-344.26 1480.03,-340.53 1479.87,-347.53"/>
</g>
<!-- Node11 -->
<g id="node11" class="node">
<title>Node11</title>
<g id="a_node11"><a xlink:href="abi-default_2schedule_8h.html" target="_top" xlink:title=" ">
<polygon fill="white" stroke="black" points="676,-280.5 676,-299.5 745,-299.5 745,-280.5 676,-280.5"/>
<text text-anchor="middle" x="710.5" y="-287.5" font-family="Helvetica,sans-Serif" font-size="10.00">schedule.h</text>
</a>
</g>
</g>
<!-- Node2&#45;&gt;Node11 -->
<g id="edge10" class="edge">
<title>Node2&#45;&gt;Node11</title>
<path fill="none" stroke="midnightblue" d="M1479.76,-344.61C1359.14,-343.09 1027.76,-335.72 754.5,-300 751.41,-299.6 748.21,-299.1 745.01,-298.55"/>
<polygon fill="midnightblue" stroke="midnightblue" points="1479.72,-348.11 1489.76,-344.73 1479.8,-341.11 1479.72,-348.11"/>
</g>
<!-- Node12 -->
<g id="node12" class="node">
<title>Node12</title>
<g id="a_node12"><a xlink:href="abi-default_2spinlock__recursive_8h.html" target="_top" xlink:title=" ">
<polygon fill="white" stroke="black" points="763.5,-280.5 763.5,-299.5 879.5,-299.5 879.5,-280.5 763.5,-280.5"/>
<text text-anchor="middle" x="821.5" y="-287.5" font-family="Helvetica,sans-Serif" font-size="10.00">spinlock_recursive.h</text>
</a>
</g>
</g>
<!-- Node2&#45;&gt;Node12 -->
<g id="edge11" class="edge">
<title>Node2&#45;&gt;Node12</title>
<path fill="none" stroke="midnightblue" d="M1479.74,-342.71C1374.15,-337.33 1109.25,-322.59 888.5,-300 885.58,-299.7 882.59,-299.38 879.58,-299.03"/>
<polygon fill="midnightblue" stroke="midnightblue" points="1479.59,-346.21 1489.75,-343.22 1479.94,-339.22 1479.59,-346.21"/>
</g>
<!-- Node13 -->
<g id="node13" class="node">
<title>Node13</title>
<g id="a_node13"><a xlink:href="abi-default_2traffic__mngr_8h.html" target="_top" xlink:title=" ">
<polygon fill="white" stroke="black" points="897.5,-280.5 897.5,-299.5 981.5,-299.5 981.5,-280.5 897.5,-280.5"/>
<text text-anchor="middle" x="939.5" y="-287.5" font-family="Helvetica,sans-Serif" font-size="10.00">traffic_mngr.h</text>
</a>
</g>
</g>
<!-- Node2&#45;&gt;Node13 -->
<g id="edge12" class="edge">
<title>Node2&#45;&gt;Node13</title>
<path fill="none" stroke="midnightblue" d="M1479.75,-342.51C1386.45,-337.22 1170.62,-323.4 990.5,-300 987.65,-299.63 984.71,-299.21 981.76,-298.76"/>
<polygon fill="midnightblue" stroke="midnightblue" points="1479.8,-346.02 1489.98,-343.08 1480.2,-339.03 1479.8,-346.02"/>
</g>
<!-- Node14 -->
<g id="node14" class="node">
<title>Node14</title>
<g id="a_node14"><a xlink:href="barrier_8h.html" target="_top" xlink:title=" ">
<polygon fill="white" stroke="black" points="1000,-280.5 1000,-299.5 1057,-299.5 1057,-280.5 1000,-280.5"/>
<text text-anchor="middle" x="1028.5" y="-287.5" font-family="Helvetica,sans-Serif" font-size="10.00">barrier.h</text>
</a>
</g>
</g>
<!-- Node2&#45;&gt;Node14 -->
<g id="edge13" class="edge">
<title>Node2&#45;&gt;Node14</title>
<path fill="none" stroke="midnightblue" d="M1479.62,-342.62C1395.97,-337.88 1215.66,-325.46 1065.5,-300 1062.76,-299.54 1059.93,-298.98 1057.1,-298.38"/>
<polygon fill="midnightblue" stroke="midnightblue" points="1479.63,-346.12 1489.81,-343.18 1480.02,-339.13 1479.63,-346.12"/>
</g>
<!-- Node15 -->
<g id="node15" class="node">
<title>Node15</title>
<g id="a_node15"><a xlink:href="buffer_8h.html" target="_top" xlink:title=" ">
<polygon fill="white" stroke="black" points="1075,-280.5 1075,-299.5 1128,-299.5 1128,-280.5 1075,-280.5"/>
<text text-anchor="middle" x="1101.5" y="-287.5" font-family="Helvetica,sans-Serif" font-size="10.00">buffer.h</text>
</a>
</g>
</g>
<!-- Node2&#45;&gt;Node15 -->
<g id="edge14" class="edge">
<title>Node2&#45;&gt;Node15</title>
<path fill="none" stroke="midnightblue" d="M1479.62,-341.02C1407.06,-334.52 1263.32,-320.29 1142.5,-300 1137.9,-299.23 1133.04,-298.28 1128.33,-297.29"/>
<polygon fill="midnightblue" stroke="midnightblue" points="1479.53,-344.53 1489.8,-341.92 1480.14,-337.55 1479.53,-344.53"/>
</g>
<!-- Node16 -->
<g id="node16" class="node">
<title>Node16</title>
<g id="a_node16"><a xlink:href="classification_8h.html" target="_top" xlink:title=" ">
<polygon fill="white" stroke="black" points="1223,-56.5 1223,-75.5 1312,-75.5 1312,-56.5 1223,-56.5"/>
<text text-anchor="middle" x="1267.5" y="-63.5" font-family="Helvetica,sans-Serif" font-size="10.00">classification.h</text>
</a>
</g>
</g>
<!-- Node2&#45;&gt;Node16 -->
<g id="edge15" class="edge">
<title>Node2&#45;&gt;Node16</title>
<path fill="none" stroke="midnightblue" d="M1479.29,-345.69C1423.48,-344.63 1329.27,-336.82 1258.5,-300 1222.53,-281.29 1194.5,-275.54 1194.5,-235 1194.5,-235 1194.5,-235 1194.5,-177 1194.5,-146.9 1197,-137.17 1213.5,-112 1223.67,-96.49 1240.8,-83.53 1253.04,-75.56"/>
<polygon fill="midnightblue" stroke="midnightblue" points="1479.54,-349.2 1489.58,-345.82 1479.63,-342.2 1479.54,-349.2"/>
</g>
<!-- Node17 -->
<g id="node17" class="node">
<title>Node17</title>
<g id="a_node17"><a xlink:href="spec_2ipsec_8h.html" target="_top" xlink:title=" ">
<polygon fill="white" stroke="red" points="1278,-0.5 1278,-19.5 1329,-19.5 1329,-0.5 1278,-0.5"/>
<text text-anchor="middle" x="1303.5" y="-7.5" font-family="Helvetica,sans-Serif" font-size="10.00">ipsec.h</text>
</a>
</g>
</g>
<!-- Node2&#45;&gt;Node17 -->
<g id="edge44" class="edge">
<title>Node2&#45;&gt;Node17</title>
<path fill="none" stroke="midnightblue" d="M1479.68,-342.03C1404.62,-336.64 1261.25,-323.57 1216.5,-300 1181.71,-281.68 1156.5,-274.32 1156.5,-235 1156.5,-235 1156.5,-235 1156.5,-121 1156.5,-61.07 1235.78,-29.84 1277.89,-17.48"/>
<polygon fill="midnightblue" stroke="midnightblue" points="1479.58,-345.53 1489.8,-342.74 1480.07,-338.55 1479.58,-345.53"/>
</g>
<!-- Node19 -->
<g id="node18" class="node">
<title>Node19</title>
<g id="a_node18"><a xlink:href="crypto_8h.html" target="_top" xlink:title=" ">
<polygon fill="white" stroke="black" points="1426.5,-168.5 1426.5,-187.5 1482.5,-187.5 1482.5,-168.5 1426.5,-168.5"/>
<text text-anchor="middle" x="1454.5" y="-175.5" font-family="Helvetica,sans-Serif" font-size="10.00">crypto.h</text>
</a>
</g>
</g>
<!-- Node2&#45;&gt;Node19 -->
<g id="edge17" class="edge">
<title>Node2&#45;&gt;Node19</title>
<path fill="none" stroke="midnightblue" d="M1480.16,-335.43C1459.95,-328.86 1437.86,-317.95 1424.5,-300 1404.25,-272.79 1406.06,-255.93 1417.5,-224 1422.75,-209.34 1435.08,-196.03 1444.06,-187.76"/>
<polygon fill="midnightblue" stroke="midnightblue" points="1479.3,-338.83 1489.88,-338.32 1481.3,-332.12 1479.3,-338.83"/>
</g>
<!-- Node20 -->
<g id="node19" class="node">
<title>Node20</title>
<g id="a_node19"><a xlink:href="packet_8h.html" target="_top" xlink:title=" ">
<polygon fill="white" stroke="black" points="1440.5,-280.5 1440.5,-299.5 1498.5,-299.5 1498.5,-280.5 1440.5,-280.5"/>
<text text-anchor="middle" x="1469.5" y="-287.5" font-family="Helvetica,sans-Serif" font-size="10.00">packet.h</text>
</a>
</g>
</g>
<!-- Node2&#45;&gt;Node20 -->
<g id="edge19" class="edge">
<title>Node2&#45;&gt;Node20</title>
<path fill="none" stroke="midnightblue" d="M1509.88,-329.25C1499.77,-319.67 1487.22,-307.79 1478.82,-299.83"/>
<polygon fill="midnightblue" stroke="midnightblue" points="1507.68,-331.99 1517.34,-336.32 1512.49,-326.91 1507.68,-331.99"/>
</g>
<!-- Node21 -->
<g id="node20" class="node">
<title>Node21</title>
<g id="a_node20"><a xlink:href="spec_2comp_8h.html" target="_top" xlink:title=" ">
<polygon fill="white" stroke="black" points="1572,-224.5 1572,-243.5 1625,-243.5 1625,-224.5 1572,-224.5"/>
<text text-anchor="middle" x="1598.5" y="-231.5" font-family="Helvetica,sans-Serif" font-size="10.00">comp.h</text>
</a>
</g>
</g>
<!-- Node2&#45;&gt;Node21 -->
<g id="edge39" class="edge">
<title>Node2&#45;&gt;Node21</title>
<path fill="none" stroke="midnightblue" d="M1530.91,-326.33C1534.69,-312.73 1541.05,-294.25 1550.5,-280 1560.22,-265.34 1575.62,-252.03 1586.34,-243.76"/>
<polygon fill="midnightblue" stroke="midnightblue" points="1527.41,-325.86 1528.32,-336.42 1534.2,-327.6 1527.41,-325.86"/>
</g>
<!-- Node23 -->
<g id="node22" class="node">
<title>Node23</title>
<g id="a_node22"><a xlink:href="spec_2crypto_8h.html" target="_top" xlink:title=" ">
<polygon fill="white" stroke="black" points="1426.5,-224.5 1426.5,-243.5 1482.5,-243.5 1482.5,-224.5 1426.5,-224.5"/>
<text text-anchor="middle" x="1454.5" y="-231.5" font-family="Helvetica,sans-Serif" font-size="10.00">crypto.h</text>
</a>
</g>
</g>
<!-- Node2&#45;&gt;Node23 -->
<g id="edge41" class="edge">
<title>Node2&#45;&gt;Node23</title>
<path fill="none" stroke="midnightblue" d="M1480.29,-334.62C1461.82,-327.96 1442.39,-317.2 1431.5,-300 1419.85,-281.59 1436.39,-256.5 1446.93,-243.54"/>
<polygon fill="midnightblue" stroke="midnightblue" points="1479.22,-337.95 1489.81,-337.74 1481.4,-331.3 1479.22,-337.95"/>
</g>
<!-- Node37 -->
<g id="node24" class="node">
<title>Node37</title>
<g id="a_node24"><a xlink:href="spec_2packet__flags_8h.html" target="_top" xlink:title=" ">
<polygon fill="white" stroke="red" points="1643.5,-224.5 1643.5,-243.5 1729.5,-243.5 1729.5,-224.5 1643.5,-224.5"/>
<text text-anchor="middle" x="1686.5" y="-231.5" font-family="Helvetica,sans-Serif" font-size="10.00">packet_flags.h</text>
</a>
</g>
</g>
<!-- Node2&#45;&gt;Node37 -->
<g id="edge45" class="edge">
<title>Node2&#45;&gt;Node37</title>
<path fill="none" stroke="midnightblue" d="M1539.24,-328.46C1550.87,-314.2 1569.16,-293.8 1588.5,-280 1611.21,-263.8 1640.68,-251.21 1661.35,-243.52"/>
<polygon fill="midnightblue" stroke="midnightblue" points="1536.39,-326.42 1532.91,-336.42 1541.87,-330.77 1536.39,-326.42"/>
</g>
<!-- Node31 -->
<g id="node26" class="node">
<title>Node31</title>
<g id="a_node26"><a xlink:href="packet__io_8h.html" target="_top" xlink:title=" ">
<polygon fill="white" stroke="black" points="1298.5,-168.5 1298.5,-187.5 1370.5,-187.5 1370.5,-168.5 1298.5,-168.5"/>
<text text-anchor="middle" x="1334.5" y="-175.5" font-family="Helvetica,sans-Serif" font-size="10.00">packet_io.h</text>
</a>
</g>
</g>
<!-- Node2&#45;&gt;Node31 -->
<g id="edge32" class="edge">
<title>Node2&#45;&gt;Node31</title>
<path fill="none" stroke="midnightblue" d="M1479.24,-342.93C1417.12,-339.1 1313.11,-328.51 1289.5,-300 1267.96,-273.98 1276.57,-255.21 1289.5,-224 1295.93,-208.48 1310.59,-195.53 1321.44,-187.56"/>
<polygon fill="midnightblue" stroke="midnightblue" points="1479.39,-346.44 1489.57,-343.53 1479.79,-339.46 1479.39,-346.44"/>
</g>
<!-- Node32 -->
<g id="node27" class="node">
<title>Node32</title>
<g id="a_node27"><a xlink:href="spec_2classification_8h.html" target="_top" xlink:title=" ">
<polygon fill="white" stroke="black" points="1223,-112.5 1223,-131.5 1312,-131.5 1312,-112.5 1223,-112.5"/>
<text text-anchor="middle" x="1267.5" y="-119.5" font-family="Helvetica,sans-Serif" font-size="10.00">classification.h</text>
</a>
</g>
</g>
<!-- Node2&#45;&gt;Node32 -->
<g id="edge38" class="edge">
<title>Node2&#45;&gt;Node32</title>
<path fill="none" stroke="midnightblue" d="M1479.87,-343.42C1414.53,-340.14 1300.76,-330.13 1274.5,-300 1231.26,-250.38 1255.42,-160.03 1264.51,-131.72"/>
<polygon fill="midnightblue" stroke="midnightblue" points="1479.77,-346.92 1489.92,-343.89 1480.1,-339.93 1479.77,-346.92"/>
</g>
<!-- Node33 -->
<g id="node28" class="node">
<title>Node33</title>
<g id="a_node28"><a xlink:href="spec_2traffic__mngr_8h.html" target="_top" xlink:title=" ">
<polygon fill="white" stroke="red" points="1368.5,-112.5 1368.5,-131.5 1452.5,-131.5 1452.5,-112.5 1368.5,-112.5"/>
<text text-anchor="middle" x="1410.5" y="-119.5" font-family="Helvetica,sans-Serif" font-size="10.00">traffic_mngr.h</text>
</a>
</g>
</g>
<!-- Node2&#45;&gt;Node33 -->
<g id="edge57" class="edge">
<title>Node2&#45;&gt;Node33</title>
<path fill="none" stroke="midnightblue" d="M1546.18,-330.49C1569.22,-313.7 1606.18,-287.39 1621.5,-280 1673.43,-254.96 1768.16,-273.43 1738.5,-224 1708.65,-174.25 1534.39,-141.74 1452.72,-129.03"/>
<polygon fill="midnightblue" stroke="midnightblue" points="1544.1,-327.67 1538.1,-336.41 1548.24,-333.32 1544.1,-327.67"/>
</g>
<!-- Node39 -->
<g id="node29" class="node">
<title>Node39</title>
<g id="a_node29"><a xlink:href="proto__stats_8h.html" target="_top" xlink:title=" ">
<polygon fill="white" stroke="black" points="1630.5,-280.5 1630.5,-299.5 1710.5,-299.5 1710.5,-280.5 1630.5,-280.5"/>
<text text-anchor="middle" x="1670.5" y="-287.5" font-family="Helvetica,sans-Serif" font-size="10.00">proto_stats.h</text>
</a>
</g>
</g>
<!-- Node2&#45;&gt;Node39 -->
<g id="edge33" class="edge">
<title>Node2&#45;&gt;Node39</title>
<path fill="none" stroke="midnightblue" d="M1558.75,-332.91C1585.82,-322.75 1623.82,-308.51 1647.79,-299.52"/>
<polygon fill="midnightblue" stroke="midnightblue" points="1557.45,-329.66 1549.32,-336.44 1559.91,-336.21 1557.45,-329.66"/>
</g>
<!-- Node27 -->
<g id="node30" class="node">
<title>Node27</title>
<g id="a_node30"><a xlink:href="queue_8h.html" target="_top" xlink:title=" ">
<polygon fill="white" stroke="black" points="1728.5,-280.5 1728.5,-299.5 1784.5,-299.5 1784.5,-280.5 1728.5,-280.5"/>
<text text-anchor="middle" x="1756.5" y="-287.5" font-family="Helvetica,sans-Serif" font-size="10.00">queue.h</text>
</a>
</g>
</g>
<!-- Node2&#45;&gt;Node27 -->
<g id="edge34" class="edge">
<title>Node2&#45;&gt;Node27</title>
<path fill="none" stroke="midnightblue" d="M1572.95,-334.3C1612.06,-325.26 1669.47,-311.92 1719.5,-300 1722.33,-299.33 1725.28,-298.62 1728.22,-297.91"/>
<polygon fill="midnightblue" stroke="midnightblue" points="1572.12,-330.9 1563.16,-336.56 1573.7,-337.72 1572.12,-330.9"/>
</g>
<!-- Node40 -->
<g id="node32" class="node">
<title>Node40</title>
<g id="a_node32"><a xlink:href="spec_2chksum_8h.html" target="_top" xlink:title=" ">
<polygon fill="white" stroke="black" points="1802.5,-280.5 1802.5,-299.5 1866.5,-299.5 1866.5,-280.5 1802.5,-280.5"/>
<text text-anchor="middle" x="1834.5" y="-287.5" font-family="Helvetica,sans-Serif" font-size="10.00">chksum.h</text>
</a>
</g>
</g>
<!-- Node2&#45;&gt;Node40 -->
<g id="edge36" class="edge">
<title>Node2&#45;&gt;Node40</title>
<path fill="none" stroke="midnightblue" d="M1573.5,-337.79C1626.93,-329.44 1716.71,-314.89 1793.5,-300 1796.36,-299.45 1799.33,-298.84 1802.3,-298.22"/>
<polygon fill="midnightblue" stroke="midnightblue" points="1572.66,-334.38 1563.31,-339.38 1573.73,-341.3 1572.66,-334.38"/>
</g>
<!-- Node42 -->
<g id="node34" class="node">
<title>Node42</title>
<g id="a_node34"><a xlink:href="spec_2cpu_8h.html" target="_top" xlink:title=" ">
<polygon fill="white" stroke="red" points="1885,-280.5 1885,-299.5 1928,-299.5 1928,-280.5 1885,-280.5"/>
<text text-anchor="middle" x="1906.5" y="-287.5" font-family="Helvetica,sans-Serif" font-size="10.00">cpu.h</text>
</a>
</g>
</g>
<!-- Node2&#45;&gt;Node42 -->
<g id="edge40" class="edge">
<title>Node2&#45;&gt;Node42</title>
<path fill="none" stroke="midnightblue" d="M1573.52,-341.26C1640.91,-335.37 1768.63,-322.26 1875.5,-300 1878.57,-299.36 1881.78,-298.57 1884.93,-297.72"/>
<polygon fill="midnightblue" stroke="midnightblue" points="1572.9,-337.8 1563.24,-342.14 1573.5,-344.77 1572.9,-337.8"/>
</g>
<!-- Node45 -->
<g id="node35" class="node">
<title>Node45</title>
<g id="a_node35"><a xlink:href="spec_2hash_8h.html" target="_top" xlink:title=" ">
<polygon fill="white" stroke="red" points="1946,-280.5 1946,-299.5 1995,-299.5 1995,-280.5 1946,-280.5"/>
<text text-anchor="middle" x="1970.5" y="-287.5" font-family="Helvetica,sans-Serif" font-size="10.00">hash.h</text>
</a>
</g>
</g>
<!-- Node2&#45;&gt;Node45 -->
<g id="edge42" class="edge">
<title>Node2&#45;&gt;Node45</title>
<path fill="none" stroke="midnightblue" d="M1573.51,-342.13C1650.07,-336.95 1806.23,-324.25 1936.5,-300 1939.5,-299.44 1942.63,-298.76 1945.71,-298.02"/>
<polygon fill="midnightblue" stroke="midnightblue" points="1572.99,-338.66 1563.24,-342.82 1573.45,-345.65 1572.99,-338.66"/>
</g>
<!-- Node47 -->
<g id="node36" class="node">
<title>Node47</title>
<g id="a_node36"><a xlink:href="spec_2init_8h.html" target="_top" xlink:title=" ">
<polygon fill="white" stroke="red" points="2013,-280.5 2013,-299.5 2054,-299.5 2054,-280.5 2013,-280.5"/>
<text text-anchor="middle" x="2033.5" y="-287.5" font-family="Helvetica,sans-Serif" font-size="10.00">init.h</text>
</a>
</g>
</g>
<!-- Node2&#45;&gt;Node47 -->
<g id="edge43" class="edge">
<title>Node2&#45;&gt;Node47</title>
<path fill="none" stroke="midnightblue" d="M1573.26,-343.65C1659.2,-340.48 1847.74,-330.4 2003.5,-300 2006.6,-299.4 2009.83,-298.6 2012.98,-297.74"/>
<polygon fill="midnightblue" stroke="midnightblue" points="1572.92,-340.16 1563.05,-344.01 1573.17,-347.15 1572.92,-340.16"/>
</g>
<!-- Node52 -->
<g id="node37" class="node">
<title>Node52</title>
<g id="a_node37"><a xlink:href="spec_2pool_8h.html" target="_top" xlink:title=" ">
<polygon fill="white" stroke="red" points="2122,-224.5 2122,-243.5 2169,-243.5 2169,-224.5 2122,-224.5"/>
<text text-anchor="middle" x="2145.5" y="-231.5" font-family="Helvetica,sans-Serif" font-size="10.00">pool.h</text>
</a>
</g>
</g>
<!-- Node2&#45;&gt;Node52 -->
<g id="edge46" class="edge">
<title>Node2&#45;&gt;Node52</title>
<path fill="none" stroke="midnightblue" d="M1573.65,-345.26C1713.67,-345.53 2119.8,-342.63 2159.5,-300 2173.98,-284.46 2160.41,-257.68 2151.63,-243.84"/>
<polygon fill="midnightblue" stroke="midnightblue" points="1573.27,-341.76 1563.26,-345.23 1573.25,-348.76 1573.27,-341.76"/>
</g>
<!-- Node55 -->
<g id="node38" class="node">
<title>Node55</title>
<g id="a_node38"><a xlink:href="pool__types_8h.html" target="_top" xlink:title=" ">
<polygon fill="white" stroke="black" points="2072,-280.5 2072,-299.5 2151,-299.5 2151,-280.5 2072,-280.5"/>
<text text-anchor="middle" x="2111.5" y="-287.5" font-family="Helvetica,sans-Serif" font-size="10.00">pool_types.h</text>
</a>
</g>
</g>
<!-- Node2&#45;&gt;Node55 -->
<g id="edge47" class="edge">
<title>Node2&#45;&gt;Node55</title>
<path fill="none" stroke="midnightblue" d="M1573.26,-342.62C1666.59,-337.52 1882.46,-324.03 2062.5,-300 2065.59,-299.59 2068.77,-299.11 2071.97,-298.6"/>
<polygon fill="midnightblue" stroke="midnightblue" points="1572.82,-339.14 1563.03,-343.17 1573.2,-346.13 1572.82,-339.14"/>
</g>
<!-- Node56 -->
<g id="node39" class="node">
<title>Node56</title>
<g id="a_node39"><a xlink:href="spec_2proto__stats__types_8h.html" target="_top" xlink:title=" ">
<polygon fill="white" stroke="red" points="2208,-280.5 2208,-299.5 2321,-299.5 2321,-280.5 2208,-280.5"/>
<text text-anchor="middle" x="2264.5" y="-287.5" font-family="Helvetica,sans-Serif" font-size="10.00">proto_stats_types.h</text>
</a>
</g>
</g>
<!-- Node2&#45;&gt;Node56 -->
<g id="edge49" class="edge">
<title>Node2&#45;&gt;Node56</title>
<path fill="none" stroke="midnightblue" d="M1573.39,-342.79C1682.39,-337.43 1961.24,-322.54 2193.5,-300 2198.2,-299.54 2203.07,-299.03 2207.95,-298.47"/>
<polygon fill="midnightblue" stroke="midnightblue" points="1572.89,-339.31 1563.07,-343.29 1573.23,-346.3 1572.89,-339.31"/>
</g>
<!-- Node62 -->
<g id="node40" class="node">
<title>Node62</title>
<g id="a_node40"><a xlink:href="spec_2random_8h.html" target="_top" xlink:title=" ">
<polygon fill="white" stroke="red" points="2339,-280.5 2339,-299.5 2402,-299.5 2402,-280.5 2339,-280.5"/>
<text text-anchor="middle" x="2370.5" y="-287.5" font-family="Helvetica,sans-Serif" font-size="10.00">random.h</text>
</a>
</g>
</g>
<!-- Node2&#45;&gt;Node62 -->
<g id="edge50" class="edge">
<title>Node2&#45;&gt;Node62</title>
<path fill="none" stroke="midnightblue" d="M1573.46,-345.08C1697.67,-344.69 2044.94,-339.84 2330.5,-300 2333.18,-299.63 2335.94,-299.17 2338.71,-298.65"/>
<polygon fill="midnightblue" stroke="midnightblue" points="1573.16,-341.58 1563.17,-345.1 1573.18,-348.58 1573.16,-341.58"/>
</g>
<!-- Node35 -->
<g id="node41" class="node">
<title>Node35</title>
<g id="a_node41"><a xlink:href="spec_2schedule_8h.html" target="_top" xlink:title=" ">
<polygon fill="white" stroke="red" points="2420,-280.5 2420,-299.5 2489,-299.5 2489,-280.5 2420,-280.5"/>
<text text-anchor="middle" x="2454.5" y="-287.5" font-family="Helvetica,sans-Serif" font-size="10.00">schedule.h</text>
</a>
</g>
</g>
<!-- Node2&#45;&gt;Node35 -->
<g id="edge51" class="edge">
<title>Node2&#45;&gt;Node35</title>
<path fill="none" stroke="midnightblue" d="M1573.55,-345.17C1706.02,-345.12 2093.23,-341.15 2411.5,-300 2414.22,-299.65 2417.03,-299.22 2419.85,-298.74"/>
<polygon fill="midnightblue" stroke="midnightblue" points="1573.36,-341.67 1563.35,-345.17 1573.35,-348.67 1573.36,-341.67"/>
</g>
<!-- Node64 -->
<g id="node42" class="node">
<title>Node64</title>
<g id="a_node42"><a xlink:href="spec_2schedule__types_8h.html" target="_top" xlink:title=" ">
<polygon fill="white" stroke="red" points="2507,-280.5 2507,-299.5 2608,-299.5 2608,-280.5 2507,-280.5"/>
<text text-anchor="middle" x="2557.5" y="-287.5" font-family="Helvetica,sans-Serif" font-size="10.00">schedule_types.h</text>
</a>
</g>
</g>
<!-- Node2&#45;&gt;Node64 -->
<g id="edge52" class="edge">
<title>Node2&#45;&gt;Node64</title>
<path fill="none" stroke="midnightblue" d="M1573.64,-344.57C1714.47,-342.92 2144.2,-335.13 2498.5,-300 2501.18,-299.73 2503.93,-299.43 2506.69,-299.1"/>
<polygon fill="midnightblue" stroke="midnightblue" points="1573.19,-341.08 1563.23,-344.69 1573.27,-348.08 1573.19,-341.08"/>
</g>
<!-- Node70 -->
<g id="node43" class="node">
<title>Node70</title>
<g id="a_node43"><a xlink:href="spec_2stash_8h.html" target="_top" xlink:title=" ">
<polygon fill="white" stroke="red" points="2626.5,-280.5 2626.5,-299.5 2678.5,-299.5 2678.5,-280.5 2626.5,-280.5"/>
<text text-anchor="middle" x="2652.5" y="-287.5" font-family="Helvetica,sans-Serif" font-size="10.00">stash.h</text>
</a>
</g>
</g>
<!-- Node2&#45;&gt;Node70 -->
<g id="edge53" class="edge">
<title>Node2&#45;&gt;Node70</title>
<path fill="none" stroke="midnightblue" d="M1573.27,-344.38C1754.6,-341.78 2411.34,-330.41 2617.5,-300 2620.36,-299.58 2623.31,-299.02 2626.25,-298.38"/>
<polygon fill="midnightblue" stroke="midnightblue" points="1573.2,-340.88 1563.26,-344.52 1573.3,-347.88 1573.2,-340.88"/>
</g>
<!-- Node72 -->
<g id="node44" class="node">
<title>Node72</title>
<g id="a_node44"><a xlink:href="spec_2std_8h.html" target="_top" xlink:title=" ">
<polygon fill="white" stroke="red" points="2697,-280.5 2697,-299.5 2738,-299.5 2738,-280.5 2697,-280.5"/>
<text text-anchor="middle" x="2717.5" y="-287.5" font-family="Helvetica,sans-Serif" font-size="10.00">std.h</text>
</a>
</g>
</g>
<!-- Node2&#45;&gt;Node72 -->
<g id="edge54" class="edge">
<title>Node2&#45;&gt;Node72</title>
<path fill="none" stroke="midnightblue" d="M1573.16,-344.76C1761.69,-343.56 2467.57,-336.64 2687.5,-300 2690.5,-299.5 2693.63,-298.79 2696.68,-297.98"/>
<polygon fill="midnightblue" stroke="midnightblue" points="1573.01,-341.26 1563.03,-344.82 1573.05,-348.26 1573.01,-341.26"/>
</g>
<!-- Node74 -->
<g id="node45" class="node">
<title>Node74</title>
<g id="a_node45"><a xlink:href="spec_2threshold_8h.html" target="_top" xlink:title=" ">
<polygon fill="white" stroke="red" points="2756,-280.5 2756,-299.5 2827,-299.5 2827,-280.5 2756,-280.5"/>
<text text-anchor="middle" x="2791.5" y="-287.5" font-family="Helvetica,sans-Serif" font-size="10.00">threshold.h</text>
</a>
</g>
</g>
<!-- Node2&#45;&gt;Node74 -->
<g id="edge55" class="edge">
<title>Node2&#45;&gt;Node74</title>
<path fill="none" stroke="midnightblue" d="M1573.24,-344.31C1767.75,-341.27 2513.8,-328.01 2747.5,-300 2750.13,-299.68 2752.84,-299.29 2755.56,-298.85"/>
<polygon fill="midnightblue" stroke="midnightblue" points="1573.01,-340.81 1563.07,-344.47 1573.12,-347.81 1573.01,-340.81"/>
</g>
<!-- Node76 -->
<g id="node46" class="node">
<title>Node76</title>
<g id="a_node46"><a xlink:href="spec_2thrmask_8h.html" target="_top" xlink:title=" ">
<polygon fill="white" stroke="red" points="2845.5,-280.5 2845.5,-299.5 2911.5,-299.5 2911.5,-280.5 2845.5,-280.5"/>
<text text-anchor="middle" x="2878.5" y="-287.5" font-family="Helvetica,sans-Serif" font-size="10.00">thrmask.h</text>
</a>
</g>
</g>
<!-- Node2&#45;&gt;Node76 -->
<g id="edge56" class="edge">
<title>Node2&#45;&gt;Node76</title>
<path fill="none" stroke="midnightblue" d="M1573.31,-344.5C1776.67,-342.17 2584.54,-331.08 2836.5,-300 2839.31,-299.65 2842.22,-299.21 2845.12,-298.71"/>
<polygon fill="midnightblue" stroke="midnightblue" points="1573.21,-341 1563.25,-344.62 1573.29,-348 1573.21,-341"/>
</g>
<!-- Node78 -->
<g id="node47" class="node">
<title>Node78</title>
<g id="a_node47"><a xlink:href="system__info_8h.html" target="_top" xlink:title=" ">
<polygon fill="white" stroke="black" points="2929.5,-280.5 2929.5,-299.5 3015.5,-299.5 3015.5,-280.5 2929.5,-280.5"/>
<text text-anchor="middle" x="2972.5" y="-287.5" font-family="Helvetica,sans-Serif" font-size="10.00">system_info.h</text>
</a>
</g>
</g>
<!-- Node2&#45;&gt;Node78 -->
<g id="edge58" class="edge">
<title>Node2&#45;&gt;Node78</title>
<path fill="none" stroke="midnightblue" d="M1573.14,-344.37C1784.11,-341.37 2650.45,-327.59 2920.5,-300 2923.42,-299.7 2926.42,-299.34 2929.43,-298.93"/>
<polygon fill="midnightblue" stroke="midnightblue" points="1572.98,-340.87 1563.03,-344.51 1573.07,-347.87 1572.98,-340.87"/>
</g>
<!-- Node79 -->
<g id="node48" class="node">
<title>Node79</title>
<g id="a_node48"><a xlink:href="time_8h.html" target="_top" xlink:title=" ">
<polygon fill="white" stroke="red" points="1298.5,-280.5 1298.5,-299.5 1346.5,-299.5 1346.5,-280.5 1298.5,-280.5"/>
<text text-anchor="middle" x="1322.5" y="-287.5" font-family="Helvetica,sans-Serif" font-size="10.00">time.h</text>
</a>
</g>
</g>
<!-- Node2&#45;&gt;Node79 -->
<g id="edge59" class="edge">
<title>Node2&#45;&gt;Node79</title>
<path fill="none" stroke="midnightblue" d="M1484.33,-333.84C1442.73,-322.83 1380.59,-306.38 1346.69,-297.4"/>
<polygon fill="midnightblue" stroke="midnightblue" points="1483.61,-337.27 1494.18,-336.44 1485.4,-330.5 1483.61,-337.27"/>
</g>
<!-- Node80 -->
<g id="node49" class="node">
<title>Node80</title>
<g id="a_node49"><a xlink:href="timer_8h.html" target="_top" xlink:title=" ">
<polygon fill="white" stroke="black" points="3034,-280.5 3034,-299.5 3085,-299.5 3085,-280.5 3034,-280.5"/>
<text text-anchor="middle" x="3059.5" y="-287.5" font-family="Helvetica,sans-Serif" font-size="10.00">timer.h</text>
</a>
</g>
</g>
<!-- Node2&#45;&gt;Node80 -->
<g id="edge61" class="edge">
<title>Node2&#45;&gt;Node80</title>
<path fill="none" stroke="midnightblue" d="M1573.41,-344.99C1794.56,-344.72 2734.29,-341.15 3024.5,-300 3027.48,-299.58 3030.58,-299 3033.64,-298.33"/>
<polygon fill="midnightblue" stroke="midnightblue" points="1573.13,-341.49 1563.13,-345 1573.14,-348.49 1573.13,-341.49"/>
</g>
<!-- Node81 -->
<g id="node50" class="node">
<title>Node81</title>
<g id="a_node50"><a xlink:href="strong__types_8h.html" target="_top" xlink:title=" ">
<polygon fill="white" stroke="black" points="3103,-280.5 3103,-299.5 3192,-299.5 3192,-280.5 3103,-280.5"/>
<text text-anchor="middle" x="3147.5" y="-287.5" font-family="Helvetica,sans-Serif" font-size="10.00">strong_types.h</text>
</a>
</g>
</g>
<!-- Node2&#45;&gt;Node81 -->
<g id="edge62" class="edge">
<title>Node2&#45;&gt;Node81</title>
<path fill="none" stroke="midnightblue" d="M1573.32,-344.54C1800.37,-342.16 2788.2,-330.25 3094.5,-300 3097.19,-299.73 3099.96,-299.41 3102.74,-299.05"/>
<polygon fill="midnightblue" stroke="midnightblue" points="1573.06,-341.04 1563.09,-344.64 1573.13,-348.04 1573.06,-341.04"/>
</g>
<!-- Node16&#45;&gt;Node17 -->
<g id="edge16" class="edge">
<title>Node16&#45;&gt;Node17</title>
<path fill="none" stroke="midnightblue" d="M1279.12,-47.57C1285.32,-38.27 1292.67,-27.25 1297.67,-19.75"/>
<polygon fill="midnightblue" stroke="midnightblue" points="1276.08,-45.82 1273.44,-56.08 1281.9,-49.7 1276.08,-45.82"/>
</g>
<!-- Node19&#45;&gt;Node17 -->
<g id="edge18" class="edge">
<title>Node19&#45;&gt;Node17</title>
<path fill="none" stroke="midnightblue" d="M1461.89,-158.68C1466.17,-145.01 1469.33,-126.3 1461.5,-112 1433.27,-60.46 1366.3,-31.39 1329.26,-18.72"/>
<polygon fill="midnightblue" stroke="midnightblue" points="1458.49,-157.79 1458.4,-168.39 1465.08,-160.16 1458.49,-157.79"/>
</g>
<!-- Node20&#45;&gt;Node21 -->
<g id="edge20" class="edge">
<title>Node20&#45;&gt;Node21</title>
<path fill="none" stroke="midnightblue" d="M1499.35,-276.5C1523.54,-266.38 1556.96,-252.39 1578.16,-243.52"/>
<polygon fill="midnightblue" stroke="midnightblue" points="1497.81,-273.35 1489.94,-280.44 1500.52,-279.81 1497.81,-273.35"/>
</g>
<!-- Node20&#45;&gt;Node23 -->
<g id="edge22" class="edge">
<title>Node20&#45;&gt;Node23</title>
<path fill="none" stroke="midnightblue" d="M1464.33,-270.4C1461.82,-261.36 1458.93,-250.94 1456.93,-243.75"/>
<polygon fill="midnightblue" stroke="midnightblue" points="1460.97,-271.38 1467.02,-280.08 1467.72,-269.51 1460.97,-271.38"/>
</g>
<!-- Node24 -->
<g id="node23" class="node">
<title>Node24</title>
<g id="a_node23"><a xlink:href="spec_2event_8h.html" target="_top" xlink:title=" ">
<polygon fill="white" stroke="red" points="1501,-224.5 1501,-243.5 1554,-243.5 1554,-224.5 1501,-224.5"/>
<text text-anchor="middle" x="1527.5" y="-231.5" font-family="Helvetica,sans-Serif" font-size="10.00">event.h</text>
</a>
</g>
</g>
<!-- Node20&#45;&gt;Node24 -->
<g id="edge24" class="edge">
<title>Node20&#45;&gt;Node24</title>
<path fill="none" stroke="midnightblue" d="M1486.41,-273.25C1496.7,-263.67 1509.47,-251.79 1518.01,-243.83"/>
<polygon fill="midnightblue" stroke="midnightblue" points="1483.75,-270.95 1478.82,-280.32 1488.52,-276.07 1483.75,-270.95"/>
</g>
<!-- Node20&#45;&gt;Node37 -->
<g id="edge25" class="edge">
<title>Node20&#45;&gt;Node37</title>
<path fill="none" stroke="midnightblue" d="M1508.64,-279.26C1549.49,-269.09 1612.94,-253.31 1651.98,-243.59"/>
<polygon fill="midnightblue" stroke="midnightblue" points="1507.62,-275.91 1498.77,-281.72 1509.31,-282.7 1507.62,-275.91"/>
</g>
<!-- Node30 -->
<g id="node25" class="node">
<title>Node30</title>
<g id="a_node25"><a xlink:href="spec_2packet__io_8h.html" target="_top" xlink:title=" ">
<polygon fill="white" stroke="black" points="1298.5,-224.5 1298.5,-243.5 1370.5,-243.5 1370.5,-224.5 1298.5,-224.5"/>
<text text-anchor="middle" x="1334.5" y="-231.5" font-family="Helvetica,sans-Serif" font-size="10.00">packet_io.h</text>
</a>
</g>
</g>
<!-- Node20&#45;&gt;Node30 -->
<g id="edge26" class="edge">
<title>Node20&#45;&gt;Node30</title>
<path fill="none" stroke="midnightblue" d="M1438.59,-276.64C1413.26,-266.5 1378.07,-252.43 1355.79,-243.52"/>
<polygon fill="midnightblue" stroke="midnightblue" points="1437.52,-279.98 1448.11,-280.44 1440.12,-273.48 1437.52,-279.98"/>
</g>
<!-- Node22 -->
<g id="node21" class="node">
<title>Node22</title>
<g id="a_node21"><a xlink:href="comp_8h.html" target="_top" xlink:title=" ">
<polygon fill="white" stroke="black" points="1572,-168.5 1572,-187.5 1625,-187.5 1625,-168.5 1572,-168.5"/>
<text text-anchor="middle" x="1598.5" y="-175.5" font-family="Helvetica,sans-Serif" font-size="10.00">comp.h</text>
</a>
</g>
</g>
<!-- Node21&#45;&gt;Node22 -->
<g id="edge21" class="edge">
<title>Node21&#45;&gt;Node22</title>
<path fill="none" stroke="midnightblue" d="M1598.5,-213.8C1598.5,-204.91 1598.5,-194.78 1598.5,-187.75"/>
<polygon fill="midnightblue" stroke="midnightblue" points="1595,-214.08 1598.5,-224.08 1602,-214.08 1595,-214.08"/>
</g>
<!-- Node23&#45;&gt;Node19 -->
<g id="edge23" class="edge">
<title>Node23&#45;&gt;Node19</title>
<path fill="none" stroke="midnightblue" d="M1454.5,-213.8C1454.5,-204.91 1454.5,-194.78 1454.5,-187.75"/>
<polygon fill="midnightblue" stroke="midnightblue" points="1451,-214.08 1454.5,-224.08 1458,-214.08 1451,-214.08"/>
</g>
<!-- Node30&#45;&gt;Node31 -->
<g id="edge27" class="edge">
<title>Node30&#45;&gt;Node31</title>
<path fill="none" stroke="midnightblue" d="M1334.5,-213.8C1334.5,-204.91 1334.5,-194.78 1334.5,-187.75"/>
<polygon fill="midnightblue" stroke="midnightblue" points="1331,-214.08 1334.5,-224.08 1338,-214.08 1331,-214.08"/>
</g>
<!-- Node31&#45;&gt;Node17 -->
<g id="edge30" class="edge">
<title>Node31&#45;&gt;Node17</title>
<path fill="none" stroke="midnightblue" d="M1333.76,-158.19C1332.48,-134.18 1329.12,-91.5 1320.5,-56 1317.35,-43.02 1311.49,-28.68 1307.55,-19.76"/>
<polygon fill="midnightblue" stroke="midnightblue" points="1330.27,-158.54 1334.23,-168.36 1337.26,-158.21 1330.27,-158.54"/>
</g>
<!-- Node31&#45;&gt;Node32 -->
<g id="edge28" class="edge">
<title>Node31&#45;&gt;Node32</title>
<path fill="none" stroke="midnightblue" d="M1315.67,-161.82C1303.66,-152.15 1288.53,-139.95 1278.46,-131.83"/>
<polygon fill="midnightblue" stroke="midnightblue" points="1313.75,-164.77 1323.74,-168.32 1318.15,-159.32 1313.75,-164.77"/>
</g>
<!-- Node31&#45;&gt;Node33 -->
<g id="edge31" class="edge">
<title>Node31&#45;&gt;Node33</title>
<path fill="none" stroke="midnightblue" d="M1355.08,-162.38C1368.81,-152.62 1386.43,-140.11 1398.07,-131.83"/>
<polygon fill="midnightblue" stroke="midnightblue" points="1352.84,-159.68 1346.71,-168.32 1356.89,-165.38 1352.84,-159.68"/>
</g>
<!-- Node32&#45;&gt;Node16 -->
<g id="edge29" class="edge">
<title>Node32&#45;&gt;Node16</title>
<path fill="none" stroke="midnightblue" d="M1267.5,-101.8C1267.5,-92.91 1267.5,-82.78 1267.5,-75.75"/>
<polygon fill="midnightblue" stroke="midnightblue" points="1264,-102.08 1267.5,-112.08 1271,-102.08 1264,-102.08"/>
</g>
<!-- Node28 -->
<g id="node31" class="node">
<title>Node28</title>
<g id="a_node31"><a xlink:href="spec_2packet__io__stats_8h.html" target="_top" xlink:title=" ">
<polygon fill="white" stroke="red" points="1786,-224.5 1786,-243.5 1887,-243.5 1887,-224.5 1786,-224.5"/>
<text text-anchor="middle" x="1836.5" y="-231.5" font-family="Helvetica,sans-Serif" font-size="10.00">packet_io_stats.h</text>
</a>
</g>
</g>
<!-- Node27&#45;&gt;Node28 -->
<g id="edge35" class="edge">
<title>Node27&#45;&gt;Node28</title>
<path fill="none" stroke="midnightblue" d="M1777.8,-274.62C1792.42,-264.76 1811.33,-251.99 1823.68,-243.65"/>
<polygon fill="midnightblue" stroke="midnightblue" points="1775.68,-271.83 1769.35,-280.32 1779.6,-277.63 1775.68,-271.83"/>
</g>
<!-- Node41 -->
<g id="node33" class="node">
<title>Node41</title>
<g id="a_node33"><a xlink:href="chksum_8h.html" target="_top" xlink:title=" ">
<polygon fill="white" stroke="black" points="1905.5,-224.5 1905.5,-243.5 1969.5,-243.5 1969.5,-224.5 1905.5,-224.5"/>
<text text-anchor="middle" x="1937.5" y="-231.5" font-family="Helvetica,sans-Serif" font-size="10.00">chksum.h</text>
</a>
</g>
</g>
<!-- Node40&#45;&gt;Node41 -->
<g id="edge37" class="edge">
<title>Node40&#45;&gt;Node41</title>
<path fill="none" stroke="midnightblue" d="M1860.08,-275.59C1879.12,-265.61 1904.56,-252.27 1920.99,-243.65"/>
<polygon fill="midnightblue" stroke="midnightblue" points="1858.28,-272.58 1851.05,-280.32 1861.53,-278.78 1858.28,-272.58"/>
</g>
<!-- Node55&#45;&gt;Node52 -->
<g id="edge48" class="edge">
<title>Node55&#45;&gt;Node52</title>
<path fill="none" stroke="midnightblue" d="M2122.48,-271.57C2128.33,-262.27 2135.27,-251.25 2139.99,-243.75"/>
<polygon fill="midnightblue" stroke="midnightblue" points="2119.48,-269.76 2117.11,-280.08 2125.4,-273.49 2119.48,-269.76"/>
</g>
<!-- Node79&#45;&gt;Node30 -->
<g id="edge60" class="edge">
<title>Node79&#45;&gt;Node30</title>
<path fill="none" stroke="midnightblue" d="M1326.7,-270.1C1328.69,-261.14 1330.98,-250.86 1332.56,-243.75"/>
<polygon fill="midnightblue" stroke="midnightblue" points="1323.23,-269.56 1324.48,-280.08 1330.07,-271.08 1323.23,-269.56"/>
</g>
</g>
</svg>
