<?xml version="1.0" encoding="UTF-8" standalone="no"?>
<!DOCTYPE svg PUBLIC "-//W3C//DTD SVG 1.1//EN"
 "http://www.w3.org/Graphics/SVG/1.1/DTD/svg11.dtd">
<!-- Generated by graphviz version 2.43.0 (0)
 -->
<!-- Title: align.h Pages: 1 -->
<svg width="3201pt" height="532pt"
 viewBox="0.00 0.00 3200.50 532.00" xmlns="http://www.w3.org/2000/svg" xmlns:xlink="http://www.w3.org/1999/xlink">
<g id="graph0" class="graph" transform="scale(1 1) rotate(0) translate(4 528)">
<title>align.h</title>
<polygon fill="white" stroke="transparent" points="-4,4 -4,-528 3196.5,-528 3196.5,4 -4,4"/>
<!-- Node1 -->
<g id="node1" class="node">
<title>Node1</title>
<g id="a_node1"><a xlink:title=" ">
<polygon fill="#bfbfbf" stroke="black" points="119.5,-504.5 119.5,-523.5 169.5,-523.5 169.5,-504.5 119.5,-504.5"/>
<text text-anchor="middle" x="144.5" y="-511.5" font-family="Helvetica,sans-Serif" font-size="10.00">align.h</text>
</a>
</g>
</g>
<!-- Node2 -->
<g id="node2" class="node">
<title>Node2</title>
<g id="a_node2"><a xlink:href="align_8h.html" target="_top" xlink:title=" ">
<polygon fill="white" stroke="black" points="119.5,-448.5 119.5,-467.5 169.5,-467.5 169.5,-448.5 119.5,-448.5"/>
<text text-anchor="middle" x="144.5" y="-455.5" font-family="Helvetica,sans-Serif" font-size="10.00">align.h</text>
</a>
</g>
</g>
<!-- Node1&#45;&gt;Node2 -->
<g id="edge1" class="edge">
<title>Node1&#45;&gt;Node2</title>
<path fill="none" stroke="midnightblue" d="M144.5,-493.8C144.5,-484.91 144.5,-474.78 144.5,-467.75"/>
<polygon fill="midnightblue" stroke="midnightblue" points="141,-494.08 144.5,-504.08 148,-494.08 141,-494.08"/>
</g>
<!-- Node3 -->
<g id="node3" class="node">
<title>Node3</title>
<g id="a_node3"><a xlink:href="abi-default_2atomic_8h.html" target="_top" xlink:title=" ">
<polygon fill="white" stroke="black" points="0,-280.5 0,-299.5 59,-299.5 59,-280.5 0,-280.5"/>
<text text-anchor="middle" x="29.5" y="-287.5" font-family="Helvetica,sans-Serif" font-size="10.00">atomic.h</text>
</a>
</g>
</g>
<!-- Node2&#45;&gt;Node3 -->
<g id="edge2" class="edge">
<title>Node2&#45;&gt;Node3</title>
<path fill="none" stroke="midnightblue" d="M132.56,-439.76C108.19,-404.59 53.52,-325.68 35.44,-299.57"/>
<polygon fill="midnightblue" stroke="midnightblue" points="129.75,-441.85 138.32,-448.08 135.5,-437.86 129.75,-441.85"/>
</g>
<!-- Node4 -->
<g id="node4" class="node">
<title>Node4</title>
<g id="a_node4"><a xlink:href="abi-default_2cpumask_8h.html" target="_top" xlink:title=" ">
<polygon fill="white" stroke="black" points="77.5,-280.5 77.5,-299.5 147.5,-299.5 147.5,-280.5 77.5,-280.5"/>
<text text-anchor="middle" x="112.5" y="-287.5" font-family="Helvetica,sans-Serif" font-size="10.00">cpumask.h</text>
</a>
</g>
</g>
<!-- Node2&#45;&gt;Node4 -->
<g id="edge3" class="edge">
<title>Node2&#45;&gt;Node4</title>
<path fill="none" stroke="midnightblue" d="M138.7,-438.88C136.24,-430.73 133.49,-420.94 131.5,-412 122.24,-370.27 115.81,-319.48 113.47,-299.58"/>
<polygon fill="midnightblue" stroke="midnightblue" points="135.37,-439.95 141.68,-448.46 142.05,-437.87 135.37,-439.95"/>
</g>
<!-- Node5 -->
<g id="node5" class="node">
<title>Node5</title>
<g id="a_node5"><a xlink:href="spec_2std__types_8h.html" target="_top" xlink:title=" ">
<polygon fill="white" stroke="black" points="141,-392.5 141,-411.5 214,-411.5 214,-392.5 141,-392.5"/>
<text text-anchor="middle" x="177.5" y="-399.5" font-family="Helvetica,sans-Serif" font-size="10.00">std_types.h</text>
</a>
</g>
</g>
<!-- Node2&#45;&gt;Node5 -->
<g id="edge4" class="edge">
<title>Node2&#45;&gt;Node5</title>
<path fill="none" stroke="midnightblue" d="M155.33,-439.27C160.97,-430.05 167.62,-419.17 172.15,-411.75"/>
<polygon fill="midnightblue" stroke="midnightblue" points="152.18,-437.73 149.95,-448.08 158.15,-441.38 152.18,-437.73"/>
</g>
<!-- Node84 -->
<g id="node50" class="node">
<title>Node84</title>
<g id="a_node50"><a xlink:href="time__inlines_8h_source.html" target="_top" xlink:title=" ">
<polygon fill="white" stroke="black" points="232.5,-392.5 232.5,-411.5 318.5,-411.5 318.5,-392.5 232.5,-392.5"/>
<text text-anchor="middle" x="275.5" y="-399.5" font-family="Helvetica,sans-Serif" font-size="10.00">time_inlines.h</text>
</a>
</g>
</g>
<!-- Node2&#45;&gt;Node84 -->
<g id="edge64" class="edge">
<title>Node2&#45;&gt;Node84</title>
<path fill="none" stroke="midnightblue" d="M174.82,-444.5C199.38,-434.38 233.32,-420.39 254.84,-411.52"/>
<polygon fill="midnightblue" stroke="midnightblue" points="173.17,-441.4 165.26,-448.44 175.84,-447.87 173.17,-441.4"/>
</g>
<!-- Node6 -->
<g id="node6" class="node">
<title>Node6</title>
<g id="a_node6"><a xlink:href="std__types_8h.html" target="_top" xlink:title=" ">
<polygon fill="white" stroke="black" points="1354,-336.5 1354,-355.5 1427,-355.5 1427,-336.5 1354,-336.5"/>
<text text-anchor="middle" x="1390.5" y="-343.5" font-family="Helvetica,sans-Serif" font-size="10.00">std_types.h</text>
</a>
</g>
</g>
<!-- Node5&#45;&gt;Node6 -->
<g id="edge5" class="edge">
<title>Node5&#45;&gt;Node6</title>
<path fill="none" stroke="midnightblue" d="M224.04,-392.18C470.21,-365.2 1183.83,-350.78 1353.85,-347.65"/>
<polygon fill="midnightblue" stroke="midnightblue" points="223.62,-388.71 214.08,-393.31 224.41,-395.67 223.62,-388.71"/>
</g>
<!-- Node6&#45;&gt;Node3 -->
<g id="edge6" class="edge">
<title>Node6&#45;&gt;Node3</title>
<path fill="none" stroke="midnightblue" d="M1343.59,-344.62C1138.87,-342.75 322.66,-333.33 68.5,-300 65.47,-299.6 62.33,-299.08 59.2,-298.48"/>
<polygon fill="midnightblue" stroke="midnightblue" points="1343.68,-348.12 1353.71,-344.71 1343.74,-341.12 1343.68,-348.12"/>
</g>
<!-- Node6&#45;&gt;Node4 -->
<g id="edge9" class="edge">
<title>Node6&#45;&gt;Node4</title>
<path fill="none" stroke="midnightblue" d="M1343.59,-344.33C1147.52,-341.36 392.82,-328.28 156.5,-300 153.71,-299.67 150.84,-299.25 147.96,-298.78"/>
<polygon fill="midnightblue" stroke="midnightblue" points="1343.79,-347.83 1353.84,-344.48 1343.89,-340.83 1343.79,-347.83"/>
</g>
<!-- Node7 -->
<g id="node7" class="node">
<title>Node7</title>
<g id="a_node7"><a xlink:href="abi-default_2barrier_8h.html" target="_top" xlink:title=" ">
<polygon fill="white" stroke="black" points="2700,-280.5 2700,-299.5 2757,-299.5 2757,-280.5 2700,-280.5"/>
<text text-anchor="middle" x="2728.5" y="-287.5" font-family="Helvetica,sans-Serif" font-size="10.00">barrier.h</text>
</a>
</g>
</g>
<!-- Node6&#45;&gt;Node7 -->
<g id="edge7" class="edge">
<title>Node6&#45;&gt;Node7</title>
<path fill="none" stroke="midnightblue" d="M1437.31,-344.66C1639.86,-342.99 2441.84,-334.31 2691.5,-300 2694.25,-299.62 2697.09,-299.13 2699.93,-298.56"/>
<polygon fill="midnightblue" stroke="midnightblue" points="1436.99,-341.16 1427.02,-344.74 1437.05,-348.16 1436.99,-341.16"/>
</g>
<!-- Node8 -->
<g id="node8" class="node">
<title>Node8</title>
<g id="a_node8"><a xlink:href="abi-default_2byteorder_8h.html" target="_top" xlink:title=" ">
<polygon fill="white" stroke="black" points="2775.5,-280.5 2775.5,-299.5 2847.5,-299.5 2847.5,-280.5 2775.5,-280.5"/>
<text text-anchor="middle" x="2811.5" y="-287.5" font-family="Helvetica,sans-Serif" font-size="10.00">byteorder.h</text>
</a>
</g>
</g>
<!-- Node6&#45;&gt;Node8 -->
<g id="edge8" class="edge">
<title>Node6&#45;&gt;Node8</title>
<path fill="none" stroke="midnightblue" d="M1437.25,-344.51C1646.75,-342.13 2500.61,-330.72 2766.5,-300 2769.35,-299.67 2772.29,-299.26 2775.23,-298.79"/>
<polygon fill="midnightblue" stroke="midnightblue" points="1437.15,-341.01 1427.19,-344.62 1437.23,-348.01 1437.15,-341.01"/>
</g>
<!-- Node9 -->
<g id="node9" class="node">
<title>Node9</title>
<g id="a_node9"><a xlink:href="abi-default_2init_8h.html" target="_top" xlink:title=" ">
<polygon fill="white" stroke="black" points="2866,-280.5 2866,-299.5 2907,-299.5 2907,-280.5 2866,-280.5"/>
<text text-anchor="middle" x="2886.5" y="-287.5" font-family="Helvetica,sans-Serif" font-size="10.00">init.h</text>
</a>
</g>
</g>
<!-- Node6&#45;&gt;Node9 -->
<g id="edge10" class="edge">
<title>Node6&#45;&gt;Node9</title>
<path fill="none" stroke="midnightblue" d="M1437.16,-345.2C1655.05,-345.89 2573.66,-345.95 2856.5,-300 2859.51,-299.51 2862.63,-298.81 2865.68,-298"/>
<polygon fill="midnightblue" stroke="midnightblue" points="1437.04,-341.7 1427.02,-345.17 1437.01,-348.7 1437.04,-341.7"/>
</g>
<!-- Node10 -->
<g id="node10" class="node">
<title>Node10</title>
<g id="a_node10"><a xlink:href="abi-default_2ipsec_8h.html" target="_top" xlink:title=" ">
<polygon fill="white" stroke="black" points="2925,-280.5 2925,-299.5 2976,-299.5 2976,-280.5 2925,-280.5"/>
<text text-anchor="middle" x="2950.5" y="-287.5" font-family="Helvetica,sans-Serif" font-size="10.00">ipsec.h</text>
</a>
</g>
</g>
<!-- Node6&#45;&gt;Node10 -->
<g id="edge11" class="edge">
<title>Node6&#45;&gt;Node10</title>
<path fill="none" stroke="midnightblue" d="M1437.23,-345.06C1660.56,-345.15 2620.54,-342.95 2916.5,-300 2919.16,-299.61 2921.91,-299.1 2924.64,-298.5"/>
<polygon fill="midnightblue" stroke="midnightblue" points="1437.16,-341.56 1427.16,-345.06 1437.15,-348.56 1437.16,-341.56"/>
</g>
<!-- Node11 -->
<g id="node11" class="node">
<title>Node11</title>
<g id="a_node11"><a xlink:href="abi-default_2packet__io_8h.html" target="_top" xlink:title=" ">
<polygon fill="white" stroke="black" points="2994.5,-280.5 2994.5,-299.5 3066.5,-299.5 3066.5,-280.5 2994.5,-280.5"/>
<text text-anchor="middle" x="3030.5" y="-287.5" font-family="Helvetica,sans-Serif" font-size="10.00">packet_io.h</text>
</a>
</g>
</g>
<!-- Node6&#45;&gt;Node11 -->
<g id="edge12" class="edge">
<title>Node6&#45;&gt;Node11</title>
<path fill="none" stroke="midnightblue" d="M1437.4,-344.75C1667,-343.35 2674.07,-335.28 2985.5,-300 2988.35,-299.68 2991.29,-299.27 2994.23,-298.8"/>
<polygon fill="midnightblue" stroke="midnightblue" points="1437.04,-341.25 1427.06,-344.81 1437.08,-348.25 1437.04,-341.25"/>
</g>
<!-- Node12 -->
<g id="node12" class="node">
<title>Node12</title>
<g id="a_node12"><a xlink:href="abi-default_2rwlock__recursive_8h.html" target="_top" xlink:title=" ">
<polygon fill="white" stroke="black" points="3084.5,-280.5 3084.5,-299.5 3192.5,-299.5 3192.5,-280.5 3084.5,-280.5"/>
<text text-anchor="middle" x="3138.5" y="-287.5" font-family="Helvetica,sans-Serif" font-size="10.00">rwlock_recursive.h</text>
</a>
</g>
</g>
<!-- Node6&#45;&gt;Node12 -->
<g id="edge13" class="edge">
<title>Node6&#45;&gt;Node12</title>
<path fill="none" stroke="midnightblue" d="M1437.34,-344.48C1674.49,-341.73 2744.35,-327.98 3075.5,-300 3078.36,-299.76 3081.29,-299.47 3084.25,-299.15"/>
<polygon fill="midnightblue" stroke="midnightblue" points="1437.28,-340.98 1427.32,-344.59 1437.36,-347.98 1437.28,-340.98"/>
</g>
<!-- Node13 -->
<g id="node13" class="node">
<title>Node13</title>
<g id="a_node13"><a xlink:href="abi-default_2schedule_8h.html" target="_top" xlink:title=" ">
<polygon fill="white" stroke="black" points="166,-280.5 166,-299.5 235,-299.5 235,-280.5 166,-280.5"/>
<text text-anchor="middle" x="200.5" y="-287.5" font-family="Helvetica,sans-Serif" font-size="10.00">schedule.h</text>
</a>
</g>
</g>
<!-- Node6&#45;&gt;Node13 -->
<g id="edge14" class="edge">
<title>Node6&#45;&gt;Node13</title>
<path fill="none" stroke="midnightblue" d="M1343.9,-344.18C1157.19,-340.75 462.75,-326.43 244.5,-300 241.4,-299.63 238.2,-299.15 235,-298.61"/>
<polygon fill="midnightblue" stroke="midnightblue" points="1343.88,-347.68 1353.94,-344.36 1344,-340.68 1343.88,-347.68"/>
</g>
<!-- Node14 -->
<g id="node14" class="node">
<title>Node14</title>
<g id="a_node14"><a xlink:href="abi-default_2spinlock__recursive_8h.html" target="_top" xlink:title=" ">
<polygon fill="white" stroke="black" points="253.5,-280.5 253.5,-299.5 369.5,-299.5 369.5,-280.5 253.5,-280.5"/>
<text text-anchor="middle" x="311.5" y="-287.5" font-family="Helvetica,sans-Serif" font-size="10.00">spinlock_recursive.h</text>
</a>
</g>
</g>
<!-- Node6&#45;&gt;Node14 -->
<g id="edge15" class="edge">
<title>Node6&#45;&gt;Node14</title>
<path fill="none" stroke="midnightblue" d="M1343.39,-344.4C1198.91,-342.22 749.34,-333.09 378.5,-300 375.58,-299.74 372.59,-299.44 369.57,-299.12"/>
<polygon fill="midnightblue" stroke="midnightblue" points="1343.61,-347.9 1353.66,-344.55 1343.71,-340.9 1343.61,-347.9"/>
</g>
<!-- Node15 -->
<g id="node15" class="node">
<title>Node15</title>
<g id="a_node15"><a xlink:href="abi-default_2traffic__mngr_8h.html" target="_top" xlink:title=" ">
<polygon fill="white" stroke="black" points="387.5,-280.5 387.5,-299.5 471.5,-299.5 471.5,-280.5 387.5,-280.5"/>
<text text-anchor="middle" x="429.5" y="-287.5" font-family="Helvetica,sans-Serif" font-size="10.00">traffic_mngr.h</text>
</a>
</g>
</g>
<!-- Node6&#45;&gt;Node15 -->
<g id="edge16" class="edge">
<title>Node6&#45;&gt;Node15</title>
<path fill="none" stroke="midnightblue" d="M1343.6,-344.75C1208.92,-343.59 809.54,-337.02 480.5,-300 477.64,-299.68 474.7,-299.3 471.74,-298.87"/>
<polygon fill="midnightblue" stroke="midnightblue" points="1343.93,-348.25 1353.96,-344.83 1343.99,-341.25 1343.93,-348.25"/>
</g>
<!-- Node16 -->
<g id="node16" class="node">
<title>Node16</title>
<g id="a_node16"><a xlink:href="barrier_8h.html" target="_top" xlink:title=" ">
<polygon fill="white" stroke="black" points="490,-280.5 490,-299.5 547,-299.5 547,-280.5 490,-280.5"/>
<text text-anchor="middle" x="518.5" y="-287.5" font-family="Helvetica,sans-Serif" font-size="10.00">barrier.h</text>
</a>
</g>
</g>
<!-- Node6&#45;&gt;Node16 -->
<g id="edge17" class="edge">
<title>Node6&#45;&gt;Node16</title>
<path fill="none" stroke="midnightblue" d="M1343.44,-345.5C1215.87,-346.19 853.06,-343.82 555.5,-300 552.75,-299.6 549.91,-299.08 547.08,-298.5"/>
<polygon fill="midnightblue" stroke="midnightblue" points="1343.66,-348.99 1353.63,-345.43 1343.61,-341.99 1343.66,-348.99"/>
</g>
<!-- Node17 -->
<g id="node17" class="node">
<title>Node17</title>
<g id="a_node17"><a xlink:href="buffer_8h.html" target="_top" xlink:title=" ">
<polygon fill="white" stroke="black" points="565,-280.5 565,-299.5 618,-299.5 618,-280.5 565,-280.5"/>
<text text-anchor="middle" x="591.5" y="-287.5" font-family="Helvetica,sans-Serif" font-size="10.00">buffer.h</text>
</a>
</g>
</g>
<!-- Node6&#45;&gt;Node17 -->
<g id="edge18" class="edge">
<title>Node6&#45;&gt;Node17</title>
<path fill="none" stroke="midnightblue" d="M1343.37,-344.76C1223.88,-343.61 899.64,-337.02 632.5,-300 627.88,-299.36 623.01,-298.48 618.3,-297.51"/>
<polygon fill="midnightblue" stroke="midnightblue" points="1343.59,-348.27 1353.62,-344.85 1343.65,-341.27 1343.59,-348.27"/>
</g>
<!-- Node18 -->
<g id="node18" class="node">
<title>Node18</title>
<g id="a_node18"><a xlink:href="classification_8h.html" target="_top" xlink:title=" ">
<polygon fill="white" stroke="black" points="713,-56.5 713,-75.5 802,-75.5 802,-56.5 713,-56.5"/>
<text text-anchor="middle" x="757.5" y="-63.5" font-family="Helvetica,sans-Serif" font-size="10.00">classification.h</text>
</a>
</g>
</g>
<!-- Node6&#45;&gt;Node18 -->
<g id="edge19" class="edge">
<title>Node6&#45;&gt;Node18</title>
<path fill="none" stroke="midnightblue" d="M1343.75,-345.01C1218.08,-344.51 875.38,-339.46 770.5,-300 725.66,-283.13 684.5,-282.91 684.5,-235 684.5,-235 684.5,-235 684.5,-177 684.5,-146.9 687,-137.17 703.5,-112 713.67,-96.49 730.8,-83.53 743.04,-75.56"/>
<polygon fill="midnightblue" stroke="midnightblue" points="1343.81,-348.51 1353.83,-345.05 1343.84,-341.51 1343.81,-348.51"/>
</g>
<!-- Node19 -->
<g id="node19" class="node">
<title>Node19</title>
<g id="a_node19"><a xlink:href="spec_2ipsec_8h.html" target="_top" xlink:title=" ">
<polygon fill="white" stroke="red" points="768,-0.5 768,-19.5 819,-19.5 819,-0.5 768,-0.5"/>
<text text-anchor="middle" x="793.5" y="-7.5" font-family="Helvetica,sans-Serif" font-size="10.00">ipsec.h</text>
</a>
</g>
</g>
<!-- Node6&#45;&gt;Node19 -->
<g id="edge45" class="edge">
<title>Node6&#45;&gt;Node19</title>
<path fill="none" stroke="midnightblue" d="M1343.51,-343.84C1198.86,-340.01 766.67,-326.46 709.5,-300 672.99,-283.1 646.5,-275.23 646.5,-235 646.5,-235 646.5,-235 646.5,-121 646.5,-61.07 725.78,-29.84 767.89,-17.48"/>
<polygon fill="midnightblue" stroke="midnightblue" points="1343.73,-347.35 1353.81,-344.11 1343.91,-340.35 1343.73,-347.35"/>
</g>
<!-- Node21 -->
<g id="node20" class="node">
<title>Node21</title>
<g id="a_node20"><a xlink:href="crypto_8h.html" target="_top" xlink:title=" ">
<polygon fill="white" stroke="black" points="802.5,-168.5 802.5,-187.5 858.5,-187.5 858.5,-168.5 802.5,-168.5"/>
<text text-anchor="middle" x="830.5" y="-175.5" font-family="Helvetica,sans-Serif" font-size="10.00">crypto.h</text>
</a>
</g>
</g>
<!-- Node6&#45;&gt;Node21 -->
<g id="edge21" class="edge">
<title>Node6&#45;&gt;Node21</title>
<path fill="none" stroke="midnightblue" d="M1343.61,-343.3C1216.7,-338.4 872.97,-323.15 827.5,-300 791.9,-281.87 763.07,-260.41 779.5,-224 786.69,-208.07 802.61,-195.52 814.77,-187.76"/>
<polygon fill="midnightblue" stroke="midnightblue" points="1343.66,-346.8 1353.79,-343.69 1343.93,-339.81 1343.66,-346.8"/>
</g>
<!-- Node22 -->
<g id="node21" class="node">
<title>Node22</title>
<g id="a_node21"><a xlink:href="packet_8h.html" target="_top" xlink:title=" ">
<polygon fill="white" stroke="black" points="864.5,-280.5 864.5,-299.5 922.5,-299.5 922.5,-280.5 864.5,-280.5"/>
<text text-anchor="middle" x="893.5" y="-287.5" font-family="Helvetica,sans-Serif" font-size="10.00">packet.h</text>
</a>
</g>
</g>
<!-- Node6&#45;&gt;Node22 -->
<g id="edge23" class="edge">
<title>Node6&#45;&gt;Node22</title>
<path fill="none" stroke="midnightblue" d="M1343.78,-342.03C1261.25,-336.42 1084.4,-322.74 936.5,-300 931.98,-299.3 927.21,-298.44 922.57,-297.53"/>
<polygon fill="midnightblue" stroke="midnightblue" points="1343.63,-345.53 1353.85,-342.71 1344.1,-338.55 1343.63,-345.53"/>
</g>
<!-- Node23 -->
<g id="node22" class="node">
<title>Node23</title>
<g id="a_node22"><a xlink:href="spec_2comp_8h.html" target="_top" xlink:title=" ">
<polygon fill="white" stroke="red" points="789,-224.5 789,-243.5 842,-243.5 842,-224.5 789,-224.5"/>
<text text-anchor="middle" x="815.5" y="-231.5" font-family="Helvetica,sans-Serif" font-size="10.00">comp.h</text>
</a>
</g>
</g>
<!-- Node6&#45;&gt;Node23 -->
<g id="edge40" class="edge">
<title>Node6&#45;&gt;Node23</title>
<path fill="none" stroke="midnightblue" d="M1343.26,-343.73C1218.69,-340 888,-327.59 847.5,-300 827.96,-286.69 819.86,-257.87 816.94,-243.5"/>
<polygon fill="midnightblue" stroke="midnightblue" points="1343.52,-347.23 1353.62,-344.03 1343.72,-340.24 1343.52,-347.23"/>
</g>
<!-- Node25 -->
<g id="node23" class="node">
<title>Node25</title>
<g id="a_node23"><a xlink:href="spec_2crypto_8h.html" target="_top" xlink:title=" ">
<polygon fill="white" stroke="black" points="1036.5,-224.5 1036.5,-243.5 1092.5,-243.5 1092.5,-224.5 1036.5,-224.5"/>
<text text-anchor="middle" x="1064.5" y="-231.5" font-family="Helvetica,sans-Serif" font-size="10.00">crypto.h</text>
</a>
</g>
</g>
<!-- Node6&#45;&gt;Node25 -->
<g id="edge42" class="edge">
<title>Node6&#45;&gt;Node25</title>
<path fill="none" stroke="midnightblue" d="M1343.74,-343.46C1239.28,-339.53 994.17,-327.45 969.5,-300 945.79,-273.62 1000.63,-252.57 1036.49,-242.15"/>
<polygon fill="midnightblue" stroke="midnightblue" points="1343.87,-346.96 1353.99,-343.83 1344.13,-339.97 1343.87,-346.96"/>
</g>
<!-- Node39 -->
<g id="node25" class="node">
<title>Node39</title>
<g id="a_node25"><a xlink:href="spec_2packet__flags_8h.html" target="_top" xlink:title=" ">
<polygon fill="white" stroke="red" points="860.5,-224.5 860.5,-243.5 946.5,-243.5 946.5,-224.5 860.5,-224.5"/>
<text text-anchor="middle" x="903.5" y="-231.5" font-family="Helvetica,sans-Serif" font-size="10.00">packet_flags.h</text>
</a>
</g>
</g>
<!-- Node6&#45;&gt;Node39 -->
<g id="edge46" class="edge">
<title>Node6&#45;&gt;Node39</title>
<path fill="none" stroke="midnightblue" d="M1343.61,-344.6C1219.24,-343.05 888.22,-335.59 855.5,-300 838.31,-281.31 869.43,-256.55 889.13,-243.66"/>
<polygon fill="midnightblue" stroke="midnightblue" points="1343.9,-348.1 1353.94,-344.72 1343.99,-341.1 1343.9,-348.1"/>
</g>
<!-- Node33 -->
<g id="node27" class="node">
<title>Node33</title>
<g id="a_node27"><a xlink:href="packet__io_8h.html" target="_top" xlink:title=" ">
<polygon fill="white" stroke="black" points="1110.5,-168.5 1110.5,-187.5 1182.5,-187.5 1182.5,-168.5 1110.5,-168.5"/>
<text text-anchor="middle" x="1146.5" y="-175.5" font-family="Helvetica,sans-Serif" font-size="10.00">packet_io.h</text>
</a>
</g>
</g>
<!-- Node6&#45;&gt;Node33 -->
<g id="edge35" class="edge">
<title>Node6&#45;&gt;Node33</title>
<path fill="none" stroke="midnightblue" d="M1343.52,-345.52C1263.94,-345.28 1107.89,-339.62 1073.5,-300 1067.67,-293.29 1068.21,-287.14 1073.5,-280 1106.13,-235.93 1158.87,-288.07 1191.5,-244 1206.2,-224.14 1177.98,-200.08 1159.93,-187.54"/>
<polygon fill="midnightblue" stroke="midnightblue" points="1343.75,-349.02 1353.76,-345.52 1343.76,-342.02 1343.75,-349.02"/>
</g>
<!-- Node34 -->
<g id="node28" class="node">
<title>Node34</title>
<g id="a_node28"><a xlink:href="spec_2classification_8h.html" target="_top" xlink:title=" ">
<polygon fill="white" stroke="black" points="713,-112.5 713,-131.5 802,-131.5 802,-112.5 713,-112.5"/>
<text text-anchor="middle" x="757.5" y="-119.5" font-family="Helvetica,sans-Serif" font-size="10.00">classification.h</text>
</a>
</g>
</g>
<!-- Node6&#45;&gt;Node34 -->
<g id="edge39" class="edge">
<title>Node6&#45;&gt;Node34</title>
<path fill="none" stroke="midnightblue" d="M1343.4,-344.33C1209.97,-342.05 836.19,-332.77 792.5,-300 738.37,-259.4 750.67,-161.3 755.83,-131.64"/>
<polygon fill="midnightblue" stroke="midnightblue" points="1343.65,-347.84 1353.7,-344.5 1343.76,-340.84 1343.65,-347.84"/>
</g>
<!-- Node35 -->
<g id="node29" class="node">
<title>Node35</title>
<g id="a_node29"><a xlink:href="spec_2traffic__mngr_8h.html" target="_top" xlink:title=" ">
<polygon fill="white" stroke="red" points="1298.5,-112.5 1298.5,-131.5 1382.5,-131.5 1382.5,-112.5 1298.5,-112.5"/>
<text text-anchor="middle" x="1340.5" y="-119.5" font-family="Helvetica,sans-Serif" font-size="10.00">traffic_mngr.h</text>
</a>
</g>
</g>
<!-- Node6&#45;&gt;Node35 -->
<g id="edge58" class="edge">
<title>Node6&#45;&gt;Node35</title>
<path fill="none" stroke="midnightblue" d="M1437.28,-339.42C1479.06,-332.06 1531.39,-315.6 1515.5,-280 1482.23,-205.45 1394.13,-151.56 1357.18,-131.55"/>
<polygon fill="midnightblue" stroke="midnightblue" points="1436.52,-336 1427.21,-341.06 1437.64,-342.91 1436.52,-336"/>
</g>
<!-- Node41 -->
<g id="node30" class="node">
<title>Node41</title>
<g id="a_node30"><a xlink:href="proto__stats_8h.html" target="_top" xlink:title=" ">
<polygon fill="white" stroke="black" points="1082.5,-280.5 1082.5,-299.5 1162.5,-299.5 1162.5,-280.5 1082.5,-280.5"/>
<text text-anchor="middle" x="1122.5" y="-287.5" font-family="Helvetica,sans-Serif" font-size="10.00">proto_stats.h</text>
</a>
</g>
</g>
<!-- Node6&#45;&gt;Node41 -->
<g id="edge36" class="edge">
<title>Node6&#45;&gt;Node41</title>
<path fill="none" stroke="midnightblue" d="M1343.98,-335.63C1292.75,-325.3 1211.24,-308.88 1162.69,-299.1"/>
<polygon fill="midnightblue" stroke="midnightblue" points="1343.3,-339.06 1353.8,-337.6 1344.69,-332.2 1343.3,-339.06"/>
</g>
<!-- Node29 -->
<g id="node31" class="node">
<title>Node29</title>
<g id="a_node31"><a xlink:href="queue_8h.html" target="_top" xlink:title=" ">
<polygon fill="white" stroke="red" points="1180.5,-280.5 1180.5,-299.5 1236.5,-299.5 1236.5,-280.5 1180.5,-280.5"/>
<text text-anchor="middle" x="1208.5" y="-287.5" font-family="Helvetica,sans-Serif" font-size="10.00">queue.h</text>
</a>
</g>
</g>
<!-- Node6&#45;&gt;Node29 -->
<g id="edge37" class="edge">
<title>Node6&#45;&gt;Node29</title>
<path fill="none" stroke="midnightblue" d="M1351.91,-333.55C1317.36,-323.3 1267.51,-308.51 1236.61,-299.34"/>
<polygon fill="midnightblue" stroke="midnightblue" points="1351.08,-336.95 1361.66,-336.44 1353.07,-330.24 1351.08,-336.95"/>
</g>
<!-- Node42 -->
<g id="node32" class="node">
<title>Node42</title>
<g id="a_node32"><a xlink:href="spec_2chksum_8h.html" target="_top" xlink:title=" ">
<polygon fill="white" stroke="red" points="1254.5,-280.5 1254.5,-299.5 1318.5,-299.5 1318.5,-280.5 1254.5,-280.5"/>
<text text-anchor="middle" x="1286.5" y="-287.5" font-family="Helvetica,sans-Serif" font-size="10.00">chksum.h</text>
</a>
</g>
</g>
<!-- Node6&#45;&gt;Node42 -->
<g id="edge38" class="edge">
<title>Node6&#45;&gt;Node42</title>
<path fill="none" stroke="midnightblue" d="M1364.67,-331.59C1345.44,-321.61 1319.76,-308.27 1303.17,-299.65"/>
<polygon fill="midnightblue" stroke="midnightblue" points="1363.3,-334.82 1373.79,-336.32 1366.53,-328.61 1363.3,-334.82"/>
</g>
<!-- Node44 -->
<g id="node33" class="node">
<title>Node44</title>
<g id="a_node33"><a xlink:href="spec_2cpu_8h.html" target="_top" xlink:title=" ">
<polygon fill="white" stroke="red" points="1337,-280.5 1337,-299.5 1380,-299.5 1380,-280.5 1337,-280.5"/>
<text text-anchor="middle" x="1358.5" y="-287.5" font-family="Helvetica,sans-Serif" font-size="10.00">cpu.h</text>
</a>
</g>
</g>
<!-- Node6&#45;&gt;Node44 -->
<g id="edge41" class="edge">
<title>Node6&#45;&gt;Node44</title>
<path fill="none" stroke="midnightblue" d="M1380,-327.27C1374.53,-318.05 1368.08,-307.17 1363.69,-299.75"/>
<polygon fill="midnightblue" stroke="midnightblue" points="1377.11,-329.26 1385.22,-336.08 1383.13,-325.7 1377.11,-329.26"/>
</g>
<!-- Node47 -->
<g id="node34" class="node">
<title>Node47</title>
<g id="a_node34"><a xlink:href="spec_2hash_8h.html" target="_top" xlink:title=" ">
<polygon fill="white" stroke="red" points="1398,-280.5 1398,-299.5 1447,-299.5 1447,-280.5 1398,-280.5"/>
<text text-anchor="middle" x="1422.5" y="-287.5" font-family="Helvetica,sans-Serif" font-size="10.00">hash.h</text>
</a>
</g>
</g>
<!-- Node6&#45;&gt;Node47 -->
<g id="edge43" class="edge">
<title>Node6&#45;&gt;Node47</title>
<path fill="none" stroke="midnightblue" d="M1401,-327.27C1406.47,-318.05 1412.92,-307.17 1417.31,-299.75"/>
<polygon fill="midnightblue" stroke="midnightblue" points="1397.87,-325.7 1395.78,-336.08 1403.89,-329.26 1397.87,-325.7"/>
</g>
<!-- Node49 -->
<g id="node35" class="node">
<title>Node49</title>
<g id="a_node35"><a xlink:href="spec_2init_8h.html" target="_top" xlink:title=" ">
<polygon fill="white" stroke="red" points="1465,-280.5 1465,-299.5 1506,-299.5 1506,-280.5 1465,-280.5"/>
<text text-anchor="middle" x="1485.5" y="-287.5" font-family="Helvetica,sans-Serif" font-size="10.00">init.h</text>
</a>
</g>
</g>
<!-- Node6&#45;&gt;Node49 -->
<g id="edge44" class="edge">
<title>Node6&#45;&gt;Node49</title>
<path fill="none" stroke="midnightblue" d="M1414.82,-331.18C1432.3,-321.24 1455.33,-308.15 1470.27,-299.65"/>
<polygon fill="midnightblue" stroke="midnightblue" points="1412.73,-328.34 1405.76,-336.32 1416.19,-334.43 1412.73,-328.34"/>
</g>
<!-- Node54 -->
<g id="node36" class="node">
<title>Node54</title>
<g id="a_node36"><a xlink:href="spec_2pool_8h.html" target="_top" xlink:title=" ">
<polygon fill="white" stroke="red" points="2025,-224.5 2025,-243.5 2072,-243.5 2072,-224.5 2025,-224.5"/>
<text text-anchor="middle" x="2048.5" y="-231.5" font-family="Helvetica,sans-Serif" font-size="10.00">pool.h</text>
</a>
</g>
</g>
<!-- Node6&#45;&gt;Node54 -->
<g id="edge47" class="edge">
<title>Node6&#45;&gt;Node54</title>
<path fill="none" stroke="midnightblue" d="M1437.16,-344.85C1640.43,-343.95 2440.02,-338.02 2476.5,-300 2534.26,-239.8 2169.98,-235.13 2072.2,-234.95"/>
<polygon fill="midnightblue" stroke="midnightblue" points="1437.1,-341.35 1427.11,-344.89 1437.13,-348.35 1437.1,-341.35"/>
</g>
<!-- Node57 -->
<g id="node37" class="node">
<title>Node57</title>
<g id="a_node37"><a xlink:href="pool__types_8h.html" target="_top" xlink:title=" ">
<polygon fill="white" stroke="black" points="1563,-280.5 1563,-299.5 1642,-299.5 1642,-280.5 1563,-280.5"/>
<text text-anchor="middle" x="1602.5" y="-287.5" font-family="Helvetica,sans-Serif" font-size="10.00">pool_types.h</text>
</a>
</g>
</g>
<!-- Node6&#45;&gt;Node57 -->
<g id="edge48" class="edge">
<title>Node6&#45;&gt;Node57</title>
<path fill="none" stroke="midnightblue" d="M1433.85,-333.96C1473.89,-323.76 1532.53,-308.82 1569.07,-299.52"/>
<polygon fill="midnightblue" stroke="midnightblue" points="1432.92,-330.58 1424.09,-336.44 1434.65,-337.37 1432.92,-330.58"/>
</g>
<!-- Node58 -->
<g id="node38" class="node">
<title>Node58</title>
<g id="a_node38"><a xlink:href="spec_2proto__stats__types_8h.html" target="_top" xlink:title=" ">
<polygon fill="white" stroke="red" points="1660,-280.5 1660,-299.5 1773,-299.5 1773,-280.5 1660,-280.5"/>
<text text-anchor="middle" x="1716.5" y="-287.5" font-family="Helvetica,sans-Serif" font-size="10.00">proto_stats_types.h</text>
</a>
</g>
</g>
<!-- Node6&#45;&gt;Node58 -->
<g id="edge50" class="edge">
<title>Node6&#45;&gt;Node58</title>
<path fill="none" stroke="midnightblue" d="M1437.29,-337.25C1497.74,-327.24 1602.6,-309.87 1665.18,-299.5"/>
<polygon fill="midnightblue" stroke="midnightblue" points="1436.56,-333.82 1427.26,-338.91 1437.7,-340.73 1436.56,-333.82"/>
</g>
<!-- Node64 -->
<g id="node39" class="node">
<title>Node64</title>
<g id="a_node39"><a xlink:href="spec_2random_8h.html" target="_top" xlink:title=" ">
<polygon fill="white" stroke="red" points="1791,-280.5 1791,-299.5 1854,-299.5 1854,-280.5 1791,-280.5"/>
<text text-anchor="middle" x="1822.5" y="-287.5" font-family="Helvetica,sans-Serif" font-size="10.00">random.h</text>
</a>
</g>
</g>
<!-- Node6&#45;&gt;Node64 -->
<g id="edge51" class="edge">
<title>Node6&#45;&gt;Node64</title>
<path fill="none" stroke="midnightblue" d="M1437.51,-341.24C1511.31,-334.97 1658.74,-320.96 1782.5,-300 1785.17,-299.55 1787.92,-299.03 1790.68,-298.48"/>
<polygon fill="midnightblue" stroke="midnightblue" points="1436.84,-337.79 1427.16,-342.11 1437.42,-344.76 1436.84,-337.79"/>
</g>
<!-- Node37 -->
<g id="node40" class="node">
<title>Node37</title>
<g id="a_node40"><a xlink:href="spec_2schedule_8h.html" target="_top" xlink:title=" ">
<polygon fill="white" stroke="red" points="1872,-280.5 1872,-299.5 1941,-299.5 1941,-280.5 1872,-280.5"/>
<text text-anchor="middle" x="1906.5" y="-287.5" font-family="Helvetica,sans-Serif" font-size="10.00">schedule.h</text>
</a>
</g>
</g>
<!-- Node6&#45;&gt;Node37 -->
<g id="edge52" class="edge">
<title>Node6&#45;&gt;Node37</title>
<path fill="none" stroke="midnightblue" d="M1437.29,-342.28C1522.44,-336.96 1708.29,-323.55 1863.5,-300 1866.21,-299.59 1869.02,-299.11 1871.83,-298.6"/>
<polygon fill="midnightblue" stroke="midnightblue" points="1436.93,-338.8 1427.17,-342.91 1437.36,-345.79 1436.93,-338.8"/>
</g>
<!-- Node66 -->
<g id="node41" class="node">
<title>Node66</title>
<g id="a_node41"><a xlink:href="spec_2schedule__types_8h.html" target="_top" xlink:title=" ">
<polygon fill="white" stroke="red" points="1959,-280.5 1959,-299.5 2060,-299.5 2060,-280.5 1959,-280.5"/>
<text text-anchor="middle" x="2009.5" y="-287.5" font-family="Helvetica,sans-Serif" font-size="10.00">schedule_types.h</text>
</a>
</g>
</g>
<!-- Node6&#45;&gt;Node66 -->
<g id="edge53" class="edge">
<title>Node6&#45;&gt;Node66</title>
<path fill="none" stroke="midnightblue" d="M1437.27,-342.37C1533.54,-336.71 1760.74,-322.07 1950.5,-300 1953.18,-299.69 1955.92,-299.35 1958.68,-298.99"/>
<polygon fill="midnightblue" stroke="midnightblue" points="1437.06,-338.88 1427.28,-342.95 1437.47,-345.87 1437.06,-338.88"/>
</g>
<!-- Node72 -->
<g id="node42" class="node">
<title>Node72</title>
<g id="a_node42"><a xlink:href="spec_2stash_8h.html" target="_top" xlink:title=" ">
<polygon fill="white" stroke="red" points="2078.5,-280.5 2078.5,-299.5 2130.5,-299.5 2130.5,-280.5 2078.5,-280.5"/>
<text text-anchor="middle" x="2104.5" y="-287.5" font-family="Helvetica,sans-Serif" font-size="10.00">stash.h</text>
</a>
</g>
</g>
<!-- Node6&#45;&gt;Node72 -->
<g id="edge54" class="edge">
<title>Node6&#45;&gt;Node72</title>
<path fill="none" stroke="midnightblue" d="M1437.36,-344.88C1548.06,-343.94 1834.16,-337.72 2069.5,-300 2072.35,-299.54 2075.31,-298.96 2078.24,-298.31"/>
<polygon fill="midnightblue" stroke="midnightblue" points="1437.18,-341.38 1427.2,-344.95 1437.23,-348.38 1437.18,-341.38"/>
</g>
<!-- Node74 -->
<g id="node43" class="node">
<title>Node74</title>
<g id="a_node43"><a xlink:href="spec_2std_8h.html" target="_top" xlink:title=" ">
<polygon fill="white" stroke="red" points="2149,-280.5 2149,-299.5 2190,-299.5 2190,-280.5 2149,-280.5"/>
<text text-anchor="middle" x="2169.5" y="-287.5" font-family="Helvetica,sans-Serif" font-size="10.00">std.h</text>
</a>
</g>
</g>
<!-- Node6&#45;&gt;Node74 -->
<g id="edge55" class="edge">
<title>Node6&#45;&gt;Node74</title>
<path fill="none" stroke="midnightblue" d="M1437.33,-343.61C1579.32,-339.15 2003.58,-324.14 2139.5,-300 2142.61,-299.45 2145.84,-298.69 2148.99,-297.83"/>
<polygon fill="midnightblue" stroke="midnightblue" points="1437.1,-340.11 1427.21,-343.92 1437.32,-347.11 1437.1,-340.11"/>
</g>
<!-- Node76 -->
<g id="node44" class="node">
<title>Node76</title>
<g id="a_node44"><a xlink:href="spec_2threshold_8h.html" target="_top" xlink:title=" ">
<polygon fill="white" stroke="red" points="2208,-280.5 2208,-299.5 2279,-299.5 2279,-280.5 2208,-280.5"/>
<text text-anchor="middle" x="2243.5" y="-287.5" font-family="Helvetica,sans-Serif" font-size="10.00">threshold.h</text>
</a>
</g>
</g>
<!-- Node6&#45;&gt;Node76 -->
<g id="edge56" class="edge">
<title>Node6&#45;&gt;Node76</title>
<path fill="none" stroke="midnightblue" d="M1437.7,-344.78C1562.59,-343.68 1911.78,-337.22 2199.5,-300 2202.13,-299.66 2204.84,-299.25 2207.55,-298.8"/>
<polygon fill="midnightblue" stroke="midnightblue" points="1437.34,-341.28 1427.36,-344.86 1437.39,-348.28 1437.34,-341.28"/>
</g>
<!-- Node78 -->
<g id="node45" class="node">
<title>Node78</title>
<g id="a_node45"><a xlink:href="spec_2thrmask_8h.html" target="_top" xlink:title=" ">
<polygon fill="white" stroke="red" points="2297.5,-280.5 2297.5,-299.5 2363.5,-299.5 2363.5,-280.5 2297.5,-280.5"/>
<text text-anchor="middle" x="2330.5" y="-287.5" font-family="Helvetica,sans-Serif" font-size="10.00">thrmask.h</text>
</a>
</g>
</g>
<!-- Node6&#45;&gt;Node78 -->
<g id="edge57" class="edge">
<title>Node6&#45;&gt;Node78</title>
<path fill="none" stroke="midnightblue" d="M1437.31,-345.3C1570.86,-345.59 1964.9,-342.5 2288.5,-300 2291.31,-299.63 2294.21,-299.17 2297.11,-298.66"/>
<polygon fill="midnightblue" stroke="midnightblue" points="1437.05,-341.8 1427.04,-345.27 1437.03,-348.8 1437.05,-341.8"/>
</g>
<!-- Node80 -->
<g id="node46" class="node">
<title>Node80</title>
<g id="a_node46"><a xlink:href="system__info_8h.html" target="_top" xlink:title=" ">
<polygon fill="white" stroke="black" points="2381.5,-280.5 2381.5,-299.5 2467.5,-299.5 2467.5,-280.5 2381.5,-280.5"/>
<text text-anchor="middle" x="2424.5" y="-287.5" font-family="Helvetica,sans-Serif" font-size="10.00">system_info.h</text>
</a>
</g>
</g>
<!-- Node6&#45;&gt;Node80 -->
<g id="edge59" class="edge">
<title>Node6&#45;&gt;Node80</title>
<path fill="none" stroke="midnightblue" d="M1437.25,-344.94C1578.65,-344.3 2014.15,-339.07 2372.5,-300 2375.41,-299.68 2378.41,-299.3 2381.43,-298.88"/>
<polygon fill="midnightblue" stroke="midnightblue" points="1437.17,-341.44 1427.19,-344.98 1437.2,-348.44 1437.17,-341.44"/>
</g>
<!-- Node81 -->
<g id="node47" class="node">
<title>Node81</title>
<g id="a_node47"><a xlink:href="time_8h.html" target="_top" xlink:title=" ">
<polygon fill="white" stroke="red" points="978.5,-280.5 978.5,-299.5 1026.5,-299.5 1026.5,-280.5 978.5,-280.5"/>
<text text-anchor="middle" x="1002.5" y="-287.5" font-family="Helvetica,sans-Serif" font-size="10.00">time.h</text>
</a>
</g>
</g>
<!-- Node6&#45;&gt;Node81 -->
<g id="edge60" class="edge">
<title>Node6&#45;&gt;Node81</title>
<path fill="none" stroke="midnightblue" d="M1343.49,-340.54C1276.07,-333.78 1148.2,-319.62 1040.5,-300 1035.96,-299.17 1031.16,-298.15 1026.54,-297.1"/>
<polygon fill="midnightblue" stroke="midnightblue" points="1343.48,-344.05 1353.77,-341.56 1344.17,-337.09 1343.48,-344.05"/>
</g>
<!-- Node82 -->
<g id="node48" class="node">
<title>Node82</title>
<g id="a_node48"><a xlink:href="timer_8h.html" target="_top" xlink:title=" ">
<polygon fill="white" stroke="black" points="2524,-280.5 2524,-299.5 2575,-299.5 2575,-280.5 2524,-280.5"/>
<text text-anchor="middle" x="2549.5" y="-287.5" font-family="Helvetica,sans-Serif" font-size="10.00">timer.h</text>
</a>
</g>
</g>
<!-- Node6&#45;&gt;Node82 -->
<g id="edge62" class="edge">
<title>Node6&#45;&gt;Node82</title>
<path fill="none" stroke="midnightblue" d="M1437.21,-344.25C1621.32,-341.12 2297.12,-327.93 2509.5,-300 2514.16,-299.39 2519.07,-298.49 2523.8,-297.5"/>
<polygon fill="midnightblue" stroke="midnightblue" points="1436.99,-340.75 1427.05,-344.42 1437.11,-347.75 1436.99,-340.75"/>
</g>
<!-- Node83 -->
<g id="node49" class="node">
<title>Node83</title>
<g id="a_node49"><a xlink:href="strong__types_8h.html" target="_top" xlink:title=" ">
<polygon fill="white" stroke="black" points="2593,-280.5 2593,-299.5 2682,-299.5 2682,-280.5 2593,-280.5"/>
<text text-anchor="middle" x="2637.5" y="-287.5" font-family="Helvetica,sans-Serif" font-size="10.00">strong_types.h</text>
</a>
</g>
</g>
<!-- Node6&#45;&gt;Node83 -->
<g id="edge63" class="edge">
<title>Node6&#45;&gt;Node83</title>
<path fill="none" stroke="midnightblue" d="M1437.27,-345.43C1597.62,-346.42 2139.8,-345.94 2584.5,-300 2587.19,-299.72 2589.95,-299.39 2592.74,-299.02"/>
<polygon fill="midnightblue" stroke="midnightblue" points="1437.29,-341.93 1427.26,-345.36 1437.24,-348.93 1437.29,-341.93"/>
</g>
<!-- Node18&#45;&gt;Node19 -->
<g id="edge20" class="edge">
<title>Node18&#45;&gt;Node19</title>
<path fill="none" stroke="midnightblue" d="M769.12,-47.57C775.32,-38.27 782.67,-27.25 787.67,-19.75"/>
<polygon fill="midnightblue" stroke="midnightblue" points="766.08,-45.82 763.44,-56.08 771.9,-49.7 766.08,-45.82"/>
</g>
<!-- Node21&#45;&gt;Node19 -->
<g id="edge22" class="edge">
<title>Node21&#45;&gt;Node19</title>
<path fill="none" stroke="midnightblue" d="M828.56,-158.2C825.81,-134.19 820.04,-91.52 810.5,-56 807.03,-43.1 801.26,-28.74 797.42,-19.79"/>
<polygon fill="midnightblue" stroke="midnightblue" points="825.1,-158.81 829.67,-168.37 832.06,-158.05 825.1,-158.81"/>
</g>
<!-- Node22&#45;&gt;Node23 -->
<g id="edge24" class="edge">
<title>Node22&#45;&gt;Node23</title>
<path fill="none" stroke="midnightblue" d="M872.73,-274.62C858.48,-264.76 840.04,-251.99 828,-243.65"/>
<polygon fill="midnightblue" stroke="midnightblue" points="870.75,-277.51 880.97,-280.32 874.74,-271.75 870.75,-277.51"/>
</g>
<!-- Node22&#45;&gt;Node25 -->
<g id="edge25" class="edge">
<title>Node22&#45;&gt;Node25</title>
<path fill="none" stroke="midnightblue" d="M930.54,-277.3C962.76,-267.13 1008.69,-252.62 1037.53,-243.52"/>
<polygon fill="midnightblue" stroke="midnightblue" points="929.08,-274.09 920.6,-280.44 931.19,-280.77 929.08,-274.09"/>
</g>
<!-- Node26 -->
<g id="node24" class="node">
<title>Node26</title>
<g id="a_node24"><a xlink:href="spec_2event_8h.html" target="_top" xlink:title=" ">
<polygon fill="white" stroke="red" points="965,-224.5 965,-243.5 1018,-243.5 1018,-224.5 965,-224.5"/>
<text text-anchor="middle" x="991.5" y="-231.5" font-family="Helvetica,sans-Serif" font-size="10.00">event.h</text>
</a>
</g>
</g>
<!-- Node22&#45;&gt;Node26 -->
<g id="edge27" class="edge">
<title>Node22&#45;&gt;Node26</title>
<path fill="none" stroke="midnightblue" d="M918.09,-275.45C936.18,-265.48 960.23,-252.23 975.79,-243.65"/>
<polygon fill="midnightblue" stroke="midnightblue" points="916.31,-272.43 909.25,-280.32 919.69,-278.56 916.31,-272.43"/>
</g>
<!-- Node22&#45;&gt;Node39 -->
<g id="edge28" class="edge">
<title>Node22&#45;&gt;Node39</title>
<path fill="none" stroke="midnightblue" d="M897,-270.1C898.66,-261.14 900.56,-250.86 901.88,-243.75"/>
<polygon fill="midnightblue" stroke="midnightblue" points="893.53,-269.61 895.15,-280.08 900.41,-270.89 893.53,-269.61"/>
</g>
<!-- Node32 -->
<g id="node26" class="node">
<title>Node32</title>
<g id="a_node26"><a xlink:href="spec_2packet__io_8h.html" target="_top" xlink:title=" ">
<polygon fill="white" stroke="black" points="1110.5,-224.5 1110.5,-243.5 1182.5,-243.5 1182.5,-224.5 1110.5,-224.5"/>
<text text-anchor="middle" x="1146.5" y="-231.5" font-family="Helvetica,sans-Serif" font-size="10.00">packet_io.h</text>
</a>
</g>
</g>
<!-- Node22&#45;&gt;Node32 -->
<g id="edge29" class="edge">
<title>Node22&#45;&gt;Node32</title>
<path fill="none" stroke="midnightblue" d="M932.31,-280.72C980.72,-270.38 1062.83,-252.86 1110.09,-242.77"/>
<polygon fill="midnightblue" stroke="midnightblue" points="931.57,-277.3 922.52,-282.81 933.03,-284.14 931.57,-277.3"/>
</g>
<!-- Node25&#45;&gt;Node21 -->
<g id="edge26" class="edge">
<title>Node25&#45;&gt;Node21</title>
<path fill="none" stroke="midnightblue" d="M1026.8,-224.07C1026.7,-224.05 1026.6,-224.02 1026.5,-224 966.83,-210.08 896.86,-194.1 858.75,-185.42"/>
<polygon fill="midnightblue" stroke="midnightblue" points="1025.75,-227.42 1036.28,-226.29 1027.35,-220.6 1025.75,-227.42"/>
</g>
<!-- Node32&#45;&gt;Node33 -->
<g id="edge30" class="edge">
<title>Node32&#45;&gt;Node33</title>
<path fill="none" stroke="midnightblue" d="M1146.5,-213.8C1146.5,-204.91 1146.5,-194.78 1146.5,-187.75"/>
<polygon fill="midnightblue" stroke="midnightblue" points="1143,-214.08 1146.5,-224.08 1150,-214.08 1143,-214.08"/>
</g>
<!-- Node33&#45;&gt;Node19 -->
<g id="edge33" class="edge">
<title>Node33&#45;&gt;Node19</title>
<path fill="none" stroke="midnightblue" d="M1118.59,-163.87C1049.08,-131.19 869.68,-46.83 811.8,-19.61"/>
<polygon fill="midnightblue" stroke="midnightblue" points="1117.48,-167.22 1128.02,-168.31 1120.46,-160.89 1117.48,-167.22"/>
</g>
<!-- Node33&#45;&gt;Node34 -->
<g id="edge31" class="edge">
<title>Node33&#45;&gt;Node34</title>
<path fill="none" stroke="midnightblue" d="M1100.11,-170.56C1024.65,-160.09 876.33,-139.5 802.07,-129.19"/>
<polygon fill="midnightblue" stroke="midnightblue" points="1099.87,-174.06 1110.25,-171.97 1100.83,-167.13 1099.87,-174.06"/>
</g>
<!-- Node33&#45;&gt;Node35 -->
<g id="edge34" class="edge">
<title>Node33&#45;&gt;Node35</title>
<path fill="none" stroke="midnightblue" d="M1187.1,-165.7C1223.72,-155.51 1276.76,-140.74 1309.9,-131.52"/>
<polygon fill="midnightblue" stroke="midnightblue" points="1185.94,-162.39 1177.24,-168.44 1187.81,-169.13 1185.94,-162.39"/>
</g>
<!-- Node34&#45;&gt;Node18 -->
<g id="edge32" class="edge">
<title>Node34&#45;&gt;Node18</title>
<path fill="none" stroke="midnightblue" d="M757.5,-101.8C757.5,-92.91 757.5,-82.78 757.5,-75.75"/>
<polygon fill="midnightblue" stroke="midnightblue" points="754,-102.08 757.5,-112.08 761,-102.08 754,-102.08"/>
</g>
<!-- Node57&#45;&gt;Node54 -->
<g id="edge49" class="edge">
<title>Node57&#45;&gt;Node54</title>
<path fill="none" stroke="midnightblue" d="M1652.21,-280C1800.1,-258.36 1964.34,-242.62 2024.71,-237.12"/>
<polygon fill="midnightblue" stroke="midnightblue" points="1651.42,-276.57 1642.04,-281.5 1652.45,-283.5 1651.42,-276.57"/>
</g>
<!-- Node81&#45;&gt;Node32 -->
<g id="edge61" class="edge">
<title>Node81&#45;&gt;Node32</title>
<path fill="none" stroke="midnightblue" d="M1034.75,-276.91C1061.82,-266.75 1099.82,-252.51 1123.79,-243.52"/>
<polygon fill="midnightblue" stroke="midnightblue" points="1033.45,-273.66 1025.32,-280.44 1035.91,-280.21 1033.45,-273.66"/>
</g>
</g>
</svg>
