<?xml version="1.0" encoding="UTF-8" standalone="no"?>
<!DOCTYPE svg PUBLIC "-//W3C//DTD SVG 1.1//EN"
 "http://www.w3.org/Graphics/SVG/1.1/DTD/svg11.dtd">
<!-- Generated by graphviz version 2.43.0 (0)
 -->
<!-- Title: std_types.h Pages: 1 -->
<svg width="3200pt" height="364pt"
 viewBox="0.00 0.00 3200.00 364.00" xmlns="http://www.w3.org/2000/svg" xmlns:xlink="http://www.w3.org/1999/xlink">
<g id="graph0" class="graph" transform="scale(1 1) rotate(0) translate(4 360)">
<title>std_types.h</title>
<polygon fill="white" stroke="transparent" points="-4,4 -4,-360 3196,-360 3196,4 -4,4"/>
<!-- Node1 -->
<g id="node1" class="node">
<title>Node1</title>
<g id="a_node1"><a xlink:title=" ">
<polygon fill="#bfbfbf" stroke="black" points="1490,-336.5 1490,-355.5 1563,-355.5 1563,-336.5 1490,-336.5"/>
<text text-anchor="middle" x="1526.5" y="-343.5" font-family="Helvetica,sans-Serif" font-size="10.00">std_types.h</text>
</a>
</g>
</g>
<!-- Node2 -->
<g id="node2" class="node">
<title>Node2</title>
<g id="a_node2"><a xlink:href="abi-default_2atomic_8h.html" target="_top" xlink:title=" ">
<polygon fill="white" stroke="black" points="0,-280.5 0,-299.5 59,-299.5 59,-280.5 0,-280.5"/>
<text text-anchor="middle" x="29.5" y="-287.5" font-family="Helvetica,sans-Serif" font-size="10.00">atomic.h</text>
</a>
</g>
</g>
<!-- Node1&#45;&gt;Node2 -->
<g id="edge1" class="edge">
<title>Node1&#45;&gt;Node2</title>
<path fill="none" stroke="midnightblue" d="M1479.76,-344.83C1262.51,-343.82 350.05,-337.43 67.5,-300 64.81,-299.64 62.04,-299.18 59.26,-298.65"/>
<polygon fill="midnightblue" stroke="midnightblue" points="1479.85,-348.33 1489.87,-344.87 1479.89,-341.33 1479.85,-348.33"/>
</g>
<!-- Node3 -->
<g id="node3" class="node">
<title>Node3</title>
<g id="a_node3"><a xlink:href="abi-default_2barrier_8h.html" target="_top" xlink:title=" ">
<polygon fill="white" stroke="black" points="77,-280.5 77,-299.5 134,-299.5 134,-280.5 77,-280.5"/>
<text text-anchor="middle" x="105.5" y="-287.5" font-family="Helvetica,sans-Serif" font-size="10.00">barrier.h</text>
</a>
</g>
</g>
<!-- Node1&#45;&gt;Node3 -->
<g id="edge2" class="edge">
<title>Node1&#45;&gt;Node3</title>
<path fill="none" stroke="midnightblue" d="M1479.83,-344.73C1269.74,-343.35 410.31,-335.57 143.5,-300 140.41,-299.59 137.2,-299.03 134.02,-298.4"/>
<polygon fill="midnightblue" stroke="midnightblue" points="1479.89,-348.24 1489.91,-344.8 1479.94,-341.24 1479.89,-348.24"/>
</g>
<!-- Node4 -->
<g id="node4" class="node">
<title>Node4</title>
<g id="a_node4"><a xlink:href="abi-default_2byteorder_8h.html" target="_top" xlink:title=" ">
<polygon fill="white" stroke="black" points="152.5,-280.5 152.5,-299.5 224.5,-299.5 224.5,-280.5 152.5,-280.5"/>
<text text-anchor="middle" x="188.5" y="-287.5" font-family="Helvetica,sans-Serif" font-size="10.00">byteorder.h</text>
</a>
</g>
</g>
<!-- Node1&#45;&gt;Node4 -->
<g id="edge3" class="edge">
<title>Node1&#45;&gt;Node4</title>
<path fill="none" stroke="midnightblue" d="M1479.68,-344.39C1277.96,-341.61 482.13,-328.99 233.5,-300 230.65,-299.67 227.71,-299.25 224.77,-298.78"/>
<polygon fill="midnightblue" stroke="midnightblue" points="1479.88,-347.89 1489.93,-344.53 1479.98,-340.9 1479.88,-347.89"/>
</g>
<!-- Node5 -->
<g id="node5" class="node">
<title>Node5</title>
<g id="a_node5"><a xlink:href="abi-default_2cpumask_8h.html" target="_top" xlink:title=" ">
<polygon fill="white" stroke="black" points="242.5,-280.5 242.5,-299.5 312.5,-299.5 312.5,-280.5 242.5,-280.5"/>
<text text-anchor="middle" x="277.5" y="-287.5" font-family="Helvetica,sans-Serif" font-size="10.00">cpumask.h</text>
</a>
</g>
</g>
<!-- Node1&#45;&gt;Node5 -->
<g id="edge4" class="edge">
<title>Node1&#45;&gt;Node5</title>
<path fill="none" stroke="midnightblue" d="M1479.74,-344.28C1286.78,-341.16 551.88,-327.67 321.5,-300 318.71,-299.67 315.84,-299.25 312.96,-298.77"/>
<polygon fill="midnightblue" stroke="midnightblue" points="1479.77,-347.78 1489.83,-344.44 1479.89,-340.78 1479.77,-347.78"/>
</g>
<!-- Node6 -->
<g id="node6" class="node">
<title>Node6</title>
<g id="a_node6"><a xlink:href="abi-default_2init_8h.html" target="_top" xlink:title=" ">
<polygon fill="white" stroke="black" points="331,-280.5 331,-299.5 372,-299.5 372,-280.5 331,-280.5"/>
<text text-anchor="middle" x="351.5" y="-287.5" font-family="Helvetica,sans-Serif" font-size="10.00">init.h</text>
</a>
</g>
</g>
<!-- Node1&#45;&gt;Node6 -->
<g id="edge5" class="edge">
<title>Node1&#45;&gt;Node6</title>
<path fill="none" stroke="midnightblue" d="M1479.81,-344.79C1292.75,-343.71 597.17,-337.21 380.5,-300 377.8,-299.54 375,-298.89 372.25,-298.15"/>
<polygon fill="midnightblue" stroke="midnightblue" points="1479.85,-348.29 1489.87,-344.85 1479.89,-341.29 1479.85,-348.29"/>
</g>
<!-- Node7 -->
<g id="node7" class="node">
<title>Node7</title>
<g id="a_node7"><a xlink:href="abi-default_2ipsec_8h.html" target="_top" xlink:title=" ">
<polygon fill="white" stroke="black" points="390,-280.5 390,-299.5 441,-299.5 441,-280.5 390,-280.5"/>
<text text-anchor="middle" x="415.5" y="-287.5" font-family="Helvetica,sans-Serif" font-size="10.00">ipsec.h</text>
</a>
</g>
</g>
<!-- Node1&#45;&gt;Node7 -->
<g id="edge6" class="edge">
<title>Node1&#45;&gt;Node7</title>
<path fill="none" stroke="midnightblue" d="M1479.8,-344.35C1300.17,-341.65 653.61,-330.02 450.5,-300 447.52,-299.56 444.43,-298.97 441.37,-298.3"/>
<polygon fill="midnightblue" stroke="midnightblue" points="1479.93,-347.85 1489.98,-344.5 1480.03,-340.85 1479.93,-347.85"/>
</g>
<!-- Node8 -->
<g id="node8" class="node">
<title>Node8</title>
<g id="a_node8"><a xlink:href="abi-default_2packet__io_8h.html" target="_top" xlink:title=" ">
<polygon fill="white" stroke="black" points="459.5,-280.5 459.5,-299.5 531.5,-299.5 531.5,-280.5 459.5,-280.5"/>
<text text-anchor="middle" x="495.5" y="-287.5" font-family="Helvetica,sans-Serif" font-size="10.00">packet_io.h</text>
</a>
</g>
</g>
<!-- Node1&#45;&gt;Node8 -->
<g id="edge7" class="edge">
<title>Node1&#45;&gt;Node8</title>
<path fill="none" stroke="midnightblue" d="M1479.51,-345.38C1337.39,-345.98 899.77,-343.87 540.5,-300 537.65,-299.65 534.72,-299.22 531.77,-298.75"/>
<polygon fill="midnightblue" stroke="midnightblue" points="1479.64,-348.88 1489.62,-345.33 1479.61,-341.88 1479.64,-348.88"/>
</g>
<!-- Node9 -->
<g id="node9" class="node">
<title>Node9</title>
<g id="a_node9"><a xlink:href="abi-default_2rwlock__recursive_8h.html" target="_top" xlink:title=" ">
<polygon fill="white" stroke="black" points="549.5,-280.5 549.5,-299.5 657.5,-299.5 657.5,-280.5 549.5,-280.5"/>
<text text-anchor="middle" x="603.5" y="-287.5" font-family="Helvetica,sans-Serif" font-size="10.00">rwlock_recursive.h</text>
</a>
</g>
</g>
<!-- Node1&#45;&gt;Node9 -->
<g id="edge8" class="edge">
<title>Node1&#45;&gt;Node9</title>
<path fill="none" stroke="midnightblue" d="M1479.6,-344.02C1349.96,-341 975.87,-330.13 666.5,-300 663.64,-299.72 660.71,-299.41 657.76,-299.07"/>
<polygon fill="midnightblue" stroke="midnightblue" points="1479.87,-347.53 1489.95,-344.26 1480.03,-340.53 1479.87,-347.53"/>
</g>
<!-- Node10 -->
<g id="node10" class="node">
<title>Node10</title>
<g id="a_node10"><a xlink:href="abi-default_2schedule_8h.html" target="_top" xlink:title=" ">
<polygon fill="white" stroke="black" points="676,-280.5 676,-299.5 745,-299.5 745,-280.5 676,-280.5"/>
<text text-anchor="middle" x="710.5" y="-287.5" font-family="Helvetica,sans-Serif" font-size="10.00">schedule.h</text>
</a>
</g>
</g>
<!-- Node1&#45;&gt;Node10 -->
<g id="edge9" class="edge">
<title>Node1&#45;&gt;Node10</title>
<path fill="none" stroke="midnightblue" d="M1479.76,-344.61C1359.14,-343.09 1027.76,-335.72 754.5,-300 751.41,-299.6 748.21,-299.1 745.01,-298.55"/>
<polygon fill="midnightblue" stroke="midnightblue" points="1479.72,-348.11 1489.76,-344.73 1479.8,-341.11 1479.72,-348.11"/>
</g>
<!-- Node11 -->
<g id="node11" class="node">
<title>Node11</title>
<g id="a_node11"><a xlink:href="abi-default_2spinlock__recursive_8h.html" target="_top" xlink:title=" ">
<polygon fill="white" stroke="black" points="763.5,-280.5 763.5,-299.5 879.5,-299.5 879.5,-280.5 763.5,-280.5"/>
<text text-anchor="middle" x="821.5" y="-287.5" font-family="Helvetica,sans-Serif" font-size="10.00">spinlock_recursive.h</text>
</a>
</g>
</g>
<!-- Node1&#45;&gt;Node11 -->
<g id="edge10" class="edge">
<title>Node1&#45;&gt;Node11</title>
<path fill="none" stroke="midnightblue" d="M1479.74,-342.71C1374.15,-337.33 1109.25,-322.59 888.5,-300 885.58,-299.7 882.59,-299.38 879.58,-299.03"/>
<polygon fill="midnightblue" stroke="midnightblue" points="1479.59,-346.21 1489.75,-343.22 1479.94,-339.22 1479.59,-346.21"/>
</g>
<!-- Node12 -->
<g id="node12" class="node">
<title>Node12</title>
<g id="a_node12"><a xlink:href="abi-default_2traffic__mngr_8h.html" target="_top" xlink:title=" ">
<polygon fill="white" stroke="black" points="897.5,-280.5 897.5,-299.5 981.5,-299.5 981.5,-280.5 897.5,-280.5"/>
<text text-anchor="middle" x="939.5" y="-287.5" font-family="Helvetica,sans-Serif" font-size="10.00">traffic_mngr.h</text>
</a>
</g>
</g>
<!-- Node1&#45;&gt;Node12 -->
<g id="edge11" class="edge">
<title>Node1&#45;&gt;Node12</title>
<path fill="none" stroke="midnightblue" d="M1479.75,-342.51C1386.45,-337.22 1170.62,-323.4 990.5,-300 987.65,-299.63 984.71,-299.21 981.76,-298.76"/>
<polygon fill="midnightblue" stroke="midnightblue" points="1479.8,-346.02 1489.98,-343.08 1480.2,-339.03 1479.8,-346.02"/>
</g>
<!-- Node13 -->
<g id="node13" class="node">
<title>Node13</title>
<g id="a_node13"><a xlink:href="barrier_8h.html" target="_top" xlink:title=" ">
<polygon fill="white" stroke="black" points="1000,-280.5 1000,-299.5 1057,-299.5 1057,-280.5 1000,-280.5"/>
<text text-anchor="middle" x="1028.5" y="-287.5" font-family="Helvetica,sans-Serif" font-size="10.00">barrier.h</text>
</a>
</g>
</g>
<!-- Node1&#45;&gt;Node13 -->
<g id="edge12" class="edge">
<title>Node1&#45;&gt;Node13</title>
<path fill="none" stroke="midnightblue" d="M1479.62,-342.62C1395.97,-337.88 1215.66,-325.46 1065.5,-300 1062.76,-299.54 1059.93,-298.98 1057.1,-298.38"/>
<polygon fill="midnightblue" stroke="midnightblue" points="1479.63,-346.12 1489.81,-343.18 1480.02,-339.13 1479.63,-346.12"/>
</g>
<!-- Node14 -->
<g id="node14" class="node">
<title>Node14</title>
<g id="a_node14"><a xlink:href="buffer_8h.html" target="_top" xlink:title=" ">
<polygon fill="white" stroke="black" points="1075,-280.5 1075,-299.5 1128,-299.5 1128,-280.5 1075,-280.5"/>
<text text-anchor="middle" x="1101.5" y="-287.5" font-family="Helvetica,sans-Serif" font-size="10.00">buffer.h</text>
</a>
</g>
</g>
<!-- Node1&#45;&gt;Node14 -->
<g id="edge13" class="edge">
<title>Node1&#45;&gt;Node14</title>
<path fill="none" stroke="midnightblue" d="M1479.62,-341.02C1407.06,-334.52 1263.32,-320.29 1142.5,-300 1137.9,-299.23 1133.04,-298.28 1128.33,-297.29"/>
<polygon fill="midnightblue" stroke="midnightblue" points="1479.53,-344.53 1489.8,-341.92 1480.14,-337.55 1479.53,-344.53"/>
</g>
<!-- Node15 -->
<g id="node15" class="node">
<title>Node15</title>
<g id="a_node15"><a xlink:href="classification_8h.html" target="_top" xlink:title=" ">
<polygon fill="white" stroke="black" points="1217,-56.5 1217,-75.5 1306,-75.5 1306,-56.5 1217,-56.5"/>
<text text-anchor="middle" x="1261.5" y="-63.5" font-family="Helvetica,sans-Serif" font-size="10.00">classification.h</text>
</a>
</g>
</g>
<!-- Node1&#45;&gt;Node15 -->
<g id="edge14" class="edge">
<title>Node1&#45;&gt;Node15</title>
<path fill="none" stroke="midnightblue" d="M1479.68,-343.13C1411.07,-339.44 1287.87,-328.88 1255.5,-300 1191.15,-242.59 1170.92,-190.09 1207.5,-112 1215.16,-95.64 1232.01,-83.16 1244.87,-75.54"/>
<polygon fill="midnightblue" stroke="midnightblue" points="1479.63,-346.63 1489.79,-343.65 1479.98,-339.64 1479.63,-346.63"/>
</g>
<!-- Node16 -->
<g id="node16" class="node">
<title>Node16</title>
<g id="a_node16"><a xlink:href="spec_2ipsec_8h.html" target="_top" xlink:title=" ">
<polygon fill="white" stroke="red" points="1272,-0.5 1272,-19.5 1323,-19.5 1323,-0.5 1272,-0.5"/>
<text text-anchor="middle" x="1297.5" y="-7.5" font-family="Helvetica,sans-Serif" font-size="10.00">ipsec.h</text>
</a>
</g>
</g>
<!-- Node1&#45;&gt;Node16 -->
<g id="edge44" class="edge">
<title>Node1&#45;&gt;Node16</title>
<path fill="none" stroke="midnightblue" d="M1479.57,-342.36C1407.25,-337.54 1272.71,-325.39 1232.5,-300 1227.36,-296.76 1150.5,-183.75 1150.5,-179 1150.5,-179 1150.5,-179 1150.5,-121 1150.5,-61.07 1229.78,-29.84 1271.89,-17.48"/>
<polygon fill="midnightblue" stroke="midnightblue" points="1479.57,-345.86 1489.77,-343.02 1480.02,-338.88 1479.57,-345.86"/>
</g>
<!-- Node18 -->
<g id="node17" class="node">
<title>Node18</title>
<g id="a_node17"><a xlink:href="crypto_8h.html" target="_top" xlink:title=" ">
<polygon fill="white" stroke="black" points="1667.5,-168.5 1667.5,-187.5 1723.5,-187.5 1723.5,-168.5 1667.5,-168.5"/>
<text text-anchor="middle" x="1695.5" y="-175.5" font-family="Helvetica,sans-Serif" font-size="10.00">crypto.h</text>
</a>
</g>
</g>
<!-- Node1&#45;&gt;Node18 -->
<g id="edge16" class="edge">
<title>Node1&#45;&gt;Node18</title>
<path fill="none" stroke="midnightblue" d="M1546.2,-330.53C1569.26,-313.78 1606.23,-287.5 1621.5,-280 1668.04,-257.12 1702,-285.95 1732.5,-244 1746.32,-224.99 1722.1,-200.37 1706.72,-187.57"/>
<polygon fill="midnightblue" stroke="midnightblue" points="1544.13,-327.71 1538.12,-336.43 1548.26,-333.36 1544.13,-327.71"/>
</g>
<!-- Node19 -->
<g id="node18" class="node">
<title>Node19</title>
<g id="a_node18"><a xlink:href="packet_8h.html" target="_top" xlink:title=" ">
<polygon fill="white" stroke="black" points="1440.5,-280.5 1440.5,-299.5 1498.5,-299.5 1498.5,-280.5 1440.5,-280.5"/>
<text text-anchor="middle" x="1469.5" y="-287.5" font-family="Helvetica,sans-Serif" font-size="10.00">packet.h</text>
</a>
</g>
</g>
<!-- Node1&#45;&gt;Node19 -->
<g id="edge18" class="edge">
<title>Node1&#45;&gt;Node19</title>
<path fill="none" stroke="midnightblue" d="M1509.88,-329.25C1499.77,-319.67 1487.22,-307.79 1478.82,-299.83"/>
<polygon fill="midnightblue" stroke="midnightblue" points="1507.68,-331.99 1517.34,-336.32 1512.49,-326.91 1507.68,-331.99"/>
</g>
<!-- Node20 -->
<g id="node19" class="node">
<title>Node20</title>
<g id="a_node19"><a xlink:href="spec_2comp_8h.html" target="_top" xlink:title=" ">
<polygon fill="white" stroke="black" points="1421,-224.5 1421,-243.5 1474,-243.5 1474,-224.5 1421,-224.5"/>
<text text-anchor="middle" x="1447.5" y="-231.5" font-family="Helvetica,sans-Serif" font-size="10.00">comp.h</text>
</a>
</g>
</g>
<!-- Node1&#45;&gt;Node20 -->
<g id="edge38" class="edge">
<title>Node1&#45;&gt;Node20</title>
<path fill="none" stroke="midnightblue" d="M1480.29,-334.62C1461.82,-327.96 1442.39,-317.2 1431.5,-300 1420.19,-282.13 1433.05,-256.81 1441.43,-243.67"/>
<polygon fill="midnightblue" stroke="midnightblue" points="1479.22,-337.95 1489.81,-337.74 1481.4,-331.3 1479.22,-337.95"/>
</g>
<!-- Node22 -->
<g id="node21" class="node">
<title>Node22</title>
<g id="a_node21"><a xlink:href="spec_2crypto_8h.html" target="_top" xlink:title=" ">
<polygon fill="white" stroke="black" points="1667.5,-224.5 1667.5,-243.5 1723.5,-243.5 1723.5,-224.5 1667.5,-224.5"/>
<text text-anchor="middle" x="1695.5" y="-231.5" font-family="Helvetica,sans-Serif" font-size="10.00">crypto.h</text>
</a>
</g>
</g>
<!-- Node1&#45;&gt;Node22 -->
<g id="edge41" class="edge">
<title>Node1&#45;&gt;Node22</title>
<path fill="none" stroke="midnightblue" d="M1539.14,-328.3C1550.7,-313.95 1568.94,-293.49 1588.5,-280 1612.89,-263.19 1644.55,-250.84 1667.09,-243.38"/>
<polygon fill="midnightblue" stroke="midnightblue" points="1536.26,-326.3 1532.85,-336.33 1541.77,-330.62 1536.26,-326.3"/>
</g>
<!-- Node36 -->
<g id="node23" class="node">
<title>Node36</title>
<g id="a_node23"><a xlink:href="spec_2packet__flags_8h.html" target="_top" xlink:title=" ">
<polygon fill="white" stroke="red" points="1563.5,-224.5 1563.5,-243.5 1649.5,-243.5 1649.5,-224.5 1563.5,-224.5"/>
<text text-anchor="middle" x="1606.5" y="-231.5" font-family="Helvetica,sans-Serif" font-size="10.00">packet_flags.h</text>
</a>
</g>
</g>
<!-- Node1&#45;&gt;Node36 -->
<g id="edge45" class="edge">
<title>Node1&#45;&gt;Node36</title>
<path fill="none" stroke="midnightblue" d="M1530.48,-326.52C1534.09,-312.77 1540.41,-294.02 1550.5,-280 1561.57,-264.61 1579.24,-251.63 1591.77,-243.63"/>
<polygon fill="midnightblue" stroke="midnightblue" points="1527.06,-325.76 1528.15,-336.3 1533.87,-327.38 1527.06,-325.76"/>
</g>
<!-- Node30 -->
<g id="node25" class="node">
<title>Node30</title>
<g id="a_node25"><a xlink:href="packet__io_8h.html" target="_top" xlink:title=" ">
<polygon fill="white" stroke="black" points="1292.5,-168.5 1292.5,-187.5 1364.5,-187.5 1364.5,-168.5 1292.5,-168.5"/>
<text text-anchor="middle" x="1328.5" y="-175.5" font-family="Helvetica,sans-Serif" font-size="10.00">packet_io.h</text>
</a>
</g>
</g>
<!-- Node1&#45;&gt;Node30 -->
<g id="edge31" class="edge">
<title>Node1&#45;&gt;Node30</title>
<path fill="none" stroke="midnightblue" d="M1479.66,-342.56C1418.04,-338.3 1314.6,-327.21 1289.5,-300 1266.53,-275.09 1270.53,-255.3 1283.5,-224 1289.93,-208.48 1304.59,-195.53 1315.44,-187.56"/>
<polygon fill="midnightblue" stroke="midnightblue" points="1479.71,-346.07 1489.91,-343.23 1480.17,-339.08 1479.71,-346.07"/>
</g>
<!-- Node31 -->
<g id="node26" class="node">
<title>Node31</title>
<g id="a_node26"><a xlink:href="spec_2classification_8h.html" target="_top" xlink:title=" ">
<polygon fill="white" stroke="black" points="1217,-112.5 1217,-131.5 1306,-131.5 1306,-112.5 1217,-112.5"/>
<text text-anchor="middle" x="1261.5" y="-119.5" font-family="Helvetica,sans-Serif" font-size="10.00">classification.h</text>
</a>
</g>
</g>
<!-- Node1&#45;&gt;Node31 -->
<g id="edge37" class="edge">
<title>Node1&#45;&gt;Node31</title>
<path fill="none" stroke="midnightblue" d="M1479.86,-343.41C1414.16,-340.11 1299.36,-330.09 1272.5,-300 1228.62,-250.85 1250.42,-160.19 1258.75,-131.76"/>
<polygon fill="midnightblue" stroke="midnightblue" points="1479.8,-346.91 1489.96,-343.89 1480.13,-339.92 1479.8,-346.91"/>
</g>
<!-- Node32 -->
<g id="node27" class="node">
<title>Node32</title>
<g id="a_node27"><a xlink:href="spec_2traffic__mngr_8h.html" target="_top" xlink:title=" ">
<polygon fill="white" stroke="red" points="1362.5,-112.5 1362.5,-131.5 1446.5,-131.5 1446.5,-112.5 1362.5,-112.5"/>
<text text-anchor="middle" x="1404.5" y="-119.5" font-family="Helvetica,sans-Serif" font-size="10.00">traffic_mngr.h</text>
</a>
</g>
</g>
<!-- Node1&#45;&gt;Node32 -->
<g id="edge57" class="edge">
<title>Node1&#45;&gt;Node32</title>
<path fill="none" stroke="midnightblue" d="M1480.18,-334.93C1459.99,-328.25 1437.72,-317.4 1423.5,-300 1381.66,-248.78 1396.49,-159.51 1402.49,-131.59"/>
<polygon fill="midnightblue" stroke="midnightblue" points="1479.3,-338.32 1489.89,-337.88 1481.34,-331.62 1479.3,-338.32"/>
</g>
<!-- Node38 -->
<g id="node28" class="node">
<title>Node38</title>
<g id="a_node28"><a xlink:href="proto__stats_8h.html" target="_top" xlink:title=" ">
<polygon fill="white" stroke="black" points="1630.5,-280.5 1630.5,-299.5 1710.5,-299.5 1710.5,-280.5 1630.5,-280.5"/>
<text text-anchor="middle" x="1670.5" y="-287.5" font-family="Helvetica,sans-Serif" font-size="10.00">proto_stats.h</text>
</a>
</g>
</g>
<!-- Node1&#45;&gt;Node38 -->
<g id="edge32" class="edge">
<title>Node1&#45;&gt;Node38</title>
<path fill="none" stroke="midnightblue" d="M1558.75,-332.91C1585.82,-322.75 1623.82,-308.51 1647.79,-299.52"/>
<polygon fill="midnightblue" stroke="midnightblue" points="1557.45,-329.66 1549.32,-336.44 1559.91,-336.21 1557.45,-329.66"/>
</g>
<!-- Node26 -->
<g id="node29" class="node">
<title>Node26</title>
<g id="a_node29"><a xlink:href="queue_8h.html" target="_top" xlink:title=" ">
<polygon fill="white" stroke="black" points="1728.5,-280.5 1728.5,-299.5 1784.5,-299.5 1784.5,-280.5 1728.5,-280.5"/>
<text text-anchor="middle" x="1756.5" y="-287.5" font-family="Helvetica,sans-Serif" font-size="10.00">queue.h</text>
</a>
</g>
</g>
<!-- Node1&#45;&gt;Node26 -->
<g id="edge33" class="edge">
<title>Node1&#45;&gt;Node26</title>
<path fill="none" stroke="midnightblue" d="M1572.95,-334.3C1612.06,-325.26 1669.47,-311.92 1719.5,-300 1722.33,-299.33 1725.28,-298.62 1728.22,-297.91"/>
<polygon fill="midnightblue" stroke="midnightblue" points="1572.12,-330.9 1563.16,-336.56 1573.7,-337.72 1572.12,-330.9"/>
</g>
<!-- Node39 -->
<g id="node31" class="node">
<title>Node39</title>
<g id="a_node31"><a xlink:href="spec_2chksum_8h.html" target="_top" xlink:title=" ">
<polygon fill="white" stroke="black" points="1802.5,-280.5 1802.5,-299.5 1866.5,-299.5 1866.5,-280.5 1802.5,-280.5"/>
<text text-anchor="middle" x="1834.5" y="-287.5" font-family="Helvetica,sans-Serif" font-size="10.00">chksum.h</text>
</a>
</g>
</g>
<!-- Node1&#45;&gt;Node39 -->
<g id="edge35" class="edge">
<title>Node1&#45;&gt;Node39</title>
<path fill="none" stroke="midnightblue" d="M1573.5,-337.79C1626.93,-329.44 1716.71,-314.89 1793.5,-300 1796.36,-299.45 1799.33,-298.84 1802.3,-298.22"/>
<polygon fill="midnightblue" stroke="midnightblue" points="1572.66,-334.38 1563.31,-339.38 1573.73,-341.3 1572.66,-334.38"/>
</g>
<!-- Node41 -->
<g id="node33" class="node">
<title>Node41</title>
<g id="a_node33"><a xlink:href="spec_2cpu_8h.html" target="_top" xlink:title=" ">
<polygon fill="white" stroke="black" points="1885,-280.5 1885,-299.5 1928,-299.5 1928,-280.5 1885,-280.5"/>
<text text-anchor="middle" x="1906.5" y="-287.5" font-family="Helvetica,sans-Serif" font-size="10.00">cpu.h</text>
</a>
</g>
</g>
<!-- Node1&#45;&gt;Node41 -->
<g id="edge39" class="edge">
<title>Node1&#45;&gt;Node41</title>
<path fill="none" stroke="midnightblue" d="M1573.52,-341.26C1640.91,-335.37 1768.63,-322.26 1875.5,-300 1878.57,-299.36 1881.78,-298.57 1884.93,-297.72"/>
<polygon fill="midnightblue" stroke="midnightblue" points="1572.9,-337.8 1563.24,-342.14 1573.5,-344.77 1572.9,-337.8"/>
</g>
<!-- Node44 -->
<g id="node35" class="node">
<title>Node44</title>
<g id="a_node35"><a xlink:href="spec_2hash_8h.html" target="_top" xlink:title=" ">
<polygon fill="white" stroke="red" points="1946,-280.5 1946,-299.5 1995,-299.5 1995,-280.5 1946,-280.5"/>
<text text-anchor="middle" x="1970.5" y="-287.5" font-family="Helvetica,sans-Serif" font-size="10.00">hash.h</text>
</a>
</g>
</g>
<!-- Node1&#45;&gt;Node44 -->
<g id="edge42" class="edge">
<title>Node1&#45;&gt;Node44</title>
<path fill="none" stroke="midnightblue" d="M1573.51,-342.13C1650.07,-336.95 1806.23,-324.25 1936.5,-300 1939.5,-299.44 1942.63,-298.76 1945.71,-298.02"/>
<polygon fill="midnightblue" stroke="midnightblue" points="1572.99,-338.66 1563.24,-342.82 1573.45,-345.65 1572.99,-338.66"/>
</g>
<!-- Node46 -->
<g id="node36" class="node">
<title>Node46</title>
<g id="a_node36"><a xlink:href="spec_2init_8h.html" target="_top" xlink:title=" ">
<polygon fill="white" stroke="red" points="2013,-280.5 2013,-299.5 2054,-299.5 2054,-280.5 2013,-280.5"/>
<text text-anchor="middle" x="2033.5" y="-287.5" font-family="Helvetica,sans-Serif" font-size="10.00">init.h</text>
</a>
</g>
</g>
<!-- Node1&#45;&gt;Node46 -->
<g id="edge43" class="edge">
<title>Node1&#45;&gt;Node46</title>
<path fill="none" stroke="midnightblue" d="M1573.26,-343.65C1659.2,-340.48 1847.74,-330.4 2003.5,-300 2006.6,-299.4 2009.83,-298.6 2012.98,-297.74"/>
<polygon fill="midnightblue" stroke="midnightblue" points="1572.92,-340.16 1563.05,-344.01 1573.17,-347.15 1572.92,-340.16"/>
</g>
<!-- Node51 -->
<g id="node37" class="node">
<title>Node51</title>
<g id="a_node37"><a xlink:href="spec_2pool_8h.html" target="_top" xlink:title=" ">
<polygon fill="white" stroke="red" points="2122,-224.5 2122,-243.5 2169,-243.5 2169,-224.5 2122,-224.5"/>
<text text-anchor="middle" x="2145.5" y="-231.5" font-family="Helvetica,sans-Serif" font-size="10.00">pool.h</text>
</a>
</g>
</g>
<!-- Node1&#45;&gt;Node51 -->
<g id="edge46" class="edge">
<title>Node1&#45;&gt;Node51</title>
<path fill="none" stroke="midnightblue" d="M1573.65,-345.26C1713.67,-345.53 2119.8,-342.63 2159.5,-300 2173.98,-284.46 2160.41,-257.68 2151.63,-243.84"/>
<polygon fill="midnightblue" stroke="midnightblue" points="1573.27,-341.76 1563.26,-345.23 1573.25,-348.76 1573.27,-341.76"/>
</g>
<!-- Node54 -->
<g id="node38" class="node">
<title>Node54</title>
<g id="a_node38"><a xlink:href="pool__types_8h.html" target="_top" xlink:title=" ">
<polygon fill="white" stroke="black" points="2072,-280.5 2072,-299.5 2151,-299.5 2151,-280.5 2072,-280.5"/>
<text text-anchor="middle" x="2111.5" y="-287.5" font-family="Helvetica,sans-Serif" font-size="10.00">pool_types.h</text>
</a>
</g>
</g>
<!-- Node1&#45;&gt;Node54 -->
<g id="edge47" class="edge">
<title>Node1&#45;&gt;Node54</title>
<path fill="none" stroke="midnightblue" d="M1573.26,-342.62C1666.59,-337.52 1882.46,-324.03 2062.5,-300 2065.59,-299.59 2068.77,-299.11 2071.97,-298.6"/>
<polygon fill="midnightblue" stroke="midnightblue" points="1572.82,-339.14 1563.03,-343.17 1573.2,-346.13 1572.82,-339.14"/>
</g>
<!-- Node55 -->
<g id="node39" class="node">
<title>Node55</title>
<g id="a_node39"><a xlink:href="spec_2proto__stats__types_8h.html" target="_top" xlink:title=" ">
<polygon fill="white" stroke="red" points="2208,-280.5 2208,-299.5 2321,-299.5 2321,-280.5 2208,-280.5"/>
<text text-anchor="middle" x="2264.5" y="-287.5" font-family="Helvetica,sans-Serif" font-size="10.00">proto_stats_types.h</text>
</a>
</g>
</g>
<!-- Node1&#45;&gt;Node55 -->
<g id="edge49" class="edge">
<title>Node1&#45;&gt;Node55</title>
<path fill="none" stroke="midnightblue" d="M1573.39,-342.79C1682.39,-337.43 1961.24,-322.54 2193.5,-300 2198.2,-299.54 2203.07,-299.03 2207.95,-298.47"/>
<polygon fill="midnightblue" stroke="midnightblue" points="1572.89,-339.31 1563.07,-343.29 1573.23,-346.3 1572.89,-339.31"/>
</g>
<!-- Node61 -->
<g id="node40" class="node">
<title>Node61</title>
<g id="a_node40"><a xlink:href="spec_2random_8h.html" target="_top" xlink:title=" ">
<polygon fill="white" stroke="red" points="2339,-280.5 2339,-299.5 2402,-299.5 2402,-280.5 2339,-280.5"/>
<text text-anchor="middle" x="2370.5" y="-287.5" font-family="Helvetica,sans-Serif" font-size="10.00">random.h</text>
</a>
</g>
</g>
<!-- Node1&#45;&gt;Node61 -->
<g id="edge50" class="edge">
<title>Node1&#45;&gt;Node61</title>
<path fill="none" stroke="midnightblue" d="M1573.46,-345.08C1697.67,-344.69 2044.94,-339.84 2330.5,-300 2333.18,-299.63 2335.94,-299.17 2338.71,-298.65"/>
<polygon fill="midnightblue" stroke="midnightblue" points="1573.16,-341.58 1563.17,-345.1 1573.18,-348.58 1573.16,-341.58"/>
</g>
<!-- Node34 -->
<g id="node41" class="node">
<title>Node34</title>
<g id="a_node41"><a xlink:href="spec_2schedule_8h.html" target="_top" xlink:title=" ">
<polygon fill="white" stroke="red" points="2420,-280.5 2420,-299.5 2489,-299.5 2489,-280.5 2420,-280.5"/>
<text text-anchor="middle" x="2454.5" y="-287.5" font-family="Helvetica,sans-Serif" font-size="10.00">schedule.h</text>
</a>
</g>
</g>
<!-- Node1&#45;&gt;Node34 -->
<g id="edge51" class="edge">
<title>Node1&#45;&gt;Node34</title>
<path fill="none" stroke="midnightblue" d="M1573.55,-345.17C1706.02,-345.12 2093.23,-341.15 2411.5,-300 2414.22,-299.65 2417.03,-299.22 2419.85,-298.74"/>
<polygon fill="midnightblue" stroke="midnightblue" points="1573.36,-341.67 1563.35,-345.17 1573.35,-348.67 1573.36,-341.67"/>
</g>
<!-- Node63 -->
<g id="node42" class="node">
<title>Node63</title>
<g id="a_node42"><a xlink:href="spec_2schedule__types_8h.html" target="_top" xlink:title=" ">
<polygon fill="white" stroke="red" points="2507,-280.5 2507,-299.5 2608,-299.5 2608,-280.5 2507,-280.5"/>
<text text-anchor="middle" x="2557.5" y="-287.5" font-family="Helvetica,sans-Serif" font-size="10.00">schedule_types.h</text>
</a>
</g>
</g>
<!-- Node1&#45;&gt;Node63 -->
<g id="edge52" class="edge">
<title>Node1&#45;&gt;Node63</title>
<path fill="none" stroke="midnightblue" d="M1573.64,-344.57C1714.47,-342.92 2144.2,-335.13 2498.5,-300 2501.18,-299.73 2503.93,-299.43 2506.69,-299.1"/>
<polygon fill="midnightblue" stroke="midnightblue" points="1573.19,-341.08 1563.23,-344.69 1573.27,-348.08 1573.19,-341.08"/>
</g>
<!-- Node69 -->
<g id="node43" class="node">
<title>Node69</title>
<g id="a_node43"><a xlink:href="spec_2stash_8h.html" target="_top" xlink:title=" ">
<polygon fill="white" stroke="red" points="2626.5,-280.5 2626.5,-299.5 2678.5,-299.5 2678.5,-280.5 2626.5,-280.5"/>
<text text-anchor="middle" x="2652.5" y="-287.5" font-family="Helvetica,sans-Serif" font-size="10.00">stash.h</text>
</a>
</g>
</g>
<!-- Node1&#45;&gt;Node69 -->
<g id="edge53" class="edge">
<title>Node1&#45;&gt;Node69</title>
<path fill="none" stroke="midnightblue" d="M1573.27,-344.38C1754.6,-341.78 2411.34,-330.41 2617.5,-300 2620.36,-299.58 2623.31,-299.02 2626.25,-298.38"/>
<polygon fill="midnightblue" stroke="midnightblue" points="1573.2,-340.88 1563.26,-344.52 1573.3,-347.88 1573.2,-340.88"/>
</g>
<!-- Node71 -->
<g id="node44" class="node">
<title>Node71</title>
<g id="a_node44"><a xlink:href="spec_2std_8h.html" target="_top" xlink:title=" ">
<polygon fill="white" stroke="red" points="2697,-280.5 2697,-299.5 2738,-299.5 2738,-280.5 2697,-280.5"/>
<text text-anchor="middle" x="2717.5" y="-287.5" font-family="Helvetica,sans-Serif" font-size="10.00">std.h</text>
</a>
</g>
</g>
<!-- Node1&#45;&gt;Node71 -->
<g id="edge54" class="edge">
<title>Node1&#45;&gt;Node71</title>
<path fill="none" stroke="midnightblue" d="M1573.16,-344.76C1761.69,-343.56 2467.57,-336.64 2687.5,-300 2690.5,-299.5 2693.63,-298.79 2696.68,-297.98"/>
<polygon fill="midnightblue" stroke="midnightblue" points="1573.01,-341.26 1563.03,-344.82 1573.05,-348.26 1573.01,-341.26"/>
</g>
<!-- Node73 -->
<g id="node45" class="node">
<title>Node73</title>
<g id="a_node45"><a xlink:href="spec_2threshold_8h.html" target="_top" xlink:title=" ">
<polygon fill="white" stroke="red" points="2756,-280.5 2756,-299.5 2827,-299.5 2827,-280.5 2756,-280.5"/>
<text text-anchor="middle" x="2791.5" y="-287.5" font-family="Helvetica,sans-Serif" font-size="10.00">threshold.h</text>
</a>
</g>
</g>
<!-- Node1&#45;&gt;Node73 -->
<g id="edge55" class="edge">
<title>Node1&#45;&gt;Node73</title>
<path fill="none" stroke="midnightblue" d="M1573.24,-344.31C1767.75,-341.27 2513.8,-328.01 2747.5,-300 2750.13,-299.68 2752.84,-299.29 2755.56,-298.85"/>
<polygon fill="midnightblue" stroke="midnightblue" points="1573.01,-340.81 1563.07,-344.47 1573.12,-347.81 1573.01,-340.81"/>
</g>
<!-- Node75 -->
<g id="node46" class="node">
<title>Node75</title>
<g id="a_node46"><a xlink:href="spec_2thrmask_8h.html" target="_top" xlink:title=" ">
<polygon fill="white" stroke="red" points="2845.5,-280.5 2845.5,-299.5 2911.5,-299.5 2911.5,-280.5 2845.5,-280.5"/>
<text text-anchor="middle" x="2878.5" y="-287.5" font-family="Helvetica,sans-Serif" font-size="10.00">thrmask.h</text>
</a>
</g>
</g>
<!-- Node1&#45;&gt;Node75 -->
<g id="edge56" class="edge">
<title>Node1&#45;&gt;Node75</title>
<path fill="none" stroke="midnightblue" d="M1573.31,-344.5C1776.67,-342.17 2584.54,-331.08 2836.5,-300 2839.31,-299.65 2842.22,-299.21 2845.12,-298.71"/>
<polygon fill="midnightblue" stroke="midnightblue" points="1573.21,-341 1563.25,-344.62 1573.29,-348 1573.21,-341"/>
</g>
<!-- Node77 -->
<g id="node47" class="node">
<title>Node77</title>
<g id="a_node47"><a xlink:href="system__info_8h.html" target="_top" xlink:title=" ">
<polygon fill="white" stroke="black" points="2929.5,-280.5 2929.5,-299.5 3015.5,-299.5 3015.5,-280.5 2929.5,-280.5"/>
<text text-anchor="middle" x="2972.5" y="-287.5" font-family="Helvetica,sans-Serif" font-size="10.00">system_info.h</text>
</a>
</g>
</g>
<!-- Node1&#45;&gt;Node77 -->
<g id="edge58" class="edge">
<title>Node1&#45;&gt;Node77</title>
<path fill="none" stroke="midnightblue" d="M1573.14,-344.37C1784.11,-341.37 2650.45,-327.59 2920.5,-300 2923.42,-299.7 2926.42,-299.34 2929.43,-298.93"/>
<polygon fill="midnightblue" stroke="midnightblue" points="1572.98,-340.87 1563.03,-344.51 1573.07,-347.87 1572.98,-340.87"/>
</g>
<!-- Node78 -->
<g id="node48" class="node">
<title>Node78</title>
<g id="a_node48"><a xlink:href="time_8h.html" target="_top" xlink:title=" ">
<polygon fill="white" stroke="red" points="1298.5,-280.5 1298.5,-299.5 1346.5,-299.5 1346.5,-280.5 1298.5,-280.5"/>
<text text-anchor="middle" x="1322.5" y="-287.5" font-family="Helvetica,sans-Serif" font-size="10.00">time.h</text>
</a>
</g>
</g>
<!-- Node1&#45;&gt;Node78 -->
<g id="edge59" class="edge">
<title>Node1&#45;&gt;Node78</title>
<path fill="none" stroke="midnightblue" d="M1484.33,-333.84C1442.73,-322.83 1380.59,-306.38 1346.69,-297.4"/>
<polygon fill="midnightblue" stroke="midnightblue" points="1483.61,-337.27 1494.18,-336.44 1485.4,-330.5 1483.61,-337.27"/>
</g>
<!-- Node79 -->
<g id="node49" class="node">
<title>Node79</title>
<g id="a_node49"><a xlink:href="timer_8h.html" target="_top" xlink:title=" ">
<polygon fill="white" stroke="black" points="3034,-280.5 3034,-299.5 3085,-299.5 3085,-280.5 3034,-280.5"/>
<text text-anchor="middle" x="3059.5" y="-287.5" font-family="Helvetica,sans-Serif" font-size="10.00">timer.h</text>
</a>
</g>
</g>
<!-- Node1&#45;&gt;Node79 -->
<g id="edge61" class="edge">
<title>Node1&#45;&gt;Node79</title>
<path fill="none" stroke="midnightblue" d="M1573.41,-344.99C1794.56,-344.72 2734.29,-341.15 3024.5,-300 3027.48,-299.58 3030.58,-299 3033.64,-298.33"/>
<polygon fill="midnightblue" stroke="midnightblue" points="1573.13,-341.49 1563.13,-345 1573.14,-348.49 1573.13,-341.49"/>
</g>
<!-- Node80 -->
<g id="node50" class="node">
<title>Node80</title>
<g id="a_node50"><a xlink:href="strong__types_8h.html" target="_top" xlink:title=" ">
<polygon fill="white" stroke="black" points="3103,-280.5 3103,-299.5 3192,-299.5 3192,-280.5 3103,-280.5"/>
<text text-anchor="middle" x="3147.5" y="-287.5" font-family="Helvetica,sans-Serif" font-size="10.00">strong_types.h</text>
</a>
</g>
</g>
<!-- Node1&#45;&gt;Node80 -->
<g id="edge62" class="edge">
<title>Node1&#45;&gt;Node80</title>
<path fill="none" stroke="midnightblue" d="M1573.32,-344.54C1800.37,-342.16 2788.2,-330.25 3094.5,-300 3097.19,-299.73 3099.96,-299.41 3102.74,-299.05"/>
<polygon fill="midnightblue" stroke="midnightblue" points="1573.06,-341.04 1563.09,-344.64 1573.13,-348.04 1573.06,-341.04"/>
</g>
<!-- Node15&#45;&gt;Node16 -->
<g id="edge15" class="edge">
<title>Node15&#45;&gt;Node16</title>
<path fill="none" stroke="midnightblue" d="M1273.12,-47.57C1279.32,-38.27 1286.67,-27.25 1291.67,-19.75"/>
<polygon fill="midnightblue" stroke="midnightblue" points="1270.08,-45.82 1267.44,-56.08 1275.9,-49.7 1270.08,-45.82"/>
</g>
<!-- Node18&#45;&gt;Node16 -->
<g id="edge17" class="edge">
<title>Node18&#45;&gt;Node16</title>
<path fill="none" stroke="midnightblue" d="M1665.3,-164.41C1587.89,-132.12 1383.84,-47.01 1318.18,-19.62"/>
<polygon fill="midnightblue" stroke="midnightblue" points="1664.36,-167.81 1674.94,-168.42 1667.06,-161.34 1664.36,-167.81"/>
</g>
<!-- Node19&#45;&gt;Node20 -->
<g id="edge19" class="edge">
<title>Node19&#45;&gt;Node20</title>
<path fill="none" stroke="midnightblue" d="M1462.04,-270.69C1458.33,-261.59 1454.02,-251.01 1451.07,-243.75"/>
<polygon fill="midnightblue" stroke="midnightblue" points="1458.85,-272.14 1465.87,-280.08 1465.34,-269.5 1458.85,-272.14"/>
</g>
<!-- Node19&#45;&gt;Node22 -->
<g id="edge21" class="edge">
<title>Node19&#45;&gt;Node22</title>
<path fill="none" stroke="midnightblue" d="M1508.84,-279.69C1547.08,-270.63 1606.79,-256.44 1658.5,-244 1661.33,-243.32 1664.28,-242.61 1667.22,-241.89"/>
<polygon fill="midnightblue" stroke="midnightblue" points="1507.57,-276.4 1498.65,-282.11 1509.19,-283.21 1507.57,-276.4"/>
</g>
<!-- Node23 -->
<g id="node22" class="node">
<title>Node23</title>
<g id="a_node22"><a xlink:href="spec_2event_8h.html" target="_top" xlink:title=" ">
<polygon fill="white" stroke="red" points="1492,-224.5 1492,-243.5 1545,-243.5 1545,-224.5 1492,-224.5"/>
<text text-anchor="middle" x="1518.5" y="-231.5" font-family="Helvetica,sans-Serif" font-size="10.00">event.h</text>
</a>
</g>
</g>
<!-- Node19&#45;&gt;Node23 -->
<g id="edge23" class="edge">
<title>Node19&#45;&gt;Node23</title>
<path fill="none" stroke="midnightblue" d="M1484.53,-272.43C1493.12,-262.97 1503.54,-251.48 1510.56,-243.75"/>
<polygon fill="midnightblue" stroke="midnightblue" points="1481.72,-270.33 1477.59,-280.08 1486.9,-275.03 1481.72,-270.33"/>
</g>
<!-- Node19&#45;&gt;Node36 -->
<g id="edge24" class="edge">
<title>Node19&#45;&gt;Node36</title>
<path fill="none" stroke="midnightblue" d="M1500.52,-276.77C1526.26,-266.63 1562.19,-252.47 1584.89,-243.52"/>
<polygon fill="midnightblue" stroke="midnightblue" points="1499.23,-273.52 1491.21,-280.44 1501.79,-280.03 1499.23,-273.52"/>
</g>
<!-- Node29 -->
<g id="node24" class="node">
<title>Node29</title>
<g id="a_node24"><a xlink:href="spec_2packet__io_8h.html" target="_top" xlink:title=" ">
<polygon fill="white" stroke="black" points="1292.5,-224.5 1292.5,-243.5 1364.5,-243.5 1364.5,-224.5 1292.5,-224.5"/>
<text text-anchor="middle" x="1328.5" y="-231.5" font-family="Helvetica,sans-Serif" font-size="10.00">packet_io.h</text>
</a>
</g>
</g>
<!-- Node19&#45;&gt;Node29 -->
<g id="edge25" class="edge">
<title>Node19&#45;&gt;Node29</title>
<path fill="none" stroke="midnightblue" d="M1437.57,-276.77C1411.09,-266.63 1374.11,-252.47 1350.74,-243.52"/>
<polygon fill="midnightblue" stroke="midnightblue" points="1436.57,-280.14 1447.16,-280.44 1439.07,-273.6 1436.57,-280.14"/>
</g>
<!-- Node21 -->
<g id="node20" class="node">
<title>Node21</title>
<g id="a_node20"><a xlink:href="comp_8h.html" target="_top" xlink:title=" ">
<polygon fill="white" stroke="black" points="1421,-168.5 1421,-187.5 1474,-187.5 1474,-168.5 1421,-168.5"/>
<text text-anchor="middle" x="1447.5" y="-175.5" font-family="Helvetica,sans-Serif" font-size="10.00">comp.h</text>
</a>
</g>
</g>
<!-- Node20&#45;&gt;Node21 -->
<g id="edge20" class="edge">
<title>Node20&#45;&gt;Node21</title>
<path fill="none" stroke="midnightblue" d="M1447.5,-213.8C1447.5,-204.91 1447.5,-194.78 1447.5,-187.75"/>
<polygon fill="midnightblue" stroke="midnightblue" points="1444,-214.08 1447.5,-224.08 1451,-214.08 1444,-214.08"/>
</g>
<!-- Node22&#45;&gt;Node18 -->
<g id="edge22" class="edge">
<title>Node22&#45;&gt;Node18</title>
<path fill="none" stroke="midnightblue" d="M1695.5,-213.8C1695.5,-204.91 1695.5,-194.78 1695.5,-187.75"/>
<polygon fill="midnightblue" stroke="midnightblue" points="1692,-214.08 1695.5,-224.08 1699,-214.08 1692,-214.08"/>
</g>
<!-- Node29&#45;&gt;Node30 -->
<g id="edge26" class="edge">
<title>Node29&#45;&gt;Node30</title>
<path fill="none" stroke="midnightblue" d="M1328.5,-213.8C1328.5,-204.91 1328.5,-194.78 1328.5,-187.75"/>
<polygon fill="midnightblue" stroke="midnightblue" points="1325,-214.08 1328.5,-224.08 1332,-214.08 1325,-214.08"/>
</g>
<!-- Node30&#45;&gt;Node16 -->
<g id="edge29" class="edge">
<title>Node30&#45;&gt;Node16</title>
<path fill="none" stroke="midnightblue" d="M1327.76,-158.19C1326.48,-134.18 1323.12,-91.5 1314.5,-56 1311.35,-43.02 1305.49,-28.68 1301.55,-19.76"/>
<polygon fill="midnightblue" stroke="midnightblue" points="1324.27,-158.54 1328.23,-168.36 1331.26,-158.21 1324.27,-158.54"/>
</g>
<!-- Node30&#45;&gt;Node31 -->
<g id="edge27" class="edge">
<title>Node30&#45;&gt;Node31</title>
<path fill="none" stroke="midnightblue" d="M1309.67,-161.82C1297.66,-152.15 1282.53,-139.95 1272.46,-131.83"/>
<polygon fill="midnightblue" stroke="midnightblue" points="1307.75,-164.77 1317.74,-168.32 1312.15,-159.32 1307.75,-164.77"/>
</g>
<!-- Node30&#45;&gt;Node32 -->
<g id="edge30" class="edge">
<title>Node30&#45;&gt;Node32</title>
<path fill="none" stroke="midnightblue" d="M1349.08,-162.38C1362.81,-152.62 1380.43,-140.11 1392.07,-131.83"/>
<polygon fill="midnightblue" stroke="midnightblue" points="1346.84,-159.68 1340.71,-168.32 1350.89,-165.38 1346.84,-159.68"/>
</g>
<!-- Node31&#45;&gt;Node15 -->
<g id="edge28" class="edge">
<title>Node31&#45;&gt;Node15</title>
<path fill="none" stroke="midnightblue" d="M1261.5,-101.8C1261.5,-92.91 1261.5,-82.78 1261.5,-75.75"/>
<polygon fill="midnightblue" stroke="midnightblue" points="1258,-102.08 1261.5,-112.08 1265,-102.08 1258,-102.08"/>
</g>
<!-- Node27 -->
<g id="node30" class="node">
<title>Node27</title>
<g id="a_node30"><a xlink:href="spec_2packet__io__stats_8h.html" target="_top" xlink:title=" ">
<polygon fill="white" stroke="red" points="1780,-224.5 1780,-243.5 1881,-243.5 1881,-224.5 1780,-224.5"/>
<text text-anchor="middle" x="1830.5" y="-231.5" font-family="Helvetica,sans-Serif" font-size="10.00">packet_io_stats.h</text>
</a>
</g>
</g>
<!-- Node26&#45;&gt;Node27 -->
<g id="edge34" class="edge">
<title>Node26&#45;&gt;Node27</title>
<path fill="none" stroke="midnightblue" d="M1776.53,-274.38C1789.91,-264.62 1807.06,-252.11 1818.39,-243.83"/>
<polygon fill="midnightblue" stroke="midnightblue" points="1774.4,-271.6 1768.39,-280.32 1778.53,-277.26 1774.4,-271.6"/>
</g>
<!-- Node40 -->
<g id="node32" class="node">
<title>Node40</title>
<g id="a_node32"><a xlink:href="chksum_8h.html" target="_top" xlink:title=" ">
<polygon fill="white" stroke="black" points="1899.5,-224.5 1899.5,-243.5 1963.5,-243.5 1963.5,-224.5 1899.5,-224.5"/>
<text text-anchor="middle" x="1931.5" y="-231.5" font-family="Helvetica,sans-Serif" font-size="10.00">chksum.h</text>
</a>
</g>
</g>
<!-- Node39&#45;&gt;Node40 -->
<g id="edge36" class="edge">
<title>Node39&#45;&gt;Node40</title>
<path fill="none" stroke="midnightblue" d="M1858.84,-275.45C1876.74,-265.48 1900.55,-252.23 1915.95,-243.65"/>
<polygon fill="midnightblue" stroke="midnightblue" points="1857.12,-272.4 1850.08,-280.32 1860.52,-278.52 1857.12,-272.4"/>
</g>
<!-- Node42 -->
<g id="node34" class="node">
<title>Node42</title>
<g id="a_node34"><a xlink:href="cpu_8h.html" target="_top" xlink:title=" ">
<polygon fill="white" stroke="red" points="1982,-224.5 1982,-243.5 2025,-243.5 2025,-224.5 1982,-224.5"/>
<text text-anchor="middle" x="2003.5" y="-231.5" font-family="Helvetica,sans-Serif" font-size="10.00">cpu.h</text>
</a>
</g>
</g>
<!-- Node41&#45;&gt;Node42 -->
<g id="edge40" class="edge">
<title>Node41&#45;&gt;Node42</title>
<path fill="none" stroke="midnightblue" d="M1930.84,-275.45C1948.74,-265.48 1972.55,-252.23 1987.95,-243.65"/>
<polygon fill="midnightblue" stroke="midnightblue" points="1929.12,-272.4 1922.08,-280.32 1932.52,-278.52 1929.12,-272.4"/>
</g>
<!-- Node54&#45;&gt;Node51 -->
<g id="edge48" class="edge">
<title>Node54&#45;&gt;Node51</title>
<path fill="none" stroke="midnightblue" d="M2122.48,-271.57C2128.33,-262.27 2135.27,-251.25 2139.99,-243.75"/>
<polygon fill="midnightblue" stroke="midnightblue" points="2119.48,-269.76 2117.11,-280.08 2125.4,-273.49 2119.48,-269.76"/>
</g>
<!-- Node78&#45;&gt;Node29 -->
<g id="edge60" class="edge">
<title>Node78&#45;&gt;Node29</title>
<path fill="none" stroke="midnightblue" d="M1324.6,-270.1C1325.6,-261.14 1326.74,-250.86 1327.53,-243.75"/>
<polygon fill="midnightblue" stroke="midnightblue" points="1321.12,-269.76 1323.49,-280.08 1328.07,-270.53 1321.12,-269.76"/>
</g>
</g>
</svg>
