<?xml version="1.0" encoding="UTF-8" standalone="no"?>
<!DOCTYPE svg PUBLIC "-//W3C//DTD SVG 1.1//EN"
 "http://www.w3.org/Graphics/SVG/1.1/DTD/svg11.dtd">
<!-- Generated by graphviz version 2.43.0 (0)
 -->
<!-- Title: linux.h Pages: 1 -->
<svg width="390pt" height="263pt"
 viewBox="0.00 0.00 390.00 263.00" xmlns="http://www.w3.org/2000/svg" xmlns:xlink="http://www.w3.org/1999/xlink">
<g id="graph0" class="graph" transform="scale(1 1) rotate(0) translate(4 259)">
<title>linux.h</title>
<polygon fill="white" stroke="transparent" points="-4,4 -4,-259 386,-259 386,4 -4,4"/>
<!-- Node1 -->
<g id="node1" class="node">
<title>Node1</title>
<g id="a_node1"><a xlink:title=" ">
<polygon fill="#bfbfbf" stroke="black" points="278.5,-235.5 278.5,-254.5 328.5,-254.5 328.5,-235.5 278.5,-235.5"/>
<text text-anchor="middle" x="303.5" y="-242.5" font-family="Helvetica,sans-Serif" font-size="10.00">linux.h</text>
</a>
</g>
</g>
<!-- Node2 -->
<g id="node2" class="node">
<title>Node2</title>
<g id="a_node2"><a xlink:href="process_8h.html" target="_top" xlink:title=" ">
<polygon fill="white" stroke="black" points="181,-179.5 181,-198.5 326,-198.5 326,-179.5 181,-179.5"/>
<text text-anchor="middle" x="253.5" y="-186.5" font-family="Helvetica,sans-Serif" font-size="10.00">odp/helper/linux/process.h</text>
</a>
</g>
</g>
<!-- Node1&#45;&gt;Node2 -->
<g id="edge1" class="edge">
<title>Node1&#45;&gt;Node2</title>
<path fill="none" stroke="midnightblue" d="M295.24,-235.08C288.04,-227.3 277.39,-215.8 268.65,-206.37"/>
<polygon fill="midnightblue" stroke="midnightblue" points="270.97,-203.71 261.6,-198.75 265.83,-208.47 270.97,-203.71"/>
</g>
<!-- Node6 -->
<g id="node6" class="node">
<title>Node6</title>
<g id="a_node6"><a xlink:href="pthread_8h.html" target="_top" xlink:title=" ">
<polygon fill="white" stroke="black" points="319,-67.5 319,-86.5 382,-86.5 382,-67.5 319,-67.5"/>
<text text-anchor="middle" x="350.5" y="-74.5" font-family="Helvetica,sans-Serif" font-size="10.00">pthread.h</text>
</a>
</g>
</g>
<!-- Node1&#45;&gt;Node6 -->
<g id="edge9" class="edge">
<title>Node1&#45;&gt;Node6</title>
<path fill="none" stroke="midnightblue" d="M311.28,-235.42C318.57,-226.85 329.12,-212.99 334.5,-199 347.71,-164.67 350.36,-121.26 350.7,-96.87"/>
<polygon fill="midnightblue" stroke="midnightblue" points="354.2,-96.55 350.72,-86.55 347.2,-96.54 354.2,-96.55"/>
</g>
<!-- Node3 -->
<g id="node3" class="node">
<title>Node3</title>
<g id="a_node3"><a xlink:href="threads_8h.html" target="_top" xlink:title=" ">
<polygon fill="white" stroke="black" points="202,-123.5 202,-142.5 319,-142.5 319,-123.5 202,-123.5"/>
<text text-anchor="middle" x="260.5" y="-130.5" font-family="Helvetica,sans-Serif" font-size="10.00">odp/helper/threads.h</text>
</a>
</g>
</g>
<!-- Node2&#45;&gt;Node3 -->
<g id="edge2" class="edge">
<title>Node2&#45;&gt;Node3</title>
<path fill="none" stroke="midnightblue" d="M254.66,-179.08C255.58,-171.93 256.92,-161.64 258.08,-152.69"/>
<polygon fill="midnightblue" stroke="midnightblue" points="261.55,-153.12 259.37,-142.75 254.61,-152.22 261.55,-153.12"/>
</g>
<!-- Node4 -->
<g id="node4" class="node">
<title>Node4</title>
<g id="a_node4"><a xlink:href="deprecated_8h.html" target="_top" xlink:title=" ">
<polygon fill="white" stroke="black" points="0,-67.5 0,-86.5 135,-86.5 135,-67.5 0,-67.5"/>
<text text-anchor="middle" x="67.5" y="-74.5" font-family="Helvetica,sans-Serif" font-size="10.00">odp/helper/deprecated.h</text>
</a>
</g>
</g>
<!-- Node3&#45;&gt;Node4 -->
<g id="edge3" class="edge">
<title>Node3&#45;&gt;Node4</title>
<path fill="none" stroke="midnightblue" d="M229.92,-123.44C196.89,-114.2 144.11,-99.44 107.73,-89.26"/>
<polygon fill="midnightblue" stroke="midnightblue" points="108.51,-85.84 97.94,-86.52 106.63,-92.58 108.51,-85.84"/>
</g>
<!-- Node3&#45;&gt;Node6 -->
<g id="edge5" class="edge">
<title>Node3&#45;&gt;Node6</title>
<path fill="none" stroke="midnightblue" d="M269.85,-123.32C282.29,-114.74 304.11,-101.49 322.02,-91.52"/>
<polygon fill="midnightblue" stroke="midnightblue" points="323.86,-94.51 330.97,-86.65 320.51,-88.36 323.86,-94.51"/>
</g>
<!-- Node7 -->
<g id="node7" class="node">
<title>Node7</title>
<g id="a_node7"><a xlink:title=" ">
<polygon fill="white" stroke="#bfbfbf" points="153,-67.5 153,-86.5 210,-86.5 210,-67.5 153,-67.5"/>
<text text-anchor="middle" x="181.5" y="-74.5" font-family="Helvetica,sans-Serif" font-size="10.00">getopt.h</text>
</a>
</g>
</g>
<!-- Node3&#45;&gt;Node7 -->
<g id="edge7" class="edge">
<title>Node3&#45;&gt;Node7</title>
<path fill="none" stroke="midnightblue" d="M247.81,-123.32C235.6,-114.98 216.92,-102.21 202.5,-92.35"/>
<polygon fill="midnightblue" stroke="midnightblue" points="204.39,-89.41 194.16,-86.65 200.44,-95.19 204.39,-89.41"/>
</g>
<!-- Node8 -->
<g id="node8" class="node">
<title>Node8</title>
<g id="a_node8"><a xlink:title=" ">
<polygon fill="white" stroke="#bfbfbf" points="228.5,-67.5 228.5,-86.5 300.5,-86.5 300.5,-67.5 228.5,-67.5"/>
<text text-anchor="middle" x="264.5" y="-74.5" font-family="Helvetica,sans-Serif" font-size="10.00">sys/types.h</text>
</a>
</g>
</g>
<!-- Node3&#45;&gt;Node8 -->
<g id="edge8" class="edge">
<title>Node3&#45;&gt;Node8</title>
<path fill="none" stroke="midnightblue" d="M261.16,-123.08C261.68,-116.01 262.44,-105.86 263.09,-96.99"/>
<polygon fill="midnightblue" stroke="midnightblue" points="266.6,-96.98 263.85,-86.75 259.62,-96.47 266.6,-96.98"/>
</g>
<!-- Node5 -->
<g id="node5" class="node">
<title>Node5</title>
<g id="a_node5"><a xlink:href="autoheader__external_8h_source.html" target="_top" xlink:title=" ">
<polygon fill="white" stroke="black" points="4,-0.5 4,-30.5 131,-30.5 131,-0.5 4,-0.5"/>
<text text-anchor="start" x="12" y="-18.5" font-family="Helvetica,sans-Serif" font-size="10.00">odp/helper/autoheader</text>
<text text-anchor="middle" x="67.5" y="-7.5" font-family="Helvetica,sans-Serif" font-size="10.00">_external.h</text>
</a>
</g>
</g>
<!-- Node4&#45;&gt;Node5 -->
<g id="edge4" class="edge">
<title>Node4&#45;&gt;Node5</title>
<path fill="none" stroke="midnightblue" d="M67.5,-67.48C67.5,-60.47 67.5,-50.19 67.5,-40.7"/>
<polygon fill="midnightblue" stroke="midnightblue" points="71,-40.52 67.5,-30.52 64,-40.52 71,-40.52"/>
</g>
<!-- Node6&#45;&gt;Node3 -->
<g id="edge6" class="edge">
<title>Node6&#45;&gt;Node3</title>
<path fill="none" stroke="midnightblue" d="M341.19,-86.65C328.76,-95.23 306.94,-108.48 289.02,-118.45"/>
<polygon fill="midnightblue" stroke="midnightblue" points="287.18,-115.47 280.07,-123.32 290.53,-121.62 287.18,-115.47"/>
</g>
</g>
</svg>
