<?xml version="1.0" encoding="UTF-8" standalone="no"?>
<!DOCTYPE svg PUBLIC "-//W3C//DTD SVG 1.1//EN"
 "http://www.w3.org/Graphics/SVG/1.1/DTD/svg11.dtd">
<!-- Generated by graphviz version 2.43.0 (0)
 -->
<!-- Title: odph_api.h Pages: 1 -->
<svg width="2323pt" height="207pt"
 viewBox="0.00 0.00 2323.00 207.00" xmlns="http://www.w3.org/2000/svg" xmlns:xlink="http://www.w3.org/1999/xlink">
<g id="graph0" class="graph" transform="scale(1 1) rotate(0) translate(4 203)">
<title>odph_api.h</title>
<polygon fill="white" stroke="transparent" points="-4,4 -4,-203 2319,-203 2319,4 -4,4"/>
<!-- Node1 -->
<g id="node1" class="node">
<title>Node1</title>
<g id="a_node1"><a xlink:title=" ">
<polygon fill="#bfbfbf" stroke="black" points="1170,-179.5 1170,-198.5 1240,-198.5 1240,-179.5 1170,-179.5"/>
<text text-anchor="middle" x="1205" y="-186.5" font-family="Helvetica,sans-Serif" font-size="10.00">odph_api.h</text>
</a>
</g>
</g>
<!-- Node2 -->
<g id="node2" class="node">
<title>Node2</title>
<g id="a_node2"><a xlink:href="autoheader__external_8h_source.html" target="_top" xlink:title=" ">
<polygon fill="white" stroke="black" points="182.5,-0.5 182.5,-30.5 309.5,-30.5 309.5,-0.5 182.5,-0.5"/>
<text text-anchor="start" x="190.5" y="-18.5" font-family="Helvetica,sans-Serif" font-size="10.00">odp/helper/autoheader</text>
<text text-anchor="middle" x="246" y="-7.5" font-family="Helvetica,sans-Serif" font-size="10.00">_external.h</text>
</a>
</g>
</g>
<!-- Node1&#45;&gt;Node2 -->
<g id="edge1" class="edge">
<title>Node1&#45;&gt;Node2</title>
<path fill="none" stroke="midnightblue" d="M1169.82,-187.82C1064.58,-186.85 753.82,-180.78 661,-143 611.88,-123.01 617.37,-88.76 569,-67 488.75,-30.9 387.23,-20 319.64,-17.02"/>
<polygon fill="midnightblue" stroke="midnightblue" points="319.64,-13.52 309.51,-16.62 319.36,-20.51 319.64,-13.52"/>
</g>
<!-- Node3 -->
<g id="node3" class="node">
<title>Node3</title>
<g id="a_node3"><a xlink:href="odph__debug_8h.html" target="_top" xlink:title=" ">
<polygon fill="white" stroke="black" points="53,-123.5 53,-142.5 193,-142.5 193,-123.5 53,-123.5"/>
<text text-anchor="middle" x="123" y="-130.5" font-family="Helvetica,sans-Serif" font-size="10.00">odp/helper/odph_debug.h</text>
</a>
</g>
</g>
<!-- Node1&#45;&gt;Node3 -->
<g id="edge2" class="edge">
<title>Node1&#45;&gt;Node3</title>
<path fill="none" stroke="midnightblue" d="M1169.92,-186.25C1018.87,-178.71 421.75,-148.91 203.46,-138.02"/>
<polygon fill="midnightblue" stroke="midnightblue" points="203.52,-134.51 193.36,-137.51 203.17,-141.51 203.52,-134.51"/>
</g>
<!-- Node6 -->
<g id="node6" class="node">
<title>Node6</title>
<g id="a_node6"><a xlink:href="chksum_8h.html" target="_top" xlink:title=" ">
<polygon fill="white" stroke="black" points="1096.5,-67.5 1096.5,-86.5 1215.5,-86.5 1215.5,-67.5 1096.5,-67.5"/>
<text text-anchor="middle" x="1156" y="-74.5" font-family="Helvetica,sans-Serif" font-size="10.00">odp/helper/chksum.h</text>
</a>
</g>
</g>
<!-- Node1&#45;&gt;Node6 -->
<g id="edge6" class="edge">
<title>Node1&#45;&gt;Node6</title>
<path fill="none" stroke="midnightblue" d="M1201.16,-179.37C1193.18,-161.46 1174.67,-119.92 1164,-95.95"/>
<polygon fill="midnightblue" stroke="midnightblue" points="1167.09,-94.3 1159.83,-86.59 1160.7,-97.15 1167.09,-94.3"/>
</g>
<!-- Node8 -->
<g id="node8" class="node">
<title>Node8</title>
<g id="a_node8"><a xlink:href="odph__cuckootable_8h.html" target="_top" xlink:title=" ">
<polygon fill="white" stroke="black" points="1605,-123.5 1605,-142.5 1773,-142.5 1773,-123.5 1605,-123.5"/>
<text text-anchor="middle" x="1689" y="-130.5" font-family="Helvetica,sans-Serif" font-size="10.00">odp/helper/odph_cuckootable.h</text>
</a>
</g>
</g>
<!-- Node1&#45;&gt;Node8 -->
<g id="edge8" class="edge">
<title>Node1&#45;&gt;Node8</title>
<path fill="none" stroke="midnightblue" d="M1240.2,-184.07C1315.64,-175.66 1494.8,-155.67 1602.55,-143.64"/>
<polygon fill="midnightblue" stroke="midnightblue" points="1603.2,-147.09 1612.75,-142.51 1602.43,-140.14 1603.2,-147.09"/>
</g>
<!-- Node9 -->
<g id="node9" class="node">
<title>Node9</title>
<g id="a_node9"><a xlink:href="table_8h.html" target="_top" xlink:title=" ">
<polygon fill="white" stroke="black" points="1636.5,-67.5 1636.5,-86.5 1741.5,-86.5 1741.5,-67.5 1636.5,-67.5"/>
<text text-anchor="middle" x="1689" y="-74.5" font-family="Helvetica,sans-Serif" font-size="10.00">odp/helper/table.h</text>
</a>
</g>
</g>
<!-- Node1&#45;&gt;Node9 -->
<g id="edge38" class="edge">
<title>Node1&#45;&gt;Node9</title>
<path fill="none" stroke="midnightblue" d="M1240.2,-187.63C1304.72,-186.06 1445.61,-178.46 1558,-143 1576.2,-137.26 1578.96,-131.6 1596,-123 1617.95,-111.92 1643.06,-99.8 1661.66,-90.93"/>
<polygon fill="midnightblue" stroke="midnightblue" points="1663.21,-94.07 1670.73,-86.61 1660.2,-87.75 1663.21,-94.07"/>
</g>
<!-- Node11 -->
<g id="node11" class="node">
<title>Node11</title>
<g id="a_node11"><a xlink:href="strong__types_8h.html" target="_top" xlink:title=" ">
<polygon fill="white" stroke="black" points="1858.5,-6 1858.5,-25 2001.5,-25 2001.5,-6 1858.5,-6"/>
<text text-anchor="middle" x="1930" y="-13" font-family="Helvetica,sans-Serif" font-size="10.00">odp/helper/strong_types.h</text>
</a>
</g>
</g>
<!-- Node1&#45;&gt;Node11 -->
<g id="edge35" class="edge">
<title>Node1&#45;&gt;Node11</title>
<path fill="none" stroke="midnightblue" d="M1240.2,-187.67C1408,-185.94 2119.95,-176.61 2152,-143 2208.11,-84.16 2070.06,-44.72 1987.12,-27.07"/>
<polygon fill="midnightblue" stroke="midnightblue" points="1987.8,-23.64 1977.3,-25.03 1986.37,-30.49 1987.8,-23.64"/>
</g>
<!-- Node12 -->
<g id="node12" class="node">
<title>Node12</title>
<g id="a_node12"><a xlink:href="eth_8h.html" target="_top" xlink:title=" ">
<polygon fill="white" stroke="black" points="1272,-67.5 1272,-86.5 1368,-86.5 1368,-67.5 1272,-67.5"/>
<text text-anchor="middle" x="1320" y="-74.5" font-family="Helvetica,sans-Serif" font-size="10.00">odp/helper/eth.h</text>
</a>
</g>
</g>
<!-- Node1&#45;&gt;Node12 -->
<g id="edge12" class="edge">
<title>Node1&#45;&gt;Node12</title>
<path fill="none" stroke="midnightblue" d="M1240.07,-179.71C1260.86,-173.07 1286.15,-161.69 1302,-143 1312.99,-130.03 1317.31,-110.87 1318.98,-96.7"/>
<polygon fill="midnightblue" stroke="midnightblue" points="1322.48,-96.89 1319.84,-86.63 1315.5,-96.3 1322.48,-96.89"/>
</g>
<!-- Node13 -->
<g id="node13" class="node">
<title>Node13</title>
<g id="a_node13"><a xlink:href="gtp_8h.html" target="_top" xlink:title=" ">
<polygon fill="white" stroke="black" points="1386,-67.5 1386,-86.5 1482,-86.5 1482,-67.5 1386,-67.5"/>
<text text-anchor="middle" x="1434" y="-74.5" font-family="Helvetica,sans-Serif" font-size="10.00">odp/helper/gtp.h</text>
</a>
</g>
</g>
<!-- Node1&#45;&gt;Node13 -->
<g id="edge14" class="edge">
<title>Node1&#45;&gt;Node13</title>
<path fill="none" stroke="midnightblue" d="M1230.59,-179.48C1254.63,-171.16 1291.38,-157.66 1322,-143 1354.47,-127.45 1390.14,-105.93 1412.3,-91.98"/>
<polygon fill="midnightblue" stroke="midnightblue" points="1414.36,-94.82 1420.92,-86.51 1410.61,-88.91 1414.36,-94.82"/>
</g>
<!-- Node14 -->
<g id="node14" class="node">
<title>Node14</title>
<g id="a_node14"><a xlink:href="odph__hashtable_8h.html" target="_top" xlink:title=" ">
<polygon fill="white" stroke="black" points="1791,-123.5 1791,-142.5 1949,-142.5 1949,-123.5 1791,-123.5"/>
<text text-anchor="middle" x="1870" y="-130.5" font-family="Helvetica,sans-Serif" font-size="10.00">odp/helper/odph_hashtable.h</text>
</a>
</g>
</g>
<!-- Node1&#45;&gt;Node14 -->
<g id="edge16" class="edge">
<title>Node1&#45;&gt;Node14</title>
<path fill="none" stroke="midnightblue" d="M1240.15,-185.55C1328.85,-179.32 1569.18,-162.04 1780.8,-143.09"/>
<polygon fill="midnightblue" stroke="midnightblue" points="1781.21,-146.57 1790.85,-142.19 1780.58,-139.59 1781.21,-146.57"/>
</g>
<!-- Node15 -->
<g id="node15" class="node">
<title>Node15</title>
<g id="a_node15"><a xlink:href="icmp_8h.html" target="_top" xlink:title=" ">
<polygon fill="white" stroke="black" points="618,-67.5 618,-86.5 722,-86.5 722,-67.5 618,-67.5"/>
<text text-anchor="middle" x="670" y="-74.5" font-family="Helvetica,sans-Serif" font-size="10.00">odp/helper/icmp.h</text>
</a>
</g>
</g>
<!-- Node1&#45;&gt;Node15 -->
<g id="edge18" class="edge">
<title>Node1&#45;&gt;Node15</title>
<path fill="none" stroke="midnightblue" d="M1169.61,-187.62C1056.41,-186.06 708.59,-178.4 674,-143 662.29,-131.01 662.8,-111.12 665.3,-96.49"/>
<polygon fill="midnightblue" stroke="midnightblue" points="668.76,-97.06 667.44,-86.55 661.92,-95.59 668.76,-97.06"/>
</g>
<!-- Node16 -->
<g id="node16" class="node">
<title>Node16</title>
<g id="a_node16"><a xlink:href="igmp_8h.html" target="_top" xlink:title=" ">
<polygon fill="white" stroke="black" points="745.5,-67.5 745.5,-86.5 850.5,-86.5 850.5,-67.5 745.5,-67.5"/>
<text text-anchor="middle" x="798" y="-74.5" font-family="Helvetica,sans-Serif" font-size="10.00">odp/helper/igmp.h</text>
</a>
</g>
</g>
<!-- Node1&#45;&gt;Node16 -->
<g id="edge20" class="edge">
<title>Node1&#45;&gt;Node16</title>
<path fill="none" stroke="midnightblue" d="M1169.79,-187.65C1058.05,-186.17 716.8,-178.75 684,-143 660.74,-117.64 704.61,-99.58 744.5,-89.03"/>
<polygon fill="midnightblue" stroke="midnightblue" points="745.4,-92.41 754.24,-86.57 743.69,-85.62 745.4,-92.41"/>
</g>
<!-- Node17 -->
<g id="node17" class="node">
<title>Node17</title>
<g id="a_node17"><a xlink:href="ip_8h.html" target="_top" xlink:title=" ">
<polygon fill="white" stroke="black" points="1049.5,-123.5 1049.5,-142.5 1138.5,-142.5 1138.5,-123.5 1049.5,-123.5"/>
<text text-anchor="middle" x="1094" y="-130.5" font-family="Helvetica,sans-Serif" font-size="10.00">odp/helper/ip.h</text>
</a>
</g>
</g>
<!-- Node1&#45;&gt;Node17 -->
<g id="edge22" class="edge">
<title>Node1&#45;&gt;Node17</title>
<path fill="none" stroke="midnightblue" d="M1187.17,-179.32C1169.28,-170.62 1141.52,-157.12 1120.95,-147.11"/>
<polygon fill="midnightblue" stroke="midnightblue" points="1122.31,-143.88 1111.79,-142.65 1119.25,-150.18 1122.31,-143.88"/>
</g>
<!-- Node19 -->
<g id="node19" class="node">
<title>Node19</title>
<g id="a_node19"><a xlink:href="ipsec_8h.html" target="_top" xlink:title=" ">
<polygon fill="white" stroke="black" points="693,-123.5 693,-142.5 799,-142.5 799,-123.5 693,-123.5"/>
<text text-anchor="middle" x="746" y="-130.5" font-family="Helvetica,sans-Serif" font-size="10.00">odp/helper/ipsec.h</text>
</a>
</g>
</g>
<!-- Node1&#45;&gt;Node19 -->
<g id="edge26" class="edge">
<title>Node1&#45;&gt;Node19</title>
<path fill="none" stroke="midnightblue" d="M1169.91,-184.39C1102.26,-177.36 948.87,-161.04 809.12,-143.11"/>
<polygon fill="midnightblue" stroke="midnightblue" points="809.45,-139.62 799.08,-141.82 808.56,-146.57 809.45,-139.62"/>
</g>
<!-- Node20 -->
<g id="node20" class="node">
<title>Node20</title>
<g id="a_node20"><a xlink:href="odph__lineartable_8h.html" target="_top" xlink:title=" ">
<polygon fill="white" stroke="black" points="1387,-123.5 1387,-142.5 1549,-142.5 1549,-123.5 1387,-123.5"/>
<text text-anchor="middle" x="1468" y="-130.5" font-family="Helvetica,sans-Serif" font-size="10.00">odp/helper/odph_lineartable.h</text>
</a>
</g>
</g>
<!-- Node1&#45;&gt;Node20 -->
<g id="edge28" class="edge">
<title>Node1&#45;&gt;Node20</title>
<path fill="none" stroke="midnightblue" d="M1240.2,-180.77C1285.47,-171.48 1364.45,-155.26 1416.49,-144.58"/>
<polygon fill="midnightblue" stroke="midnightblue" points="1417.42,-147.96 1426.52,-142.52 1416.02,-141.1 1417.42,-147.96"/>
</g>
<!-- Node21 -->
<g id="node21" class="node">
<title>Node21</title>
<g id="a_node21"><a xlink:href="odph__iplookuptable_8h.html" target="_top" xlink:title=" ">
<polygon fill="white" stroke="black" points="1967,-123.5 1967,-142.5 2143,-142.5 2143,-123.5 1967,-123.5"/>
<text text-anchor="middle" x="2055" y="-130.5" font-family="Helvetica,sans-Serif" font-size="10.00">odp/helper/odph_iplookuptable.h</text>
</a>
</g>
</g>
<!-- Node1&#45;&gt;Node21 -->
<g id="edge31" class="edge">
<title>Node1&#45;&gt;Node21</title>
<path fill="none" stroke="midnightblue" d="M1240.31,-186.3C1346.75,-181.1 1674.02,-164.46 1956.94,-143.06"/>
<polygon fill="midnightblue" stroke="midnightblue" points="1957.28,-146.54 1966.98,-142.29 1956.75,-139.56 1957.28,-146.54"/>
</g>
<!-- Node22 -->
<g id="node22" class="node">
<title>Node22</title>
<g id="a_node22"><a xlink:href="sctp_8h.html" target="_top" xlink:title=" ">
<polygon fill="white" stroke="black" points="817.5,-123.5 817.5,-142.5 918.5,-142.5 918.5,-123.5 817.5,-123.5"/>
<text text-anchor="middle" x="868" y="-130.5" font-family="Helvetica,sans-Serif" font-size="10.00">odp/helper/sctp.h</text>
</a>
</g>
</g>
<!-- Node1&#45;&gt;Node22 -->
<g id="edge33" class="edge">
<title>Node1&#45;&gt;Node22</title>
<path fill="none" stroke="midnightblue" d="M1169.89,-182.37C1112.77,-173.22 999.03,-155 928.64,-143.72"/>
<polygon fill="midnightblue" stroke="midnightblue" points="929,-140.23 918.58,-142.1 927.9,-147.14 929,-140.23"/>
</g>
<!-- Node23 -->
<g id="node23" class="node">
<title>Node23</title>
<g id="a_node23"><a xlink:href="tcp_8h.html" target="_top" xlink:title=" ">
<polygon fill="white" stroke="black" points="936.5,-123.5 936.5,-142.5 1031.5,-142.5 1031.5,-123.5 936.5,-123.5"/>
<text text-anchor="middle" x="984" y="-130.5" font-family="Helvetica,sans-Serif" font-size="10.00">odp/helper/tcp.h</text>
</a>
</g>
</g>
<!-- Node1&#45;&gt;Node23 -->
<g id="edge36" class="edge">
<title>Node1&#45;&gt;Node23</title>
<path fill="none" stroke="midnightblue" d="M1169.98,-179.44C1131.75,-170.1 1070.43,-155.12 1028.74,-144.93"/>
<polygon fill="midnightblue" stroke="midnightblue" points="1029.4,-141.49 1018.85,-142.52 1027.74,-148.29 1029.4,-141.49"/>
</g>
<!-- Node24 -->
<g id="node24" class="node">
<title>Node24</title>
<g id="a_node24"><a xlink:href="threads_8h.html" target="_top" xlink:title=" ">
<polygon fill="white" stroke="black" points="395.5,-123.5 395.5,-142.5 512.5,-142.5 512.5,-123.5 395.5,-123.5"/>
<text text-anchor="middle" x="454" y="-130.5" font-family="Helvetica,sans-Serif" font-size="10.00">odp/helper/threads.h</text>
</a>
</g>
</g>
<!-- Node1&#45;&gt;Node24 -->
<g id="edge39" class="edge">
<title>Node1&#45;&gt;Node24</title>
<path fill="none" stroke="midnightblue" d="M1169.82,-185.52C1074.23,-178.79 801.66,-159.52 575,-143 558.21,-141.78 540.11,-140.44 523.16,-139.18"/>
<polygon fill="midnightblue" stroke="midnightblue" points="523,-135.66 512.77,-138.41 522.48,-142.64 523,-135.66"/>
</g>
<!-- Node29 -->
<g id="node29" class="node">
<title>Node29</title>
<g id="a_node29"><a xlink:href="udp_8h.html" target="_top" xlink:title=" ">
<polygon fill="white" stroke="black" points="1195,-123.5 1195,-142.5 1293,-142.5 1293,-123.5 1195,-123.5"/>
<text text-anchor="middle" x="1244" y="-130.5" font-family="Helvetica,sans-Serif" font-size="10.00">odp/helper/udp.h</text>
</a>
</g>
</g>
<!-- Node1&#45;&gt;Node29 -->
<g id="edge46" class="edge">
<title>Node1&#45;&gt;Node29</title>
<path fill="none" stroke="midnightblue" d="M1211.44,-179.08C1216.95,-171.46 1225.03,-160.26 1231.76,-150.94"/>
<polygon fill="midnightblue" stroke="midnightblue" points="1234.66,-152.91 1237.68,-142.75 1228.99,-148.81 1234.66,-152.91"/>
</g>
<!-- Node30 -->
<g id="node30" class="node">
<title>Node30</title>
<g id="a_node30"><a xlink:href="version_8h.html" target="_top" xlink:title=" ">
<polygon fill="white" stroke="black" points="2199,-123.5 2199,-142.5 2315,-142.5 2315,-123.5 2199,-123.5"/>
<text text-anchor="middle" x="2257" y="-130.5" font-family="Helvetica,sans-Serif" font-size="10.00">odp/helper/version.h</text>
</a>
</g>
</g>
<!-- Node1&#45;&gt;Node30 -->
<g id="edge49" class="edge">
<title>Node1&#45;&gt;Node30</title>
<path fill="none" stroke="midnightblue" d="M1240.22,-187.38C1367.61,-184.93 1816.32,-174.46 2185,-143 2186.27,-142.89 2187.55,-142.78 2188.85,-142.66"/>
<polygon fill="midnightblue" stroke="midnightblue" points="2189.28,-146.13 2198.88,-141.66 2188.59,-139.17 2189.28,-146.13"/>
</g>
<!-- Node3&#45;&gt;Node2 -->
<g id="edge3" class="edge">
<title>Node3&#45;&gt;Node2</title>
<path fill="none" stroke="midnightblue" d="M127.77,-123.23C135.28,-109.96 150.9,-84.47 169,-67 181.27,-55.16 196.67,-44.42 210.48,-35.92"/>
<polygon fill="midnightblue" stroke="midnightblue" points="212.48,-38.8 219.27,-30.67 208.89,-32.79 212.48,-38.8"/>
</g>
<!-- Node4 -->
<g id="node4" class="node">
<title>Node4</title>
<g id="a_node4"><a xlink:title=" ">
<polygon fill="white" stroke="#bfbfbf" points="0,-67.5 0,-86.5 50,-86.5 50,-67.5 0,-67.5"/>
<text text-anchor="middle" x="25" y="-74.5" font-family="Helvetica,sans-Serif" font-size="10.00">stdio.h</text>
</a>
</g>
</g>
<!-- Node3&#45;&gt;Node4 -->
<g id="edge4" class="edge">
<title>Node3&#45;&gt;Node4</title>
<path fill="none" stroke="midnightblue" d="M107.25,-123.32C91.68,-114.74 67.62,-101.49 49.54,-91.52"/>
<polygon fill="midnightblue" stroke="midnightblue" points="51.15,-88.42 40.71,-86.65 47.78,-94.55 51.15,-88.42"/>
</g>
<!-- Node5 -->
<g id="node5" class="node">
<title>Node5</title>
<g id="a_node5"><a xlink:title=" ">
<polygon fill="white" stroke="#bfbfbf" points="68.5,-67.5 68.5,-86.5 121.5,-86.5 121.5,-67.5 68.5,-67.5"/>
<text text-anchor="middle" x="95" y="-74.5" font-family="Helvetica,sans-Serif" font-size="10.00">stdlib.h</text>
</a>
</g>
</g>
<!-- Node3&#45;&gt;Node5 -->
<g id="edge5" class="edge">
<title>Node3&#45;&gt;Node5</title>
<path fill="none" stroke="midnightblue" d="M118.38,-123.08C114.54,-115.69 108.98,-104.95 104.24,-95.81"/>
<polygon fill="midnightblue" stroke="midnightblue" points="107.25,-94.02 99.54,-86.75 101.03,-97.24 107.25,-94.02"/>
</g>
<!-- Node7 -->
<g id="node7" class="node">
<title>Node7</title>
<g id="a_node7"><a xlink:title=" ">
<polygon fill="white" stroke="#bfbfbf" points="946,-6 946,-25 1010,-25 1010,-6 946,-6"/>
<text text-anchor="middle" x="978" y="-13" font-family="Helvetica,sans-Serif" font-size="10.00">odp_api.h</text>
</a>
</g>
</g>
<!-- Node6&#45;&gt;Node7 -->
<g id="edge7" class="edge">
<title>Node6&#45;&gt;Node7</title>
<path fill="none" stroke="midnightblue" d="M1130.5,-67.48C1099.7,-57.18 1047.73,-39.81 1013.15,-28.25"/>
<polygon fill="midnightblue" stroke="midnightblue" points="1014.05,-24.86 1003.46,-25.01 1011.83,-31.5 1014.05,-24.86"/>
</g>
<!-- Node8&#45;&gt;Node9 -->
<g id="edge9" class="edge">
<title>Node8&#45;&gt;Node9</title>
<path fill="none" stroke="midnightblue" d="M1689,-123.08C1689,-116.01 1689,-105.86 1689,-96.99"/>
<polygon fill="midnightblue" stroke="midnightblue" points="1692.5,-96.75 1689,-86.75 1685.5,-96.75 1692.5,-96.75"/>
</g>
<!-- Node10 -->
<g id="node10" class="node">
<title>Node10</title>
<g id="a_node10"><a xlink:title=" ">
<polygon fill="white" stroke="#bfbfbf" points="1530.5,-6 1530.5,-25 1583.5,-25 1583.5,-6 1530.5,-6"/>
<text text-anchor="middle" x="1557" y="-13" font-family="Helvetica,sans-Serif" font-size="10.00">stdint.h</text>
</a>
</g>
</g>
<!-- Node9&#45;&gt;Node10 -->
<g id="edge10" class="edge">
<title>Node9&#45;&gt;Node10</title>
<path fill="none" stroke="midnightblue" d="M1670.09,-67.48C1647.84,-57.45 1610.69,-40.7 1585.07,-29.15"/>
<polygon fill="midnightblue" stroke="midnightblue" points="1586.43,-25.93 1575.88,-25.01 1583.56,-32.31 1586.43,-25.93"/>
</g>
<!-- Node9&#45;&gt;Node11 -->
<g id="edge11" class="edge">
<title>Node9&#45;&gt;Node11</title>
<path fill="none" stroke="midnightblue" d="M1723.53,-67.48C1766.21,-56.94 1838.92,-38.99 1885.68,-27.44"/>
<polygon fill="midnightblue" stroke="midnightblue" points="1886.67,-30.8 1895.53,-25.01 1884.99,-24.01 1886.67,-30.8"/>
</g>
<!-- Node12&#45;&gt;Node7 -->
<g id="edge13" class="edge">
<title>Node12&#45;&gt;Node7</title>
<path fill="none" stroke="midnightblue" d="M1271.73,-67.6C1204.57,-55.92 1084.06,-34.95 1020.27,-23.85"/>
<polygon fill="midnightblue" stroke="midnightblue" points="1020.62,-20.36 1010.17,-22.1 1019.42,-27.26 1020.62,-20.36"/>
</g>
<!-- Node13&#45;&gt;Node7 -->
<g id="edge15" class="edge">
<title>Node13&#45;&gt;Node7</title>
<path fill="none" stroke="midnightblue" d="M1385.81,-68.29C1382.83,-67.84 1379.88,-67.41 1377,-67 1247.2,-48.54 1093.16,-29.99 1020.26,-21.42"/>
<polygon fill="midnightblue" stroke="midnightblue" points="1020.45,-17.91 1010.11,-20.22 1019.63,-24.87 1020.45,-17.91"/>
</g>
<!-- Node14&#45;&gt;Node9 -->
<g id="edge17" class="edge">
<title>Node14&#45;&gt;Node9</title>
<path fill="none" stroke="midnightblue" d="M1841.32,-123.44C1810.47,-114.24 1761.27,-99.56 1727.17,-89.39"/>
<polygon fill="midnightblue" stroke="midnightblue" points="1728.13,-86.02 1717.55,-86.52 1726.13,-92.73 1728.13,-86.02"/>
</g>
<!-- Node15&#45;&gt;Node7 -->
<g id="edge19" class="edge">
<title>Node15&#45;&gt;Node7</title>
<path fill="none" stroke="midnightblue" d="M714.13,-67.48C773.29,-56.05 877.58,-35.9 935.76,-24.66"/>
<polygon fill="midnightblue" stroke="midnightblue" points="936.56,-28.07 945.72,-22.74 935.24,-21.2 936.56,-28.07"/>
</g>
<!-- Node16&#45;&gt;Node7 -->
<g id="edge21" class="edge">
<title>Node16&#45;&gt;Node7</title>
<path fill="none" stroke="midnightblue" d="M823.79,-67.48C854.93,-57.18 907.48,-39.81 942.45,-28.25"/>
<polygon fill="midnightblue" stroke="midnightblue" points="943.86,-31.47 952.26,-25.01 941.66,-24.82 943.86,-31.47"/>
</g>
<!-- Node17&#45;&gt;Node6 -->
<g id="edge24" class="edge">
<title>Node17&#45;&gt;Node6</title>
<path fill="none" stroke="midnightblue" d="M1103.96,-123.32C1113.13,-115.34 1126.94,-103.31 1138.03,-93.65"/>
<polygon fill="midnightblue" stroke="midnightblue" points="1140.62,-96.04 1145.86,-86.83 1136.02,-90.76 1140.62,-96.04"/>
</g>
<!-- Node17&#45;&gt;Node7 -->
<g id="edge23" class="edge">
<title>Node17&#45;&gt;Node7</title>
<path fill="none" stroke="midnightblue" d="M1072.33,-123.44C1055.36,-115.87 1032.01,-103.48 1016,-87 1001.36,-71.93 990.76,-50.08 984.54,-34.71"/>
<polygon fill="midnightblue" stroke="midnightblue" points="987.77,-33.36 980.93,-25.27 981.23,-35.86 987.77,-33.36"/>
</g>
<!-- Node18 -->
<g id="node18" class="node">
<title>Node18</title>
<g id="a_node18"><a xlink:title=" ">
<polygon fill="white" stroke="#bfbfbf" points="1025.5,-67.5 1025.5,-86.5 1078.5,-86.5 1078.5,-67.5 1025.5,-67.5"/>
<text text-anchor="middle" x="1052" y="-74.5" font-family="Helvetica,sans-Serif" font-size="10.00">string.h</text>
</a>
</g>
</g>
<!-- Node17&#45;&gt;Node18 -->
<g id="edge25" class="edge">
<title>Node17&#45;&gt;Node18</title>
<path fill="none" stroke="midnightblue" d="M1087.06,-123.08C1081.07,-115.38 1072.25,-104.03 1064.95,-94.65"/>
<polygon fill="midnightblue" stroke="midnightblue" points="1067.71,-92.5 1058.81,-86.75 1062.18,-96.79 1067.71,-92.5"/>
</g>
<!-- Node19&#45;&gt;Node7 -->
<g id="edge27" class="edge">
<title>Node19&#45;&gt;Node7</title>
<path fill="none" stroke="midnightblue" d="M770.72,-123.42C793.94,-115.06 829.44,-101.53 859,-87 894.39,-69.6 933.34,-45.52 956.72,-30.48"/>
<polygon fill="midnightblue" stroke="midnightblue" points="958.68,-33.39 965.16,-25.01 954.87,-27.51 958.68,-33.39"/>
</g>
<!-- Node20&#45;&gt;Node9 -->
<g id="edge30" class="edge">
<title>Node20&#45;&gt;Node9</title>
<path fill="none" stroke="midnightblue" d="M1503.02,-123.44C1541.25,-114.1 1602.57,-99.12 1644.26,-88.93"/>
<polygon fill="midnightblue" stroke="midnightblue" points="1645.26,-92.29 1654.15,-86.52 1643.6,-85.49 1645.26,-92.29"/>
</g>
<!-- Node20&#45;&gt;Node10 -->
<g id="edge29" class="edge">
<title>Node20&#45;&gt;Node10</title>
<path fill="none" stroke="midnightblue" d="M1474.69,-123.32C1489.38,-104.26 1524.68,-58.45 1543.93,-33.46"/>
<polygon fill="midnightblue" stroke="midnightblue" points="1546.9,-35.34 1550.23,-25.28 1541.36,-31.07 1546.9,-35.34"/>
</g>
<!-- Node21&#45;&gt;Node9 -->
<g id="edge32" class="edge">
<title>Node21&#45;&gt;Node9</title>
<path fill="none" stroke="midnightblue" d="M1997.01,-123.44C1930.19,-113.59 1820.79,-97.44 1751.95,-87.29"/>
<polygon fill="midnightblue" stroke="midnightblue" points="1752.08,-83.77 1741.68,-85.77 1751.06,-90.69 1752.08,-83.77"/>
</g>
<!-- Node22&#45;&gt;Node7 -->
<g id="edge34" class="edge">
<title>Node22&#45;&gt;Node7</title>
<path fill="none" stroke="midnightblue" d="M876.27,-123.32C894.58,-104.09 938.82,-57.64 962.47,-32.81"/>
<polygon fill="midnightblue" stroke="midnightblue" points="965.27,-34.94 969.64,-25.28 960.21,-30.11 965.27,-34.94"/>
</g>
<!-- Node23&#45;&gt;Node7 -->
<g id="edge37" class="edge">
<title>Node23&#45;&gt;Node7</title>
<path fill="none" stroke="midnightblue" d="M983.55,-123.32C982.58,-104.76 980.3,-60.84 978.99,-35.47"/>
<polygon fill="midnightblue" stroke="midnightblue" points="982.47,-35.09 978.46,-25.28 975.48,-35.45 982.47,-35.09"/>
</g>
<!-- Node25 -->
<g id="node25" class="node">
<title>Node25</title>
<g id="a_node25"><a xlink:href="deprecated_8h.html" target="_top" xlink:title=" ">
<polygon fill="white" stroke="black" points="178.5,-67.5 178.5,-86.5 313.5,-86.5 313.5,-67.5 178.5,-67.5"/>
<text text-anchor="middle" x="246" y="-74.5" font-family="Helvetica,sans-Serif" font-size="10.00">odp/helper/deprecated.h</text>
</a>
</g>
</g>
<!-- Node24&#45;&gt;Node25 -->
<g id="edge40" class="edge">
<title>Node24&#45;&gt;Node25</title>
<path fill="none" stroke="midnightblue" d="M421.04,-123.44C385.21,-114.14 327.84,-99.25 288.61,-89.06"/>
<polygon fill="midnightblue" stroke="midnightblue" points="289.36,-85.64 278.8,-86.52 287.6,-92.42 289.36,-85.64"/>
</g>
<!-- Node26 -->
<g id="node26" class="node">
<title>Node26</title>
<g id="a_node26"><a xlink:href="pthread_8h.html" target="_top" xlink:title=" ">
<polygon fill="white" stroke="black" points="422.5,-67.5 422.5,-86.5 485.5,-86.5 485.5,-67.5 422.5,-67.5"/>
<text text-anchor="middle" x="454" y="-74.5" font-family="Helvetica,sans-Serif" font-size="10.00">pthread.h</text>
</a>
</g>
</g>
<!-- Node24&#45;&gt;Node26 -->
<g id="edge42" class="edge">
<title>Node24&#45;&gt;Node26</title>
<path fill="none" stroke="midnightblue" d="M448.83,-123.08C447.32,-115.93 446.89,-105.64 447.54,-96.69"/>
<polygon fill="midnightblue" stroke="midnightblue" points="451.02,-97.13 448.87,-86.75 444.08,-96.2 451.02,-97.13"/>
</g>
<!-- Node27 -->
<g id="node27" class="node">
<title>Node27</title>
<g id="a_node27"><a xlink:title=" ">
<polygon fill="white" stroke="#bfbfbf" points="503.5,-67.5 503.5,-86.5 560.5,-86.5 560.5,-67.5 503.5,-67.5"/>
<text text-anchor="middle" x="532" y="-74.5" font-family="Helvetica,sans-Serif" font-size="10.00">getopt.h</text>
</a>
</g>
</g>
<!-- Node24&#45;&gt;Node27 -->
<g id="edge44" class="edge">
<title>Node24&#45;&gt;Node27</title>
<path fill="none" stroke="midnightblue" d="M466.53,-123.32C478.59,-114.98 497.03,-102.21 511.27,-92.35"/>
<polygon fill="midnightblue" stroke="midnightblue" points="513.27,-95.22 519.5,-86.65 509.28,-89.47 513.27,-95.22"/>
</g>
<!-- Node28 -->
<g id="node28" class="node">
<title>Node28</title>
<g id="a_node28"><a xlink:title=" ">
<polygon fill="white" stroke="#bfbfbf" points="332,-67.5 332,-86.5 404,-86.5 404,-67.5 332,-67.5"/>
<text text-anchor="middle" x="368" y="-74.5" font-family="Helvetica,sans-Serif" font-size="10.00">sys/types.h</text>
</a>
</g>
</g>
<!-- Node24&#45;&gt;Node28 -->
<g id="edge45" class="edge">
<title>Node24&#45;&gt;Node28</title>
<path fill="none" stroke="midnightblue" d="M440.18,-123.32C426.77,-114.9 406.18,-101.97 390.41,-92.07"/>
<polygon fill="midnightblue" stroke="midnightblue" points="392.11,-89.01 381.78,-86.65 388.39,-94.94 392.11,-89.01"/>
</g>
<!-- Node25&#45;&gt;Node2 -->
<g id="edge41" class="edge">
<title>Node25&#45;&gt;Node2</title>
<path fill="none" stroke="midnightblue" d="M246,-67.48C246,-60.47 246,-50.19 246,-40.7"/>
<polygon fill="midnightblue" stroke="midnightblue" points="249.5,-40.52 246,-30.52 242.5,-40.52 249.5,-40.52"/>
</g>
<!-- Node26&#45;&gt;Node24 -->
<g id="edge43" class="edge">
<title>Node26&#45;&gt;Node24</title>
<path fill="none" stroke="midnightblue" d="M459.13,-86.75C460.66,-93.86 461.1,-104.14 460.47,-113.1"/>
<polygon fill="midnightblue" stroke="midnightblue" points="456.99,-112.71 459.17,-123.08 463.93,-113.62 456.99,-112.71"/>
</g>
<!-- Node29&#45;&gt;Node6 -->
<g id="edge48" class="edge">
<title>Node29&#45;&gt;Node6</title>
<path fill="none" stroke="midnightblue" d="M1229.86,-123.32C1216.13,-114.9 1195.06,-101.97 1178.94,-92.07"/>
<polygon fill="midnightblue" stroke="midnightblue" points="1180.46,-88.9 1170.1,-86.65 1176.8,-94.87 1180.46,-88.9"/>
</g>
<!-- Node29&#45;&gt;Node7 -->
<g id="edge47" class="edge">
<title>Node29&#45;&gt;Node7</title>
<path fill="none" stroke="midnightblue" d="M1243.98,-123.39C1243.45,-109.39 1240.26,-81.77 1224,-67 1194.64,-40.33 1082.72,-26.06 1020.45,-20.04"/>
<polygon fill="midnightblue" stroke="midnightblue" points="1020.45,-16.52 1010.16,-19.07 1019.79,-23.49 1020.45,-16.52"/>
</g>
</g>
</svg>
