<?xml version="1.0" encoding="UTF-8" standalone="no"?>
<!DOCTYPE svg PUBLIC "-//W3C//DTD SVG 1.1//EN"
 "http://www.w3.org/Graphics/SVG/1.1/DTD/svg11.dtd">
<!-- Generated by graphviz version 2.43.0 (0)
 -->
<!-- Title: pthread.h Pages: 1 -->
<svg width="309pt" height="207pt"
 viewBox="0.00 0.00 308.50 207.00" xmlns="http://www.w3.org/2000/svg" xmlns:xlink="http://www.w3.org/1999/xlink">
<g id="graph0" class="graph" transform="scale(1 1) rotate(0) translate(4 203)">
<title>pthread.h</title>
<polygon fill="white" stroke="transparent" points="-4,4 -4,-203 304.5,-203 304.5,4 -4,4"/>
<!-- Node1 -->
<g id="node1" class="node">
<title>Node1</title>
<g id="a_node1"><a xlink:title=" ">
<polygon fill="#bfbfbf" stroke="black" points="150,-179.5 150,-198.5 213,-198.5 213,-179.5 150,-179.5"/>
<text text-anchor="middle" x="181.5" y="-186.5" font-family="Helvetica,sans-Serif" font-size="10.00">pthread.h</text>
</a>
</g>
</g>
<!-- Node2 -->
<g id="node2" class="node">
<title>Node2</title>
<g id="a_node2"><a xlink:href="threads_8h.html" target="_top" xlink:title=" ">
<polygon fill="white" stroke="black" points="123,-123.5 123,-142.5 240,-142.5 240,-123.5 123,-123.5"/>
<text text-anchor="middle" x="181.5" y="-130.5" font-family="Helvetica,sans-Serif" font-size="10.00">odp/helper/threads.h</text>
</a>
</g>
</g>
<!-- Node1&#45;&gt;Node2 -->
<g id="edge1" class="edge">
<title>Node1&#45;&gt;Node2</title>
<path fill="none" stroke="midnightblue" d="M176.33,-179.08C174.82,-171.93 174.39,-161.64 175.04,-152.69"/>
<polygon fill="midnightblue" stroke="midnightblue" points="178.52,-153.13 176.37,-142.75 171.58,-152.2 178.52,-153.13"/>
</g>
<!-- Node2&#45;&gt;Node1 -->
<g id="edge4" class="edge">
<title>Node2&#45;&gt;Node1</title>
<path fill="none" stroke="midnightblue" d="M186.63,-142.75C188.16,-149.86 188.6,-160.14 187.97,-169.1"/>
<polygon fill="midnightblue" stroke="midnightblue" points="184.49,-168.71 186.67,-179.08 191.43,-169.62 184.49,-168.71"/>
</g>
<!-- Node3 -->
<g id="node3" class="node">
<title>Node3</title>
<g id="a_node3"><a xlink:href="deprecated_8h.html" target="_top" xlink:title=" ">
<polygon fill="white" stroke="black" points="0,-67.5 0,-86.5 135,-86.5 135,-67.5 0,-67.5"/>
<text text-anchor="middle" x="67.5" y="-74.5" font-family="Helvetica,sans-Serif" font-size="10.00">odp/helper/deprecated.h</text>
</a>
</g>
</g>
<!-- Node2&#45;&gt;Node3 -->
<g id="edge2" class="edge">
<title>Node2&#45;&gt;Node3</title>
<path fill="none" stroke="midnightblue" d="M163.44,-123.44C144.93,-114.68 115.92,-100.94 94.64,-90.86"/>
<polygon fill="midnightblue" stroke="midnightblue" points="96.01,-87.63 85.48,-86.52 93.02,-93.96 96.01,-87.63"/>
</g>
<!-- Node5 -->
<g id="node5" class="node">
<title>Node5</title>
<g id="a_node5"><a xlink:title=" ">
<polygon fill="white" stroke="#bfbfbf" points="153,-67.5 153,-86.5 210,-86.5 210,-67.5 153,-67.5"/>
<text text-anchor="middle" x="181.5" y="-74.5" font-family="Helvetica,sans-Serif" font-size="10.00">getopt.h</text>
</a>
</g>
</g>
<!-- Node2&#45;&gt;Node5 -->
<g id="edge5" class="edge">
<title>Node2&#45;&gt;Node5</title>
<path fill="none" stroke="midnightblue" d="M181.5,-123.08C181.5,-116.01 181.5,-105.86 181.5,-96.99"/>
<polygon fill="midnightblue" stroke="midnightblue" points="185,-96.75 181.5,-86.75 178,-96.75 185,-96.75"/>
</g>
<!-- Node6 -->
<g id="node6" class="node">
<title>Node6</title>
<g id="a_node6"><a xlink:title=" ">
<polygon fill="white" stroke="#bfbfbf" points="228.5,-67.5 228.5,-86.5 300.5,-86.5 300.5,-67.5 228.5,-67.5"/>
<text text-anchor="middle" x="264.5" y="-74.5" font-family="Helvetica,sans-Serif" font-size="10.00">sys/types.h</text>
</a>
</g>
</g>
<!-- Node2&#45;&gt;Node6 -->
<g id="edge6" class="edge">
<title>Node2&#45;&gt;Node6</title>
<path fill="none" stroke="midnightblue" d="M194.84,-123.32C207.66,-114.98 227.28,-102.21 242.44,-92.35"/>
<polygon fill="midnightblue" stroke="midnightblue" points="244.72,-95.04 251.2,-86.65 240.91,-89.17 244.72,-95.04"/>
</g>
<!-- Node4 -->
<g id="node4" class="node">
<title>Node4</title>
<g id="a_node4"><a xlink:href="autoheader__external_8h_source.html" target="_top" xlink:title=" ">
<polygon fill="white" stroke="black" points="4,-0.5 4,-30.5 131,-30.5 131,-0.5 4,-0.5"/>
<text text-anchor="start" x="12" y="-18.5" font-family="Helvetica,sans-Serif" font-size="10.00">odp/helper/autoheader</text>
<text text-anchor="middle" x="67.5" y="-7.5" font-family="Helvetica,sans-Serif" font-size="10.00">_external.h</text>
</a>
</g>
</g>
<!-- Node3&#45;&gt;Node4 -->
<g id="edge3" class="edge">
<title>Node3&#45;&gt;Node4</title>
<path fill="none" stroke="midnightblue" d="M67.5,-67.48C67.5,-60.47 67.5,-50.19 67.5,-40.7"/>
<polygon fill="midnightblue" stroke="midnightblue" points="71,-40.52 67.5,-30.52 64,-40.52 71,-40.52"/>
</g>
</g>
</svg>
