<?xml version="1.0" encoding="UTF-8" standalone="no"?>
<!DOCTYPE svg PUBLIC "-//W3C//DTD SVG 1.1//EN"
 "http://www.w3.org/Graphics/SVG/1.1/DTD/svg11.dtd">
<!-- Generated by graphviz version 2.43.0 (0)
 -->
<!-- Title: threads.h Pages: 1 -->
<svg width="390pt" height="151pt"
 viewBox="0.00 0.00 389.50 151.00" xmlns="http://www.w3.org/2000/svg" xmlns:xlink="http://www.w3.org/1999/xlink">
<g id="graph0" class="graph" transform="scale(1 1) rotate(0) translate(4 147)">
<title>threads.h</title>
<polygon fill="white" stroke="transparent" points="-4,4 -4,-147 385.5,-147 385.5,4 -4,4"/>
<!-- Node1 -->
<g id="node1" class="node">
<title>Node1</title>
<g id="a_node1"><a xlink:title=" ">
<polygon fill="#bfbfbf" stroke="black" points="153.5,-123.5 153.5,-142.5 215.5,-142.5 215.5,-123.5 153.5,-123.5"/>
<text text-anchor="middle" x="184.5" y="-130.5" font-family="Helvetica,sans-Serif" font-size="10.00">threads.h</text>
</a>
</g>
</g>
<!-- Node2 -->
<g id="node2" class="node">
<title>Node2</title>
<g id="a_node2"><a xlink:href="deprecated_8h.html" target="_top" xlink:title=" ">
<polygon fill="white" stroke="black" points="0,-67.5 0,-86.5 135,-86.5 135,-67.5 0,-67.5"/>
<text text-anchor="middle" x="67.5" y="-74.5" font-family="Helvetica,sans-Serif" font-size="10.00">odp/helper/deprecated.h</text>
</a>
</g>
</g>
<!-- Node1&#45;&gt;Node2 -->
<g id="edge1" class="edge">
<title>Node1&#45;&gt;Node2</title>
<path fill="none" stroke="midnightblue" d="M165.96,-123.44C146.88,-114.64 116.93,-100.81 95.06,-90.72"/>
<polygon fill="midnightblue" stroke="midnightblue" points="96.5,-87.53 85.95,-86.52 93.57,-93.88 96.5,-87.53"/>
</g>
<!-- Node4 -->
<g id="node4" class="node">
<title>Node4</title>
<g id="a_node4"><a xlink:href="pthread_8h.html" target="_top" xlink:title=" ">
<polygon fill="white" stroke="black" points="153,-67.5 153,-86.5 216,-86.5 216,-67.5 153,-67.5"/>
<text text-anchor="middle" x="184.5" y="-74.5" font-family="Helvetica,sans-Serif" font-size="10.00">pthread.h</text>
</a>
</g>
</g>
<!-- Node1&#45;&gt;Node4 -->
<g id="edge3" class="edge">
<title>Node1&#45;&gt;Node4</title>
<path fill="none" stroke="midnightblue" d="M179.33,-123.08C177.82,-115.93 177.39,-105.64 178.04,-96.69"/>
<polygon fill="midnightblue" stroke="midnightblue" points="181.52,-97.13 179.37,-86.75 174.58,-96.2 181.52,-97.13"/>
</g>
<!-- Node5 -->
<g id="node5" class="node">
<title>Node5</title>
<g id="a_node5"><a xlink:title=" ">
<polygon fill="white" stroke="#bfbfbf" points="234,-67.5 234,-86.5 291,-86.5 291,-67.5 234,-67.5"/>
<text text-anchor="middle" x="262.5" y="-74.5" font-family="Helvetica,sans-Serif" font-size="10.00">getopt.h</text>
</a>
</g>
</g>
<!-- Node1&#45;&gt;Node5 -->
<g id="edge5" class="edge">
<title>Node1&#45;&gt;Node5</title>
<path fill="none" stroke="midnightblue" d="M197.03,-123.32C209.09,-114.98 227.53,-102.21 241.77,-92.35"/>
<polygon fill="midnightblue" stroke="midnightblue" points="243.77,-95.22 250,-86.65 239.78,-89.47 243.77,-95.22"/>
</g>
<!-- Node6 -->
<g id="node6" class="node">
<title>Node6</title>
<g id="a_node6"><a xlink:title=" ">
<polygon fill="white" stroke="#bfbfbf" points="309.5,-67.5 309.5,-86.5 381.5,-86.5 381.5,-67.5 309.5,-67.5"/>
<text text-anchor="middle" x="345.5" y="-74.5" font-family="Helvetica,sans-Serif" font-size="10.00">sys/types.h</text>
</a>
</g>
</g>
<!-- Node1&#45;&gt;Node6 -->
<g id="edge6" class="edge">
<title>Node1&#45;&gt;Node6</title>
<path fill="none" stroke="midnightblue" d="M210.01,-123.44C237.1,-114.36 280.09,-99.94 310.37,-89.78"/>
<polygon fill="midnightblue" stroke="midnightblue" points="311.74,-93.01 320.11,-86.52 309.51,-86.38 311.74,-93.01"/>
</g>
<!-- Node3 -->
<g id="node3" class="node">
<title>Node3</title>
<g id="a_node3"><a xlink:href="autoheader__external_8h_source.html" target="_top" xlink:title=" ">
<polygon fill="white" stroke="black" points="4,-0.5 4,-30.5 131,-30.5 131,-0.5 4,-0.5"/>
<text text-anchor="start" x="12" y="-18.5" font-family="Helvetica,sans-Serif" font-size="10.00">odp/helper/autoheader</text>
<text text-anchor="middle" x="67.5" y="-7.5" font-family="Helvetica,sans-Serif" font-size="10.00">_external.h</text>
</a>
</g>
</g>
<!-- Node2&#45;&gt;Node3 -->
<g id="edge2" class="edge">
<title>Node2&#45;&gt;Node3</title>
<path fill="none" stroke="midnightblue" d="M67.5,-67.48C67.5,-60.47 67.5,-50.19 67.5,-40.7"/>
<polygon fill="midnightblue" stroke="midnightblue" points="71,-40.52 67.5,-30.52 64,-40.52 71,-40.52"/>
</g>
<!-- Node4&#45;&gt;Node1 -->
<g id="edge4" class="edge">
<title>Node4&#45;&gt;Node1</title>
<path fill="none" stroke="midnightblue" d="M189.63,-86.75C191.16,-93.86 191.6,-104.14 190.97,-113.1"/>
<polygon fill="midnightblue" stroke="midnightblue" points="187.49,-112.71 189.67,-123.08 194.43,-113.62 187.49,-112.71"/>
</g>
</g>
</svg>
